<svg xmlns="http://www.w3.org/2000/svg" xmlns:xlink="http://www.w3.org/1999/xlink" viewBox="0 0 133.61 176.44"><defs><linearGradient id="linear-gradient" x1="46.77" y1="-9.11" x2="94.19" y2="-9.11" gradientTransform="matrix(1, -0.07, 0.07, 1, -7.36, 49.38)" gradientUnits="userSpaceOnUse"><stop offset="0" stop-color="#34264c"/><stop offset="1" stop-color="#523a80"/></linearGradient><linearGradient id="linear-gradient-2" x1="38.9" y1="45.43" x2="94.01" y2="45.43" gradientTransform="matrix(1, -0.07, 0.07, 1, -7.36, 49.38)" gradientUnits="userSpaceOnUse"><stop offset="0" stop-color="#e2dae5"/><stop offset="1" stop-color="#f7f4fa"/></linearGradient><linearGradient id="linear-gradient-3" x1="22.25" y1="19.96" x2="37.76" y2="19.96" gradientTransform="matrix(1, -0.07, 0.07, 1, -7.36, 49.38)" gradientUnits="userSpaceOnUse"><stop offset="0" stop-color="#c9b8d3"/><stop offset="1" stop-color="#c9b8d3" stop-opacity="0.3"/></linearGradient><linearGradient id="linear-gradient-4" x1="20.1" y1="34.83" x2="85.34" y2="34.83" xlink:href="#linear-gradient-3"/><linearGradient id="linear-gradient-5" x1="43.21" y1="84.01" x2="56.61" y2="84.01" gradientTransform="matrix(1, -0.07, 0.07, 1, -7.36, 49.38)" gradientUnits="userSpaceOnUse"><stop offset="0" stop-color="#c9b8d3" stop-opacity="0.9"/><stop offset="1" stop-color="#c9b8d3" stop-opacity="0.3"/></linearGradient><linearGradient id="linear-gradient-6" x1="54.49" y1="56.05" x2="95.13" y2="56.05" xlink:href="#linear-gradient-5"/><linearGradient id="linear-gradient-7" x1="89.74" y1="76.79" x2="107.35" y2="76.79" xlink:href="#linear-gradient-5"/><linearGradient id="linear-gradient-8" x1="117.98" y1="44.57" x2="102.37" y2="52.77" gradientTransform="matrix(1, -0.07, 0.07, 1, -7.36, 49.38)" gradientUnits="userSpaceOnUse"><stop offset="0" stop-color="#fff"/><stop offset="1" stop-color="#fff" stop-opacity="0"/></linearGradient><linearGradient id="linear-gradient-9" x1="44.79" y1="-8.17" x2="55.2" y2="9.1" xlink:href="#linear-gradient-3"/><linearGradient id="linear-gradient-10" x1="96.81" y1="-17.02" x2="87.67" y2="-0.78" xlink:href="#linear-gradient-8"/><linearGradient id="linear-gradient-11" x1="46.16" y1="33.24" x2="86.18" y2="33.24" xlink:href="#linear-gradient"/><linearGradient id="linear-gradient-12" x1="53.08" y1="34.49" x2="100.2" y2="32.52" gradientTransform="matrix(1, -0.07, 0.07, 1, -7.36, 49.38)" gradientUnits="userSpaceOnUse"><stop offset="0" stop-color="#2d2244"/><stop offset="1" stop-color="#3e2c5e" stop-opacity="0"/></linearGradient><linearGradient id="linear-gradient-13" x1="50.14" y1="-9.14" x2="58.02" y2="16.83" gradientTransform="matrix(1, -0.07, 0.07, 1, -7.36, 49.38)" gradientUnits="userSpaceOnUse"><stop offset="0" stop-color="#ce1f3c"/><stop offset="1" stop-color="#ec2530"/></linearGradient><linearGradient id="linear-gradient-14" x1="84.41" y1="-20.84" x2="89.24" y2="1.34" xlink:href="#linear-gradient-13"/><linearGradient id="linear-gradient-15" x1="56.85" y1="17.85" x2="80.08" y2="16.38" gradientTransform="matrix(1, -0.07, 0.07, 1, -7.36, 49.38)" gradientUnits="userSpaceOnUse"><stop offset="0" stop-color="#a193ad"/><stop offset="1" stop-color="#cec4d6"/></linearGradient><linearGradient id="linear-gradient-16" x1="73.6" y1="26.4" x2="70.43" y2="1.84" xlink:href="#linear-gradient-2"/><linearGradient id="linear-gradient-17" x1="57.96" y1="28.95" x2="70.68" y2="17.38" gradientTransform="matrix(1, -0.07, 0.07, 1, -7.36, 49.38)" gradientUnits="userSpaceOnUse"><stop offset="0" stop-color="#cec4d6"/><stop offset="1" stop-color="#cec4d6" stop-opacity="0"/></linearGradient><linearGradient id="linear-gradient-18" x1="64.01" y1="23.94" x2="62.32" y2="12.59" gradientTransform="matrix(1, -0.07, 0.07, 1, -7.36, 49.38)" gradientUnits="userSpaceOnUse"><stop offset="0" stop-color="#34264c"/><stop offset="1" stop-color="#442b69"/></linearGradient><linearGradient id="linear-gradient-19" x1="71.57" y1="22.82" x2="69.88" y2="11.47" xlink:href="#linear-gradient-18"/><linearGradient id="linear-gradient-20" x1="66.66" y1="19.41" x2="65.83" y2="10.74" xlink:href="#linear-gradient-15"/><linearGradient id="linear-gradient-21" x1="77.19" y1="13.06" x2="80.13" y2="9.91" gradientTransform="matrix(1, -0.07, 0.07, 1, -7.36, 49.38)" gradientUnits="userSpaceOnUse"><stop offset="0" stop-color="#3393b8"/><stop offset="1" stop-color="#50c7e4"/></linearGradient><linearGradient id="linear-gradient-22" x1="78.16" y1="18.02" x2="81.47" y2="18.02" gradientTransform="matrix(1, -0.07, 0.07, 1, -7.36, 49.38)" gradientUnits="userSpaceOnUse"><stop offset="0" stop-color="#ad519f"/><stop offset="1" stop-color="#b85ea4"/></linearGradient><linearGradient id="linear-gradient-23" x1="78.74" y1="-1.11" x2="84.87" y2="-2.7" gradientTransform="matrix(1, -0.07, 0.07, 1, -7.36, 49.38)" gradientUnits="userSpaceOnUse"><stop offset="0" stop-color="#27499f"/><stop offset="1" stop-color="#3567b1"/></linearGradient><linearGradient id="linear-gradient-24" x1="52.95" y1="3.1" x2="64.51" y2="0.26" xlink:href="#linear-gradient"/><linearGradient id="linear-gradient-25" x1="55.52" y1="-11.67" x2="86.05" y2="-11.67" xlink:href="#linear-gradient"/><linearGradient id="linear-gradient-26" x1="51.86" y1="-20.28" x2="48.49" y2="-19.44" xlink:href="#linear-gradient-2"/><linearGradient id="linear-gradient-27" x1="86.06" y1="-28.64" x2="89.01" y2="-29.25" xlink:href="#linear-gradient-2"/><linearGradient id="linear-gradient-28" x1="59.39" y1="-43.07" x2="69.17" y2="-43.07" xlink:href="#linear-gradient-2"/><linearGradient id="linear-gradient-29" x1="53.39" y1="-24.17" x2="86.51" y2="-35.32" xlink:href="#linear-gradient-2"/><linearGradient id="linear-gradient-30" x1="61.94" y1="-14.12" x2="70.14" y2="-43.19" gradientTransform="matrix(1, -0.07, 0.07, 1, -7.36, 49.38)" gradientUnits="userSpaceOnUse"><stop offset="0" stop-color="#c9b8d3"/><stop offset="1" stop-color="#c9b8d3" stop-opacity="0"/></linearGradient><linearGradient id="linear-gradient-31" x1="61.37" y1="-9.55" x2="78.71" y2="-13.86" xlink:href="#linear-gradient-2"/><linearGradient id="linear-gradient-32" x1="51.08" y1="-20.44" x2="91.13" y2="-27.59" gradientTransform="matrix(1, -0.07, 0.07, 1, -7.36, 49.38)" gradientUnits="userSpaceOnUse"><stop offset="0" stop-color="#201d21"/><stop offset="1" stop-color="#534c57"/></linearGradient><linearGradient id="linear-gradient-33" x1="45.74" y1="-21.46" x2="64.45" y2="-22.49" gradientTransform="matrix(1, -0.07, 0.07, 1, -7.36, 49.38)" gradientUnits="userSpaceOnUse"><stop offset="0" stop-color="#131213"/><stop offset="1" stop-color="#131213" stop-opacity="0"/></linearGradient><linearGradient id="linear-gradient-34" x1="73.26" y1="-37.55" x2="78.52" y2="-22.1" gradientTransform="matrix(1, -0.07, 0.07, 1, -7.36, 49.38)" gradientUnits="userSpaceOnUse"><stop offset="0" stop-color="#ede7f2"/><stop offset="1" stop-color="#ede7f2" stop-opacity="0"/></linearGradient><linearGradient id="linear-gradient-35" x1="80.62" y1="-25.58" x2="85.88" y2="-18.33" xlink:href="#linear-gradient-34"/><linearGradient id="linear-gradient-36" x1="91.48" y1="48.87" x2="112.33" y2="48.87" xlink:href="#linear-gradient"/><linearGradient id="linear-gradient-37" x1="51.74" y1="63.13" x2="30.21" y2="49.65" xlink:href="#linear-gradient"/><linearGradient id="linear-gradient-38" x1="103.1" y1="15.12" x2="100.9" y2="-4.28" xlink:href="#linear-gradient"/><linearGradient id="linear-gradient-39" x1="38.71" y1="13.13" x2="42.39" y2="13.13" xlink:href="#linear-gradient"/><linearGradient id="linear-gradient-40" x1="53.16" y1="2.71" x2="64.73" y2="-0.13" xlink:href="#linear-gradient-15"/><linearGradient id="linear-gradient-41" x1="36.6" y1="13.76" x2="17.99" y2="-4.7" xlink:href="#linear-gradient-2"/><linearGradient id="linear-gradient-42" x1="17.97" y1="-8.72" x2="23.16" y2="-8.72" xlink:href="#linear-gradient-2"/><linearGradient id="linear-gradient-43" x1="13.99" y1="-1.85" x2="19.56" y2="-1.85" xlink:href="#linear-gradient-2"/><linearGradient id="linear-gradient-44" x1="10.64" y1="7.32" x2="18.76" y2="7.32" xlink:href="#linear-gradient-2"/><linearGradient id="linear-gradient-45" x1="11.13" y1="15.55" x2="21.1" y2="15.55" xlink:href="#linear-gradient-2"/><linearGradient id="linear-gradient-46" x1="30.33" y1="-4.9" x2="26.07" y2="10.87" xlink:href="#linear-gradient-3"/><linearGradient id="linear-gradient-47" x1="42.54" y1="11.06" x2="29.92" y2="2.02" xlink:href="#linear-gradient-3"/><linearGradient id="linear-gradient-48" x1="34.51" y1="-6.85" x2="35.56" y2="-12.63" xlink:href="#linear-gradient"/><linearGradient id="linear-gradient-49" x1="19.28" y1="-7.44" x2="23.16" y2="-7.44" xlink:href="#linear-gradient"/><linearGradient id="linear-gradient-50" x1="14.7" y1="-1.24" x2="19.51" y2="-1.24" xlink:href="#linear-gradient"/><linearGradient id="linear-gradient-51" x1="14.86" y1="8.62" x2="18.76" y2="8.62" xlink:href="#linear-gradient"/><linearGradient id="linear-gradient-52" x1="16.34" y1="16.33" x2="21.1" y2="16.33" xlink:href="#linear-gradient"/><linearGradient id="linear-gradient-53" x1="643.65" y1="-4.35" x2="625.05" y2="-22.81" gradientTransform="matrix(-0.99, 0.12, 0.12, 0.99, 736.95, -21.26)" xlink:href="#linear-gradient-2"/><linearGradient id="linear-gradient-54" x1="625.02" y1="-26.83" x2="630.22" y2="-26.83" gradientTransform="matrix(-0.99, 0.12, 0.12, 0.99, 736.95, -21.26)" xlink:href="#linear-gradient-2"/><linearGradient id="linear-gradient-55" x1="621.04" y1="-19.96" x2="626.61" y2="-19.96" gradientTransform="matrix(-0.99, 0.12, 0.12, 0.99, 736.95, -21.26)" xlink:href="#linear-gradient-2"/><linearGradient id="linear-gradient-56" x1="617.7" y1="-10.79" x2="625.81" y2="-10.79" gradientTransform="matrix(-0.99, 0.12, 0.12, 0.99, 736.95, -21.26)" xlink:href="#linear-gradient-2"/><linearGradient id="linear-gradient-57" x1="618.18" y1="-2.56" x2="628.15" y2="-2.56" gradientTransform="matrix(-0.99, 0.12, 0.12, 0.99, 736.95, -21.26)" xlink:href="#linear-gradient-2"/><linearGradient id="linear-gradient-58" x1="637.38" y1="-23.01" x2="633.13" y2="-7.24" gradientTransform="matrix(-0.99, 0.12, 0.12, 0.99, 736.95, -21.26)" xlink:href="#linear-gradient-3"/><linearGradient id="linear-gradient-59" x1="649.59" y1="-7.05" x2="636.98" y2="-16.09" gradientTransform="matrix(-0.99, 0.12, 0.12, 0.99, 736.95, -21.26)" xlink:href="#linear-gradient-3"/><linearGradient id="linear-gradient-60" x1="641.56" y1="-24.96" x2="642.61" y2="-30.74" gradientTransform="matrix(-0.99, 0.12, 0.12, 0.99, 736.95, -21.26)" xlink:href="#linear-gradient"/><linearGradient id="linear-gradient-61" x1="626.33" y1="-25.56" x2="630.22" y2="-25.56" gradientTransform="matrix(-0.99, 0.12, 0.12, 0.99, 736.95, -21.26)" xlink:href="#linear-gradient"/><linearGradient id="linear-gradient-62" x1="621.75" y1="-19.35" x2="626.56" y2="-19.35" gradientTransform="matrix(-0.99, 0.12, 0.12, 0.99, 736.95, -21.26)" xlink:href="#linear-gradient"/><linearGradient id="linear-gradient-63" x1="621.91" y1="-9.49" x2="625.81" y2="-9.49" gradientTransform="matrix(-0.99, 0.12, 0.12, 0.99, 736.95, -21.26)" xlink:href="#linear-gradient"/><linearGradient id="linear-gradient-64" x1="623.39" y1="-1.78" x2="628.15" y2="-1.78" gradientTransform="matrix(-0.99, 0.12, 0.12, 0.99, 736.95, -21.26)" xlink:href="#linear-gradient"/><linearGradient id="linear-gradient-65" x1="96.33" y1="85.41" x2="132.96" y2="85.41" xlink:href="#linear-gradient-2"/><linearGradient id="linear-gradient-66" x1="95.33" y1="109.89" x2="137.91" y2="74.41" gradientTransform="matrix(1, -0.07, 0.07, 1, -7.36, 49.38)" gradientUnits="userSpaceOnUse"><stop offset="0" stop-color="#bcafc4"/><stop offset="1" stop-color="#ded1e7"/></linearGradient><linearGradient id="linear-gradient-67" x1="-544.58" y1="347.43" x2="-507.94" y2="347.43" gradientTransform="matrix(-0.82, 0.57, 0.57, 0.82, -601.42, 167.34)" xlink:href="#linear-gradient-2"/><linearGradient id="linear-gradient-68" x1="6.88" y1="111.22" x2="56.97" y2="104.12" xlink:href="#linear-gradient-66"/><linearGradient id="linear-gradient-69" x1="125.32" y1="11.11" x2="21.13" y2="83.09" gradientTransform="matrix(1, -0.07, 0.07, 1, -7.36, 49.38)" gradientUnits="userSpaceOnUse"><stop offset="0" stop-color="#171348"/><stop offset="0.89" stop-color="#010101" stop-opacity="0"/></linearGradient><linearGradient id="linear-gradient-70" x1="115.94" y1="7.5" x2="12.51" y2="104.49" gradientTransform="matrix(1, -0.07, 0.07, 1, -7.36, 49.38)" gradientUnits="userSpaceOnUse"><stop offset="0" stop-color="#171348"/><stop offset="1" stop-color="#171348"/></linearGradient></defs><g style="isolation:isolate"><g id="Layer_1" data-name="Layer 1"><path d="M40.71,46.1S38,38,38.9,36.79s12.71-6.31,27.81-9.52,15.82-2,17-1.13,2.59,10.1,2.56,12S40.71,46.1,40.71,46.1Z" transform="translate(0.83)" style="fill:url(#linear-gradient)"/><path d="M112.27,107.89l-1,2.31-7.32,16.15-7,15.47c-3.48-2.45-4.57-11.39-4.4-18.2a54.55,54.55,0,0,0-.77-11.32,15,15,0,0,1-5.14-4.54,26.75,26.75,0,0,1-2.07-3.22h0c-.45-.82-.68-1.35-.68-1.35-8.19.4-13.77-4.91-15.1-5.76s-3.79-.06-6.26,5.48c-2.22,5-7.85,7-9,7.36l-.19.06c-.24,1.34-.49,2.55-.75,3.64-2.09,8.83-4.64,10-4.64,10-.28,2.86,1.43,7,2,12.35a106.79,106.79,0,0,1,0,13.6l-7.37-4.58L28.07,136.4S22.61,123.49,23,119.2a12.16,12.16,0,0,1,.73-3.26,14.92,14.92,0,0,1,1.39-2.83h0a11.85,11.85,0,0,1,1-1.39s0-.69,0-1.77c0-.48.05-1,.09-1.64a33.55,33.55,0,0,1,.62-4.55,10.39,10.39,0,0,1,.33-1.16,12.68,12.68,0,0,1,.84-1.9,14,14,0,0,1,1-1.56h0l0,0,0,0v0h0l0,0a.76.76,0,0,1,.08-.11l.08-.1c.09-.13.19-.25.28-.36a14.49,14.49,0,0,1,1.11-1.23h0s.33-1.13.77-2.75c.34-1.25.74-2.79,1.12-4.33.87-3.54.78-4.8,3-6.53s2.77-3.15,4.07-4.18h0l.06,0c.76-.58,2.14-1.46,3.21-2.11h0c.83-.51,1.47-.88,1.47-.88a14.11,14.11,0,0,1,.79-4.64,6.25,6.25,0,0,1-.64-1.5c-.21-.67-.34-1.28-.34-1.28-.37.25-.73.47-1.08.67h0C39.28,71.75,36.57,71,36.57,71a14.88,14.88,0,0,1-3,.91,13.84,13.84,0,0,1-3.87.19A18.75,18.75,0,0,1,18.9,66.84l3.33-4.71,7.34-10.4a8.58,8.58,0,0,1,2.92,1.05h0q.34.22.6.42h0l.26.23a3.2,3.2,0,0,1,.62.78h0l0,.05h0a6.14,6.14,0,0,1,.1-.68,4.41,4.41,0,0,1,.43-1.26,2,2,0,0,1,.11-.2,3.05,3.05,0,0,1,.68-.76,2,2,0,0,1,.82-.4c0-.21.05-.42.08-.62,1.05-7.67,6-7.85,6-7.85,1-5.76,6.87-5.85,6.87-5.85s1.23.3,3.18.57h0a40.19,40.19,0,0,0,12.64-.06,17.51,17.51,0,0,0,9.71-5.4,11,11,0,0,0,1-1.35c4.83-1.11,8.56,5,8.56,5,2.76,0,5,1.85,6.25,3.23a11.6,11.6,0,0,1,1.18,1.48l.1-.12a8,8,0,0,1,1-1.06h0l0,0h0l.19-.16h0a10,10,0,0,1,1.79-1.11,10.92,10.92,0,0,1,2.78-.93l6.51,13.47L105.53,53a10.07,10.07,0,0,1-5.33,6.51,13,13,0,0,1-1.3.58,9,9,0,0,1-1,.3c-3.66.85-7.67-.78-10-2h0l-.09-.05,0,0-.15-.08a16.91,16.91,0,0,1-1.57-.93,12.77,12.77,0,0,1,.54,2h0c0,.13,0,.27.07.4a23.11,23.11,0,0,1,.11,6,19.24,19.24,0,0,1,1.13,4.57,4.38,4.38,0,0,1-.41,2.91s0,0,0,.06a2.58,2.58,0,0,1,.36-.2h0a7.74,7.74,0,0,1,1.28-.43l.26-.06h0c.32-.06.67-.11,1.06-.15h0a13.67,13.67,0,0,1,5.63.83h0l.18.07.34.12c6,2.28,8.56,11.91,8.56,11.91a10.3,10.3,0,0,1,2.66,2.8A17.89,17.89,0,0,1,111,96.44C111.56,102.09,112.27,107.89,112.27,107.89Z" transform="translate(0.83)" style="fill:url(#linear-gradient-2)"/><path d="M29.69,72.11A18.75,18.75,0,0,1,18.9,66.84l3.33-4.71a13.72,13.72,0,0,0,7.12,4.95,10.67,10.67,0,0,0,3.32.29A16.47,16.47,0,0,1,29.69,72.11Z" transform="translate(0.83)" style="fill:url(#linear-gradient-3)"/><path d="M83.78,72.53l-5,7.59s-4.42,7.12-12.69,6.42S50.35,78.29,44.42,81.7s-9.37,11.07-9.37,11.07l3.41-1s-6,4-7.06,6.47a1.14,1.14,0,0,0,.17,1.43L28,100.7a14,14,0,0,1,1-1.56h0l0,0,0,0v0h0l0,0a.76.76,0,0,1,.08-.11l.08-.1c.09-.13.19-.25.28-.36a14.49,14.49,0,0,1,1.11-1.23h0s.33-1.13.77-2.75c.34-1.25.74-2.79,1.12-4.33.87-3.54.78-4.8,3-6.53s2.77-3.15,4.07-4.18h0l.06,0c.76-.58,2.14-1.46,3.21-2.11h0c.83-.51,1.47-.88,1.47-.88a14.11,14.11,0,0,1,.79-4.64,6.25,6.25,0,0,1-.64-1.5c-.21-.67-.34-1.28-.34-1.28-.37.25-.73.47-1.08.67h0C39.28,71.75,36.57,71,36.57,71a14.88,14.88,0,0,1-3,.91,17.79,17.79,0,0,0,1.84-5.18,7.54,7.54,0,0,0,2.07-1.17A4.11,4.11,0,0,0,41,66.75c2.51-.17,7.42-2.4,7.39-5.09a17.69,17.69,0,0,0,12,12.14C70.49,76.91,79.62,74.08,83.78,72.53Z" transform="translate(0.83)" style="fill:url(#linear-gradient-4)"/><path d="M47.93,124c-.28,2.86,1.43,7,2,12.35a106.79,106.79,0,0,1,0,13.6l-7.37-4.58c1.71-4.69-.51-11.76-.74-17-.28-6.46,3.65-6.73,3.65-6.73a10.89,10.89,0,0,1,3.36-12.1A22.14,22.14,0,0,1,52.57,114C50.48,122.8,47.93,124,47.93,124Z" transform="translate(0.83)" style="fill:url(#linear-gradient-5)"/><path d="M87.59,97.3a26.09,26.09,0,0,0-3.09,7.24c-.45-.82-.68-1.35-.68-1.35-8.19.4-13.77-4.91-15.1-5.76s-3.79-.06-6.26,5.48c-2.22,5-7.85,7-9,7.36-.47-.6-1.25-1.58-2.29-2.72,1.93-1.92,3.55-4.65,6.21-8.88a14.48,14.48,0,0,1,9.95-7c3.43-.71,5,1.4,12.82,4.81A12.12,12.12,0,0,0,87.59,97.3Z" transform="translate(0.83)" style="fill:url(#linear-gradient-6)"/><path d="M103.9,126.35l-7,15.47c-3.48-2.45-4.57-11.39-4.4-18.2a54.55,54.55,0,0,0-.77-11.32,15,15,0,0,1-5.14-4.54,60.81,60.81,0,0,1,6.69-10.85c-1.12,4.56,1.09,8.1,3.7,11.24a46,46,0,0,0,.57,13.08C98.42,125.17,101.71,126.15,103.9,126.35Z" transform="translate(0.83)" style="fill:url(#linear-gradient-7)"/><path d="M112.27,107.89l-1,2.31c-2-2.21-3.7-6.88-4.6-13.3-1.23-8.77-6.63-10-6.63-10,2.14-7-2.75-12.65-3.69-13.64l.34.12c6,2.28,8.56,11.91,8.56,11.91a10.3,10.3,0,0,1,2.66,2.8A17.89,17.89,0,0,1,111,96.44C111.56,102.09,112.27,107.89,112.27,107.89Z" transform="translate(0.83)" style="fill:url(#linear-gradient-8)"/><path d="M46,41.6c.53,3.13,5.75,3.24,5.75,3.24-3.25,1-6,.73-9.31.17s-5.64,5.44-4.73,5.83,1.78,1.95,1.78,1.95c-2.61-1.24-3,.05-2.18,2.84a24.18,24.18,0,0,1,.49,7.08c-.52-2.9-2.42-6.82-3.64-9.13a4.41,4.41,0,0,1,.43-1.26,2,2,0,0,1,.11-.2,3.05,3.05,0,0,1,.68-.76,2,2,0,0,1,.82-.4c0-.21.05-.42.08-.62,1.05-7.67,6-7.85,6-7.85,1-5.76,6.87-5.85,6.87-5.85s1.23.3,3.18.57C49.88,36.9,45.42,38.48,46,41.6Z" transform="translate(0.83)" style="fill:url(#linear-gradient-9)"/><path d="M91.78,39.94l-.12.6a10.59,10.59,0,0,0-8.37-3.07C82.68,40.2,78,40.68,78,40.68s3.66-2,3.19-4.33-6.47-4.45-6.47-4.45a.88.88,0,0,1,0-.15,11,11,0,0,0,1-1.35c4.83-1.11,8.56,5,8.56,5,2.76,0,5,1.85,6.25,3.23a11.6,11.6,0,0,1,1.18,1.48Z" transform="translate(0.83)" style="fill:url(#linear-gradient-10)"/><path d="M30,104c-.11.26-3.69,8.88-6.29,11.91h0a14.92,14.92,0,0,1,1.39-2.83h0a11.85,11.85,0,0,1,1-1.39s0-.69,0-1.77c0-.48.05-1,.09-1.64A12.31,12.31,0,0,0,30,104Z" transform="translate(0.83)" style="fill:#cec4d6"/><path d="M95.22,56a26.23,26.23,0,0,0,2.67,4.47c-3.66.85-7.67-.78-10-2h0l-.09-.05,0,0-.15-.08a16.91,16.91,0,0,1-1.57-.93,12.77,12.77,0,0,1,.54,2h0c0,.13,0,.27.07.4C82,53.18,79.9,44.62,79.8,44.21c.14.41,3.15,8.85,10.4,11.13A12.79,12.79,0,0,0,95.22,56Z" transform="translate(0.83)" style="fill:#e6dfe9"/><path d="M105.53,53a10.07,10.07,0,0,1-5.33,6.51,24.79,24.79,0,0,1-2.51-4.11,12.8,12.8,0,0,0,6.43-5.31Z" transform="translate(0.83)" style="fill:#e6dfe9"/><path d="M89.13,72.59h0s-6.72,3.76-7.8,5-2,3.05-7.16,4.63a35.69,35.69,0,0,1-4.36,1c-4.49.76-10.08.79-14.66-1.79a13.07,13.07,0,0,0-5.86-4.86,45.9,45.9,0,0,0,6.06.94l.57,0a7.91,7.91,0,0,0,.86,0,3,3,0,0,1,1-.86,16,16,0,0,1,3.8-.22h.74c1.07,0,2.26,0,3.5-.16S68,76.06,69,75.93l.73-.1c1.73-.25,3-.49,3.33-.51a2.66,2.66,0,0,1,1.82.68l.14.13L75.5,76c.58-.21,1.63-.6,2.91-1.1l.54-.22,1.15-.46.4-.17h0c1-.4,2-.84,3-1.3l.31-.15a29.65,29.65,0,0,0,4.13-2.3c0,.23,0,.45,0,.65a3.85,3.85,0,0,1-.45,2.26s0,0,0,.06a2.58,2.58,0,0,1,.36-.2h0A7.74,7.74,0,0,1,89.13,72.59Z" transform="translate(0.83)" style="fill:url(#linear-gradient-11)"/><path d="M88,70.91c-1.65,1-7.62,4.53-12.41,5.74l-.08,2.11c0-.23-.06-2.63-5-1.85a76.09,76.09,0,0,1-10.22.86s1.39,6.11,9.54,5.46c-4.49.76-10.08.79-14.66-1.79a13.07,13.07,0,0,0-5.86-4.86,45.9,45.9,0,0,0,6.06.94l.57,0a7.91,7.91,0,0,0,.86,0,3,3,0,0,1,1-.86,16,16,0,0,1,3.8-.22h.74c1.07,0,2.26,0,3.5-.16S68,76.06,69,75.93l.73-.1c1.73-.25,3-.49,3.33-.51a2.66,2.66,0,0,1,1.82.68l.14.13L75.5,76c.58-.21,1.63-.6,2.91-1.1l.54-.22,1.15-.46.4-.17h0c1-.4,2-.84,3-1.3l.31-.15a29.65,29.65,0,0,0,4.13-2.3C87.94,70.49,88,70.71,88,70.91Z" transform="translate(0.83)" style="fill:url(#linear-gradient-12)"/><path d="M62.36,76.44V83l-.75-6.55Z" transform="translate(0.83)" style="fill:#5d499e"/><path d="M69.73,75.83l-.28,6.69L69,75.93Z" transform="translate(0.83)" style="fill:#5d499e"/><path d="M55.92,77.55l-.38,2.75-.19-2.78Z" transform="translate(0.83)" style="fill:#5d499e"/><path d="M75.18,80.86c0-1.9-.2-3.87-.3-4.86l.14.13L75.5,76A19.38,19.38,0,0,1,75.18,80.86Z" transform="translate(0.83)" style="fill:#5d499e"/><path d="M79,74.64l-.28,4.09-.26-3.87Z" transform="translate(0.83)" style="fill:#5d499e"/><path d="M80.5,74l-.21,3-.19-2.86Z" transform="translate(0.83)" style="fill:#5d499e"/><path d="M83.79,72.56l-.16,2.35-.15-2.2Z" transform="translate(0.83)" style="fill:#5d499e"/><path d="M60.05,83.79c-3.41,1-7.43-6.92-14-6.31a22,22,0,0,0-6.41,1.9l.06,0c.76-.58,2.14-1.46,3.21-2.11h0a12.83,12.83,0,0,1,5.75-.7C53.4,76.76,56.7,83.39,60.05,83.79Z" transform="translate(0.83)" style="fill:#aca5b5"/><path d="M96.12,73.2C86.84,72,78.06,81.3,78.06,81.3c3.82-4.94,7.19-7.15,9.45-8.13l.32-.14h0a11.84,11.84,0,0,1,1.54-.49h0a5.06,5.06,0,0,1,1.06-.15h0A13.67,13.67,0,0,1,96.12,73.2Z" transform="translate(0.83)" style="fill:#aca5b5"/><polygon points="29.77 99.14 29.77 99.14 29.77 99.14 29.77 99.14" style="fill:#aca5b5"/><path d="M38.46,91.75A24.64,24.64,0,0,0,29,99.09a14,14,0,0,1,1.64-1.91s.33-1.13.77-2.75A36.27,36.27,0,0,1,38.46,91.75Z" transform="translate(0.83)" style="fill:#aca5b5"/><path d="M28,108a18.12,18.12,0,0,1-3,5.16,11.85,11.85,0,0,1,1-1.39s0-.69,0-1.77A6.65,6.65,0,0,0,28,108Z" transform="translate(0.83)" style="fill:#aca5b5"/><path d="M92.81,38.88c-.36.33-3.33,3.33-2.42,12.34,0,0-1.9-6.75.11-12.64a11.6,11.6,0,0,1,1.18,1.48A8,8,0,0,1,92.81,38.88Z" transform="translate(0.83)" style="fill:#c0b9cd"/><path d="M92.83,38.87h0Z" transform="translate(0.83)" style="fill:#aca5b5"/><path d="M34,54.22a7.94,7.94,0,0,0-.88-1A3.26,3.26,0,0,1,34,54.22Z" transform="translate(0.83)" style="fill:#aca5b5"/><path d="M37.75,62.71C36.31,58.07,35,55.58,34,54.26h0a5.14,5.14,0,0,1,.53-1.94A35.42,35.42,0,0,1,37.75,62.71Z" transform="translate(0.83)" style="fill:#aca5b5"/><path d="M39.41,52.32a4.17,4.17,0,0,0-4.08-1,2,2,0,0,1,.82-.4c0-.21.05-.42.08-.62A5,5,0,0,1,39.41,52.32Z" transform="translate(0.83)" style="fill:#aca5b5"/><path d="M48.54,65.77a39.76,39.76,0,0,1-4,4.42c-.21-.67-.34-1.28-.34-1.28C43.81,69.16,48.54,65.77,48.54,65.77Z" transform="translate(0.83)" style="fill:#aca5b5"/><path d="M86.07,57.36a12.77,12.77,0,0,1,.54,2,14.72,14.72,0,0,1-2.85-5.19,10.28,10.28,0,0,0,3.88,4.17A16.91,16.91,0,0,1,86.07,57.36Z" transform="translate(0.83)" style="fill:#aca5b5"/><path d="M53.13,69.29l1.5,2.23c-2.4,1.9-6.66,4.4-9,4.72s-3.79-.06-4-1.46c-.19-1.07,1.7-2.9,2.62-3.72.29-.26.48-.41.48-.41l.49,1s-2.78,2.86-.92,3.2l.2,0c2.23.18,8.6-5.82,8.6-5.82" transform="translate(0.83)" style="fill:#34264c"/><path d="M44.24,74.89h0s-1.7.14-1.63-1.13a6.47,6.47,0,0,1,1.58-2.7c.29-.26.48-.41.48-.41l.49,1S42.38,74.55,44.24,74.89Z" transform="translate(0.83)" style="fill:#52357f"/><path d="M91.8,67a7.15,7.15,0,0,1-2.41,2c-3,1.7-9.15.3-9.15.3L79.54,66a16.79,16.79,0,0,0,7.87,1.84,7.26,7.26,0,0,0,2.1-.41c1.35-.5,1.6-1.33,1.23-1.87-.53-.76-3.92-.16-3.92-.16l.08-2.74a15.08,15.08,0,0,1,3,.48,3.37,3.37,0,0,1,1.89,1.08A2.3,2.3,0,0,1,91.8,67Z" transform="translate(0.83)" style="fill:#34264c"/><path d="M91.8,67a3.35,3.35,0,0,1-2.29.43c2.58-.77,1-3.35.35-4.29a3.37,3.37,0,0,1,1.89,1.08A2.3,2.3,0,0,1,91.8,67Z" transform="translate(0.83)" style="fill:#52357f"/><path d="M47.24,34.05s-4.67,2.09-4.12,12.49,9.14,15.81,9.14,15.81l.15,2.2S45.79,62.48,42.05,54s-.81-18.91,5.05-21Z" transform="translate(0.83)" style="fill:url(#linear-gradient-13)"/><path d="M75.47,26.94s6,2.28,8.6,10.48S82,51.31,77.37,55l1.5,3.53s8.2-5,9-13.73S82.63,27.88,76.55,24.5Z" transform="translate(0.83)" style="fill:url(#linear-gradient-14)"/><path d="M80.49,70.7c0,.47-4.15,1.19-5.75,1.48a176.7,176.7,0,0,1-19.8,2.48.54.54,0,0,1-.54-.37,93.26,93.26,0,0,1-3.51-16.13c-.21-1.62-.37-3.26-.5-4.91a1.07,1.07,0,0,1,.78-1.13,95.35,95.35,0,0,1,26-3.86,1.09,1.09,0,0,1,1.06.85C79.63,55.41,80.73,67.21,80.49,70.7Z" transform="translate(0.83)" style="fill:url(#linear-gradient-15)"/><path d="M80.24,69.29c0,.48-4.16,1.19-5.76,1.49a178.59,178.59,0,0,1-19.79,2.47.51.51,0,0,1-.54-.37,91.52,91.52,0,0,1-3.51-16.12c-.21-1.63-.38-3.27-.51-4.91a1.08,1.08,0,0,1,.79-1.13,95.7,95.7,0,0,1,26-3.87,1.1,1.1,0,0,1,1.06.86C79.38,54,80.48,65.8,80.24,69.29Z" transform="translate(0.83)" style="fill:url(#linear-gradient-16)"/><path d="M74.48,70.78A176.39,176.39,0,0,1,55,73.23a.86.86,0,0,1-.89-.61,91.23,91.23,0,0,1-3.43-15.86C54.07,62.69,61.62,72.13,74.48,70.78Z" transform="translate(0.83)" style="fill:url(#linear-gradient-17)"/><path d="M53.83,55.13s1.42,9.23,2.88,14.5l1.88-.28s-1.58-9.22-2-14.88Z" transform="translate(0.83)" style="fill:url(#linear-gradient-18)"/><path d="M61.46,53.5s1.32,10,2.59,14.84l2.2-.3s-1.59-9.38-2-15Z" transform="translate(0.83)" style="fill:url(#linear-gradient-19)"/><path d="M58.12,55.47s.39,3.45.87,5.79L60.86,61,60,55.19A11.49,11.49,0,0,0,58.12,55.47Z" transform="translate(0.83)" style="fill:url(#linear-gradient-20)"/><path d="M74,54.78a1.65,1.65,0,1,1-1.76-1.54A1.66,1.66,0,0,1,74,54.78Z" transform="translate(0.83)" style="fill:url(#linear-gradient-21)"/><path d="M75.15,61.82a1.66,1.66,0,1,1-1.77-1.54A1.66,1.66,0,0,1,75.15,61.82Z" transform="translate(0.83)" style="fill:url(#linear-gradient-22)"/><path d="M78.49,41.36a3.39,3.39,0,1,1-3.61-3.15A3.38,3.38,0,0,1,78.49,41.36Z" transform="translate(0.83)" style="fill:url(#linear-gradient-23)"/><path d="M49.57,49.78c1.55-.36,5.32-1.12,9.43-2a1,1,0,0,0,.79-1.33L59,43.84a.8.8,0,0,0-.91-.63c-1.86.31-6.67.63-9.64,1.62-.37.12-.78.21-.55,1.42a23.28,23.28,0,0,0,.72,3A.81.81,0,0,0,49.57,49.78Z" transform="translate(0.83)" style="fill:url(#linear-gradient-24)"/><path d="M47.24,34.05a16.05,16.05,0,0,0,1.61,3.72S65,45.2,77.59,30.43a19.77,19.77,0,0,0-1.92-4.92S68.12,38,47.24,34.05Z" transform="translate(0.83)" style="fill:url(#linear-gradient-25)"/><path d="M41.1,19.17S37.91,21,37.45,21.32c-1,.74,2.85,11.51,4.27,11.56a19.37,19.37,0,0,0,3.72-1Z" transform="translate(0.83)" style="fill:url(#linear-gradient-26)"/><path d="M40.06,22.4a.63.63,0,0,1-.59.67.61.61,0,0,1-.67-.58.62.62,0,0,1,.58-.67A.63.63,0,0,1,40.06,22.4Z" transform="translate(0.83)" style="fill:#c9b8d3"/><path d="M73.55,8.83s3.64-.47,4.21-.46c1.24,0,4.6,10.93,3.49,11.82a19.39,19.39,0,0,1-3.58,1.42Z" transform="translate(0.83)" style="fill:url(#linear-gradient-27)"/><path d="M76.32,10.79a.63.63,0,1,0,1.06-.68.63.63,0,1,0-1.06.68Z" transform="translate(0.83)" style="fill:#c9b8d3"/><path d="M49.38,4.12,49,2.82A14.73,14.73,0,0,1,58,0l.75,1.69Z" transform="translate(0.83)" style="fill:url(#linear-gradient-28)"/><path d="M78.07,23.6l-7.9,2.55-23.8,7.68c-9.22-10-7-26.23,5.14-31.18.56-.23,1.13-.43,1.69-.6h0C66.59-2.17,79.16,8.36,78.07,23.6Z" transform="translate(0.83)" style="fill:url(#linear-gradient-29)"/><path d="M70.17,26.15l-23.8,7.68c-9.22-10-7-26.23,5.14-31.18.56-.23,1.13-.43,1.69-.6-8.15,3.38-8.87,8.84-1.6,6.6s12.51-.82,12.51-.82Z" transform="translate(0.83)" style="fill:url(#linear-gradient-30)"/><path d="M78.07,23.6A19.5,19.5,0,0,1,63.76,36.28C52.25,39,46.37,33.83,46.37,33.83Z" transform="translate(0.83)" style="fill:url(#linear-gradient-31)"/><path d="M78.07,23.6a24.08,24.08,0,0,1-6.87,7C66.1,34.09,58,37,46.37,33.83c-5.06-9.51-2.13-19.12,5-23.7a17.2,17.2,0,0,1,1.68-.94C61.89,4.88,75.13,8.31,78.07,23.6Z" transform="translate(0.83)" style="fill:url(#linear-gradient-32)"/><path d="M71.2,30.6C66.1,34.09,58,37,46.37,33.83c-5.06-9.51-2.13-19.12,5-23.7-.91,2.24-2.11,6.75-1.12,13.63,1.5,10.33,8.65,13.42,20.93,6.84Z" transform="translate(0.83)" style="fill:url(#linear-gradient-33)"/><path d="M58,9.17s9.85-1.68,15.36,7.38a1.61,1.61,0,0,1-.45,2.15h0a1.6,1.6,0,0,1-2.32-.52A18.63,18.63,0,0,0,58,9.17Z" transform="translate(0.83)" style="fill:url(#linear-gradient-34)"/><path d="M75,20.76a1.28,1.28,0,0,1-.47,1.73A1.26,1.26,0,1,1,75,20.76Z" transform="translate(0.83)" style="fill:url(#linear-gradient-35)"/><path d="M95.31,94.43a18.72,18.72,0,0,1-2,2.48h0a60.81,60.81,0,0,0-6.69,10.85,26.75,26.75,0,0,1-2.07-3.22h0a26.09,26.09,0,0,1,3.09-7.24A28.76,28.76,0,0,0,95.31,94.43Z" transform="translate(0.83)" style="fill:#2d2244"/><path d="M107.86,88.1a23.14,23.14,0,0,0-14.6,8.81A13.51,13.51,0,0,0,95,94.76a30,30,0,0,1-7.43,2.54,30.66,30.66,0,0,1,3-4c5.42-6.22,14.63-8,14.63-8A10.3,10.3,0,0,1,107.86,88.1Z" transform="translate(0.83)" style="fill:url(#linear-gradient-36)"/><path d="M53.51,110.27l-.19.06c-.24,1.34-.49,2.55-.75,3.64a22.14,22.14,0,0,0-3.81-4.45c.23-.19.46-.35.68-.5a13.11,13.11,0,0,0,1.78-1.47C52.26,108.69,53,109.67,53.51,110.27Z" transform="translate(0.83)" style="fill:#2d2244"/><path d="M51.22,107.55A13.11,13.11,0,0,1,49.44,109c-.22.15-.45.31-.68.5a32.33,32.33,0,0,0-6.23-4.46,21.41,21.41,0,0,0-15.41-2.46,12.68,12.68,0,0,1,.84-1.9,14,14,0,0,1,1-1.56h0l0,0,0,0v0h0l0,0a.76.76,0,0,1,.08-.11l.08-.1c.09-.13.19-.25.28-.36.55-.08,1.19-.16,1.9-.2a21.14,21.14,0,0,1,10.15,1.7A32.48,32.48,0,0,1,51.22,107.55Z" transform="translate(0.83)" style="fill:url(#linear-gradient-37)"/><path d="M100.2,59.54a13,13,0,0,1-1.3.58,9,9,0,0,1-1,.3A26.23,26.23,0,0,1,95.22,56a10.5,10.5,0,0,0,2.47-.52A24.79,24.79,0,0,0,100.2,59.54Z" transform="translate(0.83)" style="fill:#2d2244"/><path d="M97.69,55.43a10.5,10.5,0,0,1-2.47.52A29.36,29.36,0,0,1,93,38.69h0a10,10,0,0,1,1.79-1.11A31.32,31.32,0,0,0,96.5,52.7C96.88,53.7,97.29,54.61,97.69,55.43Z" transform="translate(0.83)" style="fill:url(#linear-gradient-38)"/><path d="M35.4,66.74a17.79,17.79,0,0,1-1.84,5.18,13.84,13.84,0,0,1-3.87.19,16.47,16.47,0,0,0,3-4.74A9.72,9.72,0,0,0,35.4,66.74Z" transform="translate(0.83)" style="fill:#2d2244"/><path d="M35.4,66.74a9.72,9.72,0,0,1-2.73.63c2.31-5.64,1.26-11.61.7-13.93a3.2,3.2,0,0,1,.62.78h0l0,.05h0a5.14,5.14,0,0,1,.53-1.94,2,2,0,0,1,.11-.2C36.21,58.54,36.08,63.33,35.4,66.74Z" transform="translate(0.83)" style="fill:url(#linear-gradient-39)"/><path d="M49.69,49.14c1.55-.36,5.48-1.26,9.42-2a.8.8,0,0,0,.63-.95l-.62-3a.8.8,0,0,0-.91-.63,77,77,0,0,0-9.66,2.15.79.79,0,0,0-.53.89,20.56,20.56,0,0,0,.73,3A.81.81,0,0,0,49.69,49.14Z" transform="translate(0.83)" style="fill:url(#linear-gradient-40)"/><path d="M24.52,65.82a12.31,12.31,0,0,1-4.49.87,12,12,0,0,1-5.33-1.15,1.43,1.43,0,0,1-.61.56h0a6.56,6.56,0,0,1-4.05.4c-4-.52-5.4-2.64-5.35-4.22a1.3,1.3,0,0,1,.68-1.05h0A8.9,8.9,0,0,1,9,60.4c1.1-.07,1.39-.41.87-1.16l-.09-.11c-.67-.65-2.87-.68-4.12-1.34a4.53,4.53,0,0,1-2-4.13c0-.86.79-1.35,1.82-1.51a6.58,6.58,0,0,1,3.49.51c2.12,1,2.88.6,3-.52.06-.79-1.57-1.86-3.06-2.88A20,20,0,0,1,7.19,48c-1.52-1.32-.6-4.07,2.06-4.57a2,2,0,0,1,.78,0h0c2.07.4,3,4,4.19,3.46,1.39-.57.36-1.77-1.51-3.69-.25-.26-.5-.53-.75-.82-1.63-1.94-3-4.57-1.21-5.93a1.86,1.86,0,0,1,1.51-.29c2.32.42,5.63,3.91,7.56,8.21a19.55,19.55,0,0,0,1.67,3.13c.73,1,1.07.9,1.2.74a.7.7,0,0,0,.08-.12c.5-.74.8-5.51,1.07-8.53.05-.49.1-1,.18-1.42.37-2.33,1.15-4.09,2.58-4.46a3.19,3.19,0,0,1,.71-.1c1.24,0,1.91,1,2.2,3.38a8.35,8.35,0,0,1,0,1.72c-.12,2-.8,3.87-.77,6.23.05,3,1.85,6.2,2.43,10.11S29.91,63.72,24.52,65.82Z" transform="translate(0.83)" style="fill:url(#linear-gradient-41)"/><path d="M15.22,40.69c-.2,1.7-2,1.83-3.26,1.73-.17-.22-.35-.43-.52-.66-1.38-1.83-2.32-4-.69-5.27a1.86,1.86,0,0,1,1.51-.29c.5.61,1.52,1.39,2.23,2.32A3,3,0,0,1,15.22,40.69Z" transform="translate(0.83)" style="fill:url(#linear-gradient-42)"/><path d="M12,47.08a2.79,2.79,0,0,1-3.19,2.18c-.52-.36-1-.71-1.42-1L7.19,48c-1.52-1.32-.6-4.07,2.06-4.57a2,2,0,0,1,.78,0h0a12.78,12.78,0,0,1,1.54,2h0A2.25,2.25,0,0,1,12,47.08Z" transform="translate(0.83)" style="fill:url(#linear-gradient-43)"/><path d="M10.63,59.18a2.5,2.5,0,0,1-.87,0l-1.47-.36a12.14,12.14,0,0,1-2.65-1,4.53,4.53,0,0,1-2-4.13c0-.86.79-1.35,1.82-1.51a11.61,11.61,0,0,0,3,2c.29.11.59.23.9.37,1.22.55,2.41,1.33,2.59,2.08C12.1,57.5,12,58.93,10.63,59.18Z" transform="translate(0.83)" style="fill:url(#linear-gradient-44)"/><path d="M14.09,66.1h0a6,6,0,0,1-3.49.46L10,66.5c-4-.52-5.4-2.64-5.35-4.22a1.3,1.3,0,0,1,.68-1.05h0c.1,0,1.7-.63,5.48,1l.33.14C14.8,63.87,15.68,65,14.09,66.1Z" transform="translate(0.83)" style="fill:url(#linear-gradient-45)"/><path d="M20.16,58.61c-.11-.2-3.12-6,1.33-11.07.73,1,1.07.9,1.2.74l.1.2S18.61,54.45,20.16,58.61Z" transform="translate(0.83)" style="fill:url(#linear-gradient-46)"/><path d="M24.52,65.82a12.31,12.31,0,0,1-4.49.87c9.69-2.21,8.46-11.28,7.31-14.1a17.5,17.5,0,0,1,.09-12.49c1.28-3.46.42-5.57-.12-6.45,1.24,0,1.91,1,2.2,3.38a8.35,8.35,0,0,1,0,1.72c-.12,2-.8,3.87-.77,6.23.05,3,1.85,6.2,2.43,10.11S29.91,63.72,24.52,65.82Z" transform="translate(0.83)" style="fill:url(#linear-gradient-47)"/><path d="M29.56,38.75A5.58,5.58,0,0,1,24,38.21c.37-2.33,1.15-4.09,2.58-4.46,1.71-.43,2.56.46,2.91,3.28A8.35,8.35,0,0,1,29.56,38.75Z" transform="translate(0.83)" style="fill:url(#linear-gradient-48)"/><path d="M15.22,40.69c-.2,1.7-3.38,2.53-3.78,1.07.32-3.13,2.1-3.36,3.05-3.24A3,3,0,0,1,15.22,40.69Z" transform="translate(0.83)" style="fill:url(#linear-gradient-49)"/><path d="M12,47.08C12,49.6,8.34,49.93,7.41,48.23a2.61,2.61,0,0,1,.4-2.61c1.57-2,3.67-.25,3.76-.18h0A3,3,0,0,1,12,47.08Z" transform="translate(0.83)" style="fill:url(#linear-gradient-50)"/><path d="M10.63,59.18a2.5,2.5,0,0,1-.87,0l-1.47-.36a4.24,4.24,0,0,1,1-4.28c1.22.55,2.41,1.33,2.59,2.08C12.1,57.5,12,58.93,10.63,59.18Z" transform="translate(0.83)" style="fill:url(#linear-gradient-51)"/><path d="M14.09,66.1h0a6,6,0,0,1-3.49.46,3.33,3.33,0,0,1-.42-2.6,3,3,0,0,1,1-1.65C14.8,63.87,15.68,65,14.09,66.1Z" transform="translate(0.83)" style="fill:url(#linear-gradient-52)"/><path d="M103.78,54.9a12.58,12.58,0,0,0,4.58,0,12.11,12.11,0,0,0,5-2.12,1.47,1.47,0,0,0,.7.43h0a6.6,6.6,0,0,0,4.06-.37c3.82-1.25,4.81-3.59,4.47-5.14a1.31,1.31,0,0,0-.87-.9h0a8.72,8.72,0,0,0-3.7-.14c-1.1.13-1.45-.14-1.07-1a.37.37,0,0,1,.07-.12c.53-.76,2.69-1.2,3.79-2.09a4.52,4.52,0,0,0,1.22-4.43c-.18-.84-1-1.18-2.08-1.14a6.57,6.57,0,0,0-3.32,1.15c-1.91,1.34-2.73,1.12-3,0-.21-.76,1.19-2.12,2.47-3.41a18.16,18.16,0,0,0,1.39-1.5c1.24-1.58-.18-4.11-2.88-4.1a2.06,2.06,0,0,0-.76.14h0c-2,.78-2.16,4.44-3.47,4.18-1.47-.31-.68-1.67.8-3.91.19-.3.39-.61.58-1,1.24-2.2,2.14-5,.09-6a1.87,1.87,0,0,0-1.54,0c-2.2.85-4.8,4.89-5.9,9.48a20.3,20.3,0,0,1-1.06,3.38c-.53,1.15-.88,1.08-1,1a.41.41,0,0,1-.1-.1c-.63-.64-1.82-5.26-2.64-8.18-.14-.48-.28-.93-.43-1.36-.81-2.23-1.9-3.82-3.38-3.91a4,4,0,0,0-.71,0c-1.23.21-1.69,1.32-1.54,3.74a9.78,9.78,0,0,0,.27,1.69c.5,2,1.52,3.66,1.92,6,.51,3-.66,6.43-.51,10.38S98.09,53.83,103.78,54.9Z" transform="translate(0.83)" style="fill:url(#linear-gradient-53)"/><path d="M108.25,28.48c.51,1.63,2.34,1.41,3.52,1.08.13-.24.26-.48.39-.74,1-2.06,1.53-4.41-.3-5.3a1.87,1.87,0,0,0-1.54,0c-.38.7-1.24,1.65-1.75,2.69A3,3,0,0,0,108.25,28.48Z" transform="translate(0.83)" style="fill:url(#linear-gradient-54)"/><path d="M112.58,34.15a2.79,2.79,0,0,0,3.54,1.55c.44-.44.86-.88,1.2-1.27l.19-.23c1.24-1.58-.18-4.11-2.88-4.1a2.06,2.06,0,0,0-.76.14h0a13.29,13.29,0,0,0-1.14,2.22h0A2.26,2.26,0,0,0,112.58,34.15Z" transform="translate(0.83)" style="fill:url(#linear-gradient-55)"/><path d="M116.19,45.79a2.9,2.9,0,0,0,.86-.21l1.37-.63a11.71,11.71,0,0,0,2.42-1.46,4.52,4.52,0,0,0,1.22-4.43c-.18-.84-1-1.18-2.08-1.14a11.48,11.48,0,0,1-2.53,2.48c-.26.16-.54.34-.81.53-1.09.77-2.12,1.76-2.16,2.53C114.44,44.41,114.76,45.8,116.19,45.79Z" transform="translate(0.83)" style="fill:url(#linear-gradient-56)"/><path d="M114.08,53.23h0a6,6,0,0,0,3.52-.2c.17-.05.35-.1.54-.17,3.82-1.25,4.81-3.59,4.47-5.14a1.31,1.31,0,0,0-.87-.9h0c-.1,0-1.78-.31-5.2,2l-.3.2C113,51.17,112.31,52.4,114.08,53.23Z" transform="translate(0.83)" style="fill:url(#linear-gradient-57)"/><path d="M106.73,47c.06-.21,1.94-6.49-3.37-10.63-.53,1.15-.88,1.08-1,1l-.06.21S107.47,42.62,106.73,47Z" transform="translate(0.83)" style="fill:url(#linear-gradient-58)"/><path d="M103.78,54.9a12.58,12.58,0,0,0,4.58,0c-9.93-.37-10.42-9.51-9.8-12.5a17.52,17.52,0,0,0-2.42-12.26c-1.89-3.16-1.45-5.39-1.08-6.36-1.23.21-1.69,1.32-1.54,3.74a9.78,9.78,0,0,0,.27,1.69c.5,2,1.52,3.66,1.92,6,.51,3-.66,6.43-.51,10.38S98.09,53.83,103.78,54.9Z" transform="translate(0.83)" style="fill:url(#linear-gradient-59)"/><path d="M93.79,29.23a5.61,5.61,0,0,0,5.36-1.55c-.81-2.23-1.9-3.82-3.38-3.91-1.76-.1-2.43.93-2.25,3.77A9.78,9.78,0,0,0,93.79,29.23Z" transform="translate(0.83)" style="fill:url(#linear-gradient-60)"/><path d="M108.25,28.48c.51,1.63,3.79,1.85,3.91.34-.9-3-2.68-2.91-3.59-2.62A3,3,0,0,0,108.25,28.48Z" transform="translate(0.83)" style="fill:url(#linear-gradient-61)"/><path d="M112.58,34.15c.54,2.47,4.14,2.13,4.74.28a2.6,2.6,0,0,0-.88-2.49c-1.9-1.63-3.65.44-3.72.52h0A3,3,0,0,0,112.58,34.15Z" transform="translate(0.83)" style="fill:url(#linear-gradient-62)"/><path d="M116.19,45.79a2.9,2.9,0,0,0,.86-.21l1.37-.63a4.23,4.23,0,0,0-1.78-4c-1.09.77-2.12,1.76-2.16,2.53C114.44,44.41,114.76,45.8,116.19,45.79Z" transform="translate(0.83)" style="fill:url(#linear-gradient-63)"/><path d="M114.08,53.23h0a6,6,0,0,0,3.52-.2,3.35,3.35,0,0,0-.07-2.63A2.91,2.91,0,0,0,116.25,49C113,51.17,112.31,52.4,114.08,53.23Z" transform="translate(0.83)" style="fill:url(#linear-gradient-64)"/><path d="M95.53,142.36s-1.37-4.54-1.06-6.94,14-35.73,31.87-35.68Z" transform="translate(0.83)" style="fill:#aca5b5"/><path d="M99.76,153.88s-4-3.19-4.36-13.69,21-47,34-39.4Z" transform="translate(0.83)" style="fill:url(#linear-gradient-65)"/><path d="M132.77,113.88c0,.43,0,.86,0,1.31a67.18,67.18,0,0,1-.65,7c-.06.42-.13.84-.2,1.26-.35,2.18-.83,4.46-1.43,6.82-.11.4-.21.81-.33,1.22a81.07,81.07,0,0,1-2.66,8.09c-.15.39-.31.78-.47,1.18-.94,2.33-2,4.7-3.23,7.09-.19.38-.39.76-.59,1.14-1.09,2-2.28,4.1-3.59,6.15l-.33.51h0q-.41.24-.81.45c-9.47,5-20.88-1.48-20.92-6.24v-.16a10.84,10.84,0,0,1,.16-1.27c.28-1.51.86-3.89,1.67-6.74.11-.4.23-.81.35-1.22.67-2.26,1.46-4.77,2.35-7.36l.41-1.19c.94-2.66,2-5.38,3.05-8l.49-1.17c1-2.26,2-4.41,3-6.33l.63-1.13c.25-.43.5-.86.76-1.27a52.31,52.31,0,0,1,3.29-4.74c.28-.36.57-.72.85-1.06a31.66,31.66,0,0,1,6.51-6.09c.49-.32,1-.62,1.45-.87,2.6-1.41,5-1.78,6.87-1,.93.37,1.76,1.72,2.37,3.84.12.45.24.92.35,1.43A39.28,39.28,0,0,1,132.77,113.88Z" transform="translate(0.83)" style="fill:url(#linear-gradient-66)"/><path d="M132.1,105.59l-11-3.38c.49-.32,1-.62,1.45-.87l9.24,2.82C131.87,104.61,132,105.08,132.1,105.59Z" transform="translate(0.83)" style="fill:#988ca5"/><path d="M132.77,113.88c0,.43,0,.86,0,1.31l-19-5.83c.28-.36.57-.72.85-1.06Z" transform="translate(0.83)" style="fill:#988ca5"/><path d="M132.08,122.24c-.06.42-.13.84-.2,1.26l-22.86-7,.63-1.13Z" transform="translate(0.83)" style="fill:#988ca5"/><path d="M130.45,130.32c-.11.4-.21.81-.33,1.22L105.51,124l.49-1.17Z" transform="translate(0.83)" style="fill:#988ca5"/><path d="M127.46,139.63c-.15.39-.31.78-.47,1.18l-24.94-7.64.41-1.19Z" transform="translate(0.83)" style="fill:#988ca5"/><path d="M123.76,147.9c-.19.38-.39.76-.59,1.14l-23.82-7.29c.11-.4.23-.81.35-1.22Z" transform="translate(0.83)" style="fill:#988ca5"/><path d="M119.58,155.19l-.33.51h0q-.41.24-.81.45l-20.92-6.4a10.84,10.84,0,0,1,.16-1.27Z" transform="translate(0.83)" style="fill:#988ca5"/><path d="M52.17,151.17s-1.79-4.4-3.53-6.07-33.34-19-47.21-7.75Z" transform="translate(0.83)" style="fill:#aca5b5"/><path d="M56.11,162.78s1.11-5-5.2-13.39S5,126-.3,140.11Z" transform="translate(0.83)" style="fill:url(#linear-gradient-67)"/><path d="M5.31,152.39c.27.33.55.67.85,1a64.46,64.46,0,0,0,4.94,5.08l.94.86c1.65,1.47,3.45,2.95,5.4,4.4l1,.75c2.2,1.58,4.59,3.14,7.15,4.62l1.11.62q3.3,1.84,7,3.48l1.17.52c2.13.91,4.36,1.76,6.66,2.53l.58.19h0c.32,0,.62-.09.92-.15,10.51-2.06,15.31-14.27,12.35-18l-.1-.12a10.19,10.19,0,0,0-.92-.89c-1.16-1-3.11-2.49-5.54-4.2l-1-.72c-1.94-1.34-4.14-2.8-6.45-4.25l-1.07-.67c-2.4-1.49-4.91-2.95-7.38-4.29-.37-.21-.75-.41-1.12-.6-2.18-1.15-4.32-2.19-6.33-3l-1.2-.49-1.38-.51a53.68,53.68,0,0,0-5.55-1.62c-.44-.11-.89-.2-1.32-.29A31.25,31.25,0,0,0,7.09,136c-.59.06-1.15.13-1.68.23-2.9.54-5,1.75-6,3.53-.49.87-.29,2.44.57,4.47.18.43.39.87.62,1.33A38.65,38.65,0,0,0,5.31,152.39Z" transform="translate(0.83)" style="fill:url(#linear-gradient-68)"/><path d="M.62,145.52,7.09,136c-.59.06-1.15.13-1.68.23l-5.41,8C.18,144.62.39,145.06.62,145.52Z" transform="translate(0.83)" style="fill:#988ca5"/><path d="M5.31,152.39c.27.33.55.67.85,1L17.3,136.9c-.44-.11-.89-.2-1.32-.29Z" transform="translate(0.83)" style="fill:#988ca5"/><path d="M11.1,158.47l.94.86,13.39-19.81-1.2-.49Z" transform="translate(0.83)" style="fill:#988ca5"/><path d="M17.44,163.73l1,.75,14.42-21.33c-.37-.21-.75-.41-1.12-.6Z" transform="translate(0.83)" style="fill:#988ca5"/><path d="M25.61,169.1l1.11.62,14.61-21.61-1.07-.67Z" transform="translate(0.83)" style="fill:#988ca5"/><path d="M33.69,173.2l1.17.52,14-20.64-1-.72Z" transform="translate(0.83)" style="fill:#988ca5"/><path d="M41.52,176.25l.58.19h0c.32,0,.62-.09.92-.15l12.25-18.12a10.19,10.19,0,0,0-.92-.89Z" transform="translate(0.83)" style="fill:#988ca5"/><path d="M132.1,105.59c-.11-.51-.23-1-.35-1.43-.61-2.12-1.44-3.47-2.37-3.84a5.65,5.65,0,0,0-2.11-.38,8,8,0,0,0-1-.15l0-.05h-.64a9.36,9.36,0,0,0-2.53.33c-4,.85-7.7,3.26-11.06,6.44-.24-2-.71-6.1-1.09-10.08a17.89,17.89,0,0,0-3.16-8.34,10.3,10.3,0,0,0-2.66-2.8s-2.55-9.63-8.56-11.91l-.34-.12-.18-.07h0a13.67,13.67,0,0,0-5.63-.83h0a5.06,5.06,0,0,0-1.06.15h0l-.26.06a7.74,7.74,0,0,0-1.28.43h0l-.32.14,0,0,0,0h0l0,0h0l0-.06v0l0-.07v0a.36.36,0,0,0,0-.09h0a3.63,3.63,0,0,0,.14-.51v0s0-.09,0-.13V72a.59.59,0,0,1,0-.13v-.07s0-.1,0-.15v-.07a.86.86,0,0,0,0-.16v-.07a1.15,1.15,0,0,0,0-.19v0c0-.17,0-.34,0-.53s0-.23,0-.35,0-.45-.09-.7A5.78,5.78,0,0,0,89.39,69a7.15,7.15,0,0,0,2.41-2,2.3,2.3,0,0,0,0-2.78,3.37,3.37,0,0,0-1.89-1.08,14.88,14.88,0,0,0-2.93-.48,19.83,19.83,0,0,0-.25-3c0-.13-.05-.27-.07-.4h0a12.77,12.77,0,0,0-.54-2,16.91,16.91,0,0,0,1.57.93l.15.08,0,0,.09.05h0c2.29,1.19,6.3,2.82,10,2a9,9,0,0,0,1-.3,13,13,0,0,0,1.3-.58,10.34,10.34,0,0,0,4.57-4.5,12.75,12.75,0,0,0,3.59-.12,12.11,12.11,0,0,0,5-2.12,1.47,1.47,0,0,0,.7.43h0l.13,0h0l.1,0h.06l.1,0h.06l.11,0h.06l.12,0h.72l.19,0h.06l.56-.07h0l.3-.06h.07l.24-.06.1,0,.24-.06.11,0,.15,0,.12,0h0l.37-.12c3.82-1.25,4.81-3.59,4.47-5.14a1.31,1.31,0,0,0-.87-.9h0a8.72,8.72,0,0,0-3.7-.14c-1.1.13-1.45-.14-1.07-1a.37.37,0,0,1,.07-.12l1.37-.63a11.71,11.71,0,0,0,2.42-1.46,4.52,4.52,0,0,0,1.22-4.43c-.18-.84-1-1.18-2.08-1.14a6.57,6.57,0,0,0-3.32,1.15c-1.91,1.34-2.73,1.12-3,0-.21-.76,1.19-2.12,2.47-3.41l.09-.08a2.09,2.09,0,0,0,1.11-1.19l0,0,.17-.21c1.24-1.58-.18-4.11-2.88-4.1a2.06,2.06,0,0,0-.76.14h0c-2,.78-2.16,4.44-3.47,4.18-1.47-.31-.68-1.67.8-3.91.19-.3.39-.61.58-1a.41.41,0,0,1,0-.09.93.93,0,0,0,.34-.65h0c0-.06,0-.11.07-.16l0,0,.08-.15,0-.05a1.11,1.11,0,0,1,.07-.16v0c.07-.16.14-.32.2-.49l0-.07a.56.56,0,0,1,0-.12l0-.1a.42.42,0,0,1,0-.1l0-.11,0-.1,0-.1,0-.11a.36.36,0,0,1,0-.1l0-.11a.36.36,0,0,1,0-.1s0-.07,0-.1,0-.07,0-.11,0-.06,0-.09l0-.18a.38.38,0,0,1,0-.1.45.45,0,0,1,0-.11v-.09a.34.34,0,0,1,0-.1v-.19a.28.28,0,0,1,0-.09.28.28,0,0,0,0-.09v-.09s0-.06,0-.09a.28.28,0,0,0,0-.09s0-.06,0-.09a.31.31,0,0,0,0-.08.29.29,0,0,0,0-.09.19.19,0,0,1,0-.08.42.42,0,0,1,0-.1l0-.12,0-.08a.43.43,0,0,0,0-.07.56.56,0,0,0,0-.08l0-.07,0-.07a.18.18,0,0,1,0-.07l-.06-.06-.06-.06-.07-.07-.06-.05-.08-.07-.06,0-.1-.07-.06,0-.18-.09a1.87,1.87,0,0,0-1.54,0c-2.2.85-4.8,4.89-5.9,9.48a20.3,20.3,0,0,1-1.06,3.38c-.53,1.15-.88,1.08-1,1a.41.41,0,0,1-.1-.1c-.63-.64-1.82-5.26-2.64-8.18-.14-.48-.28-.93-.43-1.36-.81-2.23-1.9-3.82-3.38-3.91H95l-.18,0h0l-.16.06,0,0-.14.07h0l-.14.1,0,0-.12.12,0,0a.64.64,0,0,0-.1.13l0,0-.1.15s0,0,0,0l-.09.17,0,.06c0,.06-.05.12-.07.19v0a1.46,1.46,0,0,0-.05.2s0,0,0,.06,0,.16,0,.24v.07l0,.27V26a2.65,2.65,0,0,1,0,.27v.37a.22.22,0,0,0,0,.08c0,.11,0,.22,0,.34v.07c0,.13,0,.26,0,.4a9.78,9.78,0,0,0,.27,1.69c.5,2,1.52,3.66,1.92,6a10.15,10.15,0,0,1,.13,1.93c-.32.12-.66.26-1,.43A10,10,0,0,0,93,38.69h0l-.19.16h0l0,0h0l-.28.26-.1.09-.17.17-.15.15a.69.69,0,0,1-.11.13c-.06.06-.11.13-.17.2l0,.06-.1.12a11.6,11.6,0,0,0-1.18-1.48,10.47,10.47,0,0,0-4.08-2.84c-.16-.4-.34-.78-.53-1.16-.49-3.39-1.4-7.85-2.19-8.44s-1.33-1.27-5.8-.82l-.38-.25a12.87,12.87,0,0,0,.55-1.47c.05-.72.07-1.44.07-2.14a15.79,15.79,0,0,0,3.11-1.27C82.36,19.3,79,8.37,77.76,8.37c-.44,0-2.69.27-3.71.39A18.38,18.38,0,0,0,58.47,1.12L58,0a14.73,14.73,0,0,0-9,2.82l.28.93A17.83,17.83,0,0,0,40.69,19.4c-.88.5-2.88,1.65-3.24,1.92-1,.74,2.85,11.51,4.27,11.56a14.5,14.5,0,0,0,3.18-.82c.33.45.68.88,1.05,1.31-4.08,1.58-6.66,2.9-7.05,3.42-.53.71.28,4.08,1,6.56-1.43.95-3.09,2.91-3.65,7,0,.2,0,.41-.08.62a2,2,0,0,0-.82.4,3.05,3.05,0,0,0-.68.76,2,2,0,0,0-.11.2l-.12.24,0,.06a2.09,2.09,0,0,0-.08.23l0,0-.09.29,0,.06c0,.1,0,.19-.07.3v.05c0,.08,0,.16,0,.24s0,.06,0,.08,0,.22,0,.34h0l0-.05h0l0,0,0,0,0,0,0,0,0-.06,0,0a.27.27,0,0,0-.07-.08l0,0-.11-.13,0,0-.1-.09-.09-.09,0,0,0,0-.08-.07-.16-.14h0q-.26-.2-.6-.42h0a7.91,7.91,0,0,0-2-.84c-.74-2.54-1.67-4.8-1.71-7,0-2.36.65-4.18.77-6.23a8.35,8.35,0,0,0,0-1.72c0-.13,0-.26-.05-.39v-.07l-.06-.34v-.08c0-.1-.05-.21-.07-.31v-.05c0-.09-.05-.18-.07-.26l0-.06a2.58,2.58,0,0,0-.08-.26l0-.06L29,34.92l0-.05-.09-.19,0,0a1.74,1.74,0,0,0-.11-.18l0-.05-.11-.15,0,0-.12-.13,0,0-.12-.1,0,0-.14-.09-.05,0L28,33.75h0l-.16,0h0l-.18,0h-.62l-.09,0h-.08l-.17,0c-1.43.37-2.21,2.13-2.58,4.46-.08.46-.13.93-.18,1.42-.27,3-.57,7.79-1.07,8.53a.7.7,0,0,1-.08.12c-.13.16-.47.29-1.2-.74a19.55,19.55,0,0,1-1.67-3.13c-1.93-4.3-5.24-7.79-7.56-8.21a1.86,1.86,0,0,0-1.51.29l-.16.13-.05.05a.3.3,0,0,0-.08.08l-.06.06-.06.07-.05.07-.06.08a.16.16,0,0,0,0,.07l0,.07s0,0,0,.08l0,.08,0,.07,0,.09a.19.19,0,0,0,0,.07l0,.1a.5.5,0,0,0,0,.12.43.43,0,0,0,0,.11.22.22,0,0,0,0,.08s0,.06,0,.09v.27a.25.25,0,0,0,0,.08v.1a.28.28,0,0,1,0,.09s0,.06,0,.09,0,.06,0,.09a.29.29,0,0,1,0,.09.36.36,0,0,1,0,.1l0,.09,0,.11s0,.06,0,.09l.06.17,0,.09a17583154008581.06,17583154008581.06,0,0,1,.08.2.36.36,0,0,1,0,.09.93.93,0,0,0,.05.1l0,.1.05.1,0,.09.06.1a.41.41,0,0,0,.05.09.31.31,0,0,0,0,.1l.05.09.06.11,0,.07c.09.15.18.3.28.44l0,0,.1.14,0,0a.71.71,0,0,0,.1.14l0,0,.11.15h0a.91.91,0,0,0,.46.57l.06.09c.25.29.5.56.75.82,1.87,1.92,2.9,3.12,1.51,3.69-1.23.5-2.12-3.06-4.19-3.46h0a2,2,0,0,0-.78,0C6.59,44,5.67,46.72,7.19,48l.2.17,0,0a2.08,2.08,0,0,0,1.32,1l.1.07c1.49,1,3.12,2.09,3.06,2.88-.08,1.12-.84,1.48-3,.52a6.58,6.58,0,0,0-3.49-.51c-1,.16-1.8.65-1.82,1.51a4.53,4.53,0,0,0,2,4.13,12.14,12.14,0,0,0,2.65,1l1.47.36.09.11c.52.75.23,1.09-.87,1.16a8.9,8.9,0,0,0-3.62.82h0a1.3,1.3,0,0,0-.68,1.05C4.63,63.86,6,66,10,66.5l.38,0h1.42a4.86,4.86,0,0,0,.56,0h.06l.19,0h.07l.16,0,.07,0,.14,0h.07l.13,0,.07,0,.11,0,.06,0,.11,0,0,0,.1,0,.05,0,.09,0h0l.12-.07h0a1.43,1.43,0,0,0,.61-.56A11.76,11.76,0,0,0,19,66.66l-.13.18a18.75,18.75,0,0,0,10.79,5.27,13.84,13.84,0,0,0,3.87-.19,14.88,14.88,0,0,0,3-.91s2.71.74,6.53-1.43h0c.35-.2.71-.42,1.08-.67,0,0,.13.61.34,1.28,0,.16.1.31.16.47h0l-.07.06-.13.11-.28.24c-.92.82-2.81,2.65-2.62,3.72s1.18,1.59,2.76,1.56l-1.43.87h0c-1.07.65-2.45,1.53-3.21,2.11l-.06,0h0c-1.3,1-1.85,2.47-4.07,4.18s-2.16,3-3,6.53c-.38,1.54-.78,3.08-1.12,4.33-.44,1.62-.77,2.75-.77,2.75a14,14,0,0,0-1.51,1.74l0,.06,0,0-.07.09,0,0h0a14,14,0,0,0-1,1.56,12.68,12.68,0,0,0-.84,1.9,10.39,10.39,0,0,0-.33,1.16,33.55,33.55,0,0,0-.62,4.55c0,.61-.07,1.16-.09,1.64,0,1.08,0,1.77,0,1.77a11.85,11.85,0,0,0-1,1.39h0a14.92,14.92,0,0,0-1.39,2.83A12.16,12.16,0,0,0,23,119.2c-.3,3.76,3.87,14.15,4.89,16.65-8.22-2.41-17.23-3.5-23.74-.22A9.31,9.31,0,0,0,1.93,137l-.5.38.05,0a8.8,8.8,0,0,0-.65.72,5.53,5.53,0,0,0-1.4,1.63c-.49.87-.29,2.44.57,4.47.18.43.39.87.62,1.33a38.65,38.65,0,0,0,4.69,6.87c.27.33.55.67.85,1a64.46,64.46,0,0,0,4.94,5.08l.94.86c1.65,1.47,3.45,2.95,5.4,4.4l1,.75c2.2,1.58,4.59,3.14,7.15,4.62l1.11.62q3.3,1.84,7,3.48l1.17.52c2.13.91,4.36,1.76,6.66,2.53l.58.19h0c.32,0,.62-.09.92-.15,7.68-1.5,12.31-8.43,13.09-13.51a2.13,2.13,0,0,0,0-.33,6.73,6.73,0,0,0-.31-3.34,24.31,24.31,0,0,0-3.68-7.94A32.38,32.38,0,0,0,50,146.88a87.29,87.29,0,0,0-.13-10.55c-.52-5.34-2.23-9.49-2-12.35,0,0,2.55-1.18,4.64-10,.26-1.09.51-2.3.75-3.64l.19-.06c1.1-.35,6.73-2.37,9-7.36,2.47-5.54,4.94-6.34,6.26-5.48s6.91,6.16,15.1,5.76c0,0,.23.53.68,1.35h0a26.75,26.75,0,0,0,2.07,3.22,15,15,0,0,0,5.14,4.54,54.55,54.55,0,0,1,.77,11.32c-.12,5.13.46,11.45,2.24,15.31.33,1.82.81,3.43.81,3.43a24.65,24.65,0,0,0,2.13,8.5,6.79,6.79,0,0,0,1.86,2.79l.24.23c3.8,3.45,11.76,5.94,18.68,2.28q.41-.21.81-.45h0l.33-.51c1.31-2.05,2.5-4.11,3.59-6.15.2-.38.4-.76.59-1.14,1.22-2.39,2.29-4.76,3.23-7.09.16-.4.32-.79.47-1.18a81.07,81.07,0,0,0,2.66-8.09c.12-.41.22-.82.33-1.22.6-2.36,1.08-4.64,1.43-6.82.07-.42.14-.84.2-1.26a67.18,67.18,0,0,0,.65-7c0-.45,0-.88,0-1.31A39.28,39.28,0,0,0,132.1,105.59ZM29,99h0ZM44.44,74.91l-.2,0a1,1,0,0,1-.4-.16.52.52,0,0,1-.16-.17.36.36,0,0,1,0-.09.59.59,0,0,1,0-.23,1.91,1.91,0,0,1,.24-.79,2.69,2.69,0,0,1,.16-.29c.12-.19.25-.38.38-.55l.09-.13.19-.23c.28-.34.5-.56.5-.56A13.75,13.75,0,0,0,44.44,74.91Zm42.38-9.5h0s3.39-.6,3.92.16c.37.54.12,1.37-1.23,1.87a7,7,0,0,1-2,.4c-.17-.64-.39-1.36-.68-2.16Z" transform="translate(0.83)" style="mix-blend-mode:overlay;fill:url(#linear-gradient-69)"/><path d="M132.1,105.59c-.11-.51-.23-1-.35-1.43-.61-2.12-1.44-3.47-2.37-3.84a5.65,5.65,0,0,0-2.11-.38,8,8,0,0,0-1-.15l0-.05h-.64a9.36,9.36,0,0,0-2.53.33c-4,.85-7.7,3.26-11.06,6.44-.24-2-.71-6.1-1.09-10.08a17.89,17.89,0,0,0-3.16-8.34,10.3,10.3,0,0,0-2.66-2.8s-2.55-9.63-8.56-11.91l-.34-.12-.18-.07h0a13.67,13.67,0,0,0-5.63-.83h0a5.06,5.06,0,0,0-1.06.15h0l-.26.06a7.74,7.74,0,0,0-1.28.43h0l-.32.14,0,0,0,0h0l0,0h0l0-.06v0l0-.07v0a.36.36,0,0,0,0-.09h0a3.63,3.63,0,0,0,.14-.51v0s0-.09,0-.13V72a.59.59,0,0,1,0-.13v-.07s0-.1,0-.15v-.07a.86.86,0,0,0,0-.16v-.07a1.15,1.15,0,0,0,0-.19v0c0-.17,0-.34,0-.53s0-.23,0-.35,0-.45-.09-.7A5.78,5.78,0,0,0,89.39,69a7.15,7.15,0,0,0,2.41-2,2.3,2.3,0,0,0,0-2.78,3.37,3.37,0,0,0-1.89-1.08,14.88,14.88,0,0,0-2.93-.48,19.83,19.83,0,0,0-.25-3c0-.13-.05-.27-.07-.4h0a12.77,12.77,0,0,0-.54-2,16.91,16.91,0,0,0,1.57.93l.15.08,0,0,.09.05h0c2.29,1.19,6.3,2.82,10,2a9,9,0,0,0,1-.3,13,13,0,0,0,1.3-.58,10.34,10.34,0,0,0,4.57-4.5,12.75,12.75,0,0,0,3.59-.12,12.11,12.11,0,0,0,5-2.12,1.47,1.47,0,0,0,.7.43h0l.13,0h0l.1,0h.06l.1,0h.06l.11,0h.06l.12,0h.72l.19,0h.06l.56-.07h0l.3-.06h.07l.24-.06.1,0,.24-.06.11,0,.15,0,.12,0h0l.37-.12c3.82-1.25,4.81-3.59,4.47-5.14a1.31,1.31,0,0,0-.87-.9h0a8.72,8.72,0,0,0-3.7-.14c-1.1.13-1.45-.14-1.07-1a.37.37,0,0,1,.07-.12l1.37-.63a11.71,11.71,0,0,0,2.42-1.46,4.52,4.52,0,0,0,1.22-4.43c-.18-.84-1-1.18-2.08-1.14a6.57,6.57,0,0,0-3.32,1.15c-1.91,1.34-2.73,1.12-3,0-.21-.76,1.19-2.12,2.47-3.41l.09-.08a2.09,2.09,0,0,0,1.11-1.19l0,0,.17-.21c1.24-1.58-.18-4.11-2.88-4.1a2.06,2.06,0,0,0-.76.14h0c-2,.78-2.16,4.44-3.47,4.18-1.47-.31-.68-1.67.8-3.91.19-.3.39-.61.58-1a.41.41,0,0,1,0-.09.93.93,0,0,0,.34-.65h0c0-.06,0-.11.07-.16l0,0,.08-.15,0-.05a1.11,1.11,0,0,1,.07-.16v0c.07-.16.14-.32.2-.49l0-.07a.56.56,0,0,1,0-.12l0-.1a.42.42,0,0,1,0-.1l0-.11,0-.1,0-.1,0-.11a.36.36,0,0,1,0-.1l0-.11a.36.36,0,0,1,0-.1s0-.07,0-.1,0-.07,0-.11,0-.06,0-.09l0-.18a.38.38,0,0,1,0-.1.45.45,0,0,1,0-.11v-.09a.34.34,0,0,1,0-.1v-.19a.28.28,0,0,1,0-.09.28.28,0,0,0,0-.09v-.09s0-.06,0-.09a.28.28,0,0,0,0-.09s0-.06,0-.09a.31.31,0,0,0,0-.08.29.29,0,0,0,0-.09.19.19,0,0,1,0-.08.42.42,0,0,1,0-.1l0-.12,0-.08a.43.43,0,0,0,0-.07.56.56,0,0,0,0-.08l0-.07,0-.07a.18.18,0,0,1,0-.07l-.06-.06-.06-.06-.07-.07-.06-.05-.08-.07-.06,0-.1-.07-.06,0-.18-.09a1.87,1.87,0,0,0-1.54,0c-2.2.85-4.8,4.89-5.9,9.48a20.3,20.3,0,0,1-1.06,3.38c-.53,1.15-.88,1.08-1,1a.41.41,0,0,1-.1-.1c-.63-.64-1.82-5.26-2.64-8.18-.14-.48-.28-.93-.43-1.36-.81-2.23-1.9-3.82-3.38-3.91H95l-.18,0h0l-.16.06,0,0-.14.07h0l-.14.1,0,0-.12.12,0,0a.64.64,0,0,0-.1.13l0,0-.1.15s0,0,0,0l-.09.17,0,.06c0,.06-.05.12-.07.19v0a1.46,1.46,0,0,0-.05.2s0,0,0,.06,0,.16,0,.24v.07l0,.27V26a2.65,2.65,0,0,1,0,.27v.37a.22.22,0,0,0,0,.08c0,.11,0,.22,0,.34v.07c0,.13,0,.26,0,.4a9.78,9.78,0,0,0,.27,1.69c.5,2,1.52,3.66,1.92,6a10.15,10.15,0,0,1,.13,1.93c-.32.12-.66.26-1,.43A10,10,0,0,0,93,38.69h0l-.19.16h0l0,0h0l-.28.26-.1.09-.17.17-.15.15a.69.69,0,0,1-.11.13c-.06.06-.11.13-.17.2l0,.06-.1.12a11.6,11.6,0,0,0-1.18-1.48,10.47,10.47,0,0,0-4.08-2.84c-.16-.4-.34-.78-.53-1.16-.49-3.39-1.4-7.85-2.19-8.44s-1.33-1.27-5.8-.82l-.38-.25a12.87,12.87,0,0,0,.55-1.47c.05-.72.07-1.44.07-2.14a15.79,15.79,0,0,0,3.11-1.27C82.36,19.3,79,8.37,77.76,8.37c-.44,0-2.69.27-3.71.39A18.38,18.38,0,0,0,58.47,1.12L58,0a14.73,14.73,0,0,0-9,2.82l.28.93A17.83,17.83,0,0,0,40.69,19.4c-.88.5-2.88,1.65-3.24,1.92-1,.74,2.85,11.51,4.27,11.56a14.5,14.5,0,0,0,3.18-.82c.33.45.68.88,1.05,1.31-4.08,1.58-6.66,2.9-7.05,3.42-.53.71.28,4.08,1,6.56-1.43.95-3.09,2.91-3.65,7,0,.2,0,.41-.08.62a2,2,0,0,0-.82.4,3.05,3.05,0,0,0-.68.76,2,2,0,0,0-.11.2l-.12.24,0,.06a2.09,2.09,0,0,0-.08.23l0,0-.09.29,0,.06c0,.1,0,.19-.07.3v.05c0,.08,0,.16,0,.24s0,.06,0,.08,0,.22,0,.34h0l0-.05h0l0,0,0,0,0,0,0,0,0-.06,0,0a.27.27,0,0,0-.07-.08l0,0-.11-.13,0,0-.1-.09-.09-.09,0,0,0,0-.08-.07-.16-.14h0q-.26-.2-.6-.42h0a7.91,7.91,0,0,0-2-.84c-.74-2.54-1.67-4.8-1.71-7,0-2.36.65-4.18.77-6.23a8.35,8.35,0,0,0,0-1.72c0-.13,0-.26-.05-.39v-.07l-.06-.34v-.08c0-.1-.05-.21-.07-.31v-.05c0-.09-.05-.18-.07-.26l0-.06a2.58,2.58,0,0,0-.08-.26l0-.06L29,34.92l0-.05-.09-.19,0,0a1.74,1.74,0,0,0-.11-.18l0-.05-.11-.15,0,0-.12-.13,0,0-.12-.1,0,0-.14-.09-.05,0L28,33.75h0l-.16,0h0l-.18,0h-.62l-.09,0h-.08l-.17,0c-1.43.37-2.21,2.13-2.58,4.46-.08.46-.13.93-.18,1.42-.27,3-.57,7.79-1.07,8.53a.7.7,0,0,1-.08.12c-.13.16-.47.29-1.2-.74a19.55,19.55,0,0,1-1.67-3.13c-1.93-4.3-5.24-7.79-7.56-8.21a1.86,1.86,0,0,0-1.51.29l-.16.13-.05.05a.3.3,0,0,0-.08.08l-.06.06-.06.07-.05.07-.06.08a.16.16,0,0,0,0,.07l0,.07s0,0,0,.08l0,.08,0,.07,0,.09a.19.19,0,0,0,0,.07l0,.1a.5.5,0,0,0,0,.12.43.43,0,0,0,0,.11.22.22,0,0,0,0,.08s0,.06,0,.09v.27a.25.25,0,0,0,0,.08v.1a.28.28,0,0,1,0,.09s0,.06,0,.09,0,.06,0,.09a.29.29,0,0,1,0,.09.36.36,0,0,1,0,.1l0,.09,0,.11s0,.06,0,.09l.06.17,0,.09a17583154008581.06,17583154008581.06,0,0,1,.08.2.36.36,0,0,1,0,.09.93.93,0,0,0,.05.1l0,.1.05.1,0,.09.06.1a.41.41,0,0,0,.05.09.31.31,0,0,0,0,.1l.05.09.06.11,0,.07c.09.15.18.3.28.44l0,0,.1.14,0,0a.71.71,0,0,0,.1.14l0,0,.11.15h0a.91.91,0,0,0,.46.57l.06.09c.25.29.5.56.75.82,1.87,1.92,2.9,3.12,1.51,3.69-1.23.5-2.12-3.06-4.19-3.46h0a2,2,0,0,0-.78,0C6.59,44,5.67,46.72,7.19,48l.2.17,0,0a2.08,2.08,0,0,0,1.32,1l.1.07c1.49,1,3.12,2.09,3.06,2.88-.08,1.12-.84,1.48-3,.52a6.58,6.58,0,0,0-3.49-.51c-1,.16-1.8.65-1.82,1.51a4.53,4.53,0,0,0,2,4.13,12.14,12.14,0,0,0,2.65,1l1.47.36.09.11c.52.75.23,1.09-.87,1.16a8.9,8.9,0,0,0-3.62.82h0a1.3,1.3,0,0,0-.68,1.05C4.63,63.86,6,66,10,66.5l.38,0h1.42a4.86,4.86,0,0,0,.56,0h.06l.19,0h.07l.16,0,.07,0,.14,0h.07l.13,0,.07,0,.11,0,.06,0,.11,0,0,0,.1,0,.05,0,.09,0h0l.12-.07h0a1.43,1.43,0,0,0,.61-.56A11.76,11.76,0,0,0,19,66.66l-.13.18a18.75,18.75,0,0,0,10.79,5.27,13.84,13.84,0,0,0,3.87-.19,14.88,14.88,0,0,0,3-.91s2.71.74,6.53-1.43h0c.35-.2.71-.42,1.08-.67,0,0,.13.61.34,1.28,0,.16.1.31.16.47h0l-.07.06-.13.11-.28.24c-.92.82-2.81,2.65-2.62,3.72s1.18,1.59,2.76,1.56l-1.43.87h0c-1.07.65-2.45,1.53-3.21,2.11l-.06,0h0c-1.3,1-1.85,2.47-4.07,4.18s-2.16,3-3,6.53c-.38,1.54-.78,3.08-1.12,4.33-.44,1.62-.77,2.75-.77,2.75a14,14,0,0,0-1.51,1.74l0,.06,0,0-.07.09,0,0h0a14,14,0,0,0-1,1.56,12.68,12.68,0,0,0-.84,1.9,10.39,10.39,0,0,0-.33,1.16,33.55,33.55,0,0,0-.62,4.55c0,.61-.07,1.16-.09,1.64,0,1.08,0,1.77,0,1.77a11.85,11.85,0,0,0-1,1.39h0a14.92,14.92,0,0,0-1.39,2.83A12.16,12.16,0,0,0,23,119.2c-.3,3.76,3.87,14.15,4.89,16.65-8.22-2.41-17.23-3.5-23.74-.22A9.31,9.31,0,0,0,1.93,137l-.5.38.05,0a8.8,8.8,0,0,0-.65.72,5.53,5.53,0,0,0-1.4,1.63c-.49.87-.29,2.44.57,4.47.18.43.39.87.62,1.33a38.65,38.65,0,0,0,4.69,6.87c.27.33.55.67.85,1a64.46,64.46,0,0,0,4.94,5.08l.94.86c1.65,1.47,3.45,2.95,5.4,4.4l1,.75c2.2,1.58,4.59,3.14,7.15,4.62l1.11.62q3.3,1.84,7,3.48l1.17.52c2.13.91,4.36,1.76,6.66,2.53l.58.19h0c.32,0,.62-.09.92-.15,7.68-1.5,12.31-8.43,13.09-13.51a2.13,2.13,0,0,0,0-.33,6.73,6.73,0,0,0-.31-3.34,24.31,24.31,0,0,0-3.68-7.94A32.38,32.38,0,0,0,50,146.88a87.29,87.29,0,0,0-.13-10.55c-.52-5.34-2.23-9.49-2-12.35,0,0,2.55-1.18,4.64-10,.26-1.09.51-2.3.75-3.64l.19-.06c1.1-.35,6.73-2.37,9-7.36,2.47-5.54,4.94-6.34,6.26-5.48s6.91,6.16,15.1,5.76c0,0,.23.53.68,1.35h0a26.75,26.75,0,0,0,2.07,3.22,15,15,0,0,0,5.14,4.54,54.55,54.55,0,0,1,.77,11.32c-.12,5.13.46,11.45,2.24,15.31.33,1.82.81,3.43.81,3.43a24.65,24.65,0,0,0,2.13,8.5,6.79,6.79,0,0,0,1.86,2.79l.24.23c3.8,3.45,11.76,5.94,18.68,2.28q.41-.21.81-.45h0l.33-.51c1.31-2.05,2.5-4.11,3.59-6.15.2-.38.4-.76.59-1.14,1.22-2.39,2.29-4.76,3.23-7.09.16-.4.32-.79.47-1.18a81.07,81.07,0,0,0,2.66-8.09c.12-.41.22-.82.33-1.22.6-2.36,1.08-4.64,1.43-6.82.07-.42.14-.84.2-1.26a67.18,67.18,0,0,0,.65-7c0-.45,0-.88,0-1.31A39.28,39.28,0,0,0,132.1,105.59ZM29,99h0ZM44.44,74.91l-.2,0a1,1,0,0,1-.4-.16.52.52,0,0,1-.16-.17.36.36,0,0,1,0-.09.59.59,0,0,1,0-.23,1.91,1.91,0,0,1,.24-.79,2.69,2.69,0,0,1,.16-.29c.12-.19.25-.38.38-.55l.09-.13.19-.23c.28-.34.5-.56.5-.56A13.75,13.75,0,0,0,44.44,74.91Zm42.38-9.5h0s3.39-.6,3.92.16c.37.54.12,1.37-1.23,1.87a7,7,0,0,1-2,.4c-.17-.64-.39-1.36-.68-2.16Z" transform="translate(0.83)" style="mix-blend-mode:overlay;opacity:0.5700000000000001;fill:url(#linear-gradient-70)"/></g></g></svg>