<svg id="_1" data-name="1" xmlns="http://www.w3.org/2000/svg" viewBox="0 0 187.97 227.25"><path d="M127.11,169.71l15.24,57.54H188L171.8,166.2a69,69,0,0,1-27.53,5.34,76.59,76.59,0,0,1-17.16-1.83Z" style="fill:#fab087"/><path d="M127.11,169.71H60.86L45.62,227.25H0L60.2,0h67.57L163.5,134.87c-7.61,6.89-17.58,11.9-29.2,11.9-27.22,0-32.6-14.67-33.43-17.74a56.26,56.26,0,0,0,4.88-8.37l8.28,6.51,4.45-6.9-8.73-10.68A70.59,70.59,0,0,0,112,91.7c0-18.76-7.15-35.32-18-45.15C83.1,56.38,76,72.94,76,91.7a70.59,70.59,0,0,0,2.27,17.89l-8.73,10.68,4.45,6.9,8.28-6.51a56,56,0,0,0,5.18,8.81c1,5.58,7.66,32.89,39.71,40.24ZM87.22,87.11A6.77,6.77,0,1,0,94,80.34,6.76,6.76,0,0,0,87.22,87.11Z" style="fill:#f27684"/></svg>