<svg id="Layer_1" data-name="Layer 1" xmlns="http://www.w3.org/2000/svg" viewBox="0 0 434.86 112.25"><defs><style>.cls-1{fill:#231f20;}</style></defs><path class="cls-1" d="M283.78.62h-18V65.1h18ZM246.16,61H177.8V.62h-18V65.1h86.33ZM133.08,40.54l-17.92-.31c-4.33,13.45-21.35,21.48-45.54,21.48C40,61.71,23,51.21,23,32.92,23,13.14,47.15,4.13,69.62,4.13c19,0,40.46,6.77,45.54,21.9l17.92-.32C127.75,9.85,103.43,0,69.62,0,30.37,0,5,12.92,5,32.92,5,60.13,40.14,65.84,69.62,65.84c16.63,0,56.11-2.46,63.46-25.3M375.23,4.13c-22.47,0-46.64,9-46.64,28.79,0,18.29,17,28.79,46.64,28.79,28.35,0,46.65-11.3,46.65-28.79,0-19.78-24.17-28.79-46.65-28.79m0,61.71c-29.48,0-64.62-5.71-64.62-32.92C310.61,12.92,336,0,375.23,0s64.63,12.92,64.63,32.92c0,29.71-45.2,32.92-64.63,32.92" transform="translate(-5)"/><path class="cls-1" d="M414.69,91.68A6.25,6.25,0,0,0,409,88.19c-3.24,0-6.12,2.24-6.12,5.73,0,3.22,2.2,4.57,4.76,5.76l1.34.6c2,1,4,1.85,4,4.47a4.46,4.46,0,0,1-4.5,4.39,4.56,4.56,0,0,1-4.38-4.18l-2.38.69a6.89,6.89,0,0,0,13.69-1.14c0-3.58-2.4-5-5.25-6.32l-1.45-.66c-1.48-.69-3.42-1.58-3.42-3.52A3.51,3.51,0,0,1,409,90.52,4,4,0,0,1,412.75,93Zm-84.26,17.07V90.9h1.77c2.59,0,4.79.36,6.8,2.18a9.38,9.38,0,0,1,.11,13.34c-2,1.94-4.24,2.33-6.91,2.33ZM328,111.08h4.06c3.42,0,6-.45,8.65-2.83a11.81,11.81,0,0,0-.06-17c-2.59-2.26-5.25-2.71-8.54-2.71H328Zm-68.45-9.88h.61l6.62,9.88h3l-7-10.09a5.82,5.82,0,0,0,5.49-6.2c0-5.08-3.86-6.21-8-6.21h-3.16v22.5h2.43Zm0-10.3h.73c2.93,0,5.57.36,5.57,4.06,0,3.5-2.79,4-5.55,4h-.75Zm-66.21,11.47H186l3.74-9Zm1,2.32,2.58,6.39h2.7l-9.83-23.57-10.1,23.57h2.67l2.64-6.39ZM98.59,88.58H96l8.38,23.67,7.08-18.12,7.07,18.12,8.38-23.67h-2.63l-5.75,16.86-7.07-18-7.08,18Zm-61.7,13.79H29.5l3.74-9Zm1,2.32,2.58,6.39h2.7L33.3,87.51,23.2,111.08h2.67l2.64-6.39Z" transform="translate(-5)"/></svg>