<?xml version="1.0" encoding="utf-8"?>
<!-- Generator: Adobe Illustrator 26.0.1, SVG Export Plug-In . SVG Version: 6.00 Build 0)  -->
<svg version="1.1" id="Layer_1" xmlns="http://www.w3.org/2000/svg" xmlns:xlink="http://www.w3.org/1999/xlink" x="0px" y="0px"
	 viewBox="0 0 339 160.8" style="enable-background:new 0 0 339 160.8;" xml:space="preserve">
<style type="text/css">
	.st0{fill:#FFFFFF;}
</style>
<path class="st0" d="M36.4,58.1V12.6c0-1.7,0.2-2.7,3-2.7h38.5c6.7,0,10.4,5.7,13.1,16.5l2.2,8.6h6.6C101,10.6,102,0,102,0
	S85.5,1.9,75.7,1.9H26.4L0,1v7.1l8.9,1.7c6.2,1.2,7.7,2.5,8.2,8.2c0,0,0.5,16.8,0.5,44.6c0,27.8-0.5,44.4-0.5,44.4
	c0,5-2,6.9-8.2,8.1L0,116.8v7.1l26.4-0.8h44.1c9.9,0,33,0.8,33,0.8c0.5-6.1,3.9-33.5,4.4-36.5h-6.2l-6.6,15
	C89.9,114.1,82.3,115,73.9,115H48.8c-8.4,0-12.5-3.4-12.5-10.6V66c0,0,18.3,0,24.7,0.5c4.7,0.3,7.6,1.7,9.1,8.2l2,8.8h7.2l-0.5-22.1
	l1-22.2h-7.2L70.4,49c-1.5,6.4-2.5,7.6-9.1,8.2c-7.4,0.8-24.9,0.7-24.9,0.7L36.4,58.1L36.4,58.1L36.4,58.1L36.4,58.1z M136.2,17.3
	c-2.4,10.4-4.7,18.5-13,23.9c-5,3.4-10.1,4.5-12.1,4.7v6.4h15V104c0,14.5,9.6,21.5,22.4,21.5c9.9,0,20.2-4.2,23.7-13l-3.5-4.5
	c-1.7,2.9-7.1,7.1-13.8,7.1c-7.4,0-11.4-5.1-11.4-17.8V51.7l24.9,1.9l1.3-11.4l-26.3,1V17.5C143.4,17.5,136.2,17.3,136.2,17.3z
	 M189.4,96.8L183,97c0.3,3.7,0.5,8.4,0.5,12.8c0,4.5-0.2,8.8-0.5,10.8c0,0,12.8,4.7,25.8,4.7c17.5,0,31.5-8.4,31.5-24.9
	c0-28.3-42.4-24.1-42.4-43.1c0-7.9,7.1-10.9,14.8-10.9c6.1,0,11.1,2.2,12.1,5.4l4.2,12.6l6.2-0.3c0.5-6.7,0.8-14.5,1.9-20.7
	c-5.4-2.4-16.7-3.7-23.7-3.7c-16.5,0-29.8,7.2-29.8,23.4c0,28.1,41.4,22.4,41.4,43.1c0,7.4-4.5,12.6-14.8,12.6
	c-9.4,0-14.1-4.9-16-9.8L189.4,96.8L189.4,96.8z M290.8,116.3c-9.7,27.2-21.7,34.3-32.4,34.3c-4.5,0-6.7-2-7.4-5.2l-2.5-13.1
	l-7.1,0.3c-1.3,7.7-2.7,16.3-4.5,23.4c4.2,3.2,11.3,4.9,16.8,4.9c11.6,0,29.2-1.5,45.4-39.8l27.1-63.8c2.2-5.2,3-5.7,9.4-8.2
	l3.5-1.3v-5.9l-16,0.8l-17.1-0.8v5.9l4.4,1.3c4.4,1.3,6.4,3,6.4,6.1c0,1.5-0.5,3-1.3,5.4c-2.5,6.4-18.1,44.4-22.3,52.4l4.2-1.5
	c-7.4-18.3-18.6-48.9-20.3-54.1c-0.3-1-0.5-1.8-0.5-2.7c0-2.7,1.8-4.9,5.9-5.7l5.5-1.2v-5.9l-23,0.8l-18.3-0.8v5.9l3,1
	c4.2,1.3,5.2,2.5,7.7,8.4c13.9,31.9,20.5,49.4,29.4,72.2L290.8,116.3L290.8,116.3z"/>
</svg>
