<svg id="Layer_1" data-name="Layer 1" xmlns="http://www.w3.org/2000/svg" viewBox="0 0 192.76 192.76"><defs><style>.cls-1{fill:#fff;}.cls-1,.cls-2,.cls-3{fill-rule:evenodd;}.cls-3{fill:#231f20;}</style></defs><polygon class="cls-1" points="0 0 192.76 0 192.76 192.76 0 192.76 0 0 0 0"/><path class="cls-2" d="M159,71.63A59.13,59.13,0,1,1,99.85,12.5,59.18,59.18,0,0,1,159,71.63Z" transform="translate(-3 -4)"/><path class="cls-1" d="M121.67,35,92.34,64.36l14.78,14.55,14.55-14.55c2.35,2.11,4.69,4.69,7.27,7.27C118.15,82.66,99.85,101,99.85,101L70.52,71.63,114.4,27.76,99.85,13,41.19,71.63l58.66,58.43,58.42-58.43L121.67,35Z" transform="translate(-3 -4)"/><path class="cls-3" d="M41.66,154.23v3.05h-.94c-1.65,0-2.58-.7-2.58-4.93,0-3.28,1.4-4.46,2.81-4.46a4.92,4.92,0,0,1,3,1.18l1.64-1.88a5.29,5.29,0,0,0-4.92-2.58c-4.46,0-6.81,3-6.81,8.45,0,4.92,1.88,7.5,5.87,7.5a8.79,8.79,0,0,0,5.86-2.11v-7.27H39.78v3Z" transform="translate(-3 -4)"/><path class="cls-3" d="M60.66,152.12c0-4.93-2.58-7.51-6.8-7.51s-7.28,2.81-7.28,8.21c0,5.16,2.58,8,7,8,3.52,0,7-2.35,7-8.68Zm-4.46.7c0,3.76-1.17,4.69-2.58,4.69S51,156.34,51,152.12c0-3.29,1.17-4.46,2.35-4.46,1.64,0,2.81,1.17,2.81,5.16Z" transform="translate(-3 -4)"/><path class="cls-3" d="M75.21,152.12c0-4.93-2.58-7.51-6.81-7.51s-7,2.81-7,8.21c0,5.16,2.58,8,6.8,8,3.75,0,7-2.35,7-8.68Zm-4.22.7c0,3.76-1.18,4.69-2.59,4.69s-2.58-1.17-2.58-5.39c0-3.29,1.18-4.46,2.35-4.46,1.64,0,2.82,1.17,2.82,5.16Z" transform="translate(-3 -4)"/><path class="cls-3" d="M89.29,152.12c0-4.23-2.11-7.28-7.51-7.28H77.09v15.49c1.4,0,2.81.23,4,.23,5.63,0,8.21-3.28,8.21-8.44Zm-4.23.23c0,3.76-1.4,4.93-3.52,4.93h-.46v-9.39h.46c2.35,0,3.52,1.65,3.52,4.46Z" transform="translate(-3 -4)"/><path class="cls-3" d="M109,152.12c0-4.23-2.11-7.28-7.51-7.28H96.8v15.49c1.4,0,3,.23,4,.23,5.86,0,8.21-3.28,8.21-8.44Zm-4.23.23c0,3.76-1.4,4.93-3.28,4.93h-.7v-9.39h.47c2.58,0,3.51,1.65,3.51,4.46Z" transform="translate(-3 -4)"/><polygon class="cls-3" points="116.79 156.33 116.79 153.04 111.86 153.04 111.86 149.99 115.85 149.99 115.85 146.94 111.86 146.94 111.86 143.89 116.56 143.89 116.56 140.84 107.88 140.84 107.88 156.33 116.79 156.33 116.79 156.33"/><path class="cls-3" d="M131.52,155.87c0-5.16-6.57-4.46-6.57-7,0-.7.47-1.41,1.65-1.41a10,10,0,0,1,3.28.94l.94-2.11a6.61,6.61,0,0,0-4.46-1.64c-3.75,0-5.86,1.88-5.86,4.69,0,5.16,6.33,4.46,6.33,6.81,0,.7-.47,1.4-2.11,1.4a8.54,8.54,0,0,1-3.52-.7L120,158.92A7.57,7.57,0,0,0,125,160.8c4.46,0,6.57-2.35,6.57-4.93Z" transform="translate(-3 -4)"/><polygon class="cls-3" points="134.16 156.33 134.16 140.84 130.17 140.84 130.17 156.33 134.16 156.33 134.16 156.33"/><path class="cls-3" d="M146.54,154.23v3.05h-.94c-1.64,0-2.58-.7-2.58-4.93,0-3.28,1.41-4.46,2.82-4.46a4.92,4.92,0,0,1,3,1.18l1.64-1.88a5.3,5.3,0,0,0-4.93-2.58c-4.46,0-6.8,3-6.8,8.45,0,4.92,1.88,7.5,6.1,7.5a8.16,8.16,0,0,0,5.63-2.11v-7.27h-5.87v3Z" transform="translate(-3 -4)"/><polygon class="cls-3" points="161.84 156.33 161.84 140.84 158.32 140.84 158.32 149.06 154.8 140.84 149.41 140.84 149.41 156.33 152.93 156.33 152.93 146.71 157.38 156.33 161.84 156.33 161.84 156.33"/><path class="cls-3" d="M51.28,188c-1.41-5.4-3.05-10.33-4.7-15.49H41.66C40,177.46,38.37,182.62,37,188h4c.24-1.18.47-2.11.71-3.05h4.22a21.32,21.32,0,0,0,.94,3.05Zm-6.1-5.87H42.36c.47-1.64.94-3.52,1.41-4.93q.7,2.11,1.41,4.93Z" transform="translate(-3 -4)"/><path class="cls-3" d="M70.05,172.53H66.29c-.47,3.05-.94,6.1-1.64,9.62h0l-1.88-9.62h-4l-1.87,9.62h-.24c-.47-3.75-.94-6.8-1.41-9.62H51A113.92,113.92,0,0,0,54.33,188h4.22l1.88-8.92h0L62.3,188h4.46a150,150,0,0,0,3.29-15.49Z" transform="translate(-3 -4)"/><path class="cls-3" d="M83.89,188c-1.41-5.4-3-10.33-4.69-15.49H74.27C72.63,177.46,71,182.62,69.58,188h4c.23-1.18.47-2.11.7-3.05h4.22a22.69,22.69,0,0,0,.94,3.05Zm-6.1-5.87H75c.46-1.64.93-3.52,1.4-4.93q.7,2.11,1.41,4.93Z" transform="translate(-3 -4)"/><path class="cls-3" d="M96.09,188l-3-6.57A4.48,4.48,0,0,0,95.86,177c0-2.82-1.64-4.46-5.63-4.46h-5.4V188h4v-6.1h.47L91.4,188Zm-4.46-10.8a1.72,1.72,0,0,1-1.87,1.88h-.94v-3.75h.94c1.64,0,1.87.94,1.87,1.87Z" transform="translate(-3 -4)"/><path class="cls-3" d="M109.7,179.8c0-4.22-2.11-7.27-7.51-7.27H97.5V188c1.41,0,3,.23,4,.23,5.87,0,8.21-3.28,8.21-8.45Zm-4.22.24c0,3.75-1.41,4.93-3.29,4.93h-.7v-9.39H102c2.58,0,3.52,1.64,3.52,4.46Z" transform="translate(-3 -4)"/><path class="cls-3" d="M127.07,188v-3.29h-4.93c3-2.11,4.69-3.52,4.69-6.1,0-2.34-1.64-4.22-4.93-4.22a13,13,0,0,0-5.39,1.41l.47,2.58a10.34,10.34,0,0,1,3.52-.71c1.4,0,1.87.47,1.87,1.41,0,1.41-.94,2.35-5.86,6.1V188Z" transform="translate(-3 -4)"/><path class="cls-3" d="M139,181.68c0-5.63-1.64-7.27-5.39-7.27s-5.87,1.88-5.87,6.8c0,5.63,1.64,7,5.63,7,3.76,0,5.63-1.41,5.63-6.57Zm-4.22-.23c0,3.52-.24,4-1.41,4s-1.41-.47-1.41-4,.47-4,1.41-4c1.17,0,1.41.23,1.41,4Z" transform="translate(-3 -4)"/><path class="cls-3" d="M150.53,181.68c0-5.63-1.64-7.27-5.4-7.27s-5.86,1.88-5.86,6.8c0,5.63,1.87,7,5.63,7s5.63-1.41,5.63-6.57Zm-4-.23c0,3.52-.47,4-1.64,4-.94,0-1.41-.47-1.41-4s.47-4,1.41-4c1.17,0,1.64.23,1.64,4Z" transform="translate(-3 -4)"/><polygon class="cls-3" points="158.79 184.02 158.79 180.97 156.21 180.97 156.21 170.64 152.93 170.64 148.47 172.99 148.94 175.34 151.75 174.4 151.75 180.97 148.47 180.97 148.47 184.02 158.79 184.02 158.79 184.02"/></svg>