<svg id="Capa_1" data-name="Capa 1" xmlns="http://www.w3.org/2000/svg" viewBox="0 0 467 698.79"><defs><style>.cls-1{fill:#e2001a;}.cls-2{fill:#fff;}</style></defs><path class="cls-1" d="M24.48,517.89a12.43,12.43,0,0,0-5.57-1.16c-5.08,0-8.33,4-8.33,10S13.33,537,19.09,537a17.45,17.45,0,0,0,6.31-1.47l.37,6.79a26.66,26.66,0,0,1-8.21,1c-10.35,0-15.56-7-15.56-16.65,0-9.13,5.4-16.35,15.25-16.35a26.45,26.45,0,0,1,8,1Zm23.26-7.53c9.37,0,16.54,6.3,16.54,16.71,0,9.07-6.07,16.29-16.54,16.29s-16.47-7.22-16.47-16.29C31.27,516.66,38.43,510.36,47.74,510.36Zm0,26.64c6.31,0,8-5.64,8-10.91,0-4.83-2.57-9.36-8-9.36s-7.9,4.65-7.9,9.36C39.84,531.3,41.49,537,47.74,537Zm24.91-25.91H80.3v4.41h.12a11.1,11.1,0,0,1,9.37-5.14c4.41,0,7.53,1.65,9.31,5.57,1.9-3.79,6-5.57,9.86-5.57,7.77,0,10,5.33,10,12.37v19.9h-8.21v-18.8c0-2.94,0-7.1-4.71-7.1-5.45,0-6.12,6.49-6.12,10.59v15.31H91.69v-18.8c0-2.94,0-7.1-4.71-7.1-5.46,0-6.13,6.49-6.13,10.59v15.31h-8.2Zm56.49,0h7.65v4.41h.12a11.12,11.12,0,0,1,9.37-5.14c4.41,0,7.53,1.65,9.32,5.57,1.89-3.79,6-5.57,9.85-5.57,7.77,0,10,5.33,10,12.37v19.9h-8.2v-18.8c0-2.94,0-7.1-4.71-7.1-5.46,0-6.13,6.49-6.13,10.59v15.31h-8.2v-18.8c0-2.94,0-7.1-4.72-7.1-5.45,0-6.13,6.49-6.13,10.59v15.31h-8.2Zm85.58,31.54h-7.78v-4.29h-.12a13.15,13.15,0,0,1-10.35,5c-7.47,0-10.72-5.26-10.72-12.37v-19.9H194v16.84c0,3.86,0,9.07,5.33,9.07,5.93,0,7.22-6.43,7.22-10.47V511.09h8.21Zm10.51-31.54H233v4.29h.13c2.57-3.61,6.05-5,10.34-5,7.47,0,10.72,5.26,10.72,12.37v19.9H246V525.79c0-3.86-.06-9.06-5.32-9.06-5.95,0-7.24,6.43-7.24,10.47v15.43h-8.2Zm39.66-13.59h8.21v7.84h-8.21Zm0,13.59h8.21v31.54h-8.21Zm39.38,6.8a12.43,12.43,0,0,0-5.57-1.16c-5.09,0-8.33,4-8.33,10S293.13,537,298.88,537a17.45,17.45,0,0,0,6.31-1.47l.36,6.79a26.55,26.55,0,0,1-8.2,1c-10.35,0-15.55-7-15.55-16.65,0-9.13,5.38-16.35,15.25-16.35a26.43,26.43,0,0,1,7.95,1Zm10.22-5.15a28.37,28.37,0,0,1,11-2.38c9.61,0,13.59,4,13.59,13.29v4c0,3.18.06,5.57.13,7.9s.18,4.59.36,7H332.3a39.08,39.08,0,0,1-.36-4.71h-.12a11.28,11.28,0,0,1-9.74,5.44c-5.58,0-11-3.36-11-9.36,0-4.72,2.27-7.47,5.4-9s7.16-1.83,10.59-1.83h4.53c0-5.09-2.27-6.8-7.11-6.8a16.53,16.53,0,0,0-9.73,3.43Zm9.61,24.62a7,7,0,0,0,5.76-2.81,10.45,10.45,0,0,0,1.71-6.5H328c-3.68,0-9.13.62-9.13,5.46C318.89,536.2,321.16,537.36,324.1,537.36Zm27.78-20.27h-6.05v-6h6.05v-6.31l8.21-2.63v8.94h7.29v6h-7.29v14.7c0,2.69.74,5.21,3.86,5.21a7.36,7.36,0,0,0,3.74-.86l.24,6.49a21.61,21.61,0,0,1-6.06.73c-6.43,0-10-4-10-10.22Zm23.39-19.59h8.21v7.84h-8.21Zm0,13.59h8.21v31.54h-8.21Zm33.38-.73c9.36,0,16.53,6.3,16.53,16.71,0,9.07-6.06,16.29-16.53,16.29s-16.48-7.22-16.48-16.29C392.17,516.66,399.33,510.36,408.65,510.36Zm0,26.64c6.3,0,8-5.64,8-10.91,0-4.83-2.57-9.36-8-9.36s-7.91,4.65-7.91,9.36C400.74,531.3,402.4,537,408.65,537Zm25-25.91h7.78v4.29h.12c2.58-3.61,6.07-5,10.35-5,7.48,0,10.72,5.26,10.72,12.37v19.9h-8.21V525.79c0-3.86-.06-9.06-5.32-9.06-5.95,0-7.23,6.43-7.23,10.47v15.43h-8.21Z" transform="translate(0.2 0)"/><path class="cls-1" d="M25,616.79h-.12a11.72,11.72,0,0,1-9.67,4.29c-9.68,0-13.24-8-13.24-16.6s3.56-16.41,13.24-16.41a11.21,11.21,0,0,1,9.42,4.41h.12V574.42H33v45.92H25Zm-7.53-2.08c5.45,0,7.23-5.76,7.23-10.23s-2.09-10-7.36-10-6.79,5.82-6.79,10S12.11,614.71,17.5,614.71Zm52.87,3.86a21.7,21.7,0,0,1-10.84,2.51c-10.4,0-16.46-6-16.46-16.35,0-9.13,4.84-16.66,14.63-16.66,11.7,0,15,8,15,19H50.9c.37,5.08,3.92,8,9,8a21.15,21.15,0,0,0,10.47-3.19Zm-5.51-17.09c-.24-4-2.08-7.41-6.67-7.41s-6.92,3.19-7.29,7.41Zm36.66-6.06a20.08,20.08,0,0,0-7.35-1.35c-2.2,0-4.84.8-4.84,3.49,0,5,14.27,1.84,14.27,13.23,0,7.35-6.55,10.29-13.23,10.29a36.54,36.54,0,0,1-9.3-1.35l.48-6.73a18.14,18.14,0,0,0,8.09,2.08c2.08,0,5.38-.8,5.38-3.86,0-6.19-14.26-2-14.26-13.35,0-6.8,5.93-9.8,12.37-9.8a37.9,37.9,0,0,1,8.94,1.16Zm12.28-20.21H122v7.84H113.8Zm0,13.6H122v31.53H113.8Zm49.47,0v28.47c0,8.57-3.43,16.66-16.66,16.66a27.61,27.61,0,0,1-10.9-2.15l.68-7c2.51,1.35,6.61,2.76,9.18,2.76,9.06,0,9.49-6.8,9.49-12.25h-.12c-1.53,2.7-5.21,5-9.8,5-9.31,0-12.86-7.47-12.86-15.92,0-7.59,3.92-16.35,13.35-16.35,4.17,0,7.41,1.41,9.68,5h.12v-4.28Zm-8.21,15.43c0-5.39-2.08-9.8-6.86-9.8-5.57,0-7.35,5.14-7.35,10,0,4.29,2.27,9.56,7,9.56C153,614,155.06,609.5,155.06,604.24Zm20.3-15.43h7.78v4.28h.12c2.57-3.61,6.06-5,10.35-5,7.47,0,10.72,5.27,10.72,12.37v19.9h-8.21V603.5c0-3.85-.06-9.06-5.33-9.06-5.94,0-7.23,6.43-7.23,10.47v15.43h-8.2Z" transform="translate(0.2 0)"/><path class="cls-1" d="M5.44,668.17a28.2,28.2,0,0,1,11-2.39c9.61,0,13.59,4,13.59,13.29v4c0,3.18.06,5.57.13,7.89s.18,4.6.36,7H23.25a39.37,39.37,0,0,1-.36-4.72h-.12A11.29,11.29,0,0,1,13,698.79c-5.58,0-11-3.37-11-9.37,0-4.72,2.27-7.47,5.4-9s7.16-1.84,10.59-1.84h4.53c0-5.08-2.27-6.8-7.11-6.8a16.51,16.51,0,0,0-9.73,3.43Zm9.61,24.62A7,7,0,0,0,20.81,690a10.42,10.42,0,0,0,1.71-6.49H19c-3.68,0-9.13.62-9.13,5.45C9.84,691.63,12.11,692.79,15.05,692.79Zm23.12-26.27h8.69l7,23.33H54l6.37-23.33h9.55l6.86,23.33h.12l6.55-23.33h7.84l-9.67,31.54H71.91l-6.86-24h-.12l-6.73,24H48.82Zm63,1.65a28.2,28.2,0,0,1,11-2.39c9.61,0,13.6,4,13.6,13.29v4c0,3.18,0,5.57.12,7.89s.18,4.6.36,7H119a37.68,37.68,0,0,1-.37-4.72h-.12a11.27,11.27,0,0,1-9.74,5.45c-5.57,0-11-3.37-11-9.37,0-4.72,2.26-7.47,5.39-9s7.16-1.84,10.59-1.84h4.53c0-5.08-2.26-6.8-7.1-6.8a16.54,16.54,0,0,0-9.74,3.43Zm9.61,24.62a7,7,0,0,0,5.76-2.82,10.42,10.42,0,0,0,1.71-6.49h-3.55c-3.67,0-9.12.62-9.12,5.45C105.61,691.63,107.87,692.79,110.81,692.79Zm26.86-26.27H145v7.16h.13c.36-2.94,3.73-7.9,8.63-7.9a8.88,8.88,0,0,1,2.52.25v8.27a8.37,8.37,0,0,0-3.68-.68c-6.68,0-6.68,8.33-6.68,12.86v11.58h-8.2Zm48.3,28h-.13c-2.45,3.07-5.82,4.29-9.67,4.29-9.68,0-13.24-8-13.24-16.59s3.56-16.42,13.24-16.42a11.22,11.22,0,0,1,9.43,4.41h.12V652.13h8.21v45.93h-8Zm-7.54-2.08c5.46,0,7.23-5.76,7.23-10.22s-2.08-10.05-7.35-10.05-6.79,5.82-6.79,10.05S173,692.42,178.43,692.42Z" transform="translate(0.2 0)"/><rect class="cls-1" width="467" height="466.99"/><rect class="cls-2" x="100.18" y="197.31" width="78.03" height="175.58"/><path class="cls-2" d="M93.48,138.88a44.79,44.79,0,1,1,44.79,44.78,44.78,44.78,0,0,1-44.79-44.78" transform="translate(0.2 0)"/><rect class="cls-2" x="295.28" y="99.76" width="78.03" height="78.04"/><rect class="cls-2" x="197.73" y="99.76" width="78.03" height="273.12"/><rect class="cls-2" x="295.28" y="197.3" width="78.03" height="78.03"/></svg>