<?xml version="1.0" encoding="utf-8"?>
<!-- Generator: Adobe Illustrator 26.0.1, SVG Export Plug-In . SVG Version: 6.00 Build 0)  -->
<svg version="1.1" id="Layer_1" xmlns="http://www.w3.org/2000/svg" xmlns:xlink="http://www.w3.org/1999/xlink" x="0px" y="0px"
	 viewBox="0 0 300 81.4" style="enable-background:new 0 0 300 81.4;" xml:space="preserve">
<style type="text/css">
	.st0{fill:#B81D24;}
</style>
<g>
	<path class="st0" d="M256.1,76.2c4.2,0.4,8.4,0.8,12.5,1.3l9.2-22.7l8.7,24.8c4.5,0.6,9,1.2,13.4,1.8l-15.3-43.5L300,0h-13
		l-0.1,0.2l-8.3,20.5L271.3,0h-12.8l13.2,37.6L256.1,76.2L256.1,76.2z M246.4,75.3V0h-12.8v74.3C237.9,74.6,242.1,74.9,246.4,75.3
		 M150.1,71.1c3.5,0,6.9,0,10.4,0.1V43.5h15.4V31.7h-15.4V11.8h17.7V0h-30.6v71.1C148.4,71.1,149.3,71.1,150.1,71.1 M110.3,71.8
		c4.3-0.2,8.5-0.3,12.8-0.4V11.8h12V0H98.3v11.8h12L110.3,71.8L110.3,71.8z M12.3,79.8V34.9L27.5,78c4.7-0.5,9.3-1,14-1.5V0H29.2
		v46.5L12.8,0H0v81.4h0.1C4.1,80.8,8.2,80.3,12.3,79.8 M86,11.8V0H55.4v75.2C65.6,74.3,75.8,73.6,86,73V61.2
		c-5.9,0.3-11.8,0.7-17.7,1.2V43.5h15.4V31.7H68.2V11.8H86z M203.6,60.6V0h-12.9v71.9c10.2,0.4,20.4,0.9,30.6,1.6V61.6
		C215.4,61.2,209.5,60.9,203.6,60.6"/>
</g>
</svg>
