<svg id="Layer_1" data-name="Layer 1" xmlns="http://www.w3.org/2000/svg" viewBox="0 0 651.35 339.74"><path d="M109,208c-5.17,0-9.22,3.62-9.22,8.9s4.07,8.87,9.22,8.87,9.22-3.61,9.22-8.87S114.18,208,109,208Zm0,15.23a6.35,6.35,0,1,1,6.42-6.33A6.27,6.27,0,0,1,109,223.23Z" transform="translate(0.5 -0.54)" style="fill:#fff"/><polygon points="199.23 176.34 154.35 176.34 159.45 98.32 130.3 176.34 88.62 176.34 154.75 0 199.1 0 193.98 79.09 223.69 0 265.37 0 199.23 176.34" style="fill:#fff"/><polygon points="204.65 176.34 270.78 0 312.46 0 246.33 176.34 204.65 176.34" style="fill:#fff"/><path d="M83.31,116.1C25.06,184.5-29.88,275.51,18.65,317.42,65.68,358,124.46,334,164.54,318S647.61,109.55,647.61,109.55c4.27-2.14,3.47-4.81-1.87-3.47-2.16.54-482.27,130.65-482.27,130.65C102.55,253.83,33.08,216.56,83.31,116.1Z" transform="translate(0.5 -0.54)" style="fill:#fff;stroke:#fff"/><path d="M110.58,217.52a2.22,2.22,0,0,0,2.31-2.52c0-2.3-1.51-2.88-4-2.88h-3.62v9.56h2.41v-4.07h.41l2.2,4.07H113ZM109,216h-1.38v-2.22h1.17c.71,0,1.53.09,1.53,1S109.87,216,109,216Z" transform="translate(0.5 -0.54)" style="fill:#fff"/><path d="M500.55,29.93,511.75.54H384.57l-43.68,52.9L361.05.54H318.84l-65.6,176.34h41.68l28-73.74,1.92,73.74,127.89-.28,12.17-33.92H416.29l16-42.75h40.08l12.33-32.86H444.59l13.74-37.14ZM366.2,165.12l-2.67-91.91L426.55,4Z" transform="translate(0.5 -0.54)" style="fill:#fff"/></svg>