<?xml version="1.0" encoding="utf-8"?>
<!-- Generator: Adobe Illustrator 26.0.1, SVG Export Plug-In . SVG Version: 6.00 Build 0)  -->
<svg version="1.1" id="Layer_1" xmlns="http://www.w3.org/2000/svg" xmlns:xlink="http://www.w3.org/1999/xlink" x="0px" y="0px"
	 viewBox="0 0 147.1 74.8" style="fill: #ffffff;" xml:space="preserve">
<style type="text/css">
	.st0{fill-rule:#FFFFFF;}
</style>
<g>
	<path class="st0" d="M95.3,6.3V2.4H80v21h15.3v-3.5h-11v-5.7h9.6v-3.7h-9.6V6.3H95.3z M91.1,25.6v8.1h-8.4v-8.1h-4.3v20.9h4.3v-9.4
		h8.4v9.4h4.2V25.6C95.3,25.6,91.1,25.6,91.1,25.6z M95.3,52.3v-3.7H80v21.2h15.3V66h-11v-5.6h9.6V57h-9.6v-4.6
		C84.3,52.3,95.3,52.3,95.3,52.3z M77.6,2.4h-4.2v8.1H65V2.4h-4.2v21H65V14h8.4v9.4h4.2V2.4z M42.5,2.4v3.8h6.5v17.1h4.2V6.3h6.5
		V2.4H42.5z M29.1,25c-6.7,0-10.2,3.8-10.2,11c0,7.6,3.5,11.3,10.2,11.3S39.2,43.6,39.2,36C39.2,28.8,35.8,25,29.1,25z M23.4,36
		c0-4.8,1.9-7.2,5.6-7.2c4,0,5.9,2.4,5.9,7.2c0,5.1-1.9,7.6-5.9,7.6C25.3,43.6,23.4,41.1,23.4,36z M12.7,25.6v14.8L4.4,25.6h-4.5
		v20.9h4V31.8l8.6,14.7H17V25.6H12.7z M32.5,57.2v-4.9h10.7v-3.7h-15v21.2h4.2V61H42v-3.7C42,57.2,32.5,57.2,32.5,57.2z M76.8,29.3
		v-3.7H59.7v3.7h6.4v17.1h4.3V29.3C70.4,29.3,76.8,29.3,76.8,29.3z M50.2,38.4c1.4,0,2.4,0.2,3,0.8l0.8,7.2h4.8v-0.5
		c-0.5-0.3-0.8-1.6-0.8-4c0-3-1.1-4.5-2.7-5.3c2.2-0.9,3.2-2.4,3.2-5.1c0-3.7-2.2-5.9-6.7-5.9H41.4v20.9h4.3v-8H50.2z M45.7,34.9
		v-5.6H51c2.2,0,3.2,0.8,3.2,2.7c0,1.9-1.1,3-3.5,3C50.8,34.9,45.7,34.9,45.7,34.9z M53.2,48.6h-5.1l-7.5,21.2h4.5l1.7-4.6h7.8
		l1.3,4.6h4.6C60.5,69.8,53.2,48.6,53.2,48.6z M50.5,53.4l2.7,8.4h-5.3C47.9,61.8,50.5,53.4,50.5,53.4z M74.1,55.6h4.2
		c-0.2-1.9-0.8-3.5-2.1-4.8c-1.9-1.6-4-2.7-7-2.7s-5.1,1.1-7,3c-1.6,1.9-2.7,4.5-2.7,8.1c0,7.5,3.2,11.2,9.4,11.2
		c5.4,0,8.4-2.7,9.4-7.8h-4.2c-0.6,2.4-2.4,3.7-4.8,3.7c-3.5,0-5.1-2.4-5.1-7c0-5,1.6-7.5,5.1-7.5C71.7,51.8,73.1,53.2,74.1,55.6
		L74.1,55.6z M20.7,69.6L20.7,69.6L20.7,69.6z M20.8,69.6c0.7,0,1.3-0.3,1.7-0.6c0.4-0.4,0.6-1,0.6-1.8c0-0.9-0.3-1.4-0.6-1.8
		c-0.4-0.4-1-0.6-1.7-0.6h-0.1c-0.9,0-1.4,0.2-1.8,0.6c-0.4,0.4-0.6,0.9-0.6,1.8v0.1c0,0.7,0.2,1.3,0.6,1.7
		C19.3,69.3,19.8,69.6,20.8,69.6L20.8,69.6L20.8,69.6z M20.7,70.1c-1,0-1.7-0.4-2.2-0.9c-0.5-0.5-0.7-1.2-0.7-2.1v-0.1
		c0-1,0.2-1.7,0.7-2.2c0.5-0.5,1.2-0.7,2.2-0.7h0.1c0.9,0,1.6,0.2,2.1,0.7s0.9,1.2,0.9,2.2c0,0.9-0.4,1.7-0.9,2.2
		C22.3,69.8,21.6,70.1,20.7,70.1L20.7,70.1z M21,66.8L21,66.8c0.4,0,0.5-0.1,0.5-0.5v-0.1c0,0-0.1,0-0.1-0.1
		c-0.1-0.1-0.2-0.1-0.4-0.1h-0.8v0.7L21,66.8C21,66.8,21,66.8,21,66.8z M21.5,67.3l0.6,0.7c0.1,0.1,0,0.3-0.1,0.4
		c-0.1,0.1-0.4,0.1-0.4,0l-0.7-1h-0.6v0.8c0,0.1-0.1,0.3-0.3,0.3s-0.3-0.1-0.3-0.3v-2.4c0-0.1,0.1-0.3,0.3-0.3h1.2
		c0.3,0,0.6,0.1,0.7,0.2c0.1,0.1,0.1,0.1,0.1,0.1c0.1,0.1,0.1,0.3,0.1,0.4C22.1,66.9,21.9,67.2,21.5,67.3L21.5,67.3z M98.3,2.4
		c13.4,0,25,4.9,34.3,14.3c9.6,9.6,14.5,21.2,14.5,34.6v18.5h-19.6V50.8c0-7.5-2.7-14-8.1-19.3c-1.3-1.4-2.7-2.4-4.2-3.5
		c-4.3-3-9.4-4.2-14.8-4.2h-2.2L98.3,2.4C98.3,2.4,98.3,2.4,98.3,2.4z M125.6,69.8h-15.3V55.1c0-2.4-0.8-4.3-2.4-5.9
		c-1.6-1.7-3.7-2.4-5.9-2.4h-3.7V25.6h2.2c5.6,0,10.4,1.6,14.8,4.8c1.1,0.5,2.2,1.6,3,2.4c5.1,5.1,7.5,11,7.5,18V69.8z M108.5,69.8
		H98.3V48.6h3.7c1.7,0,3.2,0.6,4.6,1.9c1.1,1.1,1.9,2.7,1.9,4.6V69.8z"/>
</g>
</svg>
