<svg id="Layer_1" data-name="Layer 1" xmlns="http://www.w3.org/2000/svg" viewBox="0 0 640.75 304.35"><polygon points="564.48 300.89 567.51 300.89 567.51 258.36 564.48 258.36 564.48 256.14 576.05 256.14 576.4 256.14 595.52 288.31 595.52 258.36 592.04 258.36 592.04 256.14 601.46 256.14 601.46 258.36 598.42 258.36 598.42 303.1 595.52 303.1 570.41 260.87 570.41 300.89 573.89 300.89 573.89 303.1 564.48 303.1 564.48 300.89 564.48 300.89" style="fill:#fff;fill-rule:evenodd"/><path d="M39.29,300.89h3.42V258.36H39.29v-2.21H59.07a13.94,13.94,0,0,1,4.51.82,16.87,16.87,0,0,1,4.33,2.26,13.08,13.08,0,0,1,3.35,4.11,11.57,11.57,0,0,1,0,10.1,13.12,13.12,0,0,1-3.35,4.12,17.19,17.19,0,0,1-4.33,2.26,14.79,14.79,0,0,1-3.69.79v0l14,20.25h3.56v2.21H66.32L50.76,280.64h-.37v20.25h3.42v2.21H39.29v-2.21Zm11.1-42.53v20.07H54.3a21.21,21.21,0,0,0,3.87-.42A8.18,8.18,0,0,0,61,276.88a5.44,5.44,0,0,0,1.83-2,18.57,18.57,0,0,0,0-12.92,5.51,5.51,0,0,0-1.83-2,8.18,8.18,0,0,0-2.83-1.12,20.36,20.36,0,0,0-3.87-.42Z" style="fill:#fff;fill-rule:evenodd"/><path d="M465.59,300.89H469V258.36h-3.42v-2.21h19.78a13.9,13.9,0,0,1,4.51.82,16.87,16.87,0,0,1,4.33,2.26,13.08,13.08,0,0,1,3.35,4.11,11.57,11.57,0,0,1,0,10.1,13.12,13.12,0,0,1-3.35,4.12,17.19,17.19,0,0,1-4.33,2.26,14.7,14.7,0,0,1-3.69.79v0l14,20.25h3.56v2.21H492.62l-15.56-22.46h-.37v20.25h3.42v2.21H465.59v-2.21Zm11.1-42.53v20.07h3.91a21.43,21.43,0,0,0,3.88-.42,8.21,8.21,0,0,0,2.82-1.13,5.44,5.44,0,0,0,1.83-2,18.57,18.57,0,0,0,0-12.92,5.51,5.51,0,0,0-1.83-2,8.2,8.2,0,0,0-2.82-1.12,20.57,20.57,0,0,0-3.88-.42Z" style="fill:#fff;fill-rule:evenodd"/><path d="M189.86,300.89h3.42V258.36h-3.42v-2.21h19.77a13.9,13.9,0,0,1,4.51.82,17.1,17.1,0,0,1,4.34,2.26,13.22,13.22,0,0,1,3.35,4.11,11.57,11.57,0,0,1,0,10.1,13.26,13.26,0,0,1-3.35,4.12,17.43,17.43,0,0,1-4.34,2.26,13.9,13.9,0,0,1-4.51.82H201v20.25h3.43v2.21H189.86v-2.21ZM201,258.36v20.07h3.91a21.22,21.22,0,0,0,3.88-.42,8.21,8.21,0,0,0,2.82-1.13,5.46,5.46,0,0,0,1.84-2,18.57,18.57,0,0,0,0-12.92,5.54,5.54,0,0,0-1.84-2,8.2,8.2,0,0,0-2.82-1.12,20.38,20.38,0,0,0-3.88-.42Z" style="fill:#fff;fill-rule:evenodd"/><path d="M326.44,256.15H341v2.21h-3.42v42.53h8a7.06,7.06,0,0,0,5.07-2,11.22,11.22,0,0,0,2.71-4.65,26.47,26.47,0,0,0,1.12-5.5c.2-1.78.25-3.39.3-4.54H358V303.1H326.44v-2.21h3.42V258.36h-3.42v-2.21Z" style="fill:#fff;fill-rule:evenodd"/><path d="M144.92,256.15h14.52v2.21H156v42.53h8a7.08,7.08,0,0,0,5.08-2,11.33,11.33,0,0,0,2.71-4.65,26.47,26.47,0,0,0,1.12-5.5c.2-1.78.25-3.39.29-4.54h3.2V303.1H144.92v-2.21h3.42V258.36h-3.42v-2.21Z" style="fill:#fff;fill-rule:evenodd"/><path d="M449.91,291.15V258.36h2.84v-2.21h-8.58v2.21H447v32.21a10.31,10.31,0,0,1-2.75,7.3,9.78,9.78,0,0,1-6.05,2.94,8.11,8.11,0,0,1-6.06-1.73,8.34,8.34,0,0,1-2.75-6.69v-34h3.84v-2.21H418.3v2.21h3.42v32.79a13,13,0,0,0,1,5.1,13.25,13.25,0,0,0,7,7,17.1,17.1,0,0,0,12.12,0,13.11,13.11,0,0,0,8-12.09Z" style="fill:#fff;fill-rule:evenodd"/><path d="M550.69,256.15V271.8h-2.63a35.25,35.25,0,0,0-.6-4.4A18.27,18.27,0,0,0,546,263a9,9,0,0,0-2.67-3.35,7.15,7.15,0,0,0-4.33-1.33H528.88v19.47h3A8.22,8.22,0,0,0,536,277a4.93,4.93,0,0,0,2.07-2.18,9.49,9.49,0,0,0,.84-2.85c.15-1,.22-2,.32-2.86h2.23v20.22h-2.23c-.1-.89-.17-1.88-.32-2.87a9.57,9.57,0,0,0-.84-2.85,5,5,0,0,0-2.07-2.18,8.33,8.33,0,0,0-4.06-.87h-3v20.37H539a7.11,7.11,0,0,0,4.7-1.62,10,10,0,0,0,2.71-4,21.69,21.69,0,0,0,1.29-5,45.11,45.11,0,0,0,.44-4.59h3.25V303.1h-34v-2.21h3.83V258.36h-3.83v-2.21Z" style="fill:#fff;fill-rule:evenodd"/><polygon points="244.6 258.36 244.6 277 262 277 262 258.36 258.58 258.36 258.58 256.14 273.52 256.14 273.52 258.36 269.68 258.36 269.68 300.89 273.52 300.89 273.52 303.1 258.58 303.1 258.58 300.89 262 300.89 262 279.22 244.6 279.22 244.6 300.89 248.02 300.89 248.02 303.1 233.08 303.1 233.08 300.89 236.92 300.89 236.92 258.36 233.08 258.36 233.08 256.14 248.02 256.14 248.02 258.36 244.6 258.36 244.6 258.36" style="fill:#fff;fill-rule:evenodd"/><path d="M389.66,256.15,375.1,300.89h-3.64v2.21h10.3v-2.21h-4L382.91,285h13.61l5.18,15.93h-4.16v2.21h14.53v-2.21h-2.69l-14.56-44.74Zm-6,26.6,6.08-18.7,6.09,18.7Z" style="fill:#fff;fill-rule:evenodd"/><path d="M109,256.15,94.43,300.89H90.78v2.21h10.3v-2.21h-4L102.23,285h13.61L121,300.89h-4.15v2.21h14.52v-2.21H128.7l-14.56-44.74Zm-6,26.6,6.09-18.7,6.08,18.7Z" style="fill:#fff;fill-rule:evenodd"/><path d="M235.25,0a62.85,62.85,0,0,1,30.1,7.82,80.43,80.43,0,0,1,24.72,21.33,104.87,104.87,0,0,1,16.74,31.62,124.83,124.83,0,0,1,0,77.46,104.8,104.8,0,0,1-16.74,31.63,80.4,80.4,0,0,1-24.72,21.32,62.75,62.75,0,0,1-30.1,7.83,63.87,63.87,0,0,1-30.4-7.82A80.58,80.58,0,0,1,180,169.86a104.24,104.24,0,0,1-16.79-31.63,124.64,124.64,0,0,1,0-77.46A104.31,104.31,0,0,1,180,29.15,80.32,80.32,0,0,1,204.85,7.82,63.72,63.72,0,0,1,235.25,0Zm19.18,17a27.83,27.83,0,0,1,8,19.61V161.88a28.65,28.65,0,0,1-8,19.86,26.73,26.73,0,0,1-19.38,8.33,27.13,27.13,0,0,1-19.42-8.33,28.43,28.43,0,0,1-8.1-19.86V36.63a27.64,27.64,0,0,1,27.52-27.7A27,27,0,0,1,254.43,17Z" style="fill:#fff;fill-rule:evenodd"/><path d="M563,0a62.86,62.86,0,0,1,30.11,7.82,80.43,80.43,0,0,1,24.72,21.33,105.09,105.09,0,0,1,16.74,31.62,124.83,124.83,0,0,1,0,77.46,105,105,0,0,1-16.74,31.63,80.4,80.4,0,0,1-24.72,21.32A62.76,62.76,0,0,1,563,199a63.83,63.83,0,0,1-30.39-7.82,80.58,80.58,0,0,1-24.86-21.33A104.48,104.48,0,0,1,491,138.23a124.83,124.83,0,0,1,0-77.46,104.55,104.55,0,0,1,16.8-31.62A80.32,80.32,0,0,1,532.63,7.82,63.71,63.71,0,0,1,563,0Zm19.19,17a27.83,27.83,0,0,1,8,19.61V161.88a28.65,28.65,0,0,1-8,19.86,26.73,26.73,0,0,1-19.38,8.33,27.12,27.12,0,0,1-19.42-8.33,28.44,28.44,0,0,1-8.11-19.86V36.63a27.66,27.66,0,0,1,27.53-27.7A27.05,27.05,0,0,1,582.21,17Z" style="fill:#fff;fill-rule:evenodd"/><path d="M329.9,2.48h77V12.92H387.72V186.08H423c14.45,0,23.07-11.07,28.16-24.48,5.43-14.3,6.85-31.26,7.05-40.31h8.75v75.24h-137V186.08h19.21V12.92H329.9V2.48Z" style="fill:#fff;fill-rule:evenodd"/><path d="M0,186.08H19.21V12.92H0V2.48H90.28A59,59,0,0,1,113.06,7,56.23,56.23,0,0,1,130,18.1a52.41,52.41,0,0,1,6.53,7.53,49.58,49.58,0,0,1,4.95,8.6,47.61,47.61,0,0,1,0,39.17,51.35,51.35,0,0,1-11.48,16,56.44,56.44,0,0,1-17,11A59.3,59.3,0,0,1,90.28,105H57.82v81.13H77v10.45H0V186.08ZM101.42,39.92a45.43,45.43,0,0,0-4.84-13.31,27.59,27.59,0,0,0-9.1-9.84,25.82,25.82,0,0,0-14.09-3.85H57.82V94.5H73.39a24.29,24.29,0,0,0,13.52-3.85,28.78,28.78,0,0,0,9-9.78A48.18,48.18,0,0,0,101,67.82a64.78,64.78,0,0,0,.44-27.9Z" style="fill:#fff;fill-rule:evenodd"/></svg>