<svg id="Layer_1" data-name="Layer 1" xmlns="http://www.w3.org/2000/svg" viewBox="0 0 412.35 533.33"><path d="M352.28,500.85v32.42h10.4V511.68h37.84v21.59h10.39V500.9l-58.63,0m9.24-10.49h40c5.55-1.1,9.68-6,10.85-10.75H350.67c1.15,4.75,5.34,9.65,10.85,10.75m-40.73,42.93a14.87,14.87,0,0,0,9.14-10.56H283.3l0-43.09-10.45,0v53.62h47.92M195.13,490.21h36.93c5.56-1.61,10.24-5.85,11.38-10.56H184.78v31.69h48v11.12l-37.66,0a21,21,0,0,0-13.4,10.84l3.05-.05H243.1V500.81h-48v-10.6m-91.15.11h40c5.56-1.11,9.69-6,10.85-10.75H93.13c1.15,4.74,5.34,9.64,10.85,10.75m0,21.19h40c5.56-1.1,9.69-6,10.85-10.75H93.13c1.15,4.75,5.34,9.65,10.85,10.75m0,21.77h40c5.56-1.1,9.69-6,10.85-10.74H93.13c1.15,4.74,5.34,9.64,10.85,10.74M0,479.7a14.92,14.92,0,0,0,10.83,10.67H27.65l.86.34v42.45H39V490.71l1-.34H56.81A15.13,15.13,0,0,0,67.59,479.7v-.11H0v.11" style="fill:#FFFFFF"/><path d="M206.19,373.62,258.69,78.4c50,0,65.81,5.48,68.09,27.88,0,0,33.57-12.52,50.5-37.93-66.06-30.62-132.44-32-132.44-32L206.11,83.53h.08L167.46,36.35S101.08,37.73,35,68.34c16.91,25.42,50.49,37.93,50.49,37.93,2.29-22.39,18.06-27.88,67.76-27.91l52.91,295.26" style="fill:#FFFFFF"/><path d="M206.17,22.73c53.4-.41,114.53,8.26,177.1,35.53,8.36-15,10.51-21.7,10.51-21.7A513.35,513.35,0,0,0,206.17,0,513.52,513.52,0,0,0,18.56,36.56a181.16,181.16,0,0,0,10.51,21.7C91.63,31,152.76,22.32,206.17,22.73h0" style="fill:#FFFFFF"/></svg>        