<svg id="Layer_1" data-name="Layer 1" xmlns="http://www.w3.org/2000/svg" viewBox="0 0 131.71 164.41"><path d="M.05,67.73C0,67,0,66.18,0,65.4c0-.51,0-1,0-1.53A66.29,66.29,0,0,1,14.18,25.33C28.68,7.28,49.66-1.93,73,.34A64.75,64.75,0,0,1,112.19,19a66.13,66.13,0,0,1,19.47,44.9c.05.76.05,1.55.05,2.31,0,.51,0,1,0,1.55a66.34,66.34,0,0,1-14.17,38.52c-14.49,18-35.45,27.26-58.83,25a64.69,64.69,0,0,1-39.18-18.65A66.2,66.2,0,0,1,.05,67.73Zm130.35,0A64.67,64.67,0,0,0,66.45,1.15c-2.33.07-5,.15-7.34.41-21.29,2.07-41.54,16.09-51,35.57A64.46,64.46,0,0,0,1.27,63.87a64.77,64.77,0,0,0,64,66.58c2.33-.09,5-.15,7.33-.41,21.31-2.07,41.54-16.09,51-35.59a64.14,64.14,0,0,0,6.84-26.72Zm-13.11-37L113.89,33l-.65-.29c-1-1.17-1.88-2.84-3.12-3.85h-.18L108.2,30.4l.36.44c-.33-.1-.66-.18-1-.25a3.53,3.53,0,0,1-.85-.21l-.13-.16,3.55-3.15a55.78,55.78,0,0,1,3.64,4.52,8.19,8.19,0,0,0,2-1.34,42.11,42.11,0,0,0-5.81-7.14l-.26.05c-1.81,1.62-3.36,3.39-5.13,4.91a55.65,55.65,0,0,0-7.14-6l-.23-.26c.93-1.34,1.81-2.67,2.77-4l4.34,3.26a13.5,13.5,0,0,0,1.43-1.71v-.21a50.83,50.83,0,0,0-6.68-5h-.31c-1.26,2-2.63,3.9-3.69,5.92l-.19.15a59,59,0,0,0-8.29-4.36c.59-1.48,1.08-3,1.81-4.48,1.75.7,3.38,1.66,5.11,2.36l1.07-2a5.51,5.51,0,0,0-1.69-1.07A52.74,52.74,0,0,0,86.79,8.1l-.19.11-2.37,6.65-.14.08c-1.55-.48-3.12-1-4.67-1.4a40.87,40.87,0,0,0-4.51-.89c.15-1.58.55-3.18.75-4.81l.15-.07c1.72.44,3.55.7,5.24,1.14a23.37,23.37,0,0,0,.62-2.36A42.91,42.91,0,0,0,73.43,5c-.3,2.17-.54,4.37-.85,6.55a6.93,6.93,0,0,1-.77-1.35,1.22,1.22,0,0,0-.1-.34c.26-2,.35-4.11.69-6,.37-.15.59,0,1,0a61.11,61.11,0,0,1,9.88,2c-.44,1.46-.9,2.95-1.31,4.43-1-.08-2-.52-3-.67a16.67,16.67,0,0,0-2.25-.41,20,20,0,0,0-.49,2.4c.64.23,1.34.26,2,.49,1.77.44,3.53.88,5.28,1.43.85-2.25,1.45-4.61,2.3-6.88a56.91,56.91,0,0,1,10.35,4.46l.11.11c-.75,1.35-1.51,2.77-2.26,4.14A51.82,51.82,0,0,0,89.12,13c-.26,0-.26.32-.37.5L88,15.21c2.15,1.14,4.37,2.07,6.44,3.4,1.4-2,2.56-4.19,3.88-6.18a66,66,0,0,1,9.14,6.69l0,.23-2.93,3.29h-.33c-1.14-1-2.51-2.15-3.73-3.07l-.23,0-1.4,1.89c1.89,1.59,3.91,3.29,5.8,5.07l5.15-5.11a65.15,65.15,0,0,1,7.65,9.07l-.12.24Zm1.46,4.57-.72.39c-.34-.26-.7-.51-1-.77.79-.44,1.55-.89,2.32-1.37a49,49,0,0,1,4,7.55,4.19,4.19,0,0,0-.62-.7,16.23,16.23,0,0,0-2.18-2.61A23.08,23.08,0,0,0,119,35.26ZM13.34,34.7,17,36.84c-.21.29-.54.55-.78.85-1.5-.83-3-1.63-4.45-2.51a19.68,19.68,0,0,1,1.6-2.81A56.39,56.39,0,0,1,18.88,25h.18c1,1,2.3,2,3.32,3-1,1.58-2.43,3.15-3.5,4.73l0,.15.28.19a8.37,8.37,0,0,0-1,.9c-.34-.23-.69-.47-1-.72v-.18c1.14-1.59,2.37-3.23,3.54-4.77a8.73,8.73,0,0,0-1.66-1.44h-.3a42.09,42.09,0,0,0-5.42,7.84ZM12.28,59.14c-.1.69-.18,1.39-.25,2.12a4.29,4.29,0,0,1-1.52,0L7.3,61a32.39,32.39,0,0,1,.59-5L8,56a10.65,10.65,0,0,0,.69,2c-.09.62-.15,1.24-.18,1.84a12.09,12.09,0,0,0,2.36.29l.13-.81h.26a1.23,1.23,0,0,0,1-.15ZM12,40.49a2.62,2.62,0,0,1-.73-.36c-.26-.06-.56-.26-.82-.18-.5,1-1,2-1.42,3a22.85,22.85,0,0,0-2,2.19,55.39,55.39,0,0,1,3-7l.18-.07c1,.54,2,1,3,1.52-.41.26-.8.54-1.19.83ZM69.37,12c-2-.1-4-.1-5.92,0a45.51,45.51,0,0,1-.23-4.85c1.86-.22,3.49,0,5.36,0a6.12,6.12,0,0,0,.09-2.41l-.09-.12a44.47,44.47,0,0,0-8,.2l-.18.18c.18,2.3.37,4.69.66,7l-.29.29a61.8,61.8,0,0,0-8.88,1.55c-.56-1.51-.88-3.06-1.34-4.58L50.8,9c1.58-.3,3.18-.62,4.73-1.06A17.05,17.05,0,0,0,55,5.51a40.07,40.07,0,0,0-7.69,1.92v.46c.65,2.21,1.51,4.35,2,6.61-2.17.77-4.27,1.59-6.33,2.55a.92.92,0,0,0-.86-.07c-.51.44-1,.83-1.49,1.26A45.31,45.31,0,0,1,38.38,14c1.61-.86,3.29-1.56,4.9-2.33a4.88,4.88,0,0,0-1-2.33,45,45,0,0,0-7.66,3.91c1.15,2.12,2.47,4.14,3.75,6.21A76.67,76.67,0,0,0,31,24.74l-1,.85C29,24.53,28,23.31,26.9,22.09a19,19,0,0,1,2.88-2.56,17.86,17.86,0,0,0,1.81-1.44,16.15,16.15,0,0,0-1.4-1.89,39.58,39.58,0,0,0-7.43,6.29c1.55,1.58,3.55,3.59,5.1,5.14l-.7.76-.75.28c-.62.28-1.24.56-1.84.85.32-.39.67-.77,1-1.14l.65-.75c-1.66-1.81-3.39-3.18-5.1-5.14a63.94,63.94,0,0,1,9.29-7.95h.21l2.48,3.62v.34A50.87,50.87,0,0,0,28.68,22v.2c.48.65,1,1.11,1.51,1.73,2.15-1.67,4.29-3.39,6.56-4.88-1.31-2-2.53-4.11-3.79-6.14A74.84,74.84,0,0,1,43.18,7.66c.59,1.4,1.21,2.88,1.7,4.37l0,.14A41.73,41.73,0,0,0,40,14.46a14.6,14.6,0,0,0,1.11,2.15c2.33-1.08,4.54-2,6.91-2.95-.7-2.33-1.58-4.57-2.25-6.93A69.89,69.89,0,0,1,56.16,4.19c.33,1.46.38,3.09.85,4.54-1,.36-2,.36-3,.67A5.89,5.89,0,0,0,52,10l.5,2.3c1.08,0,2-.52,3.12-.56,1.37-.34,2.8-.49,4.17-.75-.06-2.39-.5-4.81-.7-7.17l.08-.15a68.64,68.64,0,0,1,10.73-.14C70,5,69.63,6.58,69.69,8c.08.21-.18.18-.32.21a32.27,32.27,0,0,0-4.81,0,9.63,9.63,0,0,0,0,2.4c1.84.1,3.62.16,5.39.24l0,.13-.53,1Zm55,47.13.13.78a10.29,10.29,0,0,0,2.39-.34l0-.51a4.26,4.26,0,0,0,.62-.26c.1-.13.18-.36.33-.39a21.63,21.63,0,0,1,.33,2.49,32.29,32.29,0,0,1-4.67.27c-.08-.87-.16-1.75-.27-2.61l.22-.07a1.78,1.78,0,0,0,1,.64Zm-4.47,6a48.69,48.69,0,0,0-.72-7.87,6.47,6.47,0,0,0,1.32,1,41.46,41.46,0,0,1,.51,5.56l.13,1.92.14.1,6.74,0c.11.1.32,0,.36.21A68.41,68.41,0,0,1,127,78.36l-.11.11c-1.48-.37-3-.6-4.52-.92-.29-.44.18-.85.12-1.34a32.79,32.79,0,0,0,.67-4.44,13.58,13.58,0,0,0-2.38-.29,83.75,83.75,0,0,1-1.67,8.4c.56.44,1.4.4,2.12.7,1.62.41,3.18.85,4.76,1.33l.08.12a70.34,70.34,0,0,1-4.43,11.34l-.2.09c-1.28-.75-2.69-1.34-4-2,.59-1.75,1.52-3.33,2.1-5.1a8.17,8.17,0,0,0-2.31-.85,74,74,0,0,1-3.52,7.43c2.07,1.22,4.17,2.28,6.21,3.51a25.48,25.48,0,0,1-1.58,2.82,59.8,59.8,0,0,1-5.56,7.32h-.18c-1.05-1-2.3-2-3.33-3,1-1.58,2.43-3.13,3.51-4.73l0-.14L111,97.4c-1.56,1.93-3.14,4-4.81,5.82l-.66.74c1.66,1.8,3.39,3.17,5.1,5.13a65.19,65.19,0,0,1-9.29,8h-.22l-2.47-3.62v-.35a52,52,0,0,0,4.43-3.5v-.18a22.53,22.53,0,0,0-1.52-1.74c-2.15,1.66-4.28,3.4-6.55,4.87,1.3,2,2.53,4.11,3.78,6.15a75.21,75.21,0,0,1-10.2,5.25c-.61-1.41-1.23-2.89-1.71-4.36l0-.16a40.1,40.1,0,0,0,4.89-2.28A12.9,12.9,0,0,0,90.64,115c-2.33,1.07-4.55,2-6.91,3,.7,2.33,1.58,4.55,2.25,6.91a70.07,70.07,0,0,1-10.44,2.56,41.55,41.55,0,0,0-.84-4.56c1-.36,2-.36,3-.65a6.27,6.27,0,0,0,2-.61l-.52-2.28c-1.07,0-2,.51-3.11.56-1.37.32-2.81.47-4.17.73.06,2.41.52,4.81.7,7.17l-.09.15a67.3,67.3,0,0,1-10.72.15c-.15-1.47.26-3.07.19-4.5-.08-.23.18-.2.33-.23a27.66,27.66,0,0,0,4.81,0,10.13,10.13,0,0,0,0-2.4c-2.4-.11-4.7-.19-7-.34-.41,2.33-.44,4.89-.85,7.19-.38.15-.59,0-1,0a61.09,61.09,0,0,1-9.88-2c.45-1.48.89-3,1.3-4.45,1,.08,2,.52,3,.67a12.6,12.6,0,0,0,2.25.41,15.92,15.92,0,0,0,.49-2.4c-.63-.23-1.34-.26-2-.49-1.76-.44-3.54-.88-5.28-1.43-.85,2.25-1.44,4.61-2.3,6.88a57.84,57.84,0,0,1-10.35-4.44l-.12-.11,2.27-4.14c1.58.77,3.14,1.69,4.81,2.33.24,0,.24-.34.36-.52l.75-1.71c-2.16-1.14-4.37-2.07-6.44-3.39-1.4,2-2.56,4.17-3.88,6.17a68.2,68.2,0,0,1-9.15-6.7l.05-.22,2.92-3.3h.32c1.16,1,2.51,2.16,3.74,3.08l.23,0,1.4-1.89c-1.89-1.58-3.91-3.3-5.81-5.07L22,110.21a65.62,65.62,0,0,1-7.66-9.06l.11-.26,3.65-2.48c1.19,1.18,2.12,3.15,3.52,4.29h.18l1.75-1.52a51,51,0,0,1-4.75-6.66l-.14-.1c-2.07,1.25-4.18,2.39-6.21,3.65A46.75,46.75,0,0,1,7.19,87.13c.29-.26.75-.26,1-.49,1.06-.41,2.22-.76,3.33-1.11a38.21,38.21,0,0,0,2.25,5.19c.84,0,1.51-.64,2.29-1-1.15-2.6-2.18-5.22-3.08-7.93-2.28.67-4.58,1.34-6.88,2.07A57.88,57.88,0,0,1,3.57,70.7a37.12,37.12,0,0,1,4.66-.26,40.18,40.18,0,0,0,.88,6.14l.12.15a9.78,9.78,0,0,0,2.36-.47,72.25,72.25,0,0,1-.91-8.53l-.13-1.92-.15-.12-6.73,0c-.1-.11-.33,0-.36-.23a59.71,59.71,0,0,1,.65-8,8,8,0,0,0,1.24-.27c-.2,1.17-.31,2.38-.46,3.52a17.88,17.88,0,0,0-.06,3.73c2.33.16,4.69.11,7.09.23l0,1.82a50.8,50.8,0,0,0,1.28,10.78l-.14.15c-1.55.21-3.12.55-4.63.91-.44-2.14-.74-4.44-1.11-6.57a9.4,9.4,0,0,0-2.4.33,56.29,56.29,0,0,0,2,10.17c2-.3,4-1,5.95-1.52.41,0,.86-.49,1.25-.15a41.69,41.69,0,0,0,3.79,9.69l-.08.19-4.1,2.07-.19,0c-.88-1.76-1.7-3.59-2.48-5.43l-2.22.81a24.13,24.13,0,0,0,2.07,5.07,33.91,33.91,0,0,0,2,3.44H13l6.11-3.44.1.07a62.66,62.66,0,0,0,6,8.39l-3.56,3.15A48.3,48.3,0,0,1,18,100a8.59,8.59,0,0,0-2,1.34,42.23,42.23,0,0,0,5.8,7.14l.26,0c1.81-1.63,3.38-3.41,5.14-4.93a58.23,58.23,0,0,0,7.14,6l.23.26c-.93,1.32-1.81,2.65-2.77,3.94l-4.34-3.24A12.07,12.07,0,0,0,26,112.2v.23a50.21,50.21,0,0,0,6.7,5H33c1.25-2,2.62-3.88,3.7-5.92l.18-.14,1.73,1a3.53,3.53,0,0,0,.55.61c.18.08.23.27.36.42s.16.07.16.16a10.05,10.05,0,0,0,3.18,1.83,13,13,0,0,0,2,.46h.27a42.42,42.42,0,0,1-1.75,4.32c-1.74-.7-3.36-1.66-5.1-2.36l-1.08,2a6,6,0,0,0,1.7,1.06,52.43,52.43,0,0,0,6.08,2.56l.18-.12,2.36-6.65.15-.08c1.55.49,3.11,1,4.66,1.42s3,.58,4.52.88c-.15,1.59-.56,3.18-.75,4.81l-.15.06c-1.73-.44-3.54-.7-5.25-1.14-.21.78-.47,1.55-.62,2.36a42.41,42.41,0,0,0,8.25,1.6c.33-2.41.59-4.84,1-7.25a68,68,0,0,0,9,.26,42.74,42.74,0,0,1,.23,4.84c-1.86.23-3.48,0-5.37,0a6,6,0,0,0-.08,2.39l.08.12a44.54,44.54,0,0,0,8-.18l.18-.2c-.18-2.29-.36-4.69-.67-6.94l.31-.31a60.54,60.54,0,0,0,8.87-1.55c.55,1.52.9,3.07,1.34,4.6l-.23.18a48.22,48.22,0,0,0-4.73,1.07,15.9,15.9,0,0,0,.52,2.37,41.32,41.32,0,0,0,7.68-1.93v-.44c-.65-2.21-1.52-4.37-2-6.62,1.42-.5,2.82-1,4.19-1.61.32,0,.67-.11,1-.13a8.93,8.93,0,0,0,1.56-.52,9.7,9.7,0,0,0,2.11-1.27c.75,1.33,1.45,2.72,2.12,4.09-1.63.85-3.3,1.55-4.93,2.31a5.09,5.09,0,0,0,1,2.34,45.77,45.77,0,0,0,7.66-3.92c-1.16-2.1-2.48-4.14-3.73-6.21a75.93,75.93,0,0,0,7.32-5.33l1-.85c1.07,1.08,2.07,2.3,3.18,3.51a19,19,0,0,1-2.89,2.56,21.81,21.81,0,0,0-1.81,1.43,15.63,15.63,0,0,0,1.4,1.89,38.24,38.24,0,0,0,7.44-6.29c-1.55-1.58-3.56-3.59-5.1-5.13a71.27,71.27,0,0,0,6.65-8.11h.29c1.22.85,2.53,1.6,3.75,2.48v.2c-1.16,1.58-2.38,3.21-3.55,4.76a8.77,8.77,0,0,0,1.66,1.45h.29a43.59,43.59,0,0,0,5.45-7.84l-6.12-3.59V93a52.74,52.74,0,0,0,4.34-9l.15-.11c1.43.59,2.95,1,4.43,1.6A51.3,51.3,0,0,1,119,90.64c.31.48,1,.48,1.37.81.26.08.55.26.81.2a44.5,44.5,0,0,0,3.41-8.86l-6.91-2.1a59.34,59.34,0,0,0,2-10.35,4.3,4.3,0,0,1,1.52,0l3.21.31a46.5,46.5,0,0,1-.7,5.84,17.87,17.87,0,0,0,2.22.49,33.2,33.2,0,0,0,1-6,18.71,18.71,0,0,0,.08-3.74c-2.33-.14-4.71-.11-7.1-.22l0-1.83ZM51.79,114.4a53.23,53.23,0,0,0,27.59.1,1.26,1.26,0,0,0,.31.13c.5.12.94.41,1.48.51a52.43,52.43,0,0,1-27.85.88c-1.06-.25-2.1-.52-3.14-.85.55-.23,1.09-.49,1.61-.77ZM15.36,63.87a51,51,0,0,0,21,43,3.15,3.15,0,0,0,.15.64,4.53,4.53,0,0,0,.09.91A51.71,51.71,0,0,1,17.77,84.69a52.47,52.47,0,0,1-3.59-17h-.11a51.82,51.82,0,0,1,.13-5.3c.41.28.78.56,1.19.82l0,.62Zm101,3.86a48.43,48.43,0,0,0-.54-9.65,2.09,2.09,0,0,0,1.1-.5,49.81,49.81,0,0,1,.63,6.29h.12A53.16,53.16,0,0,1,106.5,97.6a54.68,54.68,0,0,1-12.32,11.29c.06-.21.19-.4.26-.63a6.56,6.56,0,0,1,.29-1.16c.8-.57,1.6-1.14,2.38-1.74a50.94,50.94,0,0,0,19.24-37.63ZM55.82,16.27A41.48,41.48,0,0,0,46,19.41l-.79.36-.53-.33c-.12-.08-.22-.21-.3-.27a1.32,1.32,0,0,1-.26-.18,50.5,50.5,0,0,1,14.35-4.35c-.67.35-1.32.71-2,1.12a6.65,6.65,0,0,1-.63.51ZM85.93,63.53a.88.88,0,0,0-.59.4c0,.08-.11.18-.16.28l-.1.21A3.63,3.63,0,0,1,83,65.71a6,6,0,0,1-2.61-1.24,4.14,4.14,0,0,1-.51-.23l-.53-.31c-1.42-1-3.43-.76-5.06-.52a3.91,3.91,0,0,0-2.2.8,1.21,1.21,0,0,0-.58.31c-.17.13-.33.28-.48.42a1.88,1.88,0,0,0-.21.2,1.16,1.16,0,0,0-.2.33v.08s0,.09,0,.16.17.31.43.24h.11l.21-.08.26.13,0-.41s.05,0,.13-.1a1.83,1.83,0,0,1,.28-.14,4.77,4.77,0,0,1,1.5-.74,18.18,18.18,0,0,1,1.89-.46,8.93,8.93,0,0,1,3.13.54,7.76,7.76,0,0,1,1.48.93l.23.21-.2-.08a2.58,2.58,0,0,0-.44-.13,12.1,12.1,0,0,0-5-.6,6.8,6.8,0,0,0-3.83,2,1.51,1.51,0,0,0-.08.17.88.88,0,0,0-.16.29.53.53,0,0,0,0,.42.59.59,0,0,0-.16.12.59.59,0,0,0-.08.44c0,.11.07.23.08.34a.78.78,0,0,0,.49.46l.23.08a.85.85,0,0,1,.26.13c1,.16,1.81.49,2.76.7a7.38,7.38,0,0,0,5.41-.49,13.43,13.43,0,0,0,2.61-1.5l.16-.16.16-.12.16-.18.15-.24a.55.55,0,0,0-.15-.38l-.09-.08L82.42,67l-.09-.07-.22-.13L82,66.69c.53,0,1.19,0,1.45,0s.7-.27,1-.4a1.59,1.59,0,0,0,.85-.71l.13-.1.1-.13a1.08,1.08,0,0,1,.24-.25c.07-.13.17-.26.25-.39a2.38,2.38,0,0,0,.23-.45.6.6,0,0,0-.23-.69Zm-14,5a2.92,2.92,0,0,1-.4-.1.77.77,0,0,1-.48-.34l.09-.08a1.66,1.66,0,0,1,.71-.67l.17-.15a2,2,0,0,0,0,.72c0,.21.08.44.13.65l-.17,0Zm7.93,0a1.5,1.5,0,0,0-.18.09l-.21.11-.23.1-.13,0c-1.34.88-3.23.75-4.89.39A1.76,1.76,0,0,1,73,68.17a.54.54,0,0,1,0-.29,3.15,3.15,0,0,1,0-.43.68.68,0,0,0-.36-.73A7.19,7.19,0,0,1,79,66.51a3.14,3.14,0,0,0,.31.18l.33.14a1.3,1.3,0,0,1,.42.33c0,.28.07.59.07.86s0,.43-.21.49Zm1.15-.7c-.11.07-.19,0-.22-.11,0-.28.22-.07.35-.08s-.09.14-.13.19Zm5.24-6c-.39,0-.77.13-1.14.2A3.81,3.81,0,0,1,84,62a7.34,7.34,0,0,1-1.58-.23,4.86,4.86,0,0,0-.53-.24c-.17-.07-.35-.11-.53-.18A3.78,3.78,0,0,1,80.35,61c-.91-.36-1.89-.57-2.82-.95a6.47,6.47,0,0,0-2,.07c-.44.18-.93.32-1.42.47a4.71,4.71,0,0,0-1.4.7.94.94,0,0,1-.44.42l-.15.1-.13.1a.86.86,0,0,0-.21.28c-.34.29-.67.63-1,.93a3,3,0,0,1-1.19.7.58.58,0,0,0-.29.32.5.5,0,0,0,.52.21h.31a1.78,1.78,0,0,1,.31,0,2.68,2.68,0,0,0,1-.64c.29-.27.57-.57.86-.84a4.87,4.87,0,0,1,2.12-1.47,1.65,1.65,0,0,0,.72-.23L75.4,61l.31-.13a2.28,2.28,0,0,0,.58.05c.22,0,.43,0,.64,0a1.87,1.87,0,0,1,1.14.25c.78.15,1.42.46,2.3.68a4,4,0,0,0,.68.35,5.43,5.43,0,0,1,.62.27l.12,0h.11a.38.38,0,0,1,.18,0c.69.1,1.35.23,2,.26A3.91,3.91,0,0,0,86,62.4a.2.2,0,0,0,.23-.06l.1-.09.09-.13s0-.08,0-.11a.23.23,0,0,0-.16-.23ZM59.34,83.69c.31-.06.62-.15.91-.23a4.19,4.19,0,0,1,.9-.14,1.76,1.76,0,0,1,1,.05c.35.08.67.22,1,.34.16,0,.23-.26.2-.43a1.25,1.25,0,0,0-.41-.34c-1-.94-2.63-.7-3.75-.29-.2,0-.41.1-.62.13a.46.46,0,0,1-.49-.16,1,1,0,0,1-.26-1,.48.48,0,0,0-.67,0,1.65,1.65,0,0,0,.44,1.57,1.76,1.76,0,0,0,1.73.42Zm11.2,7.83a12.23,12.23,0,0,1-3.2.7,4.25,4.25,0,0,1-1.63,0c-.53-.08-1.07-.21-1.59-.29a5.91,5.91,0,0,0-1.19,0c-.38,0-.75.09-1.13.14a6.24,6.24,0,0,1-2.28,0,1.26,1.26,0,0,1-.6-.2l-.3-.16a1.13,1.13,0,0,0-.34-.08c-.21-.12-.34.11-.36.23a.35.35,0,0,0,0,.35l.1.13.1.13a4.64,4.64,0,0,0,3.91.59,3.28,3.28,0,0,1,1.43-.16c.49,0,1,.1,1.47.1a6.13,6.13,0,0,0,2.76.09,26.57,26.57,0,0,0,2.67-.63c.16-.07.37-.12.54-.2a.6.6,0,0,0,.39-.52.51.51,0,0,0-.8-.24Zm3.55-2.76a3.18,3.18,0,0,0-.31-.34,1.28,1.28,0,0,0-1-.43l-.1,0a.48.48,0,0,0-.11.73l.07.1a.2.2,0,0,1,0,.11,7.1,7.1,0,0,1-1.63.48,5,5,0,0,1-2.14-.18L67.83,89a7.13,7.13,0,0,0-1.14-.18,2.83,2.83,0,0,0-1.15.36,3.54,3.54,0,0,1-.48.23,1.57,1.57,0,0,1-.45.13A9.36,9.36,0,0,0,63.2,89a3.7,3.7,0,0,0-1.63-.07c-.47.07-.93.2-1.37.31A7.27,7.27,0,0,1,59,89.5c-.42,0-.85.06-1.25,0a1.22,1.22,0,0,1-.84-.26.41.41,0,0,0,0-.23.4.4,0,0,0-.18-.32.71.71,0,0,0-.8.1,1.78,1.78,0,0,0-.26.22l-.11.12-.1.1-.06.08a.6.6,0,0,1-.14.21,2,2,0,0,1-.19.21.81.81,0,0,0-.23.78.69.69,0,0,0,.64.35l.11-.05.26-.26a.94.94,0,0,1,.25-.18.6.6,0,0,1,.42.08,3.32,3.32,0,0,0,2.74.21c.42-.11.85-.28,1.27-.42a6.74,6.74,0,0,1,1.29-.3,1.9,1.9,0,0,1,1.2.12,11.13,11.13,0,0,1,1.21.55,1.45,1.45,0,0,0,1.09,0,3,3,0,0,0,.44-.23,3.37,3.37,0,0,0,.38-.28,1.87,1.87,0,0,1,1.73,0,4.37,4.37,0,0,0,3.26.49c.4-.13.86-.23,1.3-.33a8.58,8.58,0,0,0,1.27-.35l.43.24a.45.45,0,0,0,.65-.23v-.14a1.6,1.6,0,0,0-.44-.72l-.26-.28Zm-11-6.26a4.42,4.42,0,0,0,.7.25c.24.06.49.11.77.16a4.13,4.13,0,0,0,1.53-.42l.08-.14v-.22c0-.1,0-.23-.25-.36s-.63,0-.94,0a4.13,4.13,0,0,1-.93,0,1.83,1.83,0,0,1-1.6-1.47,5.39,5.39,0,0,1,0-3.11c.11-.53.24-1,.36-1.55A11,11,0,0,0,63.09,74c0-.7-.15-1.47-.2-2.25a6.41,6.41,0,0,1,.17-2.27,12.29,12.29,0,0,1,0-1.72,9.09,9.09,0,0,0,0-1.65.74.74,0,0,0,0-.56c0-.08,0-.16-.07-.26A.56.56,0,0,1,63,65l0-.12a.4.4,0,0,1-.15-.24l-.05-.08h-.09a.43.43,0,0,0-.27.06l-.11.1-.28.13.18.08,0,.11c-.06,1.1.1,2.14,0,3.1,0,.69-.17,1.31-.23,1.93A4.27,4.27,0,0,0,62,72c0,.42.08.84.11,1.27a5.14,5.14,0,0,1,0,1.24c-.08.4-.15.84-.24,1.28a7.62,7.62,0,0,1-.35,1.28c-.22,1.48-.39,3,.46,4.36a2,2,0,0,0,1.11,1ZM89,19.48l.25.21a24,24,0,0,0,4.33,2.43A50.78,50.78,0,0,0,89,19.48ZM70.54,72a.17.17,0,0,0,.26-.15c-.11-.21-.06-.39-.15-.62s-.35-.46-.42-.75a11.16,11.16,0,0,1-1-2.71.74.74,0,0,0-.54-.44.53.53,0,0,0-.18.22A6.66,6.66,0,0,0,69,69.77,4.91,4.91,0,0,0,70.54,72Zm-4,11.15a.36.36,0,0,0,.23,0,1.29,1.29,0,0,1,.55-.1H68c.53,0,1.08,0,1.6-.1A2.92,2.92,0,0,0,71,82.42c.68-.34.7-1.17.6-1.86l-.18-.24a.5.5,0,0,0-.6.42,2.12,2.12,0,0,0-.08.38c0,.11,0,.22-.08.31a3,3,0,0,1-2.77.81l-1.28.31-.09.08-.12.08c-.08.08-.13.18,0,.35l.14.08Zm-2.23,1.71c-.21,0-.18.26-.25.41.61.34,1.47.68,2.11.13.08-.17.26-.3.21-.51s-.1-.16-.21-.16a2.57,2.57,0,0,1-1.86.13Zm4,1.69c-.22-.13-.45-.27-.7-.4a2.23,2.23,0,0,0-.78-.25,1.44,1.44,0,0,0-1.09.12,4.81,4.81,0,0,0-.46.22,2.17,2.17,0,0,1-.42.17,2.24,2.24,0,0,0-2.07-.12c-.34.13-.67.28-1,.44a7.91,7.91,0,0,1-1,.38.62.62,0,0,1-.33.08,2.11,2.11,0,0,1-.35-.05.68.68,0,0,0-.74.18.2.2,0,0,0,0,.23s0,.06.11.18a2.59,2.59,0,0,0,2,0,2.69,2.69,0,0,0,.56-.21l.5-.24a2.1,2.1,0,0,1,1-.26l.08,0a.63.63,0,0,1,.36.08l.21.08a.45.45,0,0,0,.24.07l.18,0,.21.08a.87.87,0,0,0,.54,0,1.75,1.75,0,0,1,2-.17c.35.13.69.3,1,.43a3.06,3.06,0,0,0,1.14.16l.11-.07h.15a.47.47,0,0,0,.16,0c.07,0,.12,0,.17-.15a.47.47,0,0,0-.26-.53,2.31,2.31,0,0,1-1.51-.48Zm60.11-31a19.5,19.5,0,0,0-.41-2.6c-.24-.33-.16-.77-.34-1.08-.06-.83-.63-1.44-.8-2.22a26.32,26.32,0,0,0-1.76-3.47,11.68,11.68,0,0,0-.39-2.48,2.19,2.19,0,0,1-.29-.41c0-.14-.15-.27-.18-.45s-.12-.25-.21-.36a7.23,7.23,0,0,0-1.44-2.12,17.92,17.92,0,0,0-2.3-2.72c-.18-.15-.5-.31-.6-.51a27.51,27.51,0,0,0-3-2.49,2.75,2.75,0,0,1-.72-.43c-.59-.39-1.27-.76-1.91-1.1-1.37-.57-2.61-1.21-4-1.73a14.15,14.15,0,0,0-2.49-.79,7.93,7.93,0,0,1-2.06-.76,7.41,7.41,0,0,1-1.55-1c-.5-.47-1.11-.77-1.58-1.19a5.59,5.59,0,0,1-1.22-.9c-1.47-1.14-2.61-3-4.34-3.93a8.62,8.62,0,0,0-3.29-.71,24.81,24.81,0,0,1-4.3-2.43,15,15,0,0,0-1.39-1.11,10.12,10.12,0,0,0-7-3.28,3.49,3.49,0,0,1-1.31.15c-1.19-2-3.63-2.25-5.65-3a4,4,0,0,1-2-2.33c0-.27-.21-.49-.23-.81a1,1,0,0,0-.5-.46.81.81,0,0,0-.82.23c-.21.62-.13,1.3-.36,1.87s-.49.92-.71,1.31a3.37,3.37,0,0,1-2,1.4A7.24,7.24,0,0,0,65,13c-.27,0-.65,0-.91-.07a10.31,10.31,0,0,0-4.58,1.09c-1.08.58-2.05,1.08-3.07,1.7-.84.81-1.94,1.17-2.78,1.94-.62.36-1,.68-1.63,1a7.94,7.94,0,0,1-5.29,1.61c-.79.12-1.49-.53-2.11-.88-.12-.08-.22-.21-.3-.27-.6-.3-.67-1-1-1.45-.29-.15-.11-.54-.35-.74a1,1,0,0,0-.8,0,8.18,8.18,0,0,0-2.64,2.84,6.59,6.59,0,0,0-.82,3.57c-.44.37-1,.59-1.51,1A13.35,13.35,0,0,0,36,25.3a7.66,7.66,0,0,0-1.26,1.53c0,.15-.11.15-.16.19-1.1,0-2.33.05-3.54.18a24.24,24.24,0,0,0-4.63,1.47,29.77,29.77,0,0,0-4.24,2.19,10.23,10.23,0,0,0-1.76,1.22A21.67,21.67,0,0,0,18.18,34a5.66,5.66,0,0,0-1.24,1.51c.16.44-.36.88.08,1.23-.29.47-.95.86-1.14,1.45a24,24,0,0,0-5.46,3.52,21.45,21.45,0,0,0-4.29,4.84c-.24.13-.11.42-.36.49,0,.15-.19.23-.28.36-.35.85-.86,1.6-1.14,2.49a3.68,3.68,0,0,0-.36.9c0,.15-.11.33-.14.49l-.13.7c-.07.16,0,.37-.15.47s-.21.48-.06.67a1.8,1.8,0,0,0,.34,1.26c0,.34-.36.57-.49.86s-.43.64-.65.91c-.15.48.29.87.57,1.16a3.81,3.81,0,0,0,2.13-.26A18.17,18.17,0,0,0,8,56a4.89,4.89,0,0,0,1.5,2.94,3.43,3.43,0,0,0,1.74.36c.6.21,1-.23,1.48-.39.07,0,.1,0,.09.11a4.62,4.62,0,0,0,1,3.16c.74.48,1.31,1,2.09,1.4a5.59,5.59,0,0,0,.18,1.68c.2.3.2.72.41,1A7.55,7.55,0,0,0,20,69.35a4.65,4.65,0,0,0,3,.16.3.3,0,0,1,.29-.08,12.5,12.5,0,0,0,.85,2.23,6.7,6.7,0,0,1,.52.72,5.27,5.27,0,0,0,.85,1.19c.42.58,1.14.8,1.52,1.45a3.32,3.32,0,0,0,2,2c.1.18.43.09.38.35-.31.35-.31.85-.56,1.26a6.3,6.3,0,0,0,.33,2.56c0,.28.18.41.23.68a.17.17,0,0,0,.13.09c.13.63.67.93,1.07,1.3a3.44,3.44,0,0,0,1.14,1.6,6.76,6.76,0,0,0,1.13.49,1.52,1.52,0,0,0,.06.53,13.75,13.75,0,0,0,.44,1.62,2.79,2.79,0,0,0,.54,1.09c.13.39.46.69.61,1a9.57,9.57,0,0,0-.57,1.16,5.28,5.28,0,0,0-.09,3c.07.15.07.33.22.46A5.11,5.11,0,0,0,36.78,97a2.54,2.54,0,0,1,.49,1.33,6.75,6.75,0,0,1-.26,2.53,7.18,7.18,0,0,1-.23,1.4c0,.1,0,.18-.05.25a14.83,14.83,0,0,1-.25,1.79c0,.21,0,.31-.06.44a8.1,8.1,0,0,0,.1,2.74,9.83,9.83,0,0,0,.54,2.54,17.35,17.35,0,0,0,2.08,3c.18,0,.23.19.36.34s.16.07.16.16a10.05,10.05,0,0,0,3.18,1.83,13,13,0,0,0,2,.46,12.14,12.14,0,0,0,3.67-.17c3.31-.7,5.69-3,8.69-4.43a8.57,8.57,0,0,1,3-.77c.25.21.28.67.54.78a3.1,3.1,0,0,0,1.73,1.47,6.86,6.86,0,0,0,1.89.3,4.47,4.47,0,0,0,2.35-.56c.42-.08.49-.49.86-.7a4.3,4.3,0,0,0,2.61.65,2.66,2.66,0,0,0,1.32.17,3.81,3.81,0,0,0,2.1-1.85c.18-.31.36,0,.51.15s.34.15.39.29a24.15,24.15,0,0,0,2.56,2.16l1.22.71a11.54,11.54,0,0,1,1.41.57,7.43,7.43,0,0,0,1.89.56c.06,0,.13.11.19,0a8.81,8.81,0,0,1,1.21.28c.59,0,1.17.15,1.76.11a2.56,2.56,0,0,1,.83,0c.67,0,1.3-.23,2-.28a8.93,8.93,0,0,0,1.56-.52,8.25,8.25,0,0,0,3.17-2.37c.57-.19.52-.86.91-1.19a6.51,6.51,0,0,1,.88-1.89c-.07-.06,0-.13.07-.14a2.72,2.72,0,0,1,.29-1c0-.54.31-1,.36-1.55a17.87,17.87,0,0,0,.42-4.29,8.4,8.4,0,0,0,.13-1.74c-.06-.34-.06-.64-.11-1a2.75,2.75,0,0,1,.13-1.17c.14-.39.34-.72.49-1.11,0-.23.23-.36.23-.6.5-.69.79-1.49,1.3-2.1,0-.28.21-.49.26-.75a4.41,4.41,0,0,0,.46-1.32c.06-.15,0-.38.08-.54A14.09,14.09,0,0,0,98.11,90c0-.68-.36-1.2-.39-1.86a5.1,5.1,0,0,0,.81-1.77,8.49,8.49,0,0,0,.13-1.58c.18-.33.46-.43.57-.8a6.17,6.17,0,0,0,.18-2.9c0-.36-.23-.64-.18-1,.33,0,.65.13,1,.18a8.47,8.47,0,0,0,2.66-.1c.39-.31.81.13,1.29.1s.81.22,1.33.09c.28-.08.27-.37.33-.63-.68-.36-.75-1-1.16-1.6-.45-.88.26-1.79.36-2.7,0-.12.15-.17.12-.31a17.7,17.7,0,0,0,.86-2.09c0-.15.2-.3.18-.44a6.76,6.76,0,0,0,.65-1.45,14.89,14.89,0,0,0,.44-1.62,6.39,6.39,0,0,0,.15-2.44,6,6,0,0,0-.52-2.09.73.73,0,0,1-.18-.39c.09.11.32-.11.49,0a3.83,3.83,0,0,0,2.8-1.94c0-.1.07-.13.11-.2,0-.3.3-.57.36-.91-.18-.58.52-.76.8-1.12a6.17,6.17,0,0,0,.67-3.3c.08-.26.36-.27.55-.49a.32.32,0,0,1,.33,0c.11-.07.28.08.42.13.66.59,1.23,1.66,2.3,1.27a2.3,2.3,0,0,0,1.76-1c0-.28.36-.34.36-.62s0-.41.23-.52a4.16,4.16,0,0,1,.54.63,10.64,10.64,0,0,0,2.3,1.81c.36.3.93.15,1.35.35.44-.15.88-.15,1.3-.3a1.88,1.88,0,0,0,1.13.67c.24.11.57.16.8.26a12.88,12.88,0,0,0,1.32-.21c.19-.25.57-.25.81-.41s.18-.36.33-.39a1.07,1.07,0,0,0,.77.41c.19.19.34-.1.48-.15a21.53,21.53,0,0,1-.6-3.1ZM104.77,31.18c1,.41,3.26.05,5.19,1,1.74.89,3.5,1.3,5.12,2.49.93.68,1.9,1.37,2.85,2a21,21,0,0,0,2.61,2.3c.85.76,1.29,1.82,2.09,2.56.14.5.65.81.7,1.35.24.13.13.42.35.57a2.77,2.77,0,0,1,.44,1.45c-3.29-2.74-5.9-6.16-9.92-8-6.77-4.13-20.87-2-24.23-7V29.8c3.43,2.16,6.67,1.48,10.58,1.3a8.44,8.44,0,0,0,2,0,4.16,4.16,0,0,1,2.21.08Zm-1.48-1.24c-2,.26-13.33,1.11-13.12-2.13a21.62,21.62,0,0,1,8-1c.91-.22,4.66,2.33,5.13,3.09Zm-4.76-4.4a12.42,12.42,0,0,1-2.93.15c-1.36.13-2.69.54-4,.62a14,14,0,0,0-2.82.75,12.24,12.24,0,0,0,.37,1.38,6.7,6.7,0,0,1-4.19,1.7c-1.32.11-2.51-.67-3.81-.6-2.69.13-4.5,1.61-6.83,2.05a20.61,20.61,0,0,1,4-4c5.59-4.6,6.08-.69,11.9-3.22,3.42-1.5,5.65-1.77,8.36,1.16Zm11,20.09c-.23.21-.59.19-.84.4-.32-1-1-.86-1.51-1.48.76,0,3,.24,3.45.86-.39,0-.71.23-1.1.22Zm5.07,5c-3.1,0-4.26,2.72-6.8,3.65-.07-1.91-1.68-3.49.06-6.11a4.09,4.09,0,0,1,1.4-1.18c3.13-1.66,4.46,1.18,5.34,3.64ZM103.63,43s-.19-.06-.19,0a8.79,8.79,0,0,0-3.92-.08c-5,1.37-9.5-1.91-12.68-5.46-.44-.51-1-.67-1.4-1.1a25.37,25.37,0,0,1,5-1.27c1.79-.1,3.72.6,5.49.85s3.64.15,5.48.28a10.41,10.41,0,0,1,4.81,1.46,13.82,13.82,0,0,1,1.73,1.28c1,1.12,1.71,2.38,3,3.22-1.84,1.94-5,1.41-7.34.83ZM89.24,41.44a19.85,19.85,0,0,0,2,1.28c1.65.88,6.7,2.25,8.35,1.26,0,.06.1,0,.12-.07,2.73-.81,6.53.31,7.89,2.91-1.31,1.25-2.5,6.89-.62,7.85-3,2.27-3.88-3.58-7.85-3.08-.5-.63-2.72-2.41-3.55-2.17-.42.13-.73.74-1.14.93-1,.48-4.09.23-4.92-.49-.31-.26-.17-.91-.22-1.28a60.47,60.47,0,0,0-2.57-7.7c-.77-1.4-1.78-2.31-2.66-3.62,1.73.39,3.83,2.92,5.22,4.18ZM90.4,54c-.69-.14-1.05-.79-1.63-1.06a8.84,8.84,0,0,1,.5-1.81c2,1,5.12,1.1,6.77-.54a12.3,12.3,0,0,1,2.15,1.63c0,.29.32.44.39.72s.24.47.46.63a4.71,4.71,0,0,1,.22,1.4l-.13.15A17.27,17.27,0,0,0,97.24,53c-.32-.26-.7-.37-.86-.81L95.86,52c-.43.18-.41.67-.65,1,.3,1.38-3.85,1.87-4.81,1.06Zm0,36.3a.66.66,0,0,0,.5-.15c.8-.75,1.16-1.76,1.89-2.47.26.21-.1.35-.13.58a11.3,11.3,0,0,1-.6,1.32,7.55,7.55,0,0,0-.88,1.75c-.9,1.2-2,2.39-2.84,3.5-.36.44-.75.9-1.09,1.37a2.28,2.28,0,0,0-.29.43,9.06,9.06,0,0,0-.66.73c-.06.24.07.39.2.57a1.28,1.28,0,0,0,.65,0c1.32-1.5,2.5-3.16,3.77-4.71.49-.28.67-.9,1-1.29a14.68,14.68,0,0,0,1.24-2c.15,0,.13.26.11.41-.09.41-.34.58-.48.94-.38.66-.88,1.29-1.28,1.94a28.93,28.93,0,0,0-1.9,2.5,22.49,22.49,0,0,1-2,2.39A19.42,19.42,0,0,1,86,100a23,23,0,0,1-2.8,2.79c-.31.34-.74.57-1,.88-.5.67-1.29,1-1.86,1.62-.41.14-.73-.2-1.12-.3-.23-.19-.67-.21-.69-.6.72-.56,1.52-1.17,2.19-1.78s1.42-1.4,2-2.15c0-.21.28-.41.15-.65s-.29-.33-.49-.18c-.82.72-1.7,1.78-2.53,2.49a9.6,9.6,0,0,1-.8.59c0,.16-.24.2-.34.28a10.87,10.87,0,0,1-1.25,1c-.44.15-1-.15-1.37-.31s-.87-.18-1-.45a28.9,28.9,0,0,0,2.63-2.11c1.11-.76,1.86-2,2.93-2.85a61.77,61.77,0,0,0,4.93-5.89c1.14-1.69,2.16-3.17,3.14-5a1.91,1.91,0,0,1,.36-.67,5,5,0,0,0,.31-.85,11.3,11.3,0,0,1,.54-1.11c.11-.18.15-.44.41-.5.21.15.24.31.45.5a13,13,0,0,1,1.4,1.68,4.34,4.34,0,0,1-.52,1.06c-.49.79-1,1.62-1.42,2.48a.8.8,0,0,0,.27.31Zm-.27,12.24a16.29,16.29,0,0,1-.52,3.59.59.59,0,0,0-.19.5,3.25,3.25,0,0,1-1.32,1.62,5.73,5.73,0,0,1-2.81-.26c-.4-.12-.73-.34-1.07-.41-.85-.49-2-1.08-2.77-1.6.6-.57,1.2-.94,1.72-1.51a43.22,43.22,0,0,0,4.28-4.16c.89-1.08,1.82-2,2.65-3.15a16.78,16.78,0,0,0,1.22-1.66c0,.36-.27.46-.29.82a10.64,10.64,0,0,0-.5,1.54,17.25,17.25,0,0,0-.26,2.29c-.17.76,0,1.59-.14,2.39Zm-42.09.7a3.93,3.93,0,0,0,1,1.18c.79.76,1.57,1.56,2.38,2.21,0,.18-.22.28-.37.35-.42,0-.77-.35-1.13-.52-.6-.62-1.32-.77-1.79-1.49a12.49,12.49,0,0,0-.91-.89c0-.17-.07-.09-.15-.22a7.34,7.34,0,0,0-.88-.89c-.29-.3-.55-.72-.88-1,0-.15-.16-.2-.18-.33a10.57,10.57,0,0,1-1-1.22c-.37-.36-.6-.87-.94-1.26-.25-.57-.69-1.11-1-1.66a3.4,3.4,0,0,1-.23-.57c-.2-.13-.13-.39-.33-.54-.09-.54-.53-1-.67-1.55a6.91,6.91,0,0,1-.42-1.35C40.38,93,40.14,92.43,40,92a6.16,6.16,0,0,1,.52-.83h.17c.22.91.73,1.66.94,2.52.46,1,.87,1.94,1.32,2.87.26.08.36.57.7.43a.67.67,0,0,0,.38-.49,3,3,0,0,0-.36-1,5,5,0,0,0-.52-1.21c0-.22-.26-.27-.23-.5a8.73,8.73,0,0,1-.33-1c-.21-.5-.44-1.15-.66-1.66-.05-.42-.22-.8-.26-1.22.6-.51,1.22-1.13,1.79-1.6.18.24.11.6.36.83a25.34,25.34,0,0,0,2.16,5,35,35,0,0,0,4.65,6A23.16,23.16,0,0,0,54,103.5c.47.37,1.05.73,1.49,1.09,0,.07,0,.15-.07.15-.55.27-1.14.62-1.71.89-.07,0-.15,0-.13.09-.17-.09-.15.22-.31.14-.2.15-.47,0-.7-.1a14.26,14.26,0,0,1-1.91-1.58,2.85,2.85,0,0,0-.82-.63,5.52,5.52,0,0,0-.75-.59,2.23,2.23,0,0,0-.88-.18.44.44,0,0,0-.21.47Zm-6.35-1.79a15.27,15.27,0,0,1-.09-2.15l.09-.12a36.1,36.1,0,0,0,2.65,3.49A9.87,9.87,0,0,0,46,104.43a13.91,13.91,0,0,0,3.11,2.85,4.71,4.71,0,0,0,.64.47,2.44,2.44,0,0,1-1.21.72,1.37,1.37,0,0,1-.64.34,27.23,27.23,0,0,1-2.62,1.13l-.25.18a2.79,2.79,0,0,1-2.33-.07c-.19-.06-.18-.24-.36-.26s-.22-.21-.35-.31a8.42,8.42,0,0,1-.41-3.85c.13-1.28-.07-2.87.15-4.17Zm-3.9-9.76a9.08,9.08,0,0,0,.31-1.19A8.09,8.09,0,0,1,39,88.89a.63.63,0,0,1,.19-.26A13.15,13.15,0,0,1,43,85l.15.08v1a2.07,2.07,0,0,1-.16.52v.11a.32.32,0,0,0-.15.3c-1,1.37-2.72,2.21-3.64,3.75a2.52,2.52,0,0,0-.62,1.2c-.19.17,0,.51-.24.64a2.81,2.81,0,0,0-.05.46c-.13,0-.06.13-.16.19-.56-.19-.2-1-.31-1.56Zm17.08,10.77a43.48,43.48,0,0,1-4-3.89,41.42,41.42,0,0,1-3.74-5.16c-.6-1.33-1.22-2.31-1.71-3.65a10.67,10.67,0,0,0-.52-1.5,4.12,4.12,0,0,1-.36-2.62,5.25,5.25,0,0,0-.06-1.13c.11-.24-.18-.36-.12-.67l.12.1h0c.07.06,0,.21.08.34a.47.47,0,0,1,.18.37c.39,1.21,1.24,2.22,1.73,3.41a19.82,19.82,0,0,0,1.79,2.85,8.86,8.86,0,0,0,.67.82c.38,0,.46.49.74.68a36.35,36.35,0,0,0,5,4,25.67,25.67,0,0,1,2,1.88c.8.65,1.37,1.45,2.23,2,1.6,1.69,4.14,1.2,6.34,1.37a14.42,14.42,0,0,0,5.24-1.15,5,5,0,0,0,1.84-.73,7.41,7.41,0,0,0,1.55-1.66L74,98.1c.76-.63,1.46-1.46,2.15-2.13.89-.77,1.77-1.54,2.64-2.35a9.18,9.18,0,0,0,1.94-1.79,22.69,22.69,0,0,0,2.7-3.22,16.9,16.9,0,0,0,1.18-1.87c.31-.44.41-1.06.85-1.29.21.13.08.43.29.59s.15.5.39.63a3.19,3.19,0,0,0,.36.87c0,.41.55.85,0,1.16-.8,1.4-1.84,2.62-2.74,4-.6.76-1.24,1.43-1.88,2.21a30.87,30.87,0,0,1-3.26,3.43,22.67,22.67,0,0,1-3.57,3.34,5.18,5.18,0,0,1-1.14.77c-.39.21-.73.6-1.24.66a11.42,11.42,0,0,0-4.87,1.42c-.51-.11-.88-.31-1.37-.44a3.46,3.46,0,0,0-2.43.21c-.36,0-.59-.35-.9-.47a5.63,5.63,0,0,0-3.08-.37,10.63,10.63,0,0,0-2.23.45c-.44.22-.78-.24-1.21-.26-.65-.32-1.14-.76-1.76-1.14ZM89,84.13c-.09-.06,0,0-.08.08a2.3,2.3,0,0,0-.32.75c-.2.39-.36.77-.56,1.13,0,.24-.31.39-.42.63a1.49,1.49,0,0,1-.61-.83,4.38,4.38,0,0,1-.35-1.25c-.28-.48.09-1-.13-1.52a15.56,15.56,0,0,1,.68-1.68,2.15,2.15,0,0,1,.41-.86v.1c.12,0,.12.19.22.29a13.31,13.31,0,0,0,1.41,2.26c0,.33-.22.58-.26.9ZM88,71.74c0,1.06-.31,2.28-.46,3.41-.15.68-.28,1.32-.49,2-.13.95-.52,1.81-.68,2.76L86,81.36a5.45,5.45,0,0,0-.36.9c-.21.4-.44.94-.68,1.33a2,2,0,0,1-.25.48,9,9,0,0,0-1.19,2.08c-.06.13-.18.23-.19.36s-.2.25-.31.39a1.44,1.44,0,0,1-.28.44,20.69,20.69,0,0,1-3.34,4c-.31.39-.72.75-1,1.07a2.31,2.31,0,0,1-.49.3c-.86.89-1.81,1.55-2.74,2.43-1.22,1-2.42,2.26-3.65,3.31a6.09,6.09,0,0,1-3,1.43,20.43,20.43,0,0,1-7.18.44,4.79,4.79,0,0,1-2.59-1.65c-.46-.53-1.16-1.09-1.61-1.72-.66-.69-1.65-1.34-2.3-2a6.84,6.84,0,0,1-.8-.52,10.42,10.42,0,0,0-1-.82,20.19,20.19,0,0,1-3.46-3.21c-.39-.13-.46-.52-.73-.78s-.43-.51-.51-.9-.41-.63-.55-1c0-.17-.15-.23-.22-.4-.39-.75-.79-1.63-1.23-2.41-.31-.54-.38-1.16-.67-1.71s-.46-1-.61-1.48a14.65,14.65,0,0,1-.6-1.5,38.52,38.52,0,0,1-1.52-6.59c-.11-.1,0-.33-.13-.46-.13-1.09-.26-1.94-.29-3a21,21,0,0,1-.05-3.72A5.1,5.1,0,0,0,44.73,65c.36-.23.59-.61,1-.87a4,4,0,0,1,.77-.14,4.14,4.14,0,0,1-.52.94c-.4.75-1.08,1.4-1.06,2.35a1,1,0,0,0,.73.52,3.76,3.76,0,0,0,1.21,0c-.17.1-.07.24-.07.37.21.22.51.09.77.09a.61.61,0,0,0,0,.4,7.1,7.1,0,0,0,5.65,2.51c.12.17.35,0,.51,0a.64.64,0,0,1,.34,0,52.44,52.44,0,0,0,5.37-1.62c.37-.27,1-.47.88-1a9.35,9.35,0,0,0-2.81-2.18,10.83,10.83,0,0,0-2-.61,10.22,10.22,0,0,0-4.06.25c-1.28.47-2.46,1.12-3.66,1.56a1.35,1.35,0,0,1-.31.07c0-.1.13-.17.21-.21.91-.62.88-.61,1.76-1.23.08-.05,1.27-.8,1.4-.83a5,5,0,0,1,3.31-.68,14.3,14.3,0,0,1,1.44.5.32.32,0,0,0,.32-.13c0-.5-.16-.68-.57-1a6.5,6.5,0,0,0-2.4-.35,7.13,7.13,0,0,0-2.1.57,3.55,3.55,0,0,0-1.06.55c-.65.33-.76.62-1.4.91-.26.26-.93.67-1.19.92A3.24,3.24,0,0,1,46,66.9c0-.31.3-.46.36-.78.08-.1.23-.15.16-.34a7.26,7.26,0,0,0,.77-1,8.28,8.28,0,0,1,1.87-1.45,10.36,10.36,0,0,1,3.75-.54,46.13,46.13,0,0,0,5.2.48,6.16,6.16,0,0,0,3-1c.14-.14.13-.37.21-.55a.45.45,0,0,0-.64-.11,5.94,5.94,0,0,1-3.06.6,27.18,27.18,0,0,1-2.9-.12,10.85,10.85,0,0,0-3.34-.31c-.38-.06-1.24.4-1.57.3,0-1.27,1.09-2.37,1.81-3.47A10.58,10.58,0,0,1,54,57.14c.53-.43,1.27-.69,1.61-1.33a7.38,7.38,0,0,0,1.26-1.51,2.15,2.15,0,0,0,.13-.93l.05-.15c.91-.55,1.74-1.15,2.62-1.76.07-.08.26-.21.28-.32a6.19,6.19,0,0,0,1.24-1.21c.26-.29.39.08.63.16.13.33.51.36.78.49a15.84,15.84,0,0,0,1.54.41c1.56.08,3.31.26,4.89.32h.13c1,.14,2.13.15,3.16.36a40.12,40.12,0,0,1,4.65.9,34,34,0,0,1,3.66,1.19,6.3,6.3,0,0,1,1.6,1,15.86,15.86,0,0,1,2.71,2.19c.18.26.37.49.55.76a9.34,9.34,0,0,1,1,1.37,3.72,3.72,0,0,1,.58,1.16c.25.18,0,.54.28.73,0,.23.23.26.36.38l.34,0c0,1.22.25,2.59.21,3.89a45.58,45.58,0,0,1-.21,6,1.85,1.85,0,0,0-.06.54ZM42.08,63.23c.27-1,2.18-4.92,3.24-5,.23,0,.11.35.08.44A13.6,13.6,0,0,0,45,60.36a7,7,0,0,0,0,2.24c.13.84-1.22,1.53-1.29,1.9-.27.18-1.2.87-1.27.25l-.08-.23c.15-.52-.42-.7-.24-1.29ZM40.82,70.7c-.06,0,0-.23-.06-.3a15.84,15.84,0,0,0-.62-1.56c-.18,0-.1-.23-.25-.29,0-.28.2-.41.3-.64.09,0,.11-.08.19-.1l.15,0c0,.07,0,.15,0,.2s.05-.07.1-.13c-.11,0,0-.07,0-.11s0,0,0,0v0l.13,0c0,.08.1,0,.17.08s0,.5.18.73A15.27,15.27,0,0,0,41.18,71c.11.18,0,.58.08.84s-.16.09-.23.08c-.27-.34,0-.92-.21-1.24Zm-.29-6c-.49.22-.69.88-1.29.88-4.71,0-2-4.62.28-4.45a6.54,6.54,0,0,0,1.81.14l.09.18c-.44.77-.63,2.94-.89,3.25ZM41.42,54c-.6.87-1.09,1.71-1.61,2.63,0,0-.13,0-.15,0,0-.31-.09-.75.12-1,.68-5.41,8.57-5.28,12.55-5.46a19.74,19.74,0,0,1,3.49-.23c1.5.19,2.7-.56,4.09-.85-.06.41-.46.67-.68,1l-.18.15A6.09,6.09,0,0,0,58,51c-5,5.15-13-2.2-16.58,3Zm13.93.1c-1,1.55-2.42,2-3.82,3-1.53-.42-3.16,5.67-5.2,5.54l-.18-.18c-.36-3.11,1.39-7.71,4.91-8.26,1.43-.23,2.69.28,4.2-.28l.09.23ZM42.08,50.63c-3.1,2.1-9,5-12.23,1.48,2.44-.31,3.37-.21,5.54-1.63,2.89-1.9,7.39-6.16,11.25-4.28l.11.08c1.26.11,3.74,1.74,5,2.41-2.07,1.06-6.29-.34-9.63,1.94Zm-1.57,9.23c-.41-.28.07-1.6.21-2,1.54-4.08,2.77-4.32,6.78-4.47v.05a4.52,4.52,0,0,1,1.23.2,1.59,1.59,0,0,1-.67.45c-.59.31-.82.93-1.35,1.27-1.9,1.19-2.91,2.71-4.42,4.24-.6-.23-1.22.62-1.78.25Zm7.68,8.41c.23,0,.52-.28.67-.07v.59c-.07,0-.17,0-.2-.1a1.44,1.44,0,0,1-.47-.42Zm8.46.18a1.31,1.31,0,0,1-.11.8.7.7,0,0,0-.13.21,1.25,1.25,0,0,1-.74.42l-.85.22a6.75,6.75,0,0,1-4.07-.25l-.49-.23a.63.63,0,0,1-.24-.18.75.75,0,0,0,0-.45c-.07-.23-.1-.46-.17-.69a.92.92,0,0,1,0-.28c0-.09.09-.19.12-.27a7.93,7.93,0,0,1,3.45-1.18,6.42,6.42,0,0,1,1.75.17c.5.11,1,.27,1.5.42a.5.5,0,0,0-.21.29c0,.35.08.69.11,1Zm.9-.47a1.24,1.24,0,0,0-.13-.49A7.76,7.76,0,0,1,59,68.68a.2.2,0,0,1-.11.06l-.16.08-.18.09a2.78,2.78,0,0,1-.44.14l-.39.1a1.88,1.88,0,0,1,0-.52,1.18,1.18,0,0,0-.14-.65ZM73.46,47c4.24,2,8.74.72,12,4.67a7.59,7.59,0,0,1,1.87,5.2l0,.27,0,.28-.15.18a18.39,18.39,0,0,1-1.77-1.86c-4.28-3.93-8.87-4.77-14.53-5.49-1.21-.15-8.49-.38-8.64-1.49,0-.08,1.81-3.52,2-4.09a3.92,3.92,0,0,0,.36-.91A5.74,5.74,0,0,0,65,42.66l.25-.59c1.6.78,3.34,4.34,7.2,3.88.05.57.72.67,1,1.09Zm-.38-2.8c5.53.38,6.34-1.86,12.34.78A4.46,4.46,0,0,1,88,47.7c.28,1.12.51,3.93-.39,4.81a16.25,16.25,0,0,0-2-2.53c-2.58-3.36-12-1.88-12.54-5.74ZM84.3,39.35a7,7,0,0,1,1.14,1.29c.31.52,1.48,3.16,1.3,3.67-2.75-1.13-5-2.35-8.11-1.73-3.41.67-8.5,1.22-10.13-2.77-.39-1-1.12-4.41-1.17-4.52a13,13,0,0,1,.13-1.87c.39.45.63,1,1.19,1.33a5.45,5.45,0,0,0,2.48,1.5c4,1.14,9-1.73,12.29,2,.31.36.55.78.88,1.14ZM68,31.87c0-.25-.29-.43-.2-.66.74-1.61,1.67-2.77,2.12-4.56.85-3.41.23-3.68,0-6.78,1.68-.77,5,2.66,5.2,4.27a29.43,29.43,0,0,0-.31,2.93C74.71,30,71,35.18,68,31.87ZM88.59,20.7c.89.68,1.87,1.12,2.77,1.78l-.17.13c-2.38,1-5.46,2.46-8.11,1.42a8.53,8.53,0,0,0-5.35,2.62A8.51,8.51,0,0,1,76,28c.41-2.56.26-5.36,1.16-7.83,2.73-7.36,7.46-2.47,11.46.51Zm-18-8.1c.16-.28.25-.59.43-.85.26.1.42.42.6.64,1.94,2,5.18,1.14,6.55,3.55,0,0-.11.18-.06.19A6,6,0,0,0,76,19.69l-.57,1.47c-.26.06-.39-.17-.55-.33a9.36,9.36,0,0,0-4.6-2.33,11.27,11.27,0,0,1-2.09-.07c-4.4-1.28,1.7-4.59,2.48-5.83ZM66,14.65l0,.12c-.34,1-.7,1-.7,2.25s1.94,3.21,3.15,2.86c1.56,2.12-.13,7.55-1.22,9.66-.79.91-2.61.47-3.28-.36a8.53,8.53,0,0,0-.51-.77,3.72,3.72,0,0,0-2.65-2.28c-.9-.41-1.8.11-2.42-1.06A18.79,18.79,0,0,0,57,22.46c-1.17-1.5-4.58-1.57-4.84-2.35,4.83-3,7.74-6.42,13.82-5.46ZM51.56,22c.09-.2.26-.1.41,0a16.44,16.44,0,0,0,2.41.64c2.11.49,2.47,3,4.1,4.57.49.47,1.28.29,1.89.35l-.13.33c-1.34.95-3.75,1.6-4.65-.46-.62-1.38-3.36-.76-3.91-3.52A4.1,4.1,0,0,1,51.56,22Zm-1.28-.83v.66c0,.15-.14.2-.21.28l-.52-.26a3.2,3.2,0,0,1-.49-.24c.36-.18.8-.28,1.21-.44ZM39.71,24.89a1,1,0,0,0,.18-1.5A17.75,17.75,0,0,1,40,21.61l0-.13c.44-1.43,1.19-1.89,2.26-2.75.38.36.48.89.88,1.24,1.39,1.15,2.92,1.5,4.31,2.44a13.92,13.92,0,0,0,2.79,1.21A5.12,5.12,0,0,0,51,25.83a6.81,6.81,0,0,0,3.31,2.27,3.93,3.93,0,0,0,5.61,1.57c.26-.18,1.5-1.19,1.59-1.23.4.43,1.26.52,1.21,1.24a3.54,3.54,0,0,0,4,1.91,1,1,0,0,1-.06.6,4.36,4.36,0,0,1-.17.83c-.55,2.6.46,7.32,2.32,9.3a6.38,6.38,0,0,0,3.37,1.77c-.14.28.17.66-.13.8-3.57-.5-5.39-3.49-5.78-3.58a1.69,1.69,0,0,1-.66-1.46c.54-4.93-6.42-5.62-8.86-2.29-.35.47-2.42-.33-3-.54-.52-1.08-3.18-2.17-4.26-2.76.12-4.06-5.68-9.94-9.79-7.17-.17.38-.79.9-1,1.37a17.16,17.16,0,0,0-2.48-1.13L36,27.09a10.41,10.41,0,0,1,3.71-2.2ZM51.43,38.45a6.61,6.61,0,0,1,3.77.48c.55.22.88,1.32,1.56.6a8.28,8.28,0,0,0,.66-.87c1-1.4,4.35-2.55,5.77-1.25.19.18.76.72.67,1,0,.05-.09.05-.13.05l0,.08a2.78,2.78,0,0,0-1.5.16c-5.56,1.52-3,8.1-12.38,4.39a21.92,21.92,0,0,1-2.95-1.47c1.5-1.18,2.61-2.82,4.58-3.2ZM46.77,40c-1.48.88-5.88-1.6-7.76-1.92a5.71,5.71,0,0,1,4-2.14c1.62.18,4.62-1,5.82-.41A18,18,0,0,1,51.65,37c-3.77,1.08-2.76,1.75-4.88,3Zm-8.15-8.39-.33.08a39.18,39.18,0,0,0-3.79-1,21.7,21.7,0,0,0-10,1.26c-1.44.57-2.79,1.48-4.23,2.07,1.23-2.87,16.55-9.54,18.36-2.41Zm-4.48.29c1,.08,4.19,1.24,4.48,1.22l.05.3C35.15,39.48,28,38,22,37.65c-1.35-.06-2.67,0-4,0,4.72-4.22,9.67-6.28,16.13-5.74ZM4.73,53.09c0-2.48,1.79-5,3.16-7a22.93,22.93,0,0,1,8.62-6.78c6.33-2.49,17.92,4.37,23-5.17,0-.88.59-1.79.39-2.8-.13-.8-.6-1.39-.73-2.09.89-.08.93-1.32,1.91-1.45,3.71-.54,6.17,3.08,7.15,6.19-1.42,0-2.77.62-4.16.66-2.51.05-4.8.52-6.4,2.78a8,8,0,0,0-1.39,1.68c-.39.28.1,1,.59.88,1-.18,1.63-.66,2.71-.4,1.58.35,3,1.33,4.53,1.72a1.31,1.31,0,0,0,.58,1.16,21.36,21.36,0,0,1,2.86,1c2.48,1.5,7.32,3.44,9.79,1.19.9-.81,5.86-6.76,7.11-4l-.14.53c-1,4-4.23,7.83-8.77,7.23-5.73-.74-8.09-6.17-15.15-3-4.16,1.88-6,6.08-11.23,5.1a4.73,4.73,0,0,1-2.53-1.11c1.27-3.47,2.53-6.24,6.05-8a6.54,6.54,0,0,1,3-.93c.21-.13.21-.47.17-.69l-.41-.35c-1.7.13-2.33.75-3.74,1.09-.58.62-1.72.72-2.47,1.22a8.49,8.49,0,0,1-1.73.77c-2.4,0-3.72-1.49-7-.85a10.77,10.77,0,0,0-3.12.9c-2.16,1.3-4.3,2.38-6.4,3.83s-6,6.44-6.31,6.63Zm6.6,4.68c-.55,0-1.29.1-1.57-.46a4.36,4.36,0,0,1-.57-2.21c.43-.23.57-.7,1-1a3.77,3.77,0,0,0,.58-.78c.31-.2.28-.54.59-.69a8,8,0,0,0-.46,3.13,12.47,12.47,0,0,0,.46,2Zm1.17-1.63c-.71-4.58,2.74-3.8,3.41-4.43.6.58.82,1.37,1.58,1.9-2.1-1.17-4.27,2-2.74,2.38.82.23,1.08-1.41,2-.89,1.25.7-.72,3-2.27,2.9a2.52,2.52,0,0,1-2-1.86Zm2.84-6.08a5.32,5.32,0,0,0-2.64,1.16c-.13-.07-.13.14-.15.08A11,11,0,0,1,14,49.62a13.48,13.48,0,0,0,1.22-1.08l0,0a5.07,5.07,0,0,0,.11,1.5Zm-1.25,9.49c3.39.39,5.29-2.92,3.57-5.76,1.28.72,3.73,1.6,4.07,3.12,1.44,6.39-7.56,7-7.64,2.64Zm8.5,8.52c-2.21.64-5.7-1.76-5.29-4.19,5.18.87,7.66-7.09,4.15-9.65-1.25-.91-3-1.22-4-2.51-3.55-4.66,2.86-5.57,3-6a1.07,1.07,0,0,0-.23-.85c-1.27-1.07-6.91,3.39-8,4.32-.13.41-.6.57-.75,1-2,1.72-3.49,5.43-6.63,5.56C7.21,50.68,17.35,42,23.21,43c1.52.26,3.31,1,4.81,1v.17c-.58.68-2.39,4.3-2.36,5.16-1.17,1,1.53,2.07,2.09,2.29.21.53.73.81,1.07,1.23-3.24.69-4-4.23-5.82-2.36-.71.77-.42,1.32-.65,2.23s.67,1.94,1,2.58c1,.86,1.36,2.14,2.07,3.18.07,2.2,1.36,2.12,0,5.79a3,3,0,0,0-.36,1c-.67.91-1.39,2.53-2.55,2.85Zm5.35,6c-1.2-1.17-3.89-3.65-3.36-5.67.17-.56,1.36-1.73,1.7-2.74.81-2.37,1.42-4.13.63-6.64s-2.51-4-3.29-6.29c.18-.41.05-.9.34-1.26l.15-.18c.72.74.88,1.62,1.86,2.22s3.05,1.18,4.12.26c2.3,1.36,6.51,1.67,8.84.23H39c-.43,2.35-.75,3.18,0,5.59-3.45,1-4.82,6.31-1.72,7.27.27.51.94.36,1.4.53,0,.29-.46.92-.6,1.17-.92,1.55-.84,4.86-3.46,4.92-2,0-1.57-5.15-4.26-4.17-3,1.09-.57,4.78,2,5,.27,0,.52-.07.79,0a1.93,1.93,0,0,1-2.82,1.85c-1.63.06-1.58-1.23-2.41-2Zm4-1.27c-.06.1-.22.06-.31,0a3.24,3.24,0,0,1-1.27-1.69c.08-.36.33-.51.62-.72.57.11.44.85.65,1.27a6.33,6.33,0,0,0,.31,1.11ZM31,80.41a2.46,2.46,0,0,1-.21.43c-.06.13-.1.24-.21.28s-.25-.22-.25-.41a3.72,3.72,0,0,1,.23-2.82.73.73,0,0,1,.21-.44,8.46,8.46,0,0,0,2.3-.2,2.85,2.85,0,0,0,1.16-1.35c0-.16.13-.23.18-.38s.13-.16.18-.27-.08-.51.1-.61a3.76,3.76,0,0,0,2.35-.81A7.29,7.29,0,0,0,39,70.62c.13-.12.14-.33.21-.51s.13.08.13,0c0,.3.21.44.24.74a4,4,0,0,1-.4,2.28c-.46.75-1.39,1.32-1.91,2.09a6.87,6.87,0,0,1-1.35.92c-.9.72-1.81,1.42-2.76,2.09A29.2,29.2,0,0,0,31,80.41Zm2.5,2c-.2.36-.21.82-.43,1.14A1,1,0,0,1,33,84a.84.84,0,0,1-.62-.17c-.1-.19-.2-.21-.23-.47a2.45,2.45,0,0,1-.29-1.53c.42-1.24,1.46-1.92,2.33-2.82.91-.69,1.87-1.4,2.74-2.12.39-.11.57-.44.92-.62a28.49,28.49,0,0,0,2-2.07,5,5,0,0,0,.7-1.13c.54,0,.69.45.92.77a2.81,2.81,0,0,1,0,2.45c-.06.09-.21.13-.19.24-.74.9-1.94,1.16-3,1.73a6.5,6.5,0,0,0-2.43,1.43c-.91.83-2,1.47-2.31,2.74Zm1,4.81a1.87,1.87,0,0,0-.23-.6,5.78,5.78,0,0,1-.11-1.84c0-.51.32-.9.36-1.39,0-.05.11-.05.11-.11s.15-.46.28-.66a9.32,9.32,0,0,1,3.68-3.13c.88-.32,1.58-.79,2.45-1.14.09-.23.4-.19.5-.37.28-.2.38-.49.65-.64.12.1.17.31.28.49a16.53,16.53,0,0,0,.67,2.41c.11.54.42,1.08.19,1.67a2.14,2.14,0,0,1-.44,1.35,2.23,2.23,0,0,1-1.14,1c0,.14-.21.13-.27.24A13.62,13.62,0,0,0,37,89.38v.15c0,.08-.13.21-.18.31a6.33,6.33,0,0,0-.36,1.27c-.06,0-.06.1-.13.1s-.1,0,0,.11c-.24-.21-.22-.54-.34-.9-.18-.53.07-1.46-.68-1.72a3.15,3.15,0,0,1-.85-1.44ZM60,106.38a7.62,7.62,0,0,0-2.1.75c-.56.36-1.28.53-1.85.9a9.76,9.76,0,0,0-2.31,1.34,19.8,19.8,0,0,1-1.86.88c0,.06-.08.06-.13.06a18.59,18.59,0,0,1-1.74.85,2.21,2.21,0,0,1-.72.36c-.23,0-.44.15-.69.2s-.45,0-.62.11a11.37,11.37,0,0,0-1.85.46c-.17.06-.4.24-.3.45a.09.09,0,0,0,.13.05,1.79,1.79,0,0,0,1.42.31,9.08,9.08,0,0,0,2.69-.68c1.17-.64,2.38-1.16,3.59-1.73.21,0,.42-.3.65-.3a6.74,6.74,0,0,0,.55-.4,40.74,40.74,0,0,1,4.05-2.11c.31,0,.55-.27.88-.22.05.09-.15.16-.07.31-.15.27-.29.6-.16.83v.44c-.7.19-1.37.55-2.07.67a20.83,20.83,0,0,0-2,1c-.07.17-.38.17-.46.31-1.06.49-1.84,1.16-2.85,1.67-.07.19-.3.13-.38.24a5.61,5.61,0,0,1-1.2.6,8.19,8.19,0,0,1-1.78.72,10.68,10.68,0,0,1-4.94.13,8.78,8.78,0,0,1-2-.76c-.81-.67-1.94-1.05-2.39-2.09-.28-.25-.48-.64-.8-.82,0-.18-.18-.22-.2-.36-.59-.58-.6-1.58-.85-2.36,0-1-.39-2-.09-3a9,9,0,0,1,.24-1.77c.18-.79.28-1.6.41-2.37.11,0,0-.21.08-.29,0-.36.18-.65.15-1a1.1,1.1,0,0,0,.13-.56s.11,0,.11-.08c.2.17.47.53.82.44a.68.68,0,0,0,.37-.6s-.1-.13,0-.15c-.08-.11,0-.36-.15-.39-.16-1.24-1.59-2-2.69-2.62a3.25,3.25,0,0,1-2.08-3.07,3.09,3.09,0,0,1,.08-.78c0,.07.13,0,.13.1a3.7,3.7,0,0,0,1,1.53c.36.23.53.59,1,.7.73.62,1.76.82,2.25,1.73a6.31,6.31,0,0,1,.88,1.61,18.2,18.2,0,0,1,.28,2.14,8.93,8.93,0,0,1,0,2.31,3.29,3.29,0,0,1,0,.54c-.24.1,0,.33,0,.51-.05.4,0,.91-.1,1.32.16,1.38-.36,2.88.18,4.17,0,.34.27.52.19.91.21.38.3.82.7,1.08.09.15.09.37.31.33.2.13.25.35.51.35a11.14,11.14,0,0,0,1.73.28c2.1-.37,3.93-1.58,5.87-2.38a36.07,36.07,0,0,1,4.28-2.39,27.37,27.37,0,0,1,3.77-1.72c.67-.26,1.37-.32,2-.55.72,0,1.58-.21,2.27.18a11.42,11.42,0,0,1,1.22.45,8.74,8.74,0,0,0,.15,1.49c-1.27.23-2.3-.54-3.57-.25Zm2.38,4.8a2.11,2.11,0,0,1-.8-.74,2.89,2.89,0,0,1-.78-1.77,4.57,4.57,0,0,1,3.37-.49c.26.34.3.8.64,1.07a2.4,2.4,0,0,0,.27.38A9.3,9.3,0,0,0,66.38,111a4.62,4.62,0,0,1-4,.17Zm10.07-1.24a1.58,1.58,0,0,0-.31.62,1.77,1.77,0,0,1-1.41.65,6.22,6.22,0,0,1-4.47-2.1A4.46,4.46,0,0,1,65,107c-.16-.49-.52-1.11-.18-1.58a2.81,2.81,0,0,1,2,.16c.16,0,.14.13.31.1,1.14.5,1.79,2,3,2.53a1,1,0,0,0,.36.29,20.57,20.57,0,0,0,2.18,1c.07.1-.11.26-.1.41Zm22.75-14.3A8.78,8.78,0,0,0,94.1,98c-.07.66-.44,1.26-.18,2,.14,1.6-.12,3-.13,4.68a29.87,29.87,0,0,1-.7,3.29,8.57,8.57,0,0,1-1.15,2.4,4.82,4.82,0,0,1-1.69,2.22c-.44.35-1,.57-1.4.91a7.3,7.3,0,0,1-4.11.67,23.1,23.1,0,0,1-3.67-.51c-1-.37-2-.78-2.93-1.22a10,10,0,0,1-1.8-1.37c-.88-.68-1.58-1.71-2.67-2.14a8.61,8.61,0,0,0-2.53-1.53c-.14-.08-.23-.23-.31-.26s.26,0,.44,0c.28-.16.59.15.93.09.08.14.17,0,.26.11a9.54,9.54,0,0,1,2,.83c.14.07.27.34.49.36a3.37,3.37,0,0,0,1.25,1,11,11,0,0,0,1.57,1.09c.52.44,1.22.8,1.76,1.18.4.08.66.41,1.1.47a12.54,12.54,0,0,0,5.53,1.13,2.93,2.93,0,0,0,1.63-.2c.41-.46,1.13-.62,1.13-1.29-.44-.36-.85.23-1.34.08a9.76,9.76,0,0,1-4-.21,7.58,7.58,0,0,1-1.57-.41,15.62,15.62,0,0,1-1.51-.65A16.53,16.53,0,0,1,78,109.07a20.46,20.46,0,0,1-1.73-1.22,6.47,6.47,0,0,0-1.55-1.06,6.81,6.81,0,0,0-3.49-.94,3.56,3.56,0,0,0-1.71.22,1.49,1.49,0,0,1-.59-.48s0-.09,0-.14a6.89,6.89,0,0,1,1.67-.52,6.86,6.86,0,0,1,1.66-.42,10.09,10.09,0,0,1,3.76.59c1.39.53,2.78,1.17,4.08,1.79,2.1.91,3.88,2.41,6.24,2.8a.12.12,0,0,0,.07.12h.47c.26,0,.46.17.69,0,.21.07.5-.08.71-.14.44-.1,1-.1,1.26-.57a18.71,18.71,0,0,1,1-1.86c.18-.26,0-.72.35-1a25.69,25.69,0,0,0,.66-5.09,2.11,2.11,0,0,1,0-1,5.21,5.21,0,0,0,0-1.12,6.47,6.47,0,0,0,.26-.9A10.21,10.21,0,0,1,93,95.22a24.56,24.56,0,0,0,.79-2.43c0-.18,0-.31.22-.43.27-.37.56-.88,1-1,.59-.55,1.1-1,1.65-1.5a1.87,1.87,0,0,1,.11.51c.36,2-.53,3.75-1.54,5.31Zm1.4-8.1c-.33.42-.61,1-.93,1.38s-.74.58-1.08.88c-.08-.13,0-.26,0-.47-.07-.52-.26-1-.38-1.56a10,10,0,0,0-2.36-3.46,15.14,15.14,0,0,1-3.08-4.17,5.73,5.73,0,0,1-.59-2.07c.33-1.45.67-2.9.88-4.42a9.77,9.77,0,0,0,.23-1.92s.12-.09,0-.1a.08.08,0,0,0,.07-.13l0,.06v.15A11.41,11.41,0,0,0,89.63,73c.18.45.05.8.34,1.22a5,5,0,0,0,.31,1,7.32,7.32,0,0,0,1.62,2.25,7.25,7.25,0,0,0,1.3,1.24c.83,1,1.87,1.89,2.72,3a6.6,6.6,0,0,1,1.27,2.17,3.42,3.42,0,0,1-.58,3.67Zm0-17.31c-.07.24.18.71-.23.71-1.16,0-2.43-1.09-3.36-1.73-.64.36-1.32,2.35-1.27,3.09a19.81,19.81,0,0,0-.25,2c-.06,0,0,.14-.09.17-1.44-2,.21-6.78-1.24-8.64,1-2.06,1.3-1.34,2.1-2.28,2.54,0,3.93,1.19,5.12,3.27-.42.46-.52,1.16-1.09,1.47a3.11,3.11,0,0,0,.31,2Zm1.58,12.63s-.12,0-.16,0c-.49-1.43-3.09-3.94-4.23-5.12-.06-.58-1.28-2.67-.86-3.11,2,2.3,6,4.61,5.25,8.28Zm0-4.73c-.74-1.66-3.43-2.82-4.68-5.36,0-.41-.17-.64,0-1s-.36-.36-.18-.71c.81.17,1.43.87,2.26,1.08a13.54,13.54,0,0,0,1.91.16c.8-.52.28-1.43.51-2.1,2.93.54,2.34,4.57,2.8,6.6a15.64,15.64,0,0,0,1.14,2.43c-1.12.26-3.28.07-3.76-1.06Zm8-9.21c-.34,1.84-1.43,3.28-1.78,5s-1.76,3.07-.81,4.93c-1.68-.2-1.65-4.86-1.88-6a5,5,0,0,0-.84-2.06,6.41,6.41,0,0,0-2.07-1.53c-.48-.18-.89-.11-1.23-.42.23-.59.69-1.06,1-1.63,1-2.07-.76-2.71,1.91-4.35,3.21-1,6.41,2.88,5.74,6.14Zm-6.11-7.35c-.49.39-1,.37-1.32.94a6.31,6.31,0,0,1-.7,1,.3.3,0,0,1-.2.36l-.18.29-.2.36a1.76,1.76,0,0,1-.78-.52c-.52-.9-3.78-1.88-4.74-1.65A11.13,11.13,0,0,0,89.71,64l-.18-.07,0-.29v.14c-.18-2-.41-6.79-1-8.47a.8.8,0,0,0,.25-.53c.32.09.55.4.91.38a5.11,5.11,0,0,0,6.42-1.29,1,1,0,0,1,.7.46,6,6,0,0,1,1.71,2.48c-.08.39.27.68.23,1.06l.36.31c.67-.22.72-1,1.17-1.5a6.17,6.17,0,0,0-.3-3.77c.88-.07,2.62,1.24,2.59,2.15-.07,1.62,1.56,6.1,3.26,6.46.16.21.49.11.6.37a11.78,11.78,0,0,0,1.39.28c.36-.16.78,0,1.14-.18-2.41,3.8-5.76-1.89-8.9-.39Zm15.4-4.74c-.88.27-1.32-1.44-2.39-1.57a2.36,2.36,0,0,0-1.94,1c-.31.9,0,2.51-.59,3.28-2,2.38-5.09,1.68-6.11-1.14-.4-1.08-.77-1.32-.79-2.56,2.2.4,2.61.89,4.81-.38,1.8-1,4.8-4.5,7-3.14.35,0,1.24,1.81,1.41,2.15-.24.89.22,2.17-1.4,2.35Zm10.24,1.38c-1.79-.23-1.22-.83-3.28-.63l-.37,0c-2.66-.09-6.8-8.16-7.91-10.35-.91-1.79-3.49-2.61-4.12-3.31.4-.16,2.65-1.87,2.56-2.15-2.6-1.5-2.53-2.56-4.42-4,3.67.65,7.69,6.36,9.45,9.55.72,1.27,2.38,3,2.87,4.24,1,.75,1.86,2,2.86,2.82s2.12,1.66,3.16,2.48c.68.55-.15,1.43-.8,1.35ZM127.24,56a17.43,17.43,0,0,1-2.41-2c-.22-.25-.62-.17-.79-.48-.26-.08-.44-.31-.68-.44-.23-.37-.67-.55-.87-1-1.43-.86-1.76-2.62-3-3.52-.08-.19-1.52-2.52-1.66-2.69-.09-.47-.72-.58-.66-1.12-.5-.41-.45-1.34-1.19-1.52-2.2-3-4.24-5.2-7.9-6.26a19.54,19.54,0,0,1-2.76-.94,18,18,0,0,0-5.75-1c-3.23-.06-7-1.14-9.56-.94-1.79.13-6.47,1.95-7.1,1.9-.53.28-.92-.24-1.37-.42-2.3-.85-11.56.73-12.18-1.89a3.11,3.11,0,0,0,1.51.16c3.13-.06,6.09-2.61,9.28-3.23,2.77-.52,4.3,2.07,8.41-.47,9.67,8.82,19.65-.73,33.68,14.3a17.07,17.07,0,0,1,5.07,11l-.11.52Z" style="fill:#fff;fill-rule:evenodd"/><path d="M81.9,142.72l3.26,5.63c.5.83,1,1.61,1.4,2.45l-5.88,1.3,0-.2.57-4.43.62-4.75Zm15,16.34c-1.18-2-2.31-3.95-3.49-5.94l-2.59-4.35-3.42-5.83-2.53-4.21L84,137.25l-.17-.23-3.51.78V138c-.26,2-.52,4-.78,6l-.87,6.75-.72,5.67c-.29,2.39-.62,4.75-.94,7.15l2.26-.5c.17-1.16.33-2.36.44-3.44l.62-4.71.06-.25,7.43-1.64c1.44,2.43,2.75,4.86,4.2,7.21l4.88-1.08Z" style="fill:#fff;fill-rule:evenodd"/><path d="M47.91,139.12c1.61.45,3.56.58,4.39,2.21a4.86,4.86,0,0,1,.55,2.15,7,7,0,0,1-.17,1.78,17.8,17.8,0,0,1-.76,2,4.77,4.77,0,0,1-3.24,2.45,9.07,9.07,0,0,1-3.21-.43l2.37-10.14.07,0Zm3.78,12.64a7.81,7.81,0,0,0,2.9-1.28,7.69,7.69,0,0,0,2.84-6.81c-.36-3.5-3.67-5.15-6.81-5.87l-7.12-1.63L38.06,159.9,42.78,161l2.28-10,2,.47v0l1.44,6.58,1,4.42,4.72,1.08c-.81-3.91-1.74-7.82-2.56-11.69,0,0,0-.13,0-.15Z" style="fill:#fff;fill-rule:evenodd"/><polygon points="30.16 142.15 33.63 134.41 40.81 137.64 41.78 135.5 30.21 130.3 20.23 152.51 31.69 157.66 32.66 155.52 25.57 152.34 29.19 144.29 34.79 146.81 35.75 144.66 30.16 142.15 30.16 142.15" style="fill:#fff;fill-rule:evenodd"/><path d="M8.71,145.37c2.53-2,5.3-4.11,7.88-6.08l4.5-3.52L28.51,130l.24-.2-1.88-1.35-5,4-5.22,4.21-5.17,4.12s-.06.1-.08,0l2.07-5.14c1.08-2.67,2.14-5.31,3.26-8l2-5-4-2.9c-.43,1.18-.93,2.46-1.41,3.7l-1.61,4.25-.37.9-2.58,6.68-2.12,5.67c-.29.72-.6,1.61-.86,2.36l2.92,2.1Z" style="fill:#fff;fill-rule:evenodd"/><path d="M97.89,131.33a12.88,12.88,0,0,0-4.41,2.94,7.49,7.49,0,0,0-2,5.28c0,3.1,1.33,6.17,2.86,9,1.48,2.65,3.2,5,5.78,6.32a8.41,8.41,0,0,0,7.71-.33,10.88,10.88,0,0,0,4.42-3.66,5.94,5.94,0,0,0-.07-5.79l-2.77,1.41a5.15,5.15,0,0,1,.21,4.66,3.85,3.85,0,0,1-1.49,1.48,5.54,5.54,0,0,1-1.69.61c-2.55.41-4.3-1.75-5.65-3.57a45.82,45.82,0,0,1-4.43-8.58,11.47,11.47,0,0,1-1-5.68,3.27,3.27,0,0,1,1.82-2.25,3.73,3.73,0,0,1,1.67-.39,3.31,3.31,0,0,1,2,.9,10.38,10.38,0,0,1,2.15,2.94l3.84-2a6.58,6.58,0,0,0-4.91-4,7.14,7.14,0,0,0-3,.3l-1.06.33Z" style="fill:#fff;fill-rule:evenodd"/><path d="M73.59,142.06A12.78,12.78,0,0,0,70,139.64a8.2,8.2,0,0,0-3.21-.45,8,8,0,0,0-3.18.71,6.8,6.8,0,0,0-4.06,5.57c-.3,2.42.08,5,1.86,6.59,1.93,1.82,4.77,1.63,7,2.84a4,4,0,0,1,2.46,3.67,5,5,0,0,1-.3,1.82,3.74,3.74,0,0,1-2.09,1.86c-.19.07-.41.07-.57.15a4.69,4.69,0,0,1-2-.08c-1.93-.49-3.41-2.31-4.28-4L58.71,161a8.68,8.68,0,0,0,5.34,3.11,13.54,13.54,0,0,0,3.14.26,7.2,7.2,0,0,0,6.74-4.28,9,9,0,0,0-.15-7.53c-1.14-1.93-3.29-2.84-5.34-3.37s-5-1.21-5.53-3.79a4.81,4.81,0,0,1,.27-2.34,3.34,3.34,0,0,1,3.25-1.82c2.12-.15,3.52,1.85,4.51,3.41l2.65-2.62Z" style="fill:#fff;fill-rule:evenodd"/><polygon points="120.36 129.88 121.75 131.77 116.81 135.4 122.03 142.51 128.29 137.91 129.68 139.81 119.55 147.25 105.13 127.63 115.36 120.12 116.75 122.01 110.4 126.67 115.42 133.51 120.36 129.88 120.36 129.88" style="fill:#fff;fill-rule:evenodd"/></svg>