<?xml version="1.0" encoding="utf-8"?>
<!-- Generator: Adobe Illustrator 24.0.0, SVG Export Plug-In . SVG Version: 6.00 Build 0)  -->
<svg version="1.1" id="Layer_1" xmlns="http://www.w3.org/2000/svg" xmlns:xlink="http://www.w3.org/1999/xlink" x="0px" y="0px"
	 width="156px" height="264px" viewBox="0 0 156 264" style="enable-background:new 0 0 156 264;" xml:space="preserve">
<style type="text/css">
	.st0{fill:#96D5D2;}
	.st1{fill:#D4EDEA;}
	.st2{fill:#FFFFFF;}
	.st3{fill:#E9C31E;}
	.st4{fill:#FFF3AB;}
	.st5{fill:#FFD8A1;}
	.st6{fill:#257E53;}
	.st7{fill:#F2EEE2;}
	.st8{fill:#69B0CE;}
	.st9{fill:#EBF3F8;}
	.st10{fill:#FAA61A;}
	.st11{fill:#FFD6A1;}
	.st12{fill:#2484C6;}
	.st13{fill:#A9C2E5;}
	.st14{fill:#EB6F33;}
	.st15{fill:#F7C09F;}
	.st16{fill:#808285;}
	.st17{fill:#E5E5E5;}
</style>
<rect y="0" class="st0" width="156" height="264"/>
<g>
	<g>
		<g>
			<path d="M33.5,204.5h2.6l1.2,5.5l1.2-5.5h2.3l1.3,5.5l1.2-5.5h2.4l-2.1,8.7h-2.7l-1.4-5.6l-1.4,5.6h-2.5L33.5,204.5z"/>
		</g>
		<g>
			<path d="M45.7,208.9L45.7,208.9c0-2.8,2.1-4.6,4.7-4.6c2.7,0,4.7,1.7,4.7,4.4v0.1c0,2.7-1.9,4.5-4.8,4.5
				C47.5,213.4,45.7,211.6,45.7,208.9z M52.5,208.9L52.5,208.9c0-1.7-0.8-2.6-2.1-2.6c-1.3,0-2.1,0.9-2.1,2.5v0.1
				c0,1.6,0.8,2.5,2.1,2.5C51.7,211.4,52.5,210.5,52.5,208.9z"/>
		</g>
		<g>
			<path d="M56,204.5h3.5c2.3,0,3.6,0.9,3.6,2.8v0c0,1.2-0.7,1.9-1.6,2.3l2.1,3.6H61l-1.8-3.1h-0.6v3.1H56L56,204.5L56,204.5z
				 M59.4,208.5c0.9,0,1.3-0.4,1.3-1.1v0c0-0.7-0.5-1-1.3-1h-0.8v2.1L59.4,208.5L59.4,208.5z"/>
		</g>
		<g>
			<path d="M64.6,204.5h2.6v3.5l2.7-3.5h2.7l-3.3,4.1l3.5,4.7h-3l-2.6-3.7v3.7h-2.6V204.5z"/>
		</g>
		<g>
			<path d="M73.7,204.5h3.4c2.5,0,3.6,1.1,3.6,2.9v0c0,1.8-1.3,2.8-3.5,2.8h-1v2.9h-2.6V204.5z M77,208.6c0.8,0,1.3-0.4,1.3-1.1v0
				c0-0.7-0.5-1.1-1.3-1.1h-0.8v2.2L77,208.6L77,208.6z"/>
		</g>
		<g>
			<path d="M81.7,204.5h2.6v6.8h3.4v1.9h-6L81.7,204.5L81.7,204.5z"/>
		</g>
		<g>
			<path d="M91.1,204.5h3.3l2.8,8.7h-2.7l-0.5-1.6h-3l-0.5,1.6h-2.4L91.1,204.5z M91.6,209.9h2l-1-3.4L91.6,209.9z"/>
		</g>
		<g>
			<path d="M97.2,208.9L97.2,208.9c0-2.8,2-4.6,4.6-4.6c2.3,0,3.9,1.1,4.2,3.4h-2.6c-0.1-0.9-0.6-1.4-1.5-1.4
				c-1.1,0-1.9,0.9-1.9,2.5v0.1c0,1.6,0.7,2.5,1.9,2.5c0.9,0,1.5-0.5,1.7-1.4h2.6c-0.2,2.3-1.9,3.4-4.2,3.4
				C98.7,213.4,97.2,211.6,97.2,208.9z"/>
		</g>
		<g>
			<path d="M107.2,204.5h6.2v1.9h-3.6v1.5h2.9v1.8h-2.9v1.6h3.8v1.9h-6.4V204.5z"/>
		</g>
		<g>
			<path d="M114.4,210.5h2.4c0.1,0.6,0.3,1.1,1.4,1.1c0.7,0,1.2-0.4,1.2-0.9c0-0.5-0.3-0.7-1.4-0.8c-2.5-0.3-3.4-1-3.4-2.8
				c0-1.6,1.3-2.7,3.5-2.7c2.2,0,3.4,0.9,3.5,2.7h-2.4c-0.1-0.6-0.5-0.9-1.2-0.9c-0.7,0-1,0.3-1,0.7c0,0.5,0.3,0.7,1.4,0.9
				c2.3,0.2,3.4,0.8,3.4,2.7c0,1.6-1.3,2.9-3.6,2.9C115.8,213.4,114.5,212.4,114.4,210.5z"/>
		</g>
	</g>
	<g>
		<g>
			<path d="M42.6,221.4h5.2v0.9h-4.1v3.1h3.2v0.9h-3.2v3.9h-1.1V221.4z"/>
		</g>
		<g>
			<path d="M48.4,225.9L48.4,225.9c0-2.6,1.8-4.5,4.4-4.5c2.6,0,4.4,2,4.4,4.4v0.1c0,2.5-1.7,4.5-4.3,4.5
				C50.2,230.3,48.4,228.3,48.4,225.9z M56,225.8L56,225.8c0-2.1-1.2-3.6-3.2-3.6c-2.1,0-3.3,1.5-3.3,3.6v0.1c0,2.1,1.4,3.6,3.3,3.6
				C54.8,229.4,56,228,56,225.8z"/>
		</g>
		<g>
			<path d="M58.5,221.4h2.7c1.7,0,3.1,0.7,3.1,2.4v0c0,1.4-1,2.2-2.2,2.4l2.7,3.9h-1.2l-2.7-3.8h-1.4v3.8h-1.1L58.5,221.4
				L58.5,221.4z M61.3,225.5c1.3,0,2-0.5,2-1.6v0c0-1.2-0.8-1.6-2-1.6h-1.7v3.2H61.3z"/>
		</g>
		<g>
			<path d="M68.1,221.4h1.1l1.8,7.1l2.1-7.1h0.8l2.1,7.1l1.8-7.1h1l-2.3,8.7h-1l-2-6.9l-2.1,6.9h-1L68.1,221.4z"/>
		</g>
		<g>
			<path d="M79.2,225.9L79.2,225.9c0-2.6,1.8-4.5,4.4-4.5c2.6,0,4.4,2,4.4,4.4v0.1c0,2.5-1.7,4.5-4.3,4.5
				C81,230.3,79.2,228.3,79.2,225.9z M86.9,225.8L86.9,225.8c0-2.1-1.2-3.6-3.2-3.6c-2.1,0-3.3,1.5-3.3,3.6v0.1
				c0,2.1,1.4,3.6,3.3,3.6C85.6,229.4,86.9,228,86.9,225.8z"/>
		</g>
		<g>
			<path d="M89.4,221.4h1.5l2.8,6.8l2.7-6.8h1.5v8.7h-1.1v-7.4l-3,7.4h-0.3l-3.1-7.4v7.4h-1V221.4z"/>
		</g>
		<g>
			<path d="M99.6,221.4h5.2v0.9h-4.1v3h3.3v0.9h-3.3v3.2h4.4v0.9h-5.4V221.4z"/>
		</g>
		<g>
			<path d="M106.3,221.4h1.4l4.4,7.2v-7.2h1v8.7h-1.3l-4.5-7.5v7.5h-1L106.3,221.4L106.3,221.4z"/>
		</g>
	</g>
	<g>
		<rect x="16.3" y="217.1" class="st2" width="123.4" height="0.5"/>
	</g>
	<g>
		<rect x="16" y="216.9" class="st1" width="123.9" height="1"/>
	</g>
	<g>
		<rect x="16.3" y="234" class="st2" width="123.4" height="0.5"/>
	</g>
	<g>
		<rect x="16.1" y="233.8" class="st1" width="123.9" height="1"/>
	</g>
	<g>
		<path d="M119.3,200.3h11.5v-26.7h9.1V165h-29.8v8.6h9.1L119.3,200.3L119.3,200.3z M93.6,200.9c9.7,0,15-5.4,15-12
			c0-7.8-5.1-10.1-14.1-11.1c-4-0.5-5.1-1.3-5.1-3c0-1.5,1.2-2.6,3.6-2.6c2.4,0,3.7,1.2,3.9,3.4h10.6c-0.6-7.7-5.6-11.3-14.6-11.3
			c-9,0-14.5,4.7-14.5,11.3c0,7.3,3.5,10.2,13.9,11.4c3.9,0.5,5.2,1.1,5.2,3c0,1.7-1.3,2.9-4,2.9c-3.7,0-4.9-1.8-5.1-4H77.7
			C77.9,196.9,83.4,200.9,93.6,200.9 M49,200.3h26.5v-8.6H60.5v-5.3h11.3v-7.8H60.5v-5h14.2V165H49V200.3z M27.2,192.9v-7.5h3.4
			c3.2,0,4.6,1.3,4.6,3.6v0.2c0,2.4-1.4,3.7-4.3,3.7H27.2z M27.2,178.8v-6.5h3.4c2.8,0,4,1,4,3.2v0.2c0,2.2-1.1,3.1-3.9,3.1H27.2z
			 M16,200.3h17c9.3,0,13.4-3.6,13.4-9.8v-0.2c0-4.9-3-7.5-7.2-8.2c4-0.9,6.3-3.5,6.3-7.6v-0.2c0-5.2-3.4-9.2-12.3-9.2H16V200.3z"/>
	</g>
	<g>
		<g>
			<path d="M117.6,221.4v0.4h-0.8v2h-0.5v-2h-0.8v-0.4H117.6z M120.2,223.7l-0.1-1.4c0-0.2,0-0.4,0-0.7h0c-0.1,0.2-0.1,0.5-0.2,0.7
				l-0.4,1.3h-0.5l-0.4-1.4c0-0.2-0.1-0.5-0.2-0.7h0c0,0.2,0,0.4,0,0.7l-0.1,1.4h-0.5l0.2-2.4h0.7l0.4,1.2c0.1,0.2,0.1,0.4,0.2,0.6
				h0c0.1-0.2,0.1-0.4,0.2-0.6l0.4-1.2h0.7l0.2,2.4H120.2z"/>
		</g>
	</g>
	<g>
		<g>
			<g>
				<path class="st2" d="M78.1,248.3H86v-2.2h-3l1.1-1c1.1-1,1.8-1.9,1.8-3.2c0-1.8-1.3-3-3.7-3c-2.4,0-3.9,1.2-4,3.6h2.7
					c0.1-1,0.5-1.4,1.1-1.4c0.6,0,0.9,0.4,0.9,0.9c0,0.8-0.6,1.6-1.6,2.6l-3.3,3.4L78.1,248.3L78.1,248.3z M73,246.2
					c-1.1,0-1.6-0.7-1.6-2.4v-0.4c0-1.6,0.4-2.4,1.5-2.4c1.1,0,1.5,0.8,1.5,2.4v0.3C74.5,245.5,74.1,246.2,73,246.2 M72.9,248.5
					c2.8,0,4.6-1.7,4.6-4.7v-0.4c0-3.1-2-4.6-4.5-4.6c-2.6,0-4.5,1.6-4.5,4.6v0.4C68.4,246.8,70.1,248.5,72.9,248.5 M91.3,246.2
					c-1.1,0-1.6-0.7-1.6-2.4v-0.4c0-1.6,0.4-2.4,1.5-2.4c1.1,0,1.5,0.8,1.5,2.4v0.3C92.8,245.5,92.4,246.2,91.3,246.2 M91.2,248.5
					c2.8,0,4.6-1.7,4.6-4.7v-0.4c0-3.1-2-4.6-4.5-4.6c-2.6,0-4.5,1.6-4.5,4.6v0.4C86.8,246.8,88.5,248.5,91.2,248.5 M59.7,248.3h7.9
					v-2.2h-3l1.1-1c1.1-1,1.8-1.9,1.8-3.2c0-1.8-1.3-3-3.7-3c-2.4,0-3.9,1.2-4,3.6h2.7c0.1-1,0.5-1.4,1.1-1.4c0.6,0,0.9,0.4,0.9,0.9
					c0,0.8-0.6,1.6-1.6,2.6l-3.3,3.4L59.7,248.3L59.7,248.3z"/>
			</g>
		</g>
	</g>
</g>
<g>
	<g>
		<path class="st1" d="M140,58.5H16v-44h124V58.5z M20.1,54.6h115.8V18.4H20.1V54.6z"/>
	</g>
	<g>
		<polygon class="st2" points="110.8,23.6 110.8,37.1 106.4,23.6 102.1,23.6 102.1,48.3 106.4,48.3 106.4,36.2 110.4,48.3 
			115.2,48.3 115.2,23.6 		"/>
	</g>
	<g>
		<polygon class="st2" points="30.5,23.6 26.5,23.6 26.1,23.6 26.1,48.3 30.5,48.3 30.5,37.7 34.5,37.7 34.5,33.5 30.5,33.5 
			30.5,27.8 36.7,27.8 36.7,23.6 		"/>
	</g>
	<g>
		<polygon class="st2" points="82.4,23.6 70.4,23.6 70.4,27.8 74.2,27.8 74.2,48.3 78.6,48.3 78.6,27.8 82.4,27.8 		"/>
	</g>
	<g>
		<polygon class="st2" points="119.4,23.6 119.4,48.3 130,48.3 130,44.1 123.7,44.1 123.7,37.7 127.8,37.7 127.8,33.5 123.7,33.5 
			123.7,27.8 130,27.8 130,23.6 		"/>
	</g>
	<g>
		<path class="st2" d="M68.4,48.3h-4.5l-3.2-11.7c0,0,2.8-0.5,2.8-3.3v-3.9c0-0.9-0.8-1.6-1.7-1.6h-1.7v20.5h-4.3V23.6h6
			c3.2,0,5.9,2.5,6,5.5h0v4h0c0,2.4-0.8,4.2-2.3,5.3L68.4,48.3z"/>
	</g>
	<g>
		<path class="st2" d="M93.7,23.6v19.2c0,0.9-0.8,1.6-1.7,1.6c-0.9,0-1.7-0.7-1.7-1.6V23.6H86v19.2c0,3.2,2.7,5.8,6,5.8
			c3.3,0,6-2.6,6-5.8V23.6H93.7z"/>
	</g>
	<g>
		<path class="st2" d="M39.5,29.1v13.8c0,3.2,2.7,5.8,6,5.8c3.3,0,6-2.6,6-5.8V29.1c0-3.2-2.7-5.8-6-5.8l0,0
			C42.2,23.3,39.5,25.9,39.5,29.1 M43.8,42.8V29.1c0-0.9,0.8-1.6,1.7-1.6h0c0.9,0,1.7,0.7,1.7,1.6v13.8c0,0.9-0.8,1.6-1.7,1.6
			C44.6,44.4,43.8,43.7,43.8,42.8"/>
	</g>
</g>
<g>
	<path class="st1" d="M107.6,99.4l13-9.4h-16.1c-4.3-8.1-12.2-14.1-21.6-15.6l-5-15.2l-5,15.2c-9.4,1.6-17.3,7.5-21.6,15.6H35.4
		l13,9.4c-0.2,1.4-0.3,2.9-0.3,4.4c0,8.1,3.3,15.5,8.6,20.9l-5,15.2l10.1-7.3v32.9l16.2-14.7l16.2,14.7v-33l10.2,7.4l-5-15.2
		c5.3-5.4,8.6-12.8,8.6-20.9C107.9,102.3,107.8,100.8,107.6,99.4z"/>
	<g>
		<polygon class="st2" points="78,59.5 88,90.1 120.5,90.1 94.2,109 104.3,139.6 78,120.7 51.7,139.6 61.8,109 35.5,90.1 68,90.1 		
			"/>
	</g>
	<path d="M109.5,100.2l16.5-12h-20.4c-4.5-7.8-12.1-13.5-21.2-15.4L78,53.5l-6.3,19.4c-9.1,1.8-16.8,7.6-21.3,15.4H30l16.5,12
		c-0.1,1.2-0.2,2.4-0.2,3.6c0,8.2,3.2,15.7,8.3,21.3l-6.3,19.4L60,136v33.4l17.9-16.3l17.9,16.3v-33.6l11.8,8.5l-6.3-19.4
		c5.2-5.6,8.3-13.1,8.3-21.3C109.7,102.6,109.6,101.4,109.5,100.2z M101.5,88.2H89.3l-3.8-11.5C92.2,78.5,97.8,82.7,101.5,88.2z
		 M70.4,76.7l-3.8,11.5H54.5C58.2,82.7,63.8,78.5,70.4,76.7z M49.8,103.8c0-0.4,0-0.8,0-1.2l9.8,7.1l-3.7,11.5
		C52.1,116.4,49.8,110.4,49.8,103.8z M76.2,150l-12.7,11.5V139v-5.5l12.7-9.2V150z M92.4,134.8v26.8L79.7,150v-25.8l12.7,9.2V134.8z
		 M79.7,119.9v-5.4h-3.5v5.4L55,135.3l8.1-24.8l5.4-1.8l-1.1-3.3l-5.3,1.7L40.8,91.7h26.3l3.5,4.8l2.8-2.1l-3.5-4.8L78,64.8
		l8.1,24.9l-3.5,4.8l2.8,2l3.5-4.8h26.3l-21.3,15.4l-5.3-1.7l-1.1,3.3l5.4,1.8l8.1,24.8L79.7,119.9z M96.3,109.7l9.8-7.1
		c0,0.4,0,0.8,0,1.2c0,6.6-2.3,12.6-6.1,17.4L96.3,109.7z"/>
</g>
</svg>
