<?xml version="1.0" encoding="utf-8"?>
<!-- Generator: Adobe Illustrator 26.0.1, SVG Export Plug-In . SVG Version: 6.00 Build 0)  -->
<svg version="1.1" id="Layer_1" xmlns="http://www.w3.org/2000/svg" xmlns:xlink="http://www.w3.org/1999/xlink" x="0px" y="0px"
	 viewBox="0 0 410.7 702.3" style="enable-background:new 0 0 410.7 702.3;" xml:space="preserve">
<style type="text/css">
	.st0{fill:#EF4123;}
	.st1{fill:none;stroke:#FFFFFF;stroke-width:10.6855;}
	.st2{clip-path:url(#SVGID_00000106149162484135566450000009371429010576015794_);}
	.st3{clip-path:url(#SVGID_00000026138127186800956390000010860719531765679280_);}
	.st4{clip-path:url(#SVGID_00000054956366891814531320000010535432329555347383_);}
	.st5{clip-path:url(#SVGID_00000088813429769980344710000004136851983035663270_);fill:#FFFFFF;}
	.st6{clip-path:url(#SVGID_00000052814249232961303560000002425050499048161189_);}
	.st7{fill:#FFFFFF;}
	.st8{clip-path:url(#SVGID_00000170248909991700390420000013798333139644302502_);fill:#FFFFFF;}
	.st9{clip-path:url(#SVGID_00000125578163393276948570000011902700758876907918_);fill:#FFFFFF;}
	.st10{fill:none;stroke:#FFFFFF;stroke-width:1.3355;}
	.st11{clip-path:url(#SVGID_00000141447975045681681330000017717489688422008488_);fill:#FFFFFF;}
</style>
<rect class="st0" width="410.7" height="702.3"/>
<rect x="48.2" y="48.3" class="st1" width="314.3" height="108.9"/>
<polygon points="291.4,67.7 291.4,104.2 279.9,67.7 268.5,67.7 268.5,134.7 279.9,134.7 279.9,101.9 290.2,134.7 302.8,134.7 
	302.8,67.7 "/>
<polygon points="80.8,67.7 70.4,67.7 69.4,67.7 69.4,134.7 80.8,134.7 80.8,106 91.3,106 91.3,94.6 80.8,94.6 80.8,79 97.1,79 
	97.1,67.7 "/>
<polygon points="216.9,67.7 185.5,67.7 185.5,79 195.5,79 195.5,134.7 206.9,134.7 206.9,79 216.9,79 "/>
<polygon points="313.9,67.7 313.9,134.7 341.6,134.7 341.6,123.4 325.2,123.4 325.2,106 335.8,106 335.8,94.6 325.2,94.6 325.2,79 
	341.6,79 341.6,67.7 "/>
<g>
	<g>
		<defs>
			<rect id="SVGID_1_" width="410.7" height="702.3"/>
		</defs>
		<clipPath id="SVGID_00000062149986384203647550000005457304806716906637_">
			<use xlink:href="#SVGID_1_"  style="overflow:visible;"/>
		</clipPath>
		<path style="clip-path:url(#SVGID_00000062149986384203647550000005457304806716906637_);" d="M180.2,134.7h-11.7l-8.4-31.8
			c0,0,7.2-1.3,7.2-9V83.4c0-2.4-2-4.4-4.4-4.4h-4.4v55.7h-11.4v-67h15.7c8.5,0,15.4,6.7,15.7,15.1h0v11h0c0,6.6-2.2,11.4-6.1,14.4
			L180.2,134.7z"/>
	</g>
	<g>
		<defs>
			<rect id="SVGID_00000130633829358942369550000005609808227125906563_" width="410.7" height="702.3"/>
		</defs>
		<clipPath id="SVGID_00000013912051198606269280000007979042048882868865_">
			<use xlink:href="#SVGID_00000130633829358942369550000005609808227125906563_"  style="overflow:visible;"/>
		</clipPath>
		<path style="clip-path:url(#SVGID_00000013912051198606269280000007979042048882868865_);" d="M246.5,67.7v52.2
			c0,2.4-2,4.4-4.4,4.4c-2.4,0-4.4-2-4.4-4.4V67.7h-11.4v52.2c0,8.7,7.1,15.8,15.8,15.8s15.8-7.1,15.8-15.8V67.7
			C257.8,67.7,246.5,67.7,246.5,67.7z"/>
	</g>
	<g>
		<defs>
			<rect id="SVGID_00000165951219493156984930000005055897702294432699_" width="410.7" height="702.3"/>
		</defs>
		<clipPath id="SVGID_00000090975816901872790120000016254854822394349457_">
			<use xlink:href="#SVGID_00000165951219493156984930000005055897702294432699_"  style="overflow:visible;"/>
		</clipPath>
		<path style="clip-path:url(#SVGID_00000090975816901872790120000016254854822394349457_);" d="M104.5,82.5v37.4
			c0,8.7,7.1,15.8,15.8,15.8c8.7,0,15.8-7.1,15.8-15.8V82.5c0-8.7-7.1-15.8-15.8-15.8l0,0C111.5,66.7,104.5,73.8,104.5,82.5
			 M115.8,119.9V82.5c0-2.4,2-4.4,4.4-4.4h0c2.4,0,4.4,2,4.4,4.4v37.4c0,2.4-2,4.4-4.4,4.4C117.8,124.3,115.8,122.3,115.8,119.9"/>
	</g>
	<g>
		<defs>
			<rect id="SVGID_00000090286573339873073790000000632257921929135235_" width="410.7" height="702.3"/>
		</defs>
		<clipPath id="SVGID_00000149375029917578157620000007494164349789641911_">
			<use xlink:href="#SVGID_00000090286573339873073790000000632257921929135235_"  style="overflow:visible;"/>
		</clipPath>
		<path style="clip-path:url(#SVGID_00000149375029917578157620000007494164349789641911_);fill:#FFFFFF;" d="M295.5,292.4
			c0-49.5-40.1-89.6-89.6-89.6c-49.5,0-89.6,40.1-89.6,89.6s40.1,89.6,89.6,89.6C255.4,382,295.5,341.9,295.5,292.4"/>
	</g>
	<g>
		<defs>
			<rect id="SVGID_00000066499680796016488280000002358636543671240104_" width="410.7" height="702.3"/>
		</defs>
		<clipPath id="SVGID_00000140721771005652076770000016281593110908796863_">
			<use xlink:href="#SVGID_00000066499680796016488280000002358636543671240104_"  style="overflow:visible;"/>
		</clipPath>
		<path style="clip-path:url(#SVGID_00000140721771005652076770000016281593110908796863_);" d="M205.9,208
			c-46.5,0-84.4,37.9-84.4,84.4c0,46.5,37.9,84.4,84.4,84.4s84.4-37.9,84.4-84.4C290.3,245.8,252.4,208,205.9,208 M205.9,387.2
			c-52.3,0-94.9-42.5-94.9-94.9s42.6-94.9,94.9-94.9s94.9,42.6,94.9,94.9S258.2,387.2,205.9,387.2"/>
	</g>
</g>
<polygon class="st7" points="254.1,477.8 205.6,433.6 157.2,477.8 157.2,308.2 254.1,308.2 "/>
<path d="M162.4,313.4V466l43.2-39.4l43.2,39.4V313.4H162.4z M259.4,489.7l-53.7-49l-53.7,49V303h107.4V489.7z"/>
<polygon class="st7" points="205.9,158.3 236,250.9 333.4,250.9 254.6,308.2 284.7,400.9 205.9,343.6 127.1,400.9 157.2,308.2 
	78.3,250.9 175.8,250.9 "/>
<path d="M94.5,256.2l68.9,50l-26.3,81l68.9-50l68.9,50l-26.3-81l68.9-50h-85.1l-26.3-80.9l-26.3,80.9H94.5z M294.7,414.6l-88.8-64.5
	l-88.8,64.5L151,310.2l-88.8-64.5H172l33.9-104.4l33.9,104.4h109.8l-88.8,64.5L294.7,414.6z"/>
<rect x="200.4" y="349.3" width="10.5" height="84.3"/>
<polygon points="228.2,270.6 219.7,264.4 231.8,247.9 240.2,254 "/>
<rect x="176.6" y="249" transform="matrix(0.809 -0.5878 0.5878 0.809 -117.6425 156.3801)" width="10.5" height="20.5"/>
<rect x="200.6" y="324.6" width="10.5" height="19"/>
<polygon points="252.5,313.2 234.4,307.2 237.6,297.3 255.8,303.2 "/>
<polygon points="159.3,313.2 156,303.2 174.1,297.3 177.4,307.2 "/>
<g>
	<g>
		<defs>
			<rect id="SVGID_00000103945378417523531200000015966003640386901383_" width="410.7" height="702.3"/>
		</defs>
		<clipPath id="SVGID_00000052823174207097383040000012043529737148801695_">
			<use xlink:href="#SVGID_00000103945378417523531200000015966003640386901383_"  style="overflow:visible;"/>
		</clipPath>
		<path style="clip-path:url(#SVGID_00000052823174207097383040000012043529737148801695_);fill:#FFFFFF;" d="M362.2,647.5h2.8
			v-23.3h-2.6l-5.4,3.9v2.6l5.2-3.7L362.2,647.5L362.2,647.5z M339.8,647.5h15.6v-2.3h-11.2l6.4-6.2c2.9-2.8,4.7-5.6,4.7-8.5
			c0-4-2.7-6.5-7-6.5c-4.4,0-7.2,2.9-7.6,7.5h2.6c0.5-3.7,2.2-5.2,4.9-5.2c2.6,0,4.2,1.6,4.2,4.2c0,2.4-1.2,4.5-3.4,6.7l-9.2,9.7
			L339.8,647.5L339.8,647.5z M329.3,647.8c5.7,0,9-4.6,9-11.3v-1.3c0-6.6-3.4-11.2-9.1-11.2c-5.7,0-9.2,4.4-9.2,11.3v1.3
			C320,643.3,323.7,647.8,329.3,647.8 M329.3,645.4c-3.9,0-6.4-3.1-6.4-9v-1.3c0-5.7,2.3-9,6.3-9c3.9,0,6.2,3.5,6.2,8.9v1.3
			C335.4,642.3,333.3,645.4,329.3,645.4 M301.3,647.5h15.6v-2.3h-11.2l6.4-6.2c2.9-2.8,4.7-5.6,4.7-8.5c0-4-2.7-6.5-7-6.5
			c-4.4,0-7.2,2.9-7.6,7.5h2.6c0.5-3.7,2.2-5.2,4.9-5.2c2.6,0,4.2,1.6,4.2,4.2c0,2.4-1.2,4.5-3.4,6.7l-9.2,9.7L301.3,647.5
			L301.3,647.5z M257.9,634.8v-5h1.8c2,0,3,0.7,3,2.3v0.1c0,1.7-1,2.5-3,2.5H257.9z M250.5,647.5h7.4v-8h1.2l4.3,8h7.8l-5.3-9.5
			c2.3-1,3.9-2.9,3.9-6.1v-0.1c0-5-3.3-7.6-9.7-7.6h-9.5L250.5,647.5L250.5,647.5z M235.4,647.9c7.6,0,12.6-4.8,12.6-12.1v-0.3
			c0-7.4-5.3-11.7-12.5-11.7c-7,0-12.4,4.7-12.4,11.9v0.3C223.1,643,227.8,647.9,235.4,647.9 M235.6,642.1c-2.9,0-4.8-2.2-4.8-6.2
			v-0.3c0-4,1.9-6.1,4.7-6.1c2.9,0,4.8,2.2,4.8,6.1v0.3C240.3,639.8,238.5,642.1,235.6,642.1 M205.5,647.5h7.4v-7.8h7v-5.4h-7v-4.3
			h8.7v-5.7h-16.1V647.5z M174.4,647.5h7.4v-9.3l6.1,9.3h8.5l-8.6-12.5l8.2-10.8h-7.6l-6.5,8.8v-8.8h-7.4V647.5z M158.5,634.8v-5
			h1.8c2,0,3,0.7,3,2.3v0.1c0,1.7-1,2.5-3,2.5H158.5z M151.1,647.5h7.4v-8h1.2l4.3,8h7.8l-5.3-9.5c2.3-1,3.9-2.9,3.9-6.1v-0.1
			c0-5-3.3-7.6-9.7-7.6h-9.5L151.1,647.5L151.1,647.5z M136,647.9c7.6,0,12.6-4.8,12.6-12.1v-0.3c0-7.4-5.3-11.7-12.5-11.7
			c-7,0-12.4,4.7-12.4,11.9v0.3C123.7,643,128.4,647.9,136,647.9 M136.2,642.1c-2.9,0-4.8-2.2-4.8-6.2v-0.3c0-4,1.9-6.1,4.7-6.1
			c2.9,0,4.8,2.2,4.8,6.1v0.3C141,639.8,139.1,642.1,136.2,642.1 M96.6,647.5h7.4l3.3-13.9l3.3,13.9h7.5l5.4-23.3h-6.8l-2.8,14.1
			l-3.2-14.1h-6.4l-2.8,13.9l-2.7-13.9h-7.5L96.6,647.5z M71.2,647.9c7.6,0,12.6-4.8,12.6-12.1v-0.3c0-7.4-5.3-11.7-12.5-11.7
			c-7,0-12.4,4.7-12.4,11.9v0.3C58.9,643,63.5,647.9,71.2,647.9 M71.4,642.1c-2.9,0-4.8-2.2-4.8-6.2v-0.3c0-4,1.9-6.1,4.7-6.1
			c2.9,0,4.8,2.2,4.8,6.1v0.3C76.1,639.8,74.3,642.1,71.4,642.1 M44.7,647.5h7.4v-17.6H58v-5.7H38.8v5.7h5.9L44.7,647.5L44.7,647.5z
			"/>
	</g>
	<g>
		<defs>
			<rect id="SVGID_00000165195914043099740390000001483584555754227632_" width="410.7" height="702.3"/>
		</defs>
		<clipPath id="SVGID_00000096766186402539319640000000264176090462513585_">
			<use xlink:href="#SVGID_00000165195914043099740390000001483584555754227632_"  style="overflow:visible;"/>
		</clipPath>
		<path style="clip-path:url(#SVGID_00000096766186402539319640000000264176090462513585_);fill:#FFFFFF;" d="M339.6,602.8
			c6.2,0,9.6-3.6,9.6-7.9c0-5.2-3.3-6.7-9.1-7.3c-2.6-0.3-3.3-0.8-3.3-2c0-1,0.8-1.7,2.3-1.7c1.6,0,2.4,0.8,2.5,2.2h6.8
			c-0.4-5.1-3.6-7.4-9.4-7.4c-5.8,0-9.3,3.1-9.3,7.4c0,4.8,2.3,6.7,9,7.5c2.5,0.4,3.3,0.8,3.3,2c0,1.1-0.9,1.9-2.6,1.9
			c-2.4,0-3.1-1.2-3.3-2.7h-7C329.5,600.1,333,602.8,339.6,602.8 M310.3,602.3h17.1v-5.7h-9.7v-3.5h7.3V588h-7.3v-3.3h9.2V579h-16.5
			L310.3,602.3L310.3,602.3z M300.3,602.3h7.5V579h-7.5V602.3z M276.4,602.3h6.5v-13.9l7.8,13.9h7.1V579h-6.5v12.3l-6.6-12.3h-8.3
			L276.4,602.3L276.4,602.3z M261.3,585l2.3,8.4H259L261.3,585z M249.7,602.3h6.9l1-3.9h7.4l1.1,3.9h7.8l-7.3-23.3H257L249.7,602.3z
			 M240.1,589.8v-5.2h1.6c1.9,0,2.9,0.7,2.9,2.5v0.1c0,1.7-1,2.6-3,2.6L240.1,589.8L240.1,589.8z M232.7,602.3h7.4v-7.6h2.2
			c6,0,9.2-2.7,9.2-7.6V587c0-5-2.9-8-9.6-8h-9.3L232.7,602.3L232.7,602.3z M203.4,602.3h6.6v-13.7l5.2,13.7h2.5l5.3-13.7v13.7h7.3
			V579h-9.4l-4,11.3l-3.9-11.3h-9.6L203.4,602.3L203.4,602.3z M188.4,602.8c7.6,0,12.6-4.8,12.6-12.1v-0.3c0-7.4-5.3-11.7-12.5-11.7
			c-7,0-12.4,4.7-12.4,11.9v0.3C176.1,597.9,180.8,602.8,188.4,602.8 M188.6,597c-2.9,0-4.8-2.2-4.8-6.2v-0.3c0-4,1.9-6.1,4.7-6.1
			c2.9,0,4.8,2.2,4.8,6.1v0.3C193.4,594.7,191.5,597,188.6,597 M163.5,602.8c6.1,0,10.6-3.2,11-9.3h-7.4c-0.3,2.3-1.8,3.4-3.8,3.4
			c-2.9,0-4.4-2.2-4.4-6v-0.3c0-3.9,1.6-6,4.3-6c2,0,3.2,1.2,3.4,3.3h7.6c-0.5-6.3-4.8-9.2-11.1-9.2c-6.9,0-12.1,4.7-12.1,11.9v0.3
			C151.1,598,155.1,602.8,163.5,602.8 M129.8,602.3h7.4v-17.6h5.9V579h-19.2v5.7h5.9L129.8,602.3L129.8,602.3z M113,602.8
			c6.2,0,9.6-3.6,9.6-7.9c0-5.2-3.3-6.7-9.1-7.3c-2.6-0.3-3.3-0.8-3.3-2c0-1,0.8-1.7,2.3-1.7c1.6,0,2.4,0.8,2.5,2.2h6.8
			c-0.4-5.1-3.6-7.4-9.4-7.4c-5.8,0-9.3,3.1-9.3,7.4c0,4.8,2.3,6.7,9,7.5c2.5,0.4,3.3,0.8,3.3,2c0,1.1-0.9,1.9-2.6,1.9
			c-2.4,0-3.1-1.2-3.3-2.7h-7C102.9,600.1,106.5,602.8,113,602.8 M83.5,602.3h17.1v-5.7h-9.7v-3.5h7.3V588h-7.3v-3.3h9.2V579H83.5
			L83.5,602.3L83.5,602.3z M68.8,588.1v-4.3H71c1.8,0,2.6,0.7,2.6,2.1v0.1c0,1.4-0.7,2-2.5,2L68.8,588.1L68.8,588.1z M68.8,597.5v-5
			h2.2c2.1,0,2.9,0.8,2.9,2.4v0.1c0,1.6-0.9,2.4-2.8,2.4H68.8z M61.6,602.3h10.9c6,0,8.6-2.3,8.6-6.5v-0.1c0-3.3-1.9-5-4.7-5.4
			c2.6-0.6,4-2.3,4-5v-0.1c0-3.5-2.2-6.1-7.9-6.1h-11V602.3z"/>
	</g>
</g>
<rect x="38.8" y="609.6" class="st7" width="327.6" height="1.4"/>
<rect x="38.8" y="609.6" class="st10" width="327.6" height="1.4"/>
<rect x="38.8" y="657.4" class="st7" width="327.8" height="1.4"/>
<rect x="38.8" y="657.4" class="st10" width="327.8" height="1.4"/>
<g>
	<g>
		<defs>
			<rect id="SVGID_00000008109755560262232030000011616195100461733783_" width="410.7" height="702.3"/>
		</defs>
		<clipPath id="SVGID_00000103240739210649770820000015353928405817534387_">
			<use xlink:href="#SVGID_00000008109755560262232030000011616195100461733783_"  style="overflow:visible;"/>
		</clipPath>
		<path style="clip-path:url(#SVGID_00000103240739210649770820000015353928405817534387_);fill:#FFFFFF;" d="M305.3,544.9
			c-17.6,0-25.9-8.6-25.9-25.3v-6.9c0-16.7,8.2-25.5,25.5-25.5c17.2,0,25.5,8.9,25.5,25.5v7C330.4,536,323.1,544.9,305.3,544.9
			 M304.3,569.2c40.6,0,62.4-19.5,62.4-50.4v-6.7c0-30.3-23.6-48.5-62-48.5c-38.4,0-62,17.9-62,49.2v6.9
			C242.8,549.6,263.7,569.2,304.3,569.2 M176.8,544.9c-17.6,0-25.9-8.6-25.9-25.3v-6.9c0-16.7,8.2-25.5,25.5-25.5
			c17.2,0,25.5,8.9,25.5,25.5v7C201.9,536,194.6,544.9,176.8,544.9 M175.8,569.2c40.6,0,62.4-19.5,62.4-50.4v-6.7
			c0-30.3-23.6-48.5-62-48.5s-61.9,17.9-61.9,49.2v6.9C114.3,549.6,135.2,569.2,175.8,569.2 M71.1,567.3h36.5V465H76.1l-31.1,21.8
			v27.8l26-18.2L71.1,567.3L71.1,567.3z"/>
	</g>
</g>
<g>
	<path class="st7" d="M282.3,630c0,2.7-2.1,4.8-4.9,4.8c-2.7,0-4.9-2.1-4.9-4.8c0-2.6,2.2-4.8,4.9-4.8
		C280.2,625.2,282.3,627.3,282.3,630z M273.8,630c0,2.1,1.6,3.8,3.7,3.8c2.1,0,3.6-1.7,3.6-3.8c0-2.1-1.5-3.8-3.7-3.8
		C275.3,626.2,273.8,627.9,273.8,630z M276.7,632.5h-1.1v-4.8c0.4-0.1,1-0.2,1.8-0.2c0.9,0,1.3,0.2,1.6,0.3c0.3,0.2,0.5,0.6,0.5,1
		c0,0.5-0.4,0.9-1,1.1v0.1c0.5,0.2,0.7,0.5,0.9,1.2c0.1,0.7,0.2,1,0.4,1.2h-1.2c-0.1-0.2-0.2-0.6-0.4-1.2c-0.1-0.5-0.4-0.8-1-0.8
		h-0.5L276.7,632.5L276.7,632.5z M276.7,629.8h0.5c0.6,0,1.1-0.2,1.1-0.7c0-0.4-0.3-0.7-1-0.7c-0.3,0-0.5,0-0.6,0.1V629.8z"/>
</g>
</svg>
