<?xml version="1.0" encoding="utf-8"?>
<!-- Generator: Adobe Illustrator 26.0.1, SVG Export Plug-In . SVG Version: 6.00 Build 0)  -->
<svg version="1.1" id="Layer_1" xmlns="http://www.w3.org/2000/svg" xmlns:xlink="http://www.w3.org/1999/xlink" x="0px" y="0px"
	 viewBox="0 0 276 485.6" style="enable-background:new 0 0 276 485.6;" xml:space="preserve">
<style type="text/css">
	.st0{fill-rule:evenodd;clip-rule:evenodd;fill:#00A1DF;}
	.st1{filter:url(#Adobe_OpacityMaskFilter);}
	.st2{fill-rule:evenodd;clip-rule:evenodd;fill:#FFFFFF;}
	.st3{mask:url(#mask-2_00000168799980720670107870000010382174371225408416_);fill-rule:evenodd;clip-rule:evenodd;fill:#00A1DF;}
	.st4{fill-rule:evenodd;clip-rule:evenodd;fill:#F5C131;}
	.st5{fill-rule:evenodd;clip-rule:evenodd;fill:#007549;}
	.st6{filter:url(#Adobe_OpacityMaskFilter_00000112608353661544771350000001858350895057746103_);}
	.st7{mask:url(#mask-4_00000165221622686859792880000002120874674273455007_);fill-rule:evenodd;clip-rule:evenodd;fill:#007549;}
	.st8{filter:url(#Adobe_OpacityMaskFilter_00000106141689708376504640000016564473130002475393_);}
	.st9{mask:url(#mask-4_00000160890418166872749060000001526618326850178729_);fill-rule:evenodd;clip-rule:evenodd;fill:#007549;}
	.st10{filter:url(#Adobe_OpacityMaskFilter_00000137106995684815580750000004955711744293662655_);}
	.st11{mask:url(#mask-4_00000115482371760553086440000002559024761390945667_);fill-rule:evenodd;clip-rule:evenodd;fill:#007549;}
	.st12{filter:url(#Adobe_OpacityMaskFilter_00000005976242126824537500000016574644077604087702_);}
	.st13{mask:url(#mask-4_00000105411247507313844890000001903445288792377735_);fill-rule:evenodd;clip-rule:evenodd;fill:#F5C131;}
	.st14{filter:url(#Adobe_OpacityMaskFilter_00000128466906592141556250000014881919930780580757_);}
	.st15{mask:url(#mask-4_00000070834028359142391130000017494797458560955320_);fill-rule:evenodd;clip-rule:evenodd;fill:#F5C131;}
	.st16{filter:url(#Adobe_OpacityMaskFilter_00000010273484822122349130000002238990390861600424_);}
	.st17{mask:url(#mask-4_00000153700436212765801630000017365874618958244482_);fill-rule:evenodd;clip-rule:evenodd;fill:#007549;}
	.st18{filter:url(#Adobe_OpacityMaskFilter_00000001628571765481872150000010743571086359303091_);}
	.st19{mask:url(#mask-4_00000019646709661093134720000012379883191166672796_);fill-rule:evenodd;clip-rule:evenodd;fill:#007549;}
	.st20{filter:url(#Adobe_OpacityMaskFilter_00000016771793791093484520000003300367499337918894_);}
	.st21{mask:url(#mask-4_00000002342925399870802920000003908565153207829146_);fill-rule:evenodd;clip-rule:evenodd;}
	.st22{filter:url(#Adobe_OpacityMaskFilter_00000142870648768066981850000010702399565027436712_);}
	.st23{mask:url(#mask-4_00000134251867758335509090000002759994579742938762_);fill-rule:evenodd;clip-rule:evenodd;}
	.st24{filter:url(#Adobe_OpacityMaskFilter_00000031895205918102832180000002771593037705211326_);}
	.st25{mask:url(#mask-4_00000073703199361237555510000002317328034605756585_);fill-rule:evenodd;clip-rule:evenodd;}
	.st26{filter:url(#Adobe_OpacityMaskFilter_00000109019603310007340240000008070150278880950716_);}
	.st27{mask:url(#mask-4_00000172406327728055001580000008449396991270380956_);fill-rule:evenodd;clip-rule:evenodd;}
	.st28{filter:url(#Adobe_OpacityMaskFilter_00000010305994068690452490000006815020245914112401_);}
	.st29{mask:url(#mask-4_00000182530708961924421600000014733042148702658733_);fill-rule:evenodd;clip-rule:evenodd;}
	.st30{filter:url(#Adobe_OpacityMaskFilter_00000045597731000283100700000000283343215857149582_);}
	.st31{mask:url(#mask-4_00000106148913952058907040000004188072578812103057_);fill-rule:evenodd;clip-rule:evenodd;}
	.st32{filter:url(#Adobe_OpacityMaskFilter_00000075122457590604322620000018295236551336159657_);}
	.st33{mask:url(#mask-4_00000038373559901093655730000015881370604032724609_);fill-rule:evenodd;clip-rule:evenodd;}
	.st34{filter:url(#Adobe_OpacityMaskFilter_00000088845728075251748800000004742094704803415689_);}
	.st35{mask:url(#mask-4_00000142877764559028442670000007418214220205358506_);fill-rule:evenodd;clip-rule:evenodd;}
	.st36{filter:url(#Adobe_OpacityMaskFilter_00000156545192111811755520000001058258750903761559_);}
	.st37{mask:url(#mask-4_00000070819031115792892410000017582875231794994878_);fill-rule:evenodd;clip-rule:evenodd;}
	.st38{filter:url(#Adobe_OpacityMaskFilter_00000010310895367960655540000010370503048453424567_);}
	.st39{mask:url(#mask-4_00000155845407967594316960000010270368013573834429_);fill-rule:evenodd;clip-rule:evenodd;}
	.st40{filter:url(#Adobe_OpacityMaskFilter_00000113313145820376762060000010454974156496741815_);}
	.st41{mask:url(#mask-4_00000049924941886381353630000004322800034262410409_);fill-rule:evenodd;clip-rule:evenodd;}
	.st42{filter:url(#Adobe_OpacityMaskFilter_00000142875109642058419120000003162753643984043430_);}
	.st43{mask:url(#mask-4_00000168814741083044556990000000328777271164833970_);fill-rule:evenodd;clip-rule:evenodd;}
	.st44{filter:url(#Adobe_OpacityMaskFilter_00000119797860831928721420000010569988061844614066_);}
	.st45{mask:url(#mask-4_00000153679139231312759200000012092019667219677372_);fill-rule:evenodd;clip-rule:evenodd;}
	.st46{filter:url(#Adobe_OpacityMaskFilter_00000083059573636648968460000016587742713700930187_);}
	.st47{mask:url(#mask-4_00000080204147750415640470000000555210147236654991_);fill-rule:evenodd;clip-rule:evenodd;}
	.st48{filter:url(#Adobe_OpacityMaskFilter_00000183224666880131067540000009024375341529722043_);}
	.st49{mask:url(#mask-4_00000031205947171396988020000009906323440871179192_);fill-rule:evenodd;clip-rule:evenodd;}
	.st50{filter:url(#Adobe_OpacityMaskFilter_00000102520735947810779820000017100392379957525400_);}
	.st51{mask:url(#mask-4_00000122711524711725316140000004055003679708686757_);fill-rule:evenodd;clip-rule:evenodd;}
	.st52{filter:url(#Adobe_OpacityMaskFilter_00000093888363610353509040000016133740103999904921_);}
	.st53{mask:url(#mask-4_00000155865412448877654400000013215135458924821648_);fill-rule:evenodd;clip-rule:evenodd;}
	.st54{filter:url(#Adobe_OpacityMaskFilter_00000124844930452346971260000007449041275706805917_);}
	.st55{mask:url(#mask-4_00000005945777393578285110000004983716860597906821_);fill-rule:evenodd;clip-rule:evenodd;}
</style>
<g id="logo-BPTW21">
	<g id="Group-47" transform="translate(1.000000, 1.000000)">
		<path id="Fill-1" class="st0" d="M221.1,119.6v61.9h33.4v-115C254.5,91,239.3,102.5,221.1,119.6"/>
		<path id="Fill-3" class="st0" d="M254.5,73.2V3.1h-32.6c-0.5,1.8-1,3.4-1.6,5.1C242.7,18.9,254.5,39.6,254.5,73.2"/>
		<path id="Fill-5" class="st0" d="M155.5,75.9v85.8c0-22.6,15.8-38.3,33.4-54.8V75.9H155.5z"/>
		<path id="Fill-7" class="st0" d="M119.7,41.9v6.6c0-14.9,6.9-19.1,17.9-19.1c11,0,17.9,4.2,17.9,19.1V53c0-4.5,0-8.6,0-11.2
			c0.2-17.4,5.8-28.8,16.2-35.4c-8.3-5.2-19.5-7.5-33-7.5h-2.4c-13.4,0-24.4,2.3-32.7,7.4C114.2,12.9,119.7,24.3,119.7,41.9"/>
		<g id="Group-11" transform="translate(83.623588, 85.203102)">
			<g id="Clip-10">
			</g>
			<defs>
				<filter id="Adobe_OpacityMaskFilter" filterUnits="userSpaceOnUse" x="2.7" y="-18.9" width="73.3" height="146.1">
					<feColorMatrix  type="matrix" values="1 0 0 0 0  0 1 0 0 0  0 0 1 0 0  0 0 0 1 0"/>
				</filter>
			</defs>
			
				<mask maskUnits="userSpaceOnUse" x="2.7" y="-18.9" width="73.3" height="146.1" id="mask-2_00000168799980720670107870000010382174371225408416_">
				<g class="st1">
					<polygon id="path-1_00000016793080996283473540000015423233167760800937_" class="st2" points="2.7,-18.9 76,-18.9 76,127.2 
						2.7,127.2 					"/>
				</g>
			</mask>
			<path id="Fill-9" class="st3" d="M71.9,77.8c0,14.9-6.9,19-17.9,19c-11,0-17.9-4.2-17.9-19.1v-96.6c0,24.6-15.2,36.1-33.4,53.2
				v48.7c0,4.8,0.4,9.2,1.3,13.1h32.1v28.6H32c6.1,1.6,13.1,2.4,20.8,2.4h2.4c7.7,0,14.7-0.8,20.8-2.4h-4.1V77.8z"/>
		</g>
		<path id="Fill-12" class="st4" d="M198.2,98.2c-3.1,3-6.2,5.8-9.2,8.7v55.4c0-11.3,11.3-22.7,28.6-39.3c1.2-1.2,2.4-2.3,3.6-3.4
			V65.7C221.1,76.8,214,83,198.2,98.2"/>
		<path id="Fill-14" class="st4" d="M188.9,181.4v-13.1c0,23.8-10.7,36.7-29.3,41.7h61.5v-28.6H188.9z"/>
		<path id="Fill-16" class="st4" d="M188.9,43.1v2.3c0-14.3,6.3-17.9,15.8-17.9c9.5,0,16.4,3.6,16.4,17.9V25.8
			c5.6-5.9,10.8-12.8,13.7-21.5c-7.6-3.7-17.4-5.3-29.2-5.3H205c-13.9,0-25,2.3-33.2,7.5C182.8,13.3,188.9,25.1,188.9,43.1"/>
		<path id="Fill-18" class="st5" d="M221.1,45.4L221.1,45.4v20.3v0v53.8c18.1-17.1,33.4-28.6,33.4-53.1V41.8
			c0-19.4-6.8-31.3-19.7-37.5c-2.9,8.7-8.1,15.6-13.7,21.5V45.4z"/>
		<g id="Clip-21">
		</g>
		<defs>
			
				<filter id="Adobe_OpacityMaskFilter_00000127020968753224221350000001543882105698710205_" filterUnits="userSpaceOnUse" x="221.1" y="181.4" width="33.4" height="28.6">
				<feColorMatrix  type="matrix" values="1 0 0 0 0  0 1 0 0 0  0 0 1 0 0  0 0 0 1 0"/>
			</filter>
		</defs>
		
			<mask maskUnits="userSpaceOnUse" x="221.1" y="181.4" width="33.4" height="28.6" id="mask-4_00000165221622686859792880000002120874674273455007_">
			<g style="filter:url(#Adobe_OpacityMaskFilter_00000127020968753224221350000001543882105698710205_);">
				<polygon id="path-3_00000163053203037863567020000009651669433590779019_" class="st2" points="20.7,212.4 465.3,212.4 
					465.3,-1.1 20.7,-1.1 				"/>
			</g>
		</mask>
		<polygon id="Fill-20" class="st7" points="221.1,210.1 254.5,210.1 254.5,181.4 221.1,181.4 		"/>
		<defs>
			
				<filter id="Adobe_OpacityMaskFilter_00000056394545291003853770000013959909859383054480_" filterUnits="userSpaceOnUse" x="155.5" y="106.9" width="33.4" height="103.1">
				<feColorMatrix  type="matrix" values="1 0 0 0 0  0 1 0 0 0  0 0 1 0 0  0 0 0 1 0"/>
			</filter>
		</defs>
		
			<mask maskUnits="userSpaceOnUse" x="155.5" y="106.9" width="33.4" height="103.1" id="mask-4_00000160890418166872749060000001526618326850178729_">
			<g style="filter:url(#Adobe_OpacityMaskFilter_00000056394545291003853770000013959909859383054480_);">
				<polygon id="path-3_00000047031866596043774770000017763196100109102777_" class="st2" points="20.7,212.4 465.3,212.4 
					465.3,-1.1 20.7,-1.1 				"/>
			</g>
		</mask>
		<path id="Fill-22" class="st9" d="M188.9,168.4v-6c0,0,0,0,0,0v-55.4c-17.6,16.5-33.4,32.2-33.4,54.8v1.2c0,0,0,0,0,0v47.1h4.1
			C178.2,205.1,188.9,192.1,188.9,168.4"/>
		<defs>
			
				<filter id="Adobe_OpacityMaskFilter_00000142894087932866834830000006940902608063492794_" filterUnits="userSpaceOnUse" x="155.5" y="6.4" width="33.4" height="69.4">
				<feColorMatrix  type="matrix" values="1 0 0 0 0  0 1 0 0 0  0 0 1 0 0  0 0 0 1 0"/>
			</filter>
		</defs>
		
			<mask maskUnits="userSpaceOnUse" x="155.5" y="6.4" width="33.4" height="69.4" id="mask-4_00000115482371760553086440000002559024761390945667_">
			<g style="filter:url(#Adobe_OpacityMaskFilter_00000142894087932866834830000006940902608063492794_);">
				<polygon id="path-3_00000102546181319827131200000010452033666216989075_" class="st2" points="20.7,212.4 465.3,212.4 
					465.3,-1.1 20.7,-1.1 				"/>
			</g>
		</mask>
		<path id="Fill-23" class="st11" d="M155.6,41.9c0,2.6,0,6.7,0,11.2v22.8h33.4l0-30.4c0,0,0,0,0,0v-2.3c0-18-6.1-29.8-17.1-36.6
			C161.3,13.1,155.7,24.5,155.6,41.9"/>
		<defs>
			
				<filter id="Adobe_OpacityMaskFilter_00000070114906003821749130000017231844901635576718_" filterUnits="userSpaceOnUse" x="20.7" y="65.7" width="94.9" height="144.3">
				<feColorMatrix  type="matrix" values="1 0 0 0 0  0 1 0 0 0  0 0 1 0 0  0 0 0 1 0"/>
			</filter>
		</defs>
		
			<mask maskUnits="userSpaceOnUse" x="20.7" y="65.7" width="94.9" height="144.3" id="mask-4_00000105411247507313844890000001903445288792377735_">
			<g style="filter:url(#Adobe_OpacityMaskFilter_00000070114906003821749130000017231844901635576718_);">
				<polygon id="path-3_00000079462050002611788260000008045578011361580206_" class="st2" points="20.7,212.4 465.3,212.4 
					465.3,-1.1 20.7,-1.1 				"/>
			</g>
		</mask>
		<path id="Fill-24" class="st13" d="M87.6,181.4H54.1v-19.1c0-11.3,11.3-22.7,28.6-39.4c1.2-1.2,2.4-2.3,3.6-3.4V65.7
			c0,11-7.2,17.3-23,32.5c-20.9,20-42.6,37-42.6,63.5v48.3h94.9C100.8,206.1,91,197,87.6,181.4"/>
		<defs>
			
				<filter id="Adobe_OpacityMaskFilter_00000013887541683803132810000017694566010084434614_" filterUnits="userSpaceOnUse" x="21.3" y="-1.1" width="82.4" height="76.9">
				<feColorMatrix  type="matrix" values="1 0 0 0 0  0 1 0 0 0  0 0 1 0 0  0 0 0 1 0"/>
			</filter>
		</defs>
		
			<mask maskUnits="userSpaceOnUse" x="21.3" y="-1.1" width="82.4" height="76.9" id="mask-4_00000070834028359142391130000017494797458560955320_">
			<g style="filter:url(#Adobe_OpacityMaskFilter_00000013887541683803132810000017694566010084434614_);">
				<polygon id="path-3_00000012461794932552093110000007151669213724427696_" class="st2" points="20.7,212.4 465.3,212.4 
					465.3,-1.1 20.7,-1.1 				"/>
			</g>
		</mask>
		<path id="Fill-25" class="st15" d="M103.7,6.3c-8.1-5.1-19.1-7.4-32.9-7.4h-0.6c-31.6,0-48.9,11.9-48.9,42.9v34h32.8V45.4
			c0-14.3,6.3-17.9,15.8-17.9c9.5,0,16.4,3.6,16.4,17.9v-2.4C86.3,24.9,92.5,13.1,103.7,6.3"/>
		<defs>
			
				<filter id="Adobe_OpacityMaskFilter_00000025443132435247488440000017494343726393024640_" filterUnits="userSpaceOnUse" x="87.6" y="181.4" width="32.1" height="28.6">
				<feColorMatrix  type="matrix" values="1 0 0 0 0  0 1 0 0 0  0 0 1 0 0  0 0 0 1 0"/>
			</filter>
		</defs>
		
			<mask maskUnits="userSpaceOnUse" x="87.6" y="181.4" width="32.1" height="28.6" id="mask-4_00000153700436212765801630000017365874618958244482_">
			<g style="filter:url(#Adobe_OpacityMaskFilter_00000025443132435247488440000017494343726393024640_);">
				<polygon id="path-3_00000168818618584039139880000010476893701141125000_" class="st2" points="20.7,212.4 465.3,212.4 
					465.3,-1.1 20.7,-1.1 				"/>
			</g>
		</mask>
		<path id="Fill-26" class="st17" d="M119.7,181.4H87.6c3.4,15.6,13.1,24.7,28,28.6h4.1V181.4z"/>
		<defs>
			
				<filter id="Adobe_OpacityMaskFilter_00000168831470392295678190000012502570452143357870_" filterUnits="userSpaceOnUse" x="86.3" y="6.3" width="33.4" height="113.3">
				<feColorMatrix  type="matrix" values="1 0 0 0 0  0 1 0 0 0  0 0 1 0 0  0 0 0 1 0"/>
			</filter>
		</defs>
		
			<mask maskUnits="userSpaceOnUse" x="86.3" y="6.3" width="33.4" height="113.3" id="mask-4_00000019646709661093134720000012379883191166672796_">
			<g style="filter:url(#Adobe_OpacityMaskFilter_00000168831470392295678190000012502570452143357870_);">
				<polygon id="path-3_00000039813728597823500580000011922322268233651088_" class="st2" points="20.7,212.4 465.3,212.4 
					465.3,-1.1 20.7,-1.1 				"/>
			</g>
		</mask>
		<path id="Fill-27" class="st19" d="M119.7,66.3V48.4v-6.6c0-17.5-5.5-29-16-35.6c-11.2,6.8-17.4,18.7-17.4,36.8v2.4v20.3v53.8
			C104.5,102.5,119.7,91,119.7,66.3"/>
		<defs>
			
				<filter id="Adobe_OpacityMaskFilter_00000085235871409901872480000002643581376665389982_" filterUnits="userSpaceOnUse" x="23.5" y="217" width="53.1" height="104.7">
				<feColorMatrix  type="matrix" values="1 0 0 0 0  0 1 0 0 0  0 0 1 0 0  0 0 0 1 0"/>
			</filter>
		</defs>
		
			<mask maskUnits="userSpaceOnUse" x="23.5" y="217" width="53.1" height="104.7" id="mask-4_00000002342925399870802920000003908565153207829146_">
			<g style="filter:url(#Adobe_OpacityMaskFilter_00000085235871409901872480000002643581376665389982_);">
				<polygon id="path-3_00000046310541740948870450000012903983929317105843_" class="st2" points="-302.2,486.4 265.1,486.4 
					265.1,214 -302.2,214 				"/>
			</g>
		</mask>
		<path id="Fill-28" class="st21" d="M51.2,274.9H40.9v31.9h10.3c4.9,0,8.1-2.5,8.1-8.1V283C59.3,277.5,56.2,274.9,51.2,274.9
			L51.2,274.9z M40.9,260.2h9.7c4.9,0,8.1-2.5,8.1-8.1V240c0-5.5-3.1-8.1-8.1-8.1h-9.7V260.2z M64.4,267.3
			c9.1,1.5,12.3,8.5,12.3,16.6v17.2c0,13.2-10.2,20.6-26,20.6H23.5V217h27.4c15.9,0,25.1,7.5,25.1,20.6v13.2
			C76.1,258.3,72.8,266.2,64.4,267.3L64.4,267.3z"/>
		<defs>
			
				<filter id="Adobe_OpacityMaskFilter_00000123430401942524316690000009442309295465980593_" filterUnits="userSpaceOnUse" x="88.8" y="217" width="46.4" height="104.7">
				<feColorMatrix  type="matrix" values="1 0 0 0 0  0 1 0 0 0  0 0 1 0 0  0 0 0 1 0"/>
			</filter>
		</defs>
		
			<mask maskUnits="userSpaceOnUse" x="88.8" y="217" width="46.4" height="104.7" id="mask-4_00000134251867758335509090000002759994579742938762_">
			<g style="filter:url(#Adobe_OpacityMaskFilter_00000123430401942524316690000009442309295465980593_);">
				<polygon id="path-3_00000018213852114501717990000016614963942447173514_" class="st2" points="-302.2,486.4 265.1,486.4 
					265.1,214 -302.2,214 				"/>
			</g>
		</mask>
		<polygon id="Fill-29" class="st23" points="88.8,321.7 88.8,217 134.7,217 134.7,232.3 106.1,232.3 106.1,261 130.1,261 
			130.1,276.3 106.1,276.3 106.1,306.5 135.2,306.5 135.2,321.7 		"/>
		<defs>
			
				<filter id="Adobe_OpacityMaskFilter_00000060748090614698564340000008743990668954190993_" filterUnits="userSpaceOnUse" x="143.4" y="215.8" width="52.1" height="107.1">
				<feColorMatrix  type="matrix" values="1 0 0 0 0  0 1 0 0 0  0 0 1 0 0  0 0 0 1 0"/>
			</filter>
		</defs>
		
			<mask maskUnits="userSpaceOnUse" x="143.4" y="215.8" width="52.1" height="107.1" id="mask-4_00000073703199361237555510000002317328034605756585_">
			<g style="filter:url(#Adobe_OpacityMaskFilter_00000060748090614698564340000008743990668954190993_);">
				<polygon id="path-3_00000177460134429375574320000015225292221664776605_" class="st2" points="-302.2,486.4 265.1,486.4 
					265.1,214 -302.2,214 				"/>
			</g>
		</mask>
		<path id="Fill-30" class="st25" d="M178.1,254.4v-14.7c0-6.6-3.7-9-8.8-9c-5.1,0-8.8,2.4-8.8,9v7.2c0,5.4,1.8,7.8,6.7,10.6
			l12.3,6.9c10,5.7,16,10.3,16,21.5v15.1c0,16.2-10,21.8-25.9,21.8h-0.3c-15.9,0-25.9-5.5-25.9-21.8v-18.3h17.1v15.9
			c0,6.4,3.7,9.3,9,9.3c5.2,0,9-2.8,9-9.3v-8.2c0-5.4-1.6-8.1-6.9-10.9l-12.1-6.9c-10.2-5.8-16-10.6-16-21.5v-13.8
			c0-15.6,11.4-21.5,25.7-21.5h0.3c14.4,0,25.7,6,25.7,21.5v17.1H178.1z"/>
		<defs>
			
				<filter id="Adobe_OpacityMaskFilter_00000049215223385864488670000000005135426345715344_" filterUnits="userSpaceOnUse" x="201.2" y="217" width="52.4" height="104.7">
				<feColorMatrix  type="matrix" values="1 0 0 0 0  0 1 0 0 0  0 0 1 0 0  0 0 0 1 0"/>
			</filter>
		</defs>
		
			<mask maskUnits="userSpaceOnUse" x="201.2" y="217" width="52.4" height="104.7" id="mask-4_00000172406327728055001580000008449396991270380956_">
			<g style="filter:url(#Adobe_OpacityMaskFilter_00000049215223385864488670000000005135426345715344_);">
				<polygon id="path-3_00000013896244196660427680000012548792039150262428_" class="st2" points="-302.2,486.4 265.1,486.4 
					265.1,214 -302.2,214 				"/>
			</g>
		</mask>
		<polygon id="Fill-31" class="st27" points="253.5,232.3 236,232.3 236,321.7 218.7,321.7 218.7,232.3 201.2,232.3 201.2,217 
			253.5,217 		"/>
		<defs>
			
				<filter id="Adobe_OpacityMaskFilter_00000089570715317089385000000016128509880721058727_" filterUnits="userSpaceOnUse" x="23.5" y="338.4" width="33.7" height="66.1">
				<feColorMatrix  type="matrix" values="1 0 0 0 0  0 1 0 0 0  0 0 1 0 0  0 0 0 1 0"/>
			</filter>
		</defs>
		
			<mask maskUnits="userSpaceOnUse" x="23.5" y="338.4" width="33.7" height="66.1" id="mask-4_00000182530708961924421600000014733042148702658733_">
			<g style="filter:url(#Adobe_OpacityMaskFilter_00000089570715317089385000000016128509880721058727_);">
				<polygon id="path-3_00000089567532772922882320000013153341241072513436_" class="st2" points="-302.2,486.4 265.1,486.4 
					265.1,214 -302.2,214 				"/>
			</g>
		</mask>
		<path id="Fill-32" class="st29" d="M46.3,354c0-4.7-2.5-6-6-6h-5.8v21.2h5.8c3.6,0,6-1.3,6-6V354z M57.2,352.4v12.6
			c0,10-6.6,14-16.6,14h-6.1v25.6h-11v-66.1h17.1C50.6,338.4,57.2,342.3,57.2,352.4L57.2,352.4z"/>
		<defs>
			
				<filter id="Adobe_OpacityMaskFilter_00000083801926208178424310000004031410383298653577_" filterUnits="userSpaceOnUse" x="65.1" y="338.4" width="27.8" height="66.1">
				<feColorMatrix  type="matrix" values="1 0 0 0 0  0 1 0 0 0  0 0 1 0 0  0 0 0 1 0"/>
			</filter>
		</defs>
		
			<mask maskUnits="userSpaceOnUse" x="65.1" y="338.4" width="27.8" height="66.1" id="mask-4_00000106148913952058907040000004188072578812103057_">
			<g style="filter:url(#Adobe_OpacityMaskFilter_00000083801926208178424310000004031410383298653577_);">
				<polygon id="path-3_00000158718823901392520770000001977325624678535078_" class="st2" points="-302.2,486.4 265.1,486.4 
					265.1,214 -302.2,214 				"/>
			</g>
		</mask>
		<polygon id="Fill-33" class="st31" points="92.9,404.5 65.1,404.5 65.1,338.4 76,338.4 76,394.6 92.9,394.6 		"/>
		<defs>
			
				<filter id="Adobe_OpacityMaskFilter_00000165204701151430903720000000533863638793062547_" filterUnits="userSpaceOnUse" x="99.2" y="338.4" width="38.5" height="66.1">
				<feColorMatrix  type="matrix" values="1 0 0 0 0  0 1 0 0 0  0 0 1 0 0  0 0 0 1 0"/>
			</filter>
		</defs>
		
			<mask maskUnits="userSpaceOnUse" x="99.2" y="338.4" width="38.5" height="66.1" id="mask-4_00000038373559901093655730000015881370604032724609_">
			<g style="filter:url(#Adobe_OpacityMaskFilter_00000165204701151430903720000000533863638793062547_);">
				<polygon id="path-3_00000053505176956302357930000008067981308020224953_" class="st2" points="-302.2,486.4 265.1,486.4 
					265.1,214 -302.2,214 				"/>
			</g>
		</mask>
		<path id="Fill-34" class="st33" d="M122.8,380.7l-4.6-29.4l-4.6,29.4H122.8z M124.2,389.7h-12.1l-2.4,14.7H99.2l12.3-66.1h13.8
			l12.5,66.1h-11.1L124.2,389.7z"/>
		<defs>
			
				<filter id="Adobe_OpacityMaskFilter_00000068677664566454212760000014083149939885952939_" filterUnits="userSpaceOnUse" x="142.8" y="337.6" width="33.4" height="67.6">
				<feColorMatrix  type="matrix" values="1 0 0 0 0  0 1 0 0 0  0 0 1 0 0  0 0 0 1 0"/>
			</filter>
		</defs>
		
			<mask maskUnits="userSpaceOnUse" x="142.8" y="337.6" width="33.4" height="67.6" id="mask-4_00000142877764559028442670000007418214220205358506_">
			<g style="filter:url(#Adobe_OpacityMaskFilter_00000068677664566454212760000014083149939885952939_);">
				<polygon id="path-3_00000026871200737320906630000016363289772119007900_" class="st2" points="-302.2,486.4 265.1,486.4 
					265.1,214 -302.2,214 				"/>
			</g>
		</mask>
		<path id="Fill-35" class="st35" d="M176.2,391.2c0,10.2-6.6,14-16.6,14h-0.2c-10,0-16.6-3.7-16.6-14v-39.6c0-9.8,6.6-14,16.6-14
			h0.2c10,0,16.6,4.2,16.6,14v12.1h-11v-10.4c0-4.6-2.3-6-5.8-6c-3.5,0-5.8,1.4-5.8,6v36.3c0,4.6,2.3,6,5.8,6c3.5,0,5.8-1.4,5.8-6
			v-12h11V391.2z"/>
		<defs>
			
				<filter id="Adobe_OpacityMaskFilter_00000131343853108124839610000007197055734578766734_" filterUnits="userSpaceOnUse" x="184.9" y="338.4" width="29.3" height="66.1">
				<feColorMatrix  type="matrix" values="1 0 0 0 0  0 1 0 0 0  0 0 1 0 0  0 0 0 1 0"/>
			</filter>
		</defs>
		
			<mask maskUnits="userSpaceOnUse" x="184.9" y="338.4" width="29.3" height="66.1" id="mask-4_00000070819031115792892410000017582875231794994878_">
			<g style="filter:url(#Adobe_OpacityMaskFilter_00000131343853108124839610000007197055734578766734_);">
				<polygon id="path-3_00000174573907651481837400000006700984257209121927_" class="st2" points="-302.2,486.4 265.1,486.4 
					265.1,214 -302.2,214 				"/>
			</g>
		</mask>
		<polygon id="Fill-36" class="st37" points="184.9,404.5 184.9,338.4 213.9,338.4 213.9,348 195.8,348 195.8,366.1 210.9,366.1 
			210.9,375.8 195.8,375.8 195.8,394.8 214.2,394.8 214.2,404.5 		"/>
		<defs>
			
				<filter id="Adobe_OpacityMaskFilter_00000010996380003332542510000003384111231954663585_" filterUnits="userSpaceOnUse" x="220.7" y="337.6" width="32.9" height="67.6">
				<feColorMatrix  type="matrix" values="1 0 0 0 0  0 1 0 0 0  0 0 1 0 0  0 0 0 1 0"/>
			</filter>
		</defs>
		
			<mask maskUnits="userSpaceOnUse" x="220.7" y="337.6" width="32.9" height="67.6" id="mask-4_00000155845407967594316960000010270368013573834429_">
			<g style="filter:url(#Adobe_OpacityMaskFilter_00000010996380003332542510000003384111231954663585_);">
				<polygon id="path-3_00000180329898494848931910000010290792146017709209_" class="st2" points="-302.2,486.4 265.1,486.4 
					265.1,214 -302.2,214 				"/>
			</g>
		</mask>
		<path id="Fill-37" class="st39" d="M242.6,362v-9.3c0-4.2-2.4-5.7-5.6-5.7c-3.2,0-5.6,1.5-5.6,5.7v4.5c0,3.4,1.1,4.9,4.2,6.7
			l7.7,4.3c6.3,3.6,10.1,6.5,10.1,13.6v9.5c0,10.2-6.3,13.8-16.3,13.8H237c-10,0-16.3-3.5-16.3-13.8v-11.5h10.8v10
			c0,4.1,2.4,5.9,5.7,5.9c3.3,0,5.7-1.8,5.7-5.9v-5.2c0-3.4-1-5.1-4.3-6.9l-7.6-4.3c-6.4-3.7-10.1-6.7-10.1-13.6v-8.7
			c0-9.8,7.2-13.6,16.2-13.6h0.2c9.1,0,16.2,3.8,16.2,13.6V362H242.6z"/>
		<defs>
			
				<filter id="Adobe_OpacityMaskFilter_00000076578438136758730550000010884032353322940861_" filterUnits="userSpaceOnUse" x="76.8" y="421.1" width="55.3" height="62.2">
				<feColorMatrix  type="matrix" values="1 0 0 0 0  0 1 0 0 0  0 0 1 0 0  0 0 0 1 0"/>
			</filter>
		</defs>
		
			<mask maskUnits="userSpaceOnUse" x="76.8" y="421.1" width="55.3" height="62.2" id="mask-4_00000049924941886381353630000004322800034262410409_">
			<g style="filter:url(#Adobe_OpacityMaskFilter_00000076578438136758730550000010884032353322940861_);">
				<polygon id="path-3_00000076572259821748257770000003080488233466564230_" class="st2" points="-302.2,486.4 265.1,486.4 
					265.1,214 -302.2,214 				"/>
			</g>
		</mask>
		<polygon id="Fill-38" class="st41" points="122.3,483.3 112.7,483.3 104.6,440.7 96.6,483.3 86.6,483.3 76.8,421.1 87,421.1 
			92.1,465.6 100.1,421.1 109.4,421.1 117.4,465.6 122.5,421.1 132.1,421.1 		"/>
		<defs>
			
				<filter id="Adobe_OpacityMaskFilter_00000062177442348412951730000006802544607356848304_" filterUnits="userSpaceOnUse" x="138.8" y="420.4" width="32" height="63.7">
				<feColorMatrix  type="matrix" values="1 0 0 0 0  0 1 0 0 0  0 0 1 0 0  0 0 0 1 0"/>
			</filter>
		</defs>
		
			<mask maskUnits="userSpaceOnUse" x="138.8" y="420.4" width="32" height="63.7" id="mask-4_00000168814741083044556990000000328777271164833970_">
			<g style="filter:url(#Adobe_OpacityMaskFilter_00000062177442348412951730000006802544607356848304_);">
				<polygon id="path-3_00000080924221982808778840000015859046247611873686_" class="st2" points="-302.2,486.4 265.1,486.4 
					265.1,214 -302.2,214 				"/>
			</g>
		</mask>
		<path id="Fill-39" class="st43" d="M154.8,475c3.4,0,5.7-1.2,5.7-5.7v-34.1c0-4.4-2.3-5.7-5.7-5.7c-3.4,0-5.7,1.2-5.7,5.7v34.1
			C149.1,473.7,151.4,475,154.8,475 M154.4,420.4h0.7c9.4,0,15.6,3.7,15.6,13.2v37.3c0,9.4-6.2,13.2-15.6,13.2h-0.7
			c-9.4,0-15.6-3.7-15.6-13.2v-37.3C138.8,424,145,420.4,154.4,420.4"/>
		<defs>
			
				<filter id="Adobe_OpacityMaskFilter_00000181048396243792689700000010228863400111834266_" filterUnits="userSpaceOnUse" x="180.3" y="421.1" width="33.9" height="62.2">
				<feColorMatrix  type="matrix" values="1 0 0 0 0  0 1 0 0 0  0 0 1 0 0  0 0 0 1 0"/>
			</filter>
		</defs>
		
			<mask maskUnits="userSpaceOnUse" x="180.3" y="421.1" width="33.9" height="62.2" id="mask-4_00000153679139231312759200000012092019667219677372_">
			<g style="filter:url(#Adobe_OpacityMaskFilter_00000181048396243792689700000010228863400111834266_);">
				<polygon id="path-3_00000026886023372433935650000005013107583126439813_" class="st2" points="-302.2,486.4 265.1,486.4 
					265.1,214 -302.2,214 				"/>
			</g>
		</mask>
		<path id="Fill-40" class="st45" d="M190.6,449.7h5.4c3.4,0,5.7-1.2,5.7-5.7v-8.1c0-4.4-2.3-5.7-5.7-5.7h-5.4V449.7z M203.7,483.3
			l-7.9-24.8h-5.2v24.8h-10.3v-62.2h16.1c9.4,0,15.6,3.7,15.6,13.2v11.1c0,6-2.5,9.7-6.8,11.6l8.9,26.4H203.7z"/>
		<defs>
			
				<filter id="Adobe_OpacityMaskFilter_00000127766880165350662170000008667121941171790999_" filterUnits="userSpaceOnUse" x="220.5" y="421.1" width="34" height="62.2">
				<feColorMatrix  type="matrix" values="1 0 0 0 0  0 1 0 0 0  0 0 1 0 0  0 0 0 1 0"/>
			</filter>
		</defs>
		
			<mask maskUnits="userSpaceOnUse" x="220.5" y="421.1" width="34" height="62.2" id="mask-4_00000080204147750415640470000000555210147236654991_">
			<g style="filter:url(#Adobe_OpacityMaskFilter_00000127766880165350662170000008667121941171790999_);">
				<polygon id="path-3_00000024709975457835537820000013061372505032663692_" class="st2" points="-302.2,486.4 265.1,486.4 
					265.1,214 -302.2,214 				"/>
			</g>
		</mask>
		<polygon id="Fill-41" class="st47" points="244,483.3 235.4,456.3 230.8,465.4 230.8,483.3 220.5,483.3 220.5,421.1 230.8,421.1 
			230.8,449.1 242.5,421.1 253.4,421.1 241.5,444.5 254.5,483.3 		"/>
		<defs>
			
				<filter id="Adobe_OpacityMaskFilter_00000083771048512314270030000007668904855580951190_" filterUnits="userSpaceOnUse" x="26.2" y="437.4" width="14.9" height="29.8">
				<feColorMatrix  type="matrix" values="1 0 0 0 0  0 1 0 0 0  0 0 1 0 0  0 0 0 1 0"/>
			</filter>
		</defs>
		
			<mask maskUnits="userSpaceOnUse" x="26.2" y="437.4" width="14.9" height="29.8" id="mask-4_00000031205947171396988020000009906323440871179192_">
			<g style="filter:url(#Adobe_OpacityMaskFilter_00000083771048512314270030000007668904855580951190_);">
				<polygon id="path-3_00000011724546475751388490000002572672748918088636_" class="st2" points="-302.2,486.4 265.1,486.4 
					265.1,214 -302.2,214 				"/>
			</g>
		</mask>
		<polygon id="Fill-42" class="st49" points="41.1,441.7 36.1,441.7 36.1,467.1 31.2,467.1 31.2,441.7 26.2,441.7 26.2,437.4 
			41.1,437.4 		"/>
		<defs>
			
				<filter id="Adobe_OpacityMaskFilter_00000031165758371851272480000006852309142096955036_" filterUnits="userSpaceOnUse" x="43.5" y="437" width="15.3" height="30.4">
				<feColorMatrix  type="matrix" values="1 0 0 0 0  0 1 0 0 0  0 0 1 0 0  0 0 0 1 0"/>
			</filter>
		</defs>
		
			<mask maskUnits="userSpaceOnUse" x="43.5" y="437" width="15.3" height="30.4" id="mask-4_00000122711524711725316140000004055003679708686757_">
			<g style="filter:url(#Adobe_OpacityMaskFilter_00000031165758371851272480000006852309142096955036_);">
				<polygon id="path-3_00000047739741680829695380000017810494669791246781_" class="st2" points="-302.2,486.4 265.1,486.4 
					265.1,214 -302.2,214 				"/>
			</g>
		</mask>
		<path id="Fill-43" class="st51" d="M51.1,463.1c1.6,0,2.7-0.6,2.7-2.7v-16.3c0-2.1-1.1-2.7-2.7-2.7c-1.6,0-2.7,0.6-2.7,2.7v16.3
			C48.4,462.5,49.5,463.1,51.1,463.1 M50.9,437h0.3c4.5,0,7.5,1.8,7.5,6.3v17.9c0,4.5-3,6.3-7.5,6.3h-0.3c-4.5,0-7.5-1.8-7.5-6.3
			v-17.9C43.5,438.8,46.4,437,50.9,437"/>
		<defs>
			
				<filter id="Adobe_OpacityMaskFilter_00000158746538190899334470000013634847842887334552_" filterUnits="userSpaceOnUse" x="23.5" y="421.1" width="39.4" height="4.3">
				<feColorMatrix  type="matrix" values="1 0 0 0 0  0 1 0 0 0  0 0 1 0 0  0 0 0 1 0"/>
			</filter>
		</defs>
		
			<mask maskUnits="userSpaceOnUse" x="23.5" y="421.1" width="39.4" height="4.3" id="mask-4_00000155865412448877654400000013215135458924821648_">
			<g style="filter:url(#Adobe_OpacityMaskFilter_00000158746538190899334470000013634847842887334552_);">
				<polygon id="path-3_00000140716323643504976690000012615897483825368248_" class="st2" points="-302.2,486.4 265.1,486.4 
					265.1,214 -302.2,214 				"/>
			</g>
		</mask>
		<polygon id="Fill-44" class="st53" points="23.5,425.4 62.9,425.4 62.9,421.1 23.5,421.1 		"/>
		<defs>
			
				<filter id="Adobe_OpacityMaskFilter_00000105421089084801109600000009249329128387693227_" filterUnits="userSpaceOnUse" x="23.5" y="479" width="39.4" height="4.3">
				<feColorMatrix  type="matrix" values="1 0 0 0 0  0 1 0 0 0  0 0 1 0 0  0 0 0 1 0"/>
			</filter>
		</defs>
		
			<mask maskUnits="userSpaceOnUse" x="23.5" y="479" width="39.4" height="4.3" id="mask-4_00000005945777393578285110000004983716860597906821_">
			<g style="filter:url(#Adobe_OpacityMaskFilter_00000105421089084801109600000009249329128387693227_);">
				<polygon id="path-3_00000121261806115649480060000007580223209026203782_" class="st2" points="-302.2,486.4 265.1,486.4 
					265.1,214 -302.2,214 				"/>
			</g>
		</mask>
		<polygon id="Fill-45" class="st55" points="23.5,483.3 62.9,483.3 62.9,479 23.5,479 		"/>
	</g>
</g>
</svg>
