<?xml version="1.0" encoding="UTF-8"?> <svg xmlns="http://www.w3.org/2000/svg" xmlns:xlink="http://www.w3.org/1999/xlink" width="569px" height="275px" viewBox="0 0 569 275"><title>logo-BPTW21</title><defs><polygon id="path-1" points="0.0850725435 0.790002533 93.5666924 0.790002533 93.5666924 187.233016 0.0850725435 187.233016"></polygon><polygon id="path-3" points="0 272.436118 567.261681 272.436118 567.261681 0 0 0"></polygon></defs><g id="logo-BPTW21" stroke="none" stroke-width="1" fill="none" fill-rule="evenodd"><g id="Group-47" transform="translate(1.000000, 1.000000)"><path d="M255.691447,153.927081 L255.691447,232.86291 L298.306084,232.86291 L298.306084,86.1165172 C298.253739,117.466975 278.821771,132.127521 255.691447,153.927081" id="Fill-1" fill="#00A1DF"></path><path d="M298.306084,54.6464724 L298.306084,3.04465044 L274.336231,3.04465044 C273.991964,4.33716223 273.585286,5.5773293 273.170555,6.80944335 C289.57861,14.7034289 298.269845,29.8995021 298.306084,54.6464724" id="Fill-3" fill="#00A1DF"></path><path d="M171.983994,98.1682837 L171.983994,207.697585 C172.010167,178.86974 192.166908,158.866006 214.600645,137.815378 L214.600645,98.1682837 L171.983994,98.1682837 Z" id="Fill-5" fill="#00A1DF"></path><path d="M126.325915,54.7918296 L126.325915,63.1629574 C126.325915,44.137667 135.077548,38.8105857 149.156263,38.8105857 C163.232965,38.8105857 171.984598,44.137667 171.984598,63.1629574 L171.984598,69.0396582 C171.994665,63.3099252 172.008758,58.0633743 172.038956,54.7918296 C172.238269,32.5855912 179.387349,18.0498668 192.749344,9.56800979 C182.111287,2.97257579 167.881578,0.00100662912 150.678286,0.00100662912 L147.632227,0.00100662912 C130.587982,0.00100662912 116.466989,2.92224434 105.859132,9.3888298 C119.271458,17.8445144 126.325915,32.4265438 126.325915,54.7918296" id="Fill-7" fill="#00A1DF"></path><g id="Group-11" transform="translate(83.623588, 85.203102)"><mask id="mask-2" fill="white"><use xlink:href="#path-1"></use></mask><g id="Clip-10"></g><path d="M88.3583933,124.114149 C88.3443005,143.103201 79.5966935,148.420216 65.5320714,148.420216 C51.4533565,148.420216 42.701723,143.095148 42.701723,124.069858 L42.701723,0.790002533 C42.701723,32.2250167 23.2476086,46.8956295 0.0850725435,68.7213621 L0.0850725435,130.918962 C0.0850725435,137.055373 0.648784851,142.620019 1.72990453,147.659204 L42.701723,147.659204 L42.701723,184.187762 L37.4954372,184.187762 C45.28272,186.255378 54.1591756,187.233822 64.0080349,187.233822 L67.0540946,187.233822 C76.9049672,187.233822 85.7773963,186.255378 93.5666924,184.187762 L88.3583933,184.187762 L88.3583933,124.114149 Z" id="Fill-9" fill="#00A1DF" mask="url(#mask-2)"></path></g><path d="M226.395117,126.705817 C222.457184,130.476649 218.495092,134.160912 214.60145,137.816989 L214.60145,208.490406 C214.61353,194.039238 229.066711,179.584044 251.125981,158.285785 C252.660084,156.797988 254.18412,155.348442 255.692051,153.927081 L255.692051,85.2467897 C255.683998,99.3154383 246.553872,107.30606 226.395117,126.705817" id="Fill-12" fill="#F5C131"></path><path d="M214.598632,232.86291 L214.598632,216.193132 C214.576486,246.534947 200.96686,263.073864 177.19028,269.391468 L255.691246,269.391468 L255.691246,232.86291 L214.598632,232.86291 Z" id="Fill-14" fill="#F5C131"></path><path d="M214.600645,56.3136515 L214.600645,59.3093798 C214.614738,41.0893927 222.59932,36.5273496 234.765439,36.5273496 C246.935585,36.5273496 255.683193,41.091406 255.691246,59.3375654 L255.691246,34.2443147 C262.880591,26.7107024 269.42972,17.9208169 273.170354,6.80964467 C263.412091,2.11673971 250.927877,0.000805303296 235.906957,0.000805303296 L235.145945,0.000805303296 C217.445379,0.000805303296 203.199563,2.93412256 192.74874,9.56780846 C206.819402,18.2872299 214.600645,33.3484148 214.600645,56.3136515" id="Fill-16" fill="#F5C131"></path><path d="M255.691447,59.3373641 L255.691447,59.3574967 L255.691447,85.2318916 L255.691447,85.2459844 L255.691447,153.926276 C278.821771,132.126716 298.253739,117.466169 298.306084,86.1177252 L298.306084,54.6464724 C298.269845,29.8995021 289.57861,14.7034289 273.170555,6.80944335 C269.429921,17.9206156 262.880792,26.710501 255.691447,34.2441134 L255.691447,59.3373641 Z" id="Fill-18" fill="#007549"></path><mask id="mask-4" fill="white"><use xlink:href="#path-3"></use></mask><g id="Clip-21"></g><polygon id="Fill-20" fill="#007549" mask="url(#mask-4)" points="255.69185 269.390059 298.306487 269.390059 298.306487 232.861501 255.69185 232.861501"></polygon><path d="M214.598632,216.192729 L214.598632,208.512149 C214.598632,208.504096 214.600645,208.498056 214.600645,208.490003 L214.600645,137.816586 C192.166908,158.865201 172.010167,178.870948 171.983994,207.69678 L171.983994,209.271148 C171.983994,209.287254 171.981981,209.301347 171.981981,209.317453 L171.981981,269.391065 L177.19028,269.391065 C200.96686,263.073461 214.576486,246.534544 214.598632,216.192729" id="Fill-22" fill="#007549" mask="url(#mask-4)"></path><path d="M172.039158,54.7918296 C172.008959,58.0633743 171.994866,63.3099252 171.9848,69.0396582 L171.9848,98.1674784 L214.60145,98.1674784 L214.599437,59.3578993 C214.599437,59.33978 214.60145,59.3256872 214.60145,59.3095811 L214.60145,56.3138529 C214.60145,33.3486161 206.818194,18.2874312 192.749545,9.56800979 C179.38755,18.0498668 172.23847,32.5855912 172.039158,54.7918296" id="Fill-23" fill="#007549" mask="url(#mask-4)"></path><path d="M85.3528884,232.86291 L42.6154425,232.86291 L42.6154425,208.510539 C42.6154425,194.053331 57.0746631,179.594111 79.144,158.285785 C80.6781028,156.797988 82.2021392,155.346428 83.7100697,153.925068 L83.7100697,85.2306836 C83.7100697,99.3093985 74.575917,107.30002 54.4111225,126.705817 C27.775716,152.199706 -0.00120795494,173.886523 -0.00120795494,207.749527 L-0.00120795494,269.391468 L121.120434,269.391468 C102.127356,264.346243 89.6290489,252.776048 85.3528884,232.86291" id="Fill-24" fill="#F5C131" mask="url(#mask-4)"></path><path d="M105.859132,9.38842715 C95.541183,2.88358978 81.4624682,0.000603977472 63.9249756,0.000603977472 L63.163964,0.000603977472 C22.8303484,0.000603977472 0.761011615,15.218823 0.761011615,54.791427 L0.761011615,98.169089 L42.6166504,98.169089 L42.6166504,59.3574967 C42.6166504,41.0952312 50.6072724,36.5271482 62.7834582,36.5271482 C74.9576308,36.5271482 83.7092644,41.0952312 83.7092644,59.3574967 L83.7092644,56.3134502 C83.7092644,33.1871528 91.6032499,18.079663 105.859132,9.38842715" id="Fill-25" fill="#F5C131" mask="url(#mask-4)"></path><path d="M126.325915,232.86291 L85.3520831,232.86291 C89.6282436,252.776048 102.126551,264.346243 121.119629,269.391468 L126.325915,269.391468 L126.325915,232.86291 Z" id="Fill-26" fill="#007549" mask="url(#mask-4)"></path><path d="M126.325915,85.9925005 L126.325915,63.1621521 L126.325915,54.7910243 C126.325915,32.4277518 119.271458,17.8437091 105.859132,9.3880245 C91.6032499,18.0812736 83.7092644,33.1867502 83.7092644,56.3130476 L83.7092644,59.357094 L83.7092644,85.2314889 L83.7092644,153.925873 C106.8718,132.098127 126.325915,117.429528 126.325915,85.9925005" id="Fill-27" fill="#007549" mask="url(#mask-4)"></path><path d="M353.403325,60.9515945 L343.077323,60.9515945 L343.077323,92.8234857 L353.403325,92.8234857 C358.339834,92.8234857 361.48253,90.2787273 361.48253,84.7442804 L361.48253,69.0348264 C361.48253,63.496353 358.339834,60.9515945 353.403325,60.9515945 L353.403325,60.9515945 Z M343.077323,46.291048 L352.803374,46.291048 C357.741896,46.291048 360.884593,43.7462896 360.884593,38.2078162 L360.884593,26.0900149 C360.884593,20.555568 357.741896,18.0087963 352.803374,18.0087963 L343.077323,18.0087963 L343.077323,46.291048 Z M366.570034,53.3213458 C375.696133,54.8192099 378.840843,61.851521 378.840843,69.928713 L378.840843,87.1380445 C378.840843,100.304753 368.665836,107.788034 352.803374,107.788034 L325.721024,107.788034 L325.721024,3.04626104 L353.105363,3.04626104 C368.963798,3.04626104 378.240892,10.5275287 378.240892,23.6962508 L378.240892,36.8629597 C378.240892,44.3442273 374.949215,52.2764648 366.570034,53.3213458 L366.570034,53.3213458 Z" id="Fill-28" fill="#000000" mask="url(#mask-4)"></path><polygon id="Fill-29" fill="#000000" mask="url(#mask-4)" points="390.963275 107.785417 390.963275 3.04364381 436.897775 3.04364381 436.897775 18.3061545 408.319574 18.3061545 408.319574 47.0353496 432.261241 47.0353496 432.261241 62.2978603 408.319574 62.2978603 408.319574 92.5229063 437.348744 92.5229063 437.348744 107.785417"></polygon><path d="M480.293757,40.4552164 L480.293757,25.7926566 C480.293757,19.2072889 476.555137,16.8135249 471.46562,16.8135249 C466.38013,16.8135249 462.637483,19.2072889 462.637483,25.7926566 L462.637483,32.9739488 C462.637483,38.3594146 464.433309,40.7551919 469.371831,43.5958992 L481.640627,50.4812424 C491.66464,56.1646704 497.65207,60.8052307 497.65207,72.0291454 L497.65207,87.1386484 C497.65207,103.299072 487.628057,108.986527 471.765595,108.986527 L471.46562,108.986527 C455.605172,108.986527 445.581159,103.448053 445.581159,87.1386484 L445.581159,68.8864492 L462.637483,68.8864492 L462.637483,84.7468977 C462.637483,91.181271 466.38013,94.0219784 471.614601,94.0219784 C476.853099,94.0219784 480.593733,91.181271 480.593733,84.7468977 L480.593733,76.5146847 C480.593733,71.1272057 478.946888,68.4374927 473.710403,65.5927588 L461.590588,58.7094288 C451.415581,52.8750065 445.581159,48.0894916 445.581159,37.1635392 L445.581159,23.3968793 C445.581159,7.83640637 456.952041,1.85098963 471.316639,1.85098963 L471.614601,1.85098963 C485.979199,1.85098963 497.352094,7.83640637 497.352094,23.3968793 L497.352094,40.4552164 L480.293757,40.4552164 Z" id="Fill-30" fill="#000000" mask="url(#mask-4)"></path><polygon id="Fill-31" fill="#000000" mask="url(#mask-4)" points="555.712223 18.3103824 538.206943 18.3103824 538.206943 107.789645 520.84863 107.789645 520.84863 18.3103824 503.341336 18.3103824 503.341336 3.04787165 555.712223 3.04787165"></polygon><path d="M348.472453,140.089957 C348.472453,135.37088 346.018291,134.050183 342.430665,134.050183 L336.672746,134.050183 L336.672746,155.290057 L342.430665,155.290057 C346.018291,155.290057 348.472453,153.96936 348.472453,149.248269 L348.472453,140.089957 Z M359.422564,138.392781 L359.422564,150.949472 C359.422564,160.953353 352.813038,164.917458 342.809157,164.917458 L336.672746,164.917458 L336.672746,190.501944 L325.720621,190.501944 L325.720621,124.420769 L342.809157,124.420769 C352.813038,124.420769 359.422564,128.384874 359.422564,138.392781 L359.422564,138.392781 Z" id="Fill-32" fill="#000000" mask="url(#mask-4)"></path><polygon id="Fill-33" fill="#000000" mask="url(#mask-4)" points="395.113606 190.501944 367.264205 190.501944 367.264205 124.420769 378.21633 124.420769 378.21633 180.685297 395.113606 180.685297"></polygon><path d="M424.950698,166.712479 L420.322217,137.353134 L415.697763,166.712479 L424.950698,166.712479 Z M426.364005,175.774154 L414.280429,175.774154 L411.92089,190.501138 L401.349271,190.501138 L413.622093,124.421976 L427.404859,124.421976 L439.864915,190.501138 L428.725557,190.501138 L426.364005,175.774154 Z" id="Fill-34" fill="#000000" mask="url(#mask-4)"></path><path d="M478.388611,177.284098 C478.388611,187.479238 471.779084,191.25611 461.773191,191.25611 L461.581931,191.25611 C451.578051,191.25611 444.968524,187.573861 444.968524,177.284098 L444.968524,137.637004 C444.968524,127.818343 451.578051,123.664991 461.581931,123.664991 L461.773191,123.664991 C471.779084,123.664991 478.388611,127.818343 478.388611,137.637004 L478.388611,149.722593 L467.436486,149.722593 L467.436486,139.33418 C467.436486,134.709726 465.171571,133.292392 461.678568,133.292392 C458.185565,133.292392 455.920649,134.709726 455.920649,139.33418 L455.920649,175.584908 C455.920649,180.213389 458.185565,181.626696 461.678568,181.626696 C465.171571,181.626696 467.436486,180.213389 467.436486,175.584908 L467.436486,163.595955 L478.388611,163.595955 L478.388611,177.284098 Z" id="Fill-35" fill="#000000" mask="url(#mask-4)"></path><polygon id="Fill-36" fill="#000000" mask="url(#mask-4)" points="487.074612 190.501944 487.074612 124.420769 516.057478 124.420769 516.057478 134.048169 498.026737 134.048169 498.026737 152.173533 513.130201 152.173533 513.130201 161.804961 498.026737 161.804961 498.026737 180.874543 516.341347 180.874543 516.341347 190.501944"></polygon><path d="M544.761306,148.020987 L544.761306,138.770065 C544.761306,134.6147 542.399754,133.10677 539.190621,133.10677 C535.9835,133.10677 533.621948,134.6147 533.621948,138.770065 L533.621948,143.30191 C533.621948,146.698276 534.755413,148.210233 537.869923,150.004046 L545.610901,154.346644 C551.934545,157.932257 555.711418,160.859535 555.711418,167.942177 L555.711418,177.474955 C555.711418,187.668081 549.387773,191.257721 539.379867,191.257721 L539.190621,191.257721 C529.18674,191.257721 522.861083,187.762705 522.861083,177.474955 L522.861083,165.957105 L533.621948,165.957105 L533.621948,175.962998 C533.621948,180.02374 535.9835,181.81554 539.285244,181.81554 C542.589,181.81554 544.950552,180.02374 544.950552,175.962998 L544.950552,170.770805 C544.950552,167.372425 543.911711,165.675248 540.607954,163.879422 L532.963613,159.538837 C526.541319,155.858601 522.861083,152.834687 522.861083,145.943304 L522.861083,137.260122 C522.861083,127.439448 530.036335,123.664589 539.098011,123.664589 L539.285244,123.664589 C548.346919,123.664589 555.524185,127.439448 555.524185,137.260122 L555.524185,148.020987 L544.761306,148.020987 Z" id="Fill-37" fill="#000000" mask="url(#mask-4)"></path><polygon id="Fill-38" fill="#000000" mask="url(#mask-4)" points="424.527913 269.388649 414.838101 269.388649 406.8354 226.711601 398.832698 269.388649 388.78654 269.388649 379.006131 207.150784 389.142887 207.150784 394.298841 251.607553 402.299529 207.150784 411.548437 207.150784 419.549126 251.607553 424.707093 207.150784 434.306309 207.150784"></polygon><path d="M456.978012,261.032822 C460.358273,261.032822 462.66748,259.786615 462.66748,255.343355 L462.66748,221.200508 C462.66748,216.755234 460.358273,215.51104 456.978012,215.51104 C453.597752,215.51104 451.286531,216.755234 451.286531,221.200508 L451.286531,255.343355 C451.286531,259.786615 453.597752,261.032822 456.978012,261.032822 M456.621666,206.443325 L457.334359,206.443325 C466.758421,206.443325 472.981402,210.173893 472.981402,219.599968 L472.981402,256.943895 C472.981402,266.36393 466.758421,270.100537 457.334359,270.100537 L456.621666,270.100537 C447.197604,270.100537 440.974623,266.36393 440.974623,256.943895 L440.974623,219.599968 C440.974623,210.085309 447.197604,206.443325 456.621666,206.443325" id="Fill-39" fill="#000000" mask="url(#mask-4)"></path><path d="M492.805755,235.694155 L498.229472,235.694155 C501.609733,235.694155 503.920953,234.447949 503.920953,230.004688 L503.920953,221.91139 C503.920953,217.464102 501.609733,216.221922 498.229472,216.221922 L492.805755,216.221922 L492.805755,235.694155 Z M505.875827,269.388045 L497.963722,244.582691 L492.805755,244.582691 L492.805755,269.388045 L482.493846,269.388045 L482.493846,207.15018 L498.585819,207.15018 C508.011894,207.15018 514.234875,210.886787 514.234875,220.310849 L514.234875,231.424035 C514.234875,237.383279 511.744475,241.113847 507.476367,242.984164 L516.366916,269.388045 L505.875827,269.388045 Z" id="Fill-40" fill="#000000" mask="url(#mask-4)"></path><polygon id="Fill-41" fill="#000000" mask="url(#mask-4)" points="546.15126 269.388649 537.615045 242.360657 532.99059 251.430386 532.99059 269.388649 522.678682 269.388649 522.678682 207.150784 532.99059 207.150784 532.99059 235.159233 544.727886 207.150784 555.575321 207.150784 543.660859 230.534779 556.642348 269.388649"></polygon><polygon id="Fill-42" fill="#000000" mask="url(#mask-4)" points="343.25449 227.729504 338.281742 227.729504 338.281742 253.150916 333.351273 253.150916 333.351273 227.729504 328.376512 227.729504 328.376512 223.39496 343.25449 223.39496"></polygon><path d="M353.291388,249.155807 C354.906021,249.155807 356.0113,248.559882 356.0113,246.433881 L356.0113,230.110384 C356.0113,227.98237 354.906021,227.390472 353.291388,227.390472 C351.672728,227.390472 350.569463,227.98237 350.569463,230.110384 L350.569463,246.433881 C350.569463,248.559882 351.672728,249.155807 353.291388,249.155807 M353.120261,223.0519 L353.458488,223.0519 C357.966173,223.0519 360.941769,224.83766 360.941769,229.347359 L360.941769,247.19892 C360.941769,251.706605 357.966173,253.490352 353.458488,253.490352 L353.120261,253.490352 C348.614589,253.490352 345.638993,251.706605 345.638993,247.19892 L345.638993,229.347359 C345.638993,224.795382 348.614589,223.0519 353.120261,223.0519" id="Fill-43" fill="#000000" mask="url(#mask-4)"></path><polygon id="Fill-44" fill="#000000" mask="url(#mask-4)" points="325.721024 211.472646 365.104382 211.472646 365.104382 207.15622 325.721024 207.15622"></polygon><polygon id="Fill-45" fill="#000000" mask="url(#mask-4)" points="325.721024 269.386032 365.104382 269.386032 365.104382 265.069606 325.721024 265.069606"></polygon><path d="M564.512376,266.765978 C564.542575,266.747858 564.564721,266.731752 564.584853,266.719673 C564.606999,266.707593 564.629145,266.69954 564.649278,266.69954 C564.689543,266.69954 564.717728,266.70558 564.731821,266.71766 C564.745914,266.725713 564.766047,266.743832 564.788192,266.765978 L565.124407,267.118298 C564.913014,267.361902 564.655317,267.551149 564.351315,267.684024 C564.047313,267.816899 563.6809,267.885349 563.25409,267.885349 C562.893716,267.885349 562.565555,267.820925 562.27162,267.698116 C561.973657,267.571281 561.719987,267.396128 561.510608,267.172656 C561.299216,266.949184 561.134129,266.683434 561.021386,266.375406 C560.904617,266.065364 560.846233,265.727137 560.846233,265.360724 C560.846233,264.988271 560.908644,264.64803 561.035479,264.337988 C561.162314,264.027947 561.339481,263.762196 561.562953,263.536712 C561.786424,263.315253 562.052174,263.144126 562.360203,263.021317 C562.666218,262.896495 562.998406,262.836098 563.360792,262.836098 C563.755391,262.836098 564.093618,262.898509 564.375474,263.023331 C564.653304,263.148153 564.896908,263.311227 565.106287,263.514566 L564.852617,263.872926 C564.834497,263.893058 564.810338,263.915204 564.782153,263.939363 C564.751954,263.959496 564.715715,263.969562 564.671423,263.969562 C564.621092,263.969562 564.564721,263.951443 564.50835,263.911178 C564.451978,263.870912 564.377488,263.824607 564.286891,263.776289 C564.194281,263.725958 564.077512,263.679653 563.938597,263.637374 C563.799683,263.595096 563.620503,263.574963 563.403071,263.574963 C563.145374,263.574963 562.913849,263.617242 562.706483,263.699785 C562.499118,263.782329 562.321951,263.899098 562.176996,264.054119 C562.032042,264.207127 561.919299,264.39436 561.840782,264.615818 C561.762265,264.837276 561.722,265.084907 561.722,265.360724 C561.722,265.64258 561.762265,265.894237 561.840782,266.117709 C561.919299,266.34118 562.030029,266.5264 562.168943,266.677394 C562.307858,266.828389 562.474959,266.943145 562.670245,267.021662 C562.865531,267.100179 563.076923,267.142457 563.304421,267.142457 C563.479575,267.142457 563.630569,267.130378 563.751364,267.108232 C563.87216,267.086086 563.976849,267.0579 564.063419,267.019648 C564.152003,266.981396 564.23052,266.943145 564.300984,266.89684 C564.367421,266.854561 564.437885,266.808256 564.512376,266.765978 M559.761087,265.372803 C559.761087,265.698951 559.799338,266.013019 559.881882,266.312995 C559.962412,266.614983 560.079181,266.89684 560.228162,267.158563 C560.379157,267.4223 560.558337,267.659864 560.769729,267.87327 C560.977095,268.086675 561.210633,268.269882 561.46833,268.420876 C561.726027,268.573884 562.003856,268.692666 562.299805,268.77521 C562.599781,268.857753 562.909822,268.900032 563.231944,268.900032 C563.717139,268.900032 564.172135,268.807422 564.596933,268.624215 C565.02173,268.438995 565.39217,268.189351 565.706238,267.871257 C566.018293,267.553162 566.267937,267.180709 566.44913,266.751885 C566.632337,266.323061 566.722934,265.864038 566.722934,265.372803 C566.722934,265.044642 566.680655,264.72856 566.598112,264.422545 C566.515568,264.118543 566.398799,263.834674 566.247805,263.570937 C566.09681,263.309213 565.915617,263.069636 565.706238,262.852204 C565.492833,262.634772 565.259295,262.449552 565.001598,262.298558 C564.743901,262.14555 564.468084,262.026768 564.166096,261.942211 C563.868133,261.857654 563.556078,261.815376 563.231944,261.815376 C562.746749,261.815376 562.293765,261.909999 561.870981,262.095219 C561.45021,262.278425 561.081784,262.532096 560.769729,262.85623 C560.455661,263.176338 560.210043,263.552818 560.02885,263.985668 C559.851683,264.416505 559.761087,264.879555 559.761087,265.372803 M559.209454,265.372803 C559.209454,265.00035 559.257772,264.64199 559.352395,264.297723 C559.447018,263.955469 559.58392,263.633348 559.759073,263.335386 C559.932214,263.033397 560.141592,262.76362 560.389223,262.520016 C560.634841,262.274399 560.906631,262.063007 561.202579,261.887853 C561.502555,261.710686 561.82065,261.575798 562.162904,261.479162 C562.505158,261.384539 562.861504,261.33622 563.231944,261.33622 C563.604397,261.33622 563.962757,261.384539 564.302997,261.479162 C564.647264,261.575798 564.969386,261.710686 565.267348,261.887853 C565.563297,262.063007 565.835087,262.274399 566.082717,262.520016 C566.328335,262.76362 566.539727,263.033397 566.714881,263.335386 C566.888021,263.633348 567.022909,263.955469 567.119545,264.297723 C567.214169,264.64199 567.262487,265.00035 567.262487,265.372803 C567.262487,265.739216 567.214169,266.09355 567.119545,266.437817 C567.022909,266.782084 566.888021,267.102192 566.714881,267.398141 C566.539727,267.698116 566.328335,267.969906 566.082717,268.21351 C565.835087,268.457115 565.563297,268.666494 565.267348,268.84366 C564.969386,269.020827 564.647264,269.155715 564.302997,269.250338 C563.962757,269.346975 563.604397,269.395293 563.231944,269.395293 C562.861504,269.395293 562.505158,269.346975 562.162904,269.250338 C561.82065,269.155715 561.502555,269.020827 561.202579,268.84366 C560.906631,268.666494 560.634841,268.457115 560.389223,268.21351 C560.141592,267.969906 559.932214,267.698116 559.759073,267.398141 C559.58392,267.102192 559.447018,266.782084 559.352395,266.441843 C559.257772,266.099589 559.209454,265.741229 559.209454,265.372803" id="Fill-46" fill="#000000" mask="url(#mask-4)"></path></g></g></svg> 