<svg id="Layer_1" data-name="Layer 1" xmlns="http://www.w3.org/2000/svg" viewBox="0 0 171.73 200"><defs><style>.cls-1{fill:#ffffff;}</style></defs><path class="cls-1" d="M120.87,107.07a5.43,5.43,0,0,0,5.78-.78l57.29-48.36a5.42,5.42,0,0,0,0-8.29L126.65,1.28a5.42,5.42,0,0,0-8.92,4.14V20.55H19.56A5.43,5.43,0,0,0,14.13,26V81.59A5.43,5.43,0,0,0,19.56,87h98.17v15.13A5.44,5.44,0,0,0,120.87,107.07ZM25,76.17V31.4h98.17A5.42,5.42,0,0,0,128.57,26V17.1L172,53.78,128.57,90.47V81.59a5.42,5.42,0,0,0-5.42-5.42Z" transform="translate(-14.13)"/><path class="cls-1" d="M16.06,150.36l57.29,48.36A5.41,5.41,0,0,0,76.84,200a5.56,5.56,0,0,0,2.29-.5,5.44,5.44,0,0,0,3.14-4.92V179.45h98.17a5.44,5.44,0,0,0,5.43-5.43V118.4a5.43,5.43,0,0,0-5.43-5.42H82.27V97.85a5.42,5.42,0,0,0-8.92-4.14L16.06,142.07a5.42,5.42,0,0,0,0,8.29Zm55.36-40.83v8.87a5.43,5.43,0,0,0,5.42,5.43H175V168.6H76.84A5.42,5.42,0,0,0,71.42,174v8.88L28,146.21Z" transform="translate(-14.13)"/></svg>