<svg id="Layer_1" data-name="Layer 1" xmlns="http://www.w3.org/2000/svg" viewBox="0 0 198.32 199.87"><defs><style>.cls-1{fill:#ffffff;}</style></defs><path class="cls-1" d="M174.12,89.89a4.18,4.18,0,0,0,.72-1.31l22.75-68.26a13.89,13.89,0,0,0,.89-2.76,2.1,2.1,0,0,0,.06-.24,14.46,14.46,0,0,0-17.39-17l-.47.11a14.93,14.93,0,0,0-1.82.61L112.5,22.94a16.46,16.46,0,0,0-8.22,4.33L56.06,75.49,16.74,69.24a2.63,2.63,0,0,0-.84,0A13.3,13.3,0,0,0,4.44,73a13.49,13.49,0,0,0-.22,18.82,3.17,3.17,0,0,0,.3.34L22,109.6l-4.78,4.78a17.12,17.12,0,0,0,0,24.18l5.67,5.67-.59,1.13a4.19,4.19,0,0,0,.77,4.86l24.9,24.9a4.18,4.18,0,0,0,4.85.77l1.14-.58,5.89,5.89a17,17,0,0,0,12.09,5h0a17,17,0,0,0,12.08-5l3.78-3.78,17.64,17.64a2.43,2.43,0,0,0,.48.38c.15.18.29.34.45.51a13.35,13.35,0,0,0,9.5,3.92h0a13.44,13.44,0,0,0,12.85-17.38,2.07,2.07,0,0,0,0-.5l-6.22-39.26,48.64-48.64A16.24,16.24,0,0,0,174.12,89.89ZM8.89,88.67a2.64,2.64,0,0,0-.32-.41A2.1,2.1,0,0,0,8.22,88a7.91,7.91,0,0,1,.16-11,7.79,7.79,0,0,1,7.28-2.1,2.55,2.55,0,0,0,1.1,0L51.2,80.36l-25.31,25.3ZM123,181.79a2.75,2.75,0,0,0,.14,1.65,7.88,7.88,0,0,1-7.3,10.86h0A7.77,7.77,0,0,1,110.3,192a2.69,2.69,0,0,1-.3-.37l-.3-.4a2.75,2.75,0,0,0-1-.81L92.05,173.81l25.65-25.64Zm44-96.3a8.85,8.85,0,0,1-1.77,2.7L78.09,175.3a8.66,8.66,0,0,1-6.17,2.55h0a9,9,0,0,1-2.54-.37,8.83,8.83,0,0,1-2.3-1.09,9.33,9.33,0,0,1-1.34-1.1l-8-8a4.2,4.2,0,0,0-3-1.22,4.31,4.31,0,0,0-1.9.45l-1.14.58-20.6-20.6.58-1.13a4.17,4.17,0,0,0-.76-4.86l-7.82-7.82a8.75,8.75,0,0,1,0-12.36l87.11-87.11a8.34,8.34,0,0,1,4.32-2.12,2.77,2.77,0,0,0,.41-.12l66.7-22,.31-.11a6.86,6.86,0,0,1,.76-.27l.21,0a6.11,6.11,0,0,1,5.78,1.59,6.17,6.17,0,0,1,1.69,5.43l0,.14a6.76,6.76,0,0,1-.44,1.36,3.07,3.07,0,0,0-.17.42L167.24,85A4.39,4.39,0,0,0,167,85.49Z" transform="translate(-0.51 0)"/><path class="cls-1" d="M88.53,101.07a15.08,15.08,0,0,0-10.74-4.45h0a15.09,15.09,0,0,0-10.73,4.44L48.44,119.67a15.22,15.22,0,0,0,0,21.49l8.78,8.78A15.08,15.08,0,0,0,68,154.39h0a15.12,15.12,0,0,0,10.72-4.45l18.61-18.61a15.19,15.19,0,0,0,0-21.48Zm2.88,24.35L72.8,144h0A6.78,6.78,0,0,1,68,146h0a6.79,6.79,0,0,1-4.83-2l-8.78-8.78a6.84,6.84,0,0,1,0-9.67L73,107a6.79,6.79,0,0,1,4.83-2h0a6.79,6.79,0,0,1,4.83,2l8.79,8.78a6.83,6.83,0,0,1,0,9.66Z" transform="translate(-0.51 0)"/><path class="cls-1" d="M134.38,54.11a23.82,23.82,0,0,0-11.29-2.81h0a24,24,0,0,0,0,48h0a24,24,0,0,0,11.29-45.18Zm-.23,32.23a15.55,15.55,0,0,1-11.07,4.59h0a15.64,15.64,0,0,1,0-31.28h0a15.63,15.63,0,0,1,11.06,26.69Z" transform="translate(-0.51 0)"/></svg>