<svg id="Layer_1" data-name="Layer 1" xmlns="http://www.w3.org/2000/svg" viewBox="0 0 199.89 167.4"><defs><style>.cls-1{fill:#ffffff;}</style></defs><path class="cls-1" d="M196.48,117.36,189.21,116a49.84,49.84,0,0,0-2.43-11.69l6.13-4.17A4.25,4.25,0,0,0,194,94.2L183.26,78.35a4.25,4.25,0,0,0-5.91-1.13l-6.13,4.17a50.27,50.27,0,0,0-10-6.57l1.38-7.26a4.26,4.26,0,0,0-3.39-5L140.42,59a4.23,4.23,0,0,0-3.19.66,4.31,4.31,0,0,0-1.8,2.73l-1.38,7.26a50.87,50.87,0,0,0-11.69,2.43l-4.17-6.12a4.25,4.25,0,0,0-5.91-1.13L96.42,75.58a4.29,4.29,0,0,0-1.79,2.73,4.24,4.24,0,0,0,.67,3.19l4.16,6.13a49.79,49.79,0,0,0-6.56,10l-7.27-1.38a4.28,4.28,0,0,0-5,3.38l-3.59,18.83a4.26,4.26,0,0,0,3.39,5l7.27,1.39a49.84,49.84,0,0,0,2.43,11.69L84,140.65a4.27,4.27,0,0,0-1.13,5.92l10.77,15.86a4.33,4.33,0,0,0,2.73,1.79,4.25,4.25,0,0,0,3.19-.67l6.13-4.16a50.23,50.23,0,0,0,10,6.56l-1.38,7.27a4.28,4.28,0,0,0,3.38,5l18.83,3.59a4.33,4.33,0,0,0,.8.07,4.28,4.28,0,0,0,4.19-3.46l1.38-7.27a49.84,49.84,0,0,0,11.69-2.43l4.17,6.13a4.21,4.21,0,0,0,2.72,1.79,4.28,4.28,0,0,0,3.19-.66l15.85-10.77a4.25,4.25,0,0,0,1.13-5.92l-4.16-6.13a50.08,50.08,0,0,0,6.56-10l7.27,1.38a4.26,4.26,0,0,0,5-3.39l3.59-18.82a4.27,4.27,0,0,0-3.39-5Zm-7.78,18-6.36-1.21a4.24,4.24,0,0,0-4.73,2.55A42.18,42.18,0,0,1,169,149.82a4.26,4.26,0,0,0-.46,5.35l3.65,5.37-8.81,6-3.64-5.36a4.27,4.27,0,0,0-5.15-1.55,41.89,41.89,0,0,1-15.34,3.19,4.27,4.27,0,0,0-4.12,3.46l-1.21,6.37-10.45-2,1.21-6.36a4.28,4.28,0,0,0-2.55-4.74A41.86,41.86,0,0,1,109,150.92a4.27,4.27,0,0,0-5.36-.46l-5.37,3.65-6-8.8,5.37-3.65a4.26,4.26,0,0,0,1.55-5.15,41.85,41.85,0,0,1-3.19-15.34,4.27,4.27,0,0,0-3.47-4.12l-6.36-1.21,2-10.45,6.37,1.21a4.26,4.26,0,0,0,4.73-2.55A42.15,42.15,0,0,1,107.92,91a4.26,4.26,0,0,0,.47-5.36l-3.65-5.36,8.8-6,3.65,5.37a4.26,4.26,0,0,0,5.15,1.54A42.09,42.09,0,0,1,137.68,78a4.26,4.26,0,0,0,4.11-3.47L143,68.15l10.45,2-1.21,6.36a4.25,4.25,0,0,0,2.55,4.73,42.21,42.21,0,0,1,13.09,8.61,4.24,4.24,0,0,0,5.35.46l5.38-3.64,6,8.8-5.37,3.65a4.26,4.26,0,0,0-1.55,5.15,41.85,41.85,0,0,1,3.19,15.34,4.26,4.26,0,0,0,3.46,4.11l6.37,1.22Z" transform="translate(-0.05 -14.48)"/><path class="cls-1" d="M144.2,90.31a30.62,30.62,0,1,0-11.48,60.16h0A30.62,30.62,0,0,0,144.2,90.31Zm16,34.22a22.09,22.09,0,0,1-25.85,17.57h0a22.1,22.1,0,1,1,25.85-17.57Z" transform="translate(-0.05 -14.48)"/><path class="cls-1" d="M41.2,98.64l.79,5.5a3.2,3.2,0,0,0,3.17,2.75l.46,0,14.25-2a3.21,3.21,0,0,0,2.72-3.63l-.79-5.5a38.25,38.25,0,0,0,7.71-4.58L74,94.43a3.19,3.19,0,0,0,4.48-.64l8.64-11.53a3.2,3.2,0,0,0-.65-4.48L82,74.44a38,38,0,0,0,2.22-8.7L89.72,65a3.19,3.19,0,0,0,2.11-1.24,3.26,3.26,0,0,0,.61-2.38l-2-14.26a3.2,3.2,0,0,0-3.63-2.71l-5.5.79a37.64,37.64,0,0,0-4.59-7.72L80,33a3.2,3.2,0,0,0-.64-4.48L67.84,19.86a3.16,3.16,0,0,0-2.37-.61,3.21,3.21,0,0,0-2.11,1.25L60,25a37.51,37.51,0,0,0-8.69-2.23l-.8-5.51a3.19,3.19,0,0,0-3.62-2.71l-14.26,2a3.21,3.21,0,0,0-2.72,3.62l.79,5.5A37.84,37.84,0,0,0,23,30.27l-4.46-3.34a3.2,3.2,0,0,0-4.48.64L5.44,39.11a3.2,3.2,0,0,0,.64,4.48l4.46,3.33a37.59,37.59,0,0,0-2.23,8.7l-5.51.79A3.21,3.21,0,0,0,.09,60l2,14.26A3.2,3.2,0,0,0,5.76,77l5.5-.79a37.84,37.84,0,0,0,4.59,7.71l-3.34,4.46a3.22,3.22,0,0,0-.61,2.38,3.14,3.14,0,0,0,1.26,2.1l11.52,8.64a3.21,3.21,0,0,0,4.49-.64l3.33-4.46A38,38,0,0,0,41.2,98.64ZM28.89,90.56,26,94.46l-6.41-4.79,2.93-3.91a3.18,3.18,0,0,0-.16-4,31.62,31.62,0,0,1-6-10.13,3.19,3.19,0,0,0-3.46-2.08L8,70.21,6.89,62.29l4.81-.69a3.19,3.19,0,0,0,2.74-3,31.6,31.6,0,0,1,2.93-11.42,3.19,3.19,0,0,0-1-3.91l-3.9-2.93,4.8-6.4,3.9,2.92a3.21,3.21,0,0,0,4-.16,31.59,31.59,0,0,1,10.13-6,3.19,3.19,0,0,0,2.07-3.46l-.69-4.82,7.92-1.14.69,4.83a3.2,3.2,0,0,0,3,2.74,31.59,31.59,0,0,1,11.41,2.92,3.21,3.21,0,0,0,3.92-1l2.92-3.91L73,31.7,70,35.6a3.21,3.21,0,0,0,.16,4,31.41,31.41,0,0,1,6,10.13,3.2,3.2,0,0,0,3.46,2.07l4.82-.69,1.14,7.92-4.82.69a3.21,3.21,0,0,0-2.74,3,31.79,31.79,0,0,1-2.92,11.41,3.18,3.18,0,0,0,1,3.92L80,81l-4.8,6.41-3.9-2.93a3.21,3.21,0,0,0-4,.16,31.47,31.47,0,0,1-10.12,6A3.18,3.18,0,0,0,55.1,94.1l.69,4.82-7.91,1.14-.7-4.82a3.19,3.19,0,0,0-3-2.74A31.79,31.79,0,0,1,32.8,89.58a3.08,3.08,0,0,0-1.35-.3A3.18,3.18,0,0,0,28.89,90.56Z" transform="translate(-0.05 -14.48)"/><path class="cls-1" d="M49.53,83.47a23,23,0,1,0-3.28.23A22.81,22.81,0,0,0,49.53,83.47ZM29.82,63A16.61,16.61,0,0,1,43.9,44.24a15.93,15.93,0,0,1,2.37-.17A16.61,16.61,0,1,1,29.82,63Z" transform="translate(-0.05 -14.48)"/></svg>