<svg id="Layer_1" data-name="Layer 1" xmlns="http://www.w3.org/2000/svg" viewBox="0 0 215.23 189.75"><defs><style>.cls-1{fill:#ffffff;}</style></defs><path class="cls-1" d="M73.53,164.4a82.77,82.77,0,0,0,55.88,24.25c.92,0,1.85,0,2.77,0a83.31,83.31,0,0,0,58.74-24.29,83,83,0,0,0,0-117.37,82.1,82.1,0,0,0-61.51-24.19,85.11,85.11,0,0,0-13.67,1.57l-.44.12c-4.76,1.57-6.76,4.4-7.6,6.5-1.83,4.54.1,9.41,1.48,12l.3.5.32.55.12.3.08.1A29,29,0,0,1,69.61,82.69l-5.78-3.33v1.57a11.52,11.52,0,0,0-5.12.64C53.86,83.36,51.58,88,51,89.37l-.23.78A82.93,82.93,0,0,0,73.53,164.4ZM58.26,92.05a6.56,6.56,0,0,1,3.12-3.23c1.21-.44,2.75-.2,4.58.72l.76.38c.56.3,1.13.59,1.7.86l5.28,2.66-.19-.71a36.74,36.74,0,0,0,44.16-50.09l.29-.48-1.47-1.92c-.13-.22-.26-.45-.39-.66l-.16-.25c-1.14-2.17-1.55-4.24-1.08-5.41a4.07,4.07,0,0,1,2.66-2,76.44,76.44,0,0,1,12.15-1.38,75.16,75.16,0,0,1,77.83,75.15A75.25,75.25,0,1,1,58.26,92.05Z" transform="translate(0 -10.25)"/><path class="cls-1" d="M86.34,136.83a17.45,17.45,0,1,0-9-33.72h0a17.46,17.46,0,0,0,4.49,34.32A17.64,17.64,0,0,0,86.34,136.83ZM75,131.74a13.59,13.59,0,1,1,10.31,1.36A13.49,13.49,0,0,1,75,131.74Z" transform="translate(0 -10.25)"/><path class="cls-1" d="M101.23,164.1a17.48,17.48,0,0,0,32-4.21,17.46,17.46,0,0,0-33.73-9h0A17.34,17.34,0,0,0,101.23,164.1Zm2-12.25a13.62,13.62,0,0,1,16.65-9.61,13.41,13.41,0,0,1,5.75,3.19,13.59,13.59,0,1,1-22.4,6.42Z" transform="translate(0 -10.25)"/><path class="cls-1" d="M164.15,127.2a17.46,17.46,0,1,0,12.34,5.12A17.34,17.34,0,0,0,164.15,127.2Zm9.61,27.07a13.59,13.59,0,1,1-19.23-19.22h0a13.59,13.59,0,1,1,19.23,19.22Z" transform="translate(0 -10.25)"/><path class="cls-1" d="M162.81,103.35A17.46,17.46,0,1,0,175.15,82h0A17.49,17.49,0,0,0,162.81,103.35ZM176.15,85.7a13.59,13.59,0,1,1-9.61,16.65A13.62,13.62,0,0,1,176.15,85.7Z" transform="translate(0 -10.25)"/><path class="cls-1" d="M140.67,79.74a17.66,17.66,0,0,0,4.55.6,17.5,17.5,0,0,0,16.83-13,17.46,17.46,0,0,0-33.73-9,17.47,17.47,0,0,0,12.35,21.38Zm-8.62-20.38a13.6,13.6,0,1,1,1.36,10.31A13.47,13.47,0,0,1,132.05,59.36Z" transform="translate(0 -10.25)"/><path class="cls-1" d="M26.77,12.12l-1.23,1.49-.06,0L26.65,12l-2.33-1.78L22,12c-.9.68-22,16.81-22,37.5C0,63.44,4.84,70,11.22,72.92c-.26,1.42-.49,2.82-.69,4.17a237.75,237.75,0,0,0-1.79,50.44c4,56.29,7.13,71.09,15.29,72l4.28.47v-2c6.27-4.51,8.44-23.33,11.4-71a268.54,268.54,0,0,0-1.62-50.34l-.51-3.35h0c0-.16-.06-.31-.08-.47,6.32-3,11.14-9.48,11.14-23.4C48.61,29.55,29,13.87,26.77,12.12ZM32,126.6c-1.25,20.07-3.5,56.39-7.45,64-4.22-8.71-6.91-46.7-8.11-63.63a230.47,230.47,0,0,1,1.73-48.75c.17-1.08.34-2.17.53-3.28a48.25,48.25,0,0,0,5.74.32h0A46.64,46.64,0,0,0,30,75c.14.92.27,1.86.4,2.82l.46,3.34h0A264,264,0,0,1,32,126.6Zm8-74a6.77,6.77,0,0,0,.85-3c0,15.06-5.57,17.85-16.57,17.88s-16.59-2.79-16.59-18a23.22,23.22,0,0,1,.48-4.65,8.26,8.26,0,0,0,3.75,1c5.31.17,7.07-4.55,8.22-7.68.62-1.67,1.31-3.56,1.92-3.62,1,.48,2.53,4.63,3.56,7.38C28,48.11,30.55,55,35.54,55a5.73,5.73,0,0,0,1.21-.13A4.92,4.92,0,0,0,40,52.64ZM35.42,40.35c.94,3.41,2.36,8.55,1.31,10.28a1,1,0,0,1-.77.49c-2.57.53-4.95-5.86-6.69-10.52-2.06-5.5-3.7-9.87-7-9.87h-.19c-3.33.16-4.56,3.46-5.54,6.12-1.31,3.56-2.18,5.25-4.47,5.16a5.06,5.06,0,0,1-4.24-2.79c4.09-10.6,13.25-18.95,16.48-21.66a65.75,65.75,0,0,1,11.87,13A2.73,2.73,0,0,0,35,31.3C33.36,32.93,34.17,35.88,35.42,40.35Z" transform="translate(0 -10.25)"/></svg>