<svg xmlns="http://www.w3.org/2000/svg" fill="#ffffff" viewBox="0 0 64 64"><path d="M29.64,41.1c-4.32,0-7.84-3.52-7.84-7.84c0-4.32,3.52-7.84,7.84-7.84c4.32,0,7.84,3.52,7.84,7.84
			C37.48,37.59,33.96,41.1,29.64,41.1z M29.64,27.37c-3.25,0-5.9,2.65-5.9,5.9c0,3.25,2.65,5.9,5.9,5.9c3.25,0,5.9-2.65,5.9-5.9
			C35.54,30.01,32.89,27.37,29.64,27.37z"/><path d="M29.64,48.31c-8.29,0-15.04-6.75-15.04-15.04c0-8.29,6.75-15.04,15.04-15.04c8.29,0,15.04,6.75,15.04,15.04
			C44.68,41.56,37.94,48.31,29.64,48.31z M29.64,20.16c-7.23,0-13.1,5.88-13.1,13.1c0,7.22,5.88,13.1,13.1,13.1
			c7.22,0,13.1-5.88,13.1-13.1C42.75,26.04,36.87,20.16,29.64,20.16z"/><path d="M29.64,55.14c-12.06,0-21.87-9.81-21.87-21.87c0-12.06,9.81-21.87,21.87-21.87c12.06,0,21.87,9.81,21.87,21.87
			C51.51,45.32,41.7,55.14,29.64,55.14z M29.64,13.33c-10.99,0-19.93,8.94-19.93,19.93S18.65,53.2,29.64,53.2
			s19.93-8.94,19.93-19.93S40.63,13.33,29.64,13.33z"/><path d="M29.64 61.81c-15.74 0-28.55-12.81-28.55-28.55 0-15.74 12.81-28.55 28.55-28.55 15.74 0 28.55 12.81 28.55 28.55C58.19 49.01 45.39 61.81 29.64 61.81zM29.64 6.65c-14.67 0-26.61 11.94-26.61 26.61 0 14.67 11.94 26.61 26.61 26.61 14.67 0 26.61-11.94 26.61-26.61C56.25 18.59 44.32 6.65 29.64 6.65zM57.2 11.79c-.04 0-.08 0-.12-.01l-4.56-.55c-.44-.05-.79-.4-.85-.85l-.55-4.56c-.04-.3.07-.59.28-.8l4.74-4.74c.26-.26.65-.35 1-.23.35.12.6.43.65.8l.46 3.81 3.81.46c.37.05.68.3.8.65s.03.74-.23 1l-4.74 4.74C57.7 11.69 57.46 11.79 57.2 11.79zM53.51 9.4l3.34.41 2.99-2.99-2.58-.31c-.44-.05-.79-.4-.84-.85L56.1 3.06l-2.99 2.99L53.51 9.4z"/><path d="M29.64 34.24c-.25 0-.5-.09-.69-.28-.38-.38-.38-.99 0-1.37l23-23c.38-.38.99-.38 1.37 0 .38.38.38.99 0 1.37l-23 23C30.14 34.14 29.89 34.24 29.64 34.24zM13 64H7.04c-.35 0-.68-.19-.85-.5-.17-.31-.16-.69.03-.98l5.23-8.35c.28-.45.89-.59 1.34-.31.45.28.59.88.31 1.34l-4.3 6.86h3.69l3.33-5.02c.29-.45.9-.57 1.34-.27.45.3.57.9.27 1.34l-3.62 5.46C13.63 63.84 13.32 64 13 64zM52.26 64h-5.98c-.32 0-.63-.16-.81-.43l-3.62-5.46c-.3-.45-.17-1.05.27-1.34.45-.3 1.05-.17 1.34.27l3.33 5.02h3.7l-4.3-6.86c-.28-.45-.15-1.05.31-1.34.45-.28 1.05-.15 1.34.31l5.23 8.35c.19.3.2.68.03.98C52.94 63.81 52.61 64 52.26 64z"/></svg>