<svg xmlns="http://www.w3.org/2000/svg" fill="#ffffff" viewBox="0 0 70 70"><path d="M26.2944527,50.1178246c-0.4072266,0-0.7890625-0.25-0.9384766-0.6542969
				c-1.4306641-3.8867188-3.5429688-7.2988281-6.2763672-10.1416016c-3.9746084-4.1464844-6.156249-9.5800781-6.1455069-15.3037109
				C12.9555864,12.4947777,22.3169136,2.63345,33.8032417,2.0338407c6.1191406-0.326172,11.9414062,1.8095703,16.3779297,6.0156245
				c4.4394531,4.2099609,6.8847656,9.8964844,6.8847656,16.0126953c0,5.7050781-2.1787109,11.1210938-6.1347656,15.2490234
				c-1.9394531,2.0175781-3.5771484,4.3359375-4.8691406,6.890625c-0.5527344,1.0947266-1.0292969,2.1914062-1.4169922,3.2578125
				c-0.1875,0.5185547-0.7587891,0.7871094-1.28125,0.5976562c-0.5185547-0.1884766-0.7871094-0.7617188-0.5976562-1.28125
				c0.4140625-1.140625,0.921875-2.3095703,1.5107422-3.4755859c1.3818359-2.7333984,3.1357422-5.2138672,5.2119141-7.3740234
				c3.5957031-3.7529297,5.5771484-8.6767578,5.5771484-13.8642578c0-5.5625-2.2236328-10.7333984-6.2607422-14.5615234
				c-4.0341797-3.8242183-9.328125-5.7822261-14.8964844-5.4687495
				c-10.4443359,0.5439453-18.9550781,9.5117188-18.9746094,19.9902344
				c-0.0097656,5.203125,1.9746084,10.1445312,5.5878897,13.9140625c2.9257812,3.0419922,5.1835938,6.6884766,6.7109375,10.8359375
				c0.1904297,0.5185547-0.0742188,1.09375-0.5927734,1.2841797C26.525898,50.0982933,26.409687,50.1178246,26.2944527,50.1178246z"/><path d="M45.3266792,55.8775902H24.5864449c-0.5527344,0-1-0.4472656-1-1v-5.7626953c0-0.5527344,0.4472656-1,1-1h20.7402344
					c0.5527344,0,1,0.4472656,1,1v5.7626953C46.3266792,55.4303246,45.8794136,55.8775902,45.3266792,55.8775902z
					 M25.5864449,53.8775902h18.7402344v-3.7626953H25.5864449V53.8775902z"/><path d="M45.3266792,61.6393089H24.5864449c-0.5527344,0-1-0.4472656-1-1v-5.7617188c0-0.5527344,0.4472656-1,1-1h20.7402344
					c0.5527344,0,1,0.4472656,1,1v5.7617188C46.3266792,61.1920433,45.8794136,61.6393089,45.3266792,61.6393089z
					 M25.5864449,59.6393089h18.7402344v-3.7617188H25.5864449V59.6393089z"/><path d="M34.9526558 67.9986877c-4.0566406 0-7.3574219-3.3007812-7.3574219-7.3574257 0-.5527344.4472656-1 1-1s1 .4472656 1 1c0 2.9541016 2.4033203 5.3574257 5.3574219 5.3574257 2.9609375 0 5.3691406-2.4033241 5.3691406-5.3574257 0-.5527344.4472656-1 1-1s1 .4472656 1 1C42.3217964 64.6979065 39.0161324 67.9986877 34.9526558 67.9986877zM39.6645699 50.1119652h-9.2099609c-.4326172 0-.8164062-.2783203-.9501953-.6894531l-6.75-20.6806641c-.171875-.5253906.1152344-1.0898438.6396484-1.2607422.5302734-.1738281 1.0898438.1152344 1.2607422.6396484l6.5253906 19.9912109h7.7587891l6.5253906-19.9912109c.1708984-.5244141.7314453-.8154297 1.2607422-.6396484.5244141.1708984.8115234.7353516.6396484 1.2607422l-6.75 20.6806641C40.4809761 49.8336449 40.097187 50.1119652 39.6645699 50.1119652z"/><path d="M43.1460152,31.101223c-2.7802734,0-5.0419922-2.2617188-5.0419922-5.0410156c0-0.5527344,0.4472656-1,1-1
				s1,0.4472656,1,1c0,1.6767578,1.3642578,3.0410156,3.0419922,3.0410156c1.6767578,0,3.0410156-1.3642578,3.0410156-3.0410156
				c0-0.5527344,0.4472656-1,1-1s1,0.4472656,1,1C48.1870308,28.8395042,45.925312,31.101223,43.1460152,31.101223z"/><path d="M35.0620308,31.101223c-2.7792969,0-5.0410156-2.2617188-5.0410156-5.0410156c0-0.5527344,0.4472656-1,1-1
				s1,0.4472656,1,1c0,1.6767578,1.3642578,3.0410156,3.0410156,3.0410156c1.6777344,0,3.0419922-1.3642578,3.0419922-3.0410156
				c0-0.5527344,0.4472656-1,1-1s1,0.4472656,1,1C40.104023,28.8395042,37.8423042,31.101223,35.0620308,31.101223z"/><path d="M26.979023,31.101223c-2.7802734,0-5.0419922-2.2617188-5.0419922-5.0410156c0-0.5527344,0.4472656-1,1-1
				s1,0.4472656,1,1c0,1.6767578,1.3642578,3.0410156,3.0419922,3.0410156s3.0419922-1.3642578,3.0419922-3.0410156
				c0-0.5527344,0.4472656-1,1-1s1,0.4472656,1,1C32.0210152,28.8395042,29.7592964,31.101223,26.979023,31.101223z"/></svg>