<svg id="Layer_1" data-name="Layer 1" xmlns="http://www.w3.org/2000/svg" viewBox="0 0 183.17 200"><defs><style>.cls-1{fill:#ffffff;}</style></defs><path class="cls-1" d="M120.49,66.23,102,79.88,83.41,66.23a2.16,2.16,0,1,0-3.06,3L99.74,84V98.43a2.16,2.16,0,1,0,4.32,0V84l19.48-14.73a2.16,2.16,0,1,0-3.05-3Z" transform="translate(-9.55 -0.29)"/><path class="cls-1" d="M24.18,8A26.12,26.12,0,0,0,42.66,52.55h0a26.13,26.13,0,0,0,0-52.26A26,26,0,0,0,24.18,8ZM61.87,26.42a19.22,19.22,0,0,1-19.2,19.21h0a19.24,19.24,0,0,1-19.22-19.2,19.22,19.22,0,0,1,38.43,0Z" transform="translate(-9.55 -0.29)"/><path class="cls-1" d="M13,92.55h0l59.29,0a3.45,3.45,0,0,0,3.45-3.34c0-.93.59-23-13.28-35.7a3.48,3.48,0,0,0-4.44-.2c-.16.13-15.5,11.65-29.76,0a3.45,3.45,0,0,0-4.46.07C23.25,53.89,9.89,65.76,9.55,89A3.47,3.47,0,0,0,13,92.55Zm13.46-32c12.47,8.29,25.86,4.36,33.21-.07,7,8,8.68,19.49,9.06,25.11H16.63C17.69,72.44,23.42,64.13,26.47,60.58Z" transform="translate(-9.55 -0.29)"/><path class="cls-1" d="M159.62,52.55h0a26.17,26.17,0,0,0,26.12-26.14,26.13,26.13,0,1,0-26.13,26.14ZM146,12.85A19.2,19.2,0,1,1,173.2,40a19.07,19.07,0,0,1-13.57,5.63h0A19.2,19.2,0,0,1,146,12.85Z" transform="translate(-9.55 -0.29)"/><path class="cls-1" d="M192.72,89.19c0-.93.59-23-13.29-35.7a3.48,3.48,0,0,0-4.44-.2c-.15.13-15.49,11.65-29.76,0a3.44,3.44,0,0,0-4.45.07c-.57.49-13.93,12.36-14.26,35.64a3.48,3.48,0,0,0,1,2.48,3.44,3.44,0,0,0,2.46,1h0l59.28,0A3.45,3.45,0,0,0,192.72,89.19ZM133.6,85.63c1.06-13.19,6.79-21.5,9.84-25,12.47,8.29,25.85,4.36,33.21-.07,7,8,8.67,19.49,9,25.11Z" transform="translate(-9.55 -0.29)"/><path class="cls-1" d="M101.94,108a26.13,26.13,0,0,0,0,52.25h0a26.13,26.13,0,1,0,0-52.25Zm13.58,39.7A19,19,0,0,1,102,153.38h0a19.26,19.26,0,1,1,13.58-5.64Z" transform="translate(-9.55 -0.29)"/><path class="cls-1" d="M72.3,200.29h59.28a3.46,3.46,0,0,0,3.46-3.34c0-.94.59-23-13.28-35.71a3.48,3.48,0,0,0-4.45-.19c-.15.12-15.49,11.65-29.76,0a3.46,3.46,0,0,0-4.45.07c-.57.49-13.93,12.37-14.26,35.65a3.45,3.45,0,0,0,3.46,3.5Zm13.46-32c12.47,8.28,25.85,4.35,33.21-.07,7,8,8.68,19.48,9.05,25.11H75.92C77,180.19,82.71,171.88,85.76,168.33Z" transform="translate(-9.55 -0.29)"/></svg>