<svg id="Layer_1" data-name="Layer 1" xmlns="http://www.w3.org/2000/svg" viewBox="0 0 200 146.22"><defs><style>.cls-1{fill:#ffffff;}</style></defs><path class="cls-1" d="M34.8,130.53V79.71a3.07,3.07,0,0,0-3.07-3.07H3.07A3.07,3.07,0,0,0,0,79.71v50.82a3.08,3.08,0,0,0,3.07,3.07H31.73A3.08,3.08,0,0,0,34.8,130.53Zm-6.14-3.07H6.14V82.78H28.66Z" transform="translate(0 -26.89)"/><path class="cls-1" d="M98.25,27.67,42.48,77.42a3.07,3.07,0,0,0-1,2.29v50.82a3.06,3.06,0,0,0,1.36,2.54l55.76,37.79a3.08,3.08,0,0,0,1.72.53,3.07,3.07,0,0,0,3.07-3.07V30a3.07,3.07,0,0,0-5.11-2.29Zm-1,134.86L47.6,128.9V81.08L97.22,36.81Z" transform="translate(0 -26.89)"/><path class="cls-1" d="M156.7,163.91a9.21,9.21,0,0,0,15.63,6.6,91.11,91.11,0,0,0,0-130.79A9.21,9.21,0,0,0,159.5,52.94a72.72,72.72,0,0,1,0,104.36A9.14,9.14,0,0,0,156.7,163.91Zm7.07-2.21a78.82,78.82,0,0,0,0-113.17,3.07,3.07,0,0,1-.05-4.34,3,3,0,0,1,2.2-.93,3.07,3.07,0,0,1,2.14.87,85,85,0,0,1,0,122,3.08,3.08,0,0,1-4.34-.06,3,3,0,0,1-.87-2.14A3.1,3.1,0,0,1,163.77,161.7Z" transform="translate(0 -26.89)"/><path class="cls-1" d="M120.47,142.39a9.2,9.2,0,0,0,9,9.21h.21a9.12,9.12,0,0,0,6.36-2.55,60.72,60.72,0,0,0,0-87.87,9.26,9.26,0,0,0-6.57-2.55,9.22,9.22,0,0,0-6.16,15.88,42.28,42.28,0,0,1,0,61.22A9.26,9.26,0,0,0,120.47,142.39Zm7.09-2.22a48.44,48.44,0,0,0,0-70.11,3.06,3.06,0,0,1,2.05-5.28h.07a3.06,3.06,0,0,1,2.12.85,54.6,54.6,0,0,1,0,79,2.88,2.88,0,0,1-2.19.85,3.07,3.07,0,0,1-2.05-5.29Z" transform="translate(0 -26.89)"/></svg>