<svg id="Layer_1" data-name="Layer 1" xmlns="http://www.w3.org/2000/svg" viewBox="0 0 185.76 198.62"><defs><style>.cls-1{fill:#ffffff;}</style></defs><path class="cls-1" d="M59.91,173.33a93.25,93.25,0,0,1-11.2-5.79c-1.31-.8-2.32-1.47-3-1.94-.33-.22-.59-.4-.82-.57l-.14-.1a4.84,4.84,0,0,0-6.75.86,4.91,4.91,0,0,0,.7,6.77c18.19,15.11,34.81,23.62,50.79,26a65.92,65.92,0,0,0,9.78.74,67.67,67.67,0,0,0,14-1.48,89.69,89.69,0,0,0,19.49-6.66l3.84,5.55a4.87,4.87,0,0,0,8.53-1l10.57-26.85a4.85,4.85,0,0,0-.35-4.28,4.91,4.91,0,0,0-3.63-2.34L122.86,159a4.82,4.82,0,0,0-4.64,2.19,4.93,4.93,0,0,0-.09,5.14l3,5a59.5,59.5,0,0,1-25,8.36C81.71,181.14,68.47,177,59.91,173.33Zm67.36,1.74a3.2,3.2,0,0,0,1-4.32l-3-5,23.7,2.67-8.77,22.26-3.74-5.41a3.21,3.21,0,0,0-4.06-1,85.84,85.84,0,0,1-20.46,7.33,59.74,59.74,0,0,1-21.46.68c-9.52-1.42-19.37-5.26-29.77-11.64,9.18,3.57,22.07,6.91,36.13,5.53A66.2,66.2,0,0,0,127.27,175.07Z" transform="translate(-4.75 -0.69)"/><path class="cls-1" d="M144,32.46c1.31.8,2.33,1.47,3,1.93l.79.56.17.12a4.87,4.87,0,0,0,6-7.63c-18.19-15.11-34.8-23.62-50.79-26a65.92,65.92,0,0,0-23.73.74A89.69,89.69,0,0,0,60,8.83L56.13,3.28a4.87,4.87,0,0,0-8.53,1L37,31.12a4.88,4.88,0,0,0,4,6.62L69.84,41a5.07,5.07,0,0,0,.55,0,4.84,4.84,0,0,0,4.08-2.23,4.9,4.9,0,0,0,.09-5.14l-3-5a59.5,59.5,0,0,1,25-8.36C111,18.85,124.22,23,132.78,26.67A91.72,91.72,0,0,1,144,32.46ZM95.88,13.89a66.24,66.24,0,0,0-30.46,11,3.19,3.19,0,0,0-1,4.31l3,5L43.75,31.59,52.51,9.33l3.74,5.41a3.22,3.22,0,0,0,4.06,1A86.19,86.19,0,0,1,80.78,8.46a59.73,59.73,0,0,1,21.46-.68C111.76,9.2,121.6,13,132,19.42,122.82,15.85,109.93,12.51,95.88,13.89Z" transform="translate(-4.75 -0.69)"/><path class="cls-1" d="M38.57,108.15h0A26.68,26.68,0,1,0,11.87,81.47,26.51,26.51,0,0,0,38.58,108.15ZM24.69,67.59a19.62,19.62,0,1,1,13.89,33.49h0A19.62,19.62,0,0,1,24.69,67.59Z" transform="translate(-4.75 -0.69)"/><path class="cls-1" d="M72.38,145.59c0-1,.6-23.5-13.57-36.48a3.54,3.54,0,0,0-4.54-.2c-.16.12-15.83,11.9-30.41,0a3.55,3.55,0,0,0-4.55.07c-.57.51-14.22,12.64-14.56,36.42A3.53,3.53,0,0,0,8.28,149H68.85A3.54,3.54,0,0,0,72.38,145.59ZM12,142c1.08-13.47,6.94-22,10.05-25.59,12.74,8.46,26.41,4.45,33.93-.08,7.19,8.13,8.87,19.91,9.25,25.66Z" transform="translate(-4.75 -0.69)"/><path class="cls-1" d="M137.82,62.59a26.68,26.68,0,0,0,18.87,45.56h0a26.7,26.7,0,1,0-18.87-45.56Zm38.5,18.86a19.65,19.65,0,0,1-19.63,19.63h0a19.63,19.63,0,1,1,19.63-19.63Z" transform="translate(-4.75 -0.69)"/><path class="cls-1" d="M176.92,109.11a3.53,3.53,0,0,0-4.53-.2c-.15.12-15.83,11.9-30.4,0a3.55,3.55,0,0,0-4.55.07c-.58.51-14.23,12.64-14.57,36.42A3.53,3.53,0,0,0,126.4,149H187a3.54,3.54,0,0,0,3.53-3.41C190.53,144.63,191.1,122.09,176.92,109.11ZM130.1,142c1.08-13.47,6.94-22,10.05-25.59,12.74,8.46,26.42,4.45,33.93-.08,7.18,8.13,8.87,19.91,9.25,25.66Z" transform="translate(-4.75 -0.69)"/></svg>