<svg id="Layer_1" data-name="Layer 1" xmlns="http://www.w3.org/2000/svg" viewBox="0 0 200 187.37"><defs><style>.cls-1{fill:#ffffff;}</style></defs><path class="cls-1" d="M4.35,164.58h191.3a4.35,4.35,0,0,0,4.35-4.35V10.66a4.34,4.34,0,0,0-4.35-4.34H4.35A4.34,4.34,0,0,0,0,10.66V160.23A4.35,4.35,0,0,0,4.35,164.58ZM8.7,15H191.3V155.88H8.7Z" transform="translate(0 -6.32)"/><path class="cls-1" d="M172.67,24.29H27.34A4.34,4.34,0,0,0,23,28.63v98A4.34,4.34,0,0,0,27.34,131H172.67a4.34,4.34,0,0,0,4.34-4.34v-98A4.34,4.34,0,0,0,172.67,24.29Zm-4.35,98H31.68V33H168.32Z" transform="translate(0 -6.32)"/><path class="cls-1" d="M100,134.36a9.35,9.35,0,1,0,9.35,9.35A9.35,9.35,0,0,0,100,134.36Zm0,13.48a4.13,4.13,0,1,1,4.13-4.13A4.13,4.13,0,0,1,100,147.84Z" transform="translate(0 -6.32)"/><path class="cls-1" d="M150.23,193.68a4.34,4.34,0,0,0,4.35-4.34v-15.2a4.34,4.34,0,0,0-4.35-4.34H49.78a4.35,4.35,0,0,0-4.36,4.34v15.2a4.35,4.35,0,0,0,4.36,4.34ZM54.12,178.49h91.76V185H54.12Z" transform="translate(0 -6.32)"/></svg>