<svg id="Layer_1" data-name="Layer 1" xmlns="http://www.w3.org/2000/svg" viewBox="0 0 129.97 117.83"><path d="M41.28,46.3A250.57,250.57,0,0,0,55.06,2L51.68.53A117.33,117.33,0,0,1,73.55,37.31c.35.94,2.43,1.88,3.37,1.74a189,189,0,0,1,52.63-.6l-3.13-1.92a105.58,105.58,0,0,1-15.68,16.16,105.9,105.9,0,0,1-9.59,7c-2.34,1.53-4.52,2.57-4.58,5.71-.06,3.49,1.51,7.44,2.28,10.84q1.32,5.85,2.65,11.7,2.84,12.54,5.68,25.08l2.44.54L85.93,99.23c-3.94-2.38-7.88-4.78-11.84-7.16-2.13-1.28-4.38-2.85-6.87-3.36-6-1.22-12.4,6.34-16.5,9.71q-10.2,8.4-19.81,17.49l3.49,1.65A111.13,111.13,0,0,1,42,77.76c.34-.85-2.59-1.87-3.13-1.91A71,71,0,0,1,2.85,62.65l.53.94a257.5,257.5,0,0,0,37.7-18.47c.53-.32-2.44-2.48-3.24-2A256.49,256.49,0,0,1,.14,61.6c-.47.19.41.85.53.94a81.26,81.26,0,0,0,41,15.33L38.55,76a111.62,111.62,0,0,0-7.64,40.1c0,.75,2.92,2.2,3.49,1.66q7.82-7.36,16-14.32,4.1-3.47,8.29-6.81c2.37-1.89,5.56-5.4,8.7-5.91,3.49-.58,8.46,3.71,11.22,5.38L89,102.33,108.23,114c.17.11,2.61,1.3,2.44.54q-2.65-11.7-5.3-23.4Q104,85.26,102.72,79.4c-.88-3.89-2.61-8.34-2.55-12.34s4.44-5.45,7.34-7.47q3.78-2.62,7.3-5.58a106.07,106.07,0,0,0,15.1-15.67c.51-.65-2.75-1.87-3.13-1.92a190.81,190.81,0,0,0-53.1.64l3.37,1.74A118.72,118.72,0,0,0,54.94,1.63c-.26-.3-3.21-2.21-3.37-1.46A250.57,250.57,0,0,1,37.79,44.49c-.32.77,3.23,2.44,3.49,1.81Z" style="fill:#fec821"/><path d="M69.25,44.57a78,78,0,0,1-8.68,15.49l3.56,1.69c1.5-5.38,3.06-10.75,4.52-16.15.68-2.53,1.18-4.31-1.2-5.91-.63-.41-2-1-2.64-.25C59.68,45.86,56.68,53.61,52,60.33L55.55,62a148.94,148.94,0,0,0,7.54-20.57c.35-1.24-1.88-2-2.75-2-3.12-.21-5.15,3.3-6.9,5.49A136,136,0,0,0,45,57.1l3.55,1.68c3-8.06,6.82-16.17,8.37-24.68.24-1.29-2.73-2.8-3.55-1.69A83,83,0,0,0,42,53.66c-.46,1.27,3.13,2.86,3.55,1.69A82.71,82.71,0,0,1,57,34.1l-3.55-1.69C51.86,40.92,48.08,49,45,57.1c-.47,1.23,2.84,2.79,3.55,1.68,2-3.07,3.91-6.15,6-9.1,1.62-2.23,4.73-8.09,7.65-7.88l-2.75-2A147.7,147.7,0,0,1,52,60.33c-.54,1.2,2.81,2.76,3.56,1.69,4.68-6.73,7.68-14.47,12.81-20.9l-2.63-.25c1.09.72-4.64,17.36-5.16,19.19-.36,1.29,2.78,2.77,3.56,1.69A78.44,78.44,0,0,0,72.8,46.26c.52-1.22-3-2.87-3.55-1.69Z" style="fill:#fec821"/><path d="M53,35.21q-3.32,4.22-6.62,8.45L50,45Q52.49,37,55,29.08c.51-1.62-1.86-2.4-3-1.87A18.3,18.3,0,0,0,42.38,37c-.86,2.05,2.61,3.6,3.5,1.7q4.45-9.47,8.89-19c1-2-2.34-3.43-3.5-1.7A52.6,52.6,0,0,0,46,28.33c-.73,1.91,2.7,2.67,3.67,1.29a34.71,34.71,0,0,0,5.72-13.33c.37-1.86-2.79-3-3.67-1.3l-1.55,3,3.66,1.29c.81-2.65,1.62-5.29,2.44-7.94l-3.86-.45A20.55,20.55,0,0,1,52,17c-.42,2,2.66,2.8,3.66,1.3s2.16-3.24,3.23-4.86l-3.66-1.29a72.86,72.86,0,0,1-4.88,16.13c-.89,2.05,2.35,3.46,3.5,1.7l7.27-11.08-3.66-1.29a101.85,101.85,0,0,1-4.12,17.48c-.64,2,2.68,2.67,3.67,1.3l8.1-11.25-3.7-.86c-.66,10.13-7.47,18.57-7.91,28.8-.08,1.84,2.83,2,3.69.85l6-8.09c1.42-1.91,4.55-7.84,7.17-8.13l-2.6-1.6C67.41,44.65,65,52.83,62.46,61c-.59,1.94,2.7,2.73,3.67,1.29L79.42,42.65l-3.36,0c1.44,2.34-1.21,6.54-2,8.51-1,2.5-2.1,5-3.19,7.48q-3.26,7.46-6.73,14.8c-1,2,2.37,3.46,3.49,1.7L86.76,45l-3,.3c1.57,1.31-4.78,13-5.71,15-2.26,5-4.69,9.83-7.23,14.65l3.5,1.7A220.51,220.51,0,0,1,90.83,49l-3.67-1.29L75.39,76.49c-.74,1.81,2.76,2.82,3.66,1.29,4.81-8.16,9.66-16.29,15.21-24L90.6,52.52a121.87,121.87,0,0,1-8,27.24l3.66,1.3.46-1.38c.67-2-3.16-2.92-3.83-.88-.15.46-.31.91-.46,1.37-.6,1.81,3,3,3.67,1.29A125.79,125.79,0,0,0,94.43,53.4c.34-2-2.61-2.76-3.67-1.29-5.55,7.68-10.4,15.81-15.21,24l3.67,1.29L91,48.54c.78-1.88-2.69-2.67-3.66-1.29A220.51,220.51,0,0,0,70.78,74.93c-1,2,2.52,3.54,3.5,1.7Q79.62,66.51,84.16,56c1.5-3.49,5.92-9.87,2.13-13a2.12,2.12,0,0,0-3,.29Q73.68,58.34,64.1,73.4l3.49,1.7q4.69-9.93,9-20C78.36,50.85,82,45.41,79.29,41a2.13,2.13,0,0,0-3.37,0L62.63,60.58l3.66,1.29c2.6-8.46,5-16.89,5.39-25.78.06-1.3-1.67-1.7-2.59-1.6-3.11.34-4.64,3.28-6.35,5.57L53.69,52.2l3.69.86c.44-10.15,7.25-18.63,7.91-28.79.12-1.83-2.85-2-3.69-.86L53.5,34.66,57.17,36a102.77,102.77,0,0,0,4.11-17.48c.27-1.92-2.63-2.87-3.67-1.3Q54,22.72,50.34,28.25l3.5,1.7A77.15,77.15,0,0,0,59.05,13c.35-1.93-2.65-2.82-3.67-1.29S53.23,15,52.15,16.57l3.67,1.29a22.81,22.81,0,0,0,.44-7C56.11,9,53,8.59,52.4,10.42L50,18.36c-.56,1.85,2.83,2.91,3.67,1.3l1.55-3L51.53,15.4a32.6,32.6,0,0,1-5.39,12.52l3.67,1.3a47.69,47.69,0,0,1,5-9.5L51.27,18q-4.44,9.48-8.89,19l3.5,1.7a15.67,15.67,0,0,1,8.27-8.6l-3-1.87-5,15.86c-.63,2,2.65,2.59,3.66,1.29l6.63-8.44c1.37-1.74-2.22-3.33-3.5-1.7Z" style="fill:#fec821"/><path d="M89.62,43.21l.16-.28-1.11.12.38.06-2.51-1.47c.26,3-1.56,7-2.42,9.77-.27.87,3.2,2.35,3.62,1.54a73.66,73.66,0,0,1,7.91-12.08L92,39.51c1.19,4.68-2.45,11.36-3.94,15.74-.3.86,3.21,2.36,3.62,1.54q4.11-8.25,8.47-16.37l-3.62-1.36c.69,3.51-1.54,7.71-2.78,10.88-1.32,3.35-2.77,6.64-4.21,9.94-.34.79,3.18,2.37,3.62,1.53q5.48-10.24,10.93-20.51l-3.62-1.54A65.5,65.5,0,0,1,96.72,55c-.32.84,3.1,2.32,3.62,1.54a69.17,69.17,0,0,0,6.41-13.07L103.13,42a129.61,129.61,0,0,1-2.59,13.1c-.22.91,3.22,2.36,3.62,1.54q3-6.16,6-12.35l-3.62-1.53c-.51,3-1,6-1.54,9-.15.92,3.15,2.35,3.62,1.54,1.81-3.12,5.85-8.87,5.57-12.62-.07-1-2.74-1.71-3.49-1.48l-.17.05a.22.22,0,0,0-.13.3l0,.13c.22,1,3.78,1.93,3.62,1.18V41l-3.49-1.48c.13,1.77-1.76,4.86-2.47,6.38-.94,2-2,4-3.1,5.88l3.62,1.54q.78-4.51,1.54-9c.16-.91-3.22-2.36-3.62-1.53l-6,12.34,3.62,1.54a129.25,129.25,0,0,0,2.59-13.11c.12-.92-3.29-2.36-3.62-1.53A69.39,69.39,0,0,1,96.72,55l3.62,1.54a65.5,65.5,0,0,0,3.78-15.68c.11-.91-3.17-2.37-3.62-1.54Q95,49.62,89.57,59.88l3.62,1.53c1.67-3.8,3.33-7.6,4.8-11.48,1.17-3.07,2.84-6.36,2.19-9.69C100,39.5,97,38,96.56,38.88Q92.2,47,88.09,55.25l3.62,1.54c1.56-4.59,5.19-11.2,3.94-16.1-.21-.81-3-2.13-3.62-1.36a74.09,74.09,0,0,0-7.91,12.08L87.74,53c.94-3.06,2.7-6.92,2.42-10.13-.07-.75-2-1.39-2.51-1.48l-.38-.06c-.28-.05-.92-.23-1.11.11l-.16.28c-.39.69,3.13,2.41,3.62,1.54Z" style="fill:#fec821"/><path d="M113.66,39.76A145.4,145.4,0,0,0,103.39,54.5a1.46,1.46,0,0,0,1.89,2.12c5.88-2.89,10.12-10.08,14.1-15.11l-3.3-.76q-1.86,4.47-3.71,8.92c-.66,1.58,1.49,2.31,2.57,1.47a20.18,20.18,0,0,0,7.14-9.79,1.38,1.38,0,0,0-1.62-1.82L107.27,42c.36.88.73,1.75,1.09,2.62a25.51,25.51,0,0,1,7.31-5.51c1.51-.85,1.25-3.16-.69-2.94L102.83,37.5c.07,1,.14,2.11.22,3.17l5.58-2c1.77-.61,2.11-3.36-.21-3.17A29.18,29.18,0,0,0,87,47.65c-1.51,2.08,1.87,2.86,3.1,1.18a24.17,24.17,0,0,1,18.05-10l-.21-3.18-5.59,2c-1.74.61-2.12,3.43.22,3.17l12.15-1.35L114,36.49a28.56,28.56,0,0,0-8.13,6.16c-.89,1.05-.67,3,1.1,2.62l13.2-2.44L118.57,41a15.35,15.35,0,0,1-5.27,7.54L115.88,50q1.84-4.46,3.71-8.92c1-2.27-2.37-1.93-3.3-.76q-2.9,3.66-5.9,7.24c-1.66,2-3.45,4.82-5.81,6,.64.7,1.27,1.41,1.9,2.11a146.4,146.4,0,0,1,10.27-14.73c1.59-2-1.81-2.79-3.09-1.18Z" style="fill:#fec821"/><path d="M90.55,40.24c-7.09-1.11-11.2,7.19-14.94,12.15l3.83.49A46.18,46.18,0,0,0,84.71,41.2c.14-.52-3.44-1-3.83-.5L53.14,74.92l3.83.5q6.6-9.84,13.19-19.67c.09-.13-3.26-1.15-3.83-.5L46.67,77.52l3.83.5c.68-7.07,5.76-12.74,6-19.89,0-.75-3.38-.82-3.83-.5C45.6,62.72,41.42,70.29,37.43,77.87c-.11.21,3.38,1.19,3.91.39Q48.65,67.18,55,55.51c.2-.37-3.34-.87-3.83-.5A98.46,98.46,0,0,0,35.57,69.3l3.83.5a155.84,155.84,0,0,1,8.47-14.94c.15-.24-3.28-1-3.83-.49q-7.55,6.57-14.78,13.5l3.83.5C36.28,58.48,45,51.58,47.78,41.52c.15-.55-3.41-.91-3.83-.5A200.73,200.73,0,0,0,26.48,60.08l3.83.5L45.94,39c0-.06-3.27-1.25-3.83-.5q-10,13.24-21.06,25.65l3.75.61L36,50.13c.31-.4-3.13-1.17-3.75-.61L16.92,63.29l3.75.6a97,97,0,0,0,9.18-10c.36-.44-3.13-1-3.75-.6q-6.93,4.43-13.52,9.35c-.14.11,2.92,1.2,3.75.61a25.5,25.5,0,0,0,5.83-5.67c.36-.47-3.14-1-3.75-.6-2.37,1.54-13.82,7.16-7,10,4.13,1.73,7.18-.51,9.14-4.07l-3.92-.39a26.36,26.36,0,0,1-3.2,7.36c-.18.29,3.29.91,3.83.5a103.37,103.37,0,0,1,8.57-5.83L22,64a34,34,0,0,1-3.45,6.18c-.06.08,3.27,1.21,3.83.5a32.58,32.58,0,0,1,7-6.59l-3.83-.5A21.83,21.83,0,0,1,23,69.52c-.17.29,3.3.92,3.83.5l5.67-4.46-3.83-.5a27.68,27.68,0,0,1-2.81,7.09c-.22.4,3.34.81,3.83.5l4.72-3-3.83-.49a8.83,8.83,0,0,1-1.05,6.2c-.1.18,3.37,1.2,3.91.39a23.72,23.72,0,0,1,5.78-6l-3.83-.5a14.7,14.7,0,0,1,.14,4.29c-.06.65,3.44.93,3.84.5l4-4.38-3.83-.5a6.39,6.39,0,0,1-.88,4.61c-.08.14,3.37,1.24,3.91.38A42.94,42.94,0,0,1,49.2,66l-3.83-.5a35.58,35.58,0,0,1,0,8.81c-.07.61,3.47,1,3.83.5l8.45-11-3.83-.5c-1.58,10.12-5.62,19.42-10.37,28.42l3.91.39,5.52-23.67c.13-.55-3.51-1-3.91-.39-4.14,6.27-6.69,13.22-9.15,20.27l3.91.39a53.56,53.56,0,0,1,5.33-17l-3.91-.39q-4,13.08-8.84,25.86c-.14.35,3.49,1.15,3.91.39,3.58-6.47,7.23-12.86,12.18-18.41l-3.83-.5A137.7,137.7,0,0,1,36.38,103.5c-.07.11,3.32,1.22,3.91.39A145.07,145.07,0,0,1,54.18,87l-3.83-.5q-8.19,12.38-15.28,25.39c-.1.18,3.39,1.23,3.91.39A156.71,156.71,0,0,1,54.88,91L51,90.53a74.29,74.29,0,0,1-9.51,15.81l3.84.49A274.09,274.09,0,0,0,69.12,64.59c.17-.38-3.36-1-3.83-.5A137.05,137.05,0,0,0,48.9,83.92c-.07.09,3.27,1.21,3.83.5A130.2,130.2,0,0,1,74.86,62.1L71,61.6c-1.17,5.35-4.94,9.78-8,14.22L52.66,91.18c-.07.1,3.28,1.21,3.83.5A215,215,0,0,1,76.92,68.93l-3.84-.5L60.63,87.22c-.1.14,3.26,1.12,3.83.5q6.35-6.89,12.7-13.78l-3.83-.5a41.86,41.86,0,0,1-7,11.77l3.83.5A152.92,152.92,0,0,1,85.34,68l-3.83-.5c-.55,6.78-5.7,13.35-8.92,19.13-.1.19,3.36,1.18,3.92.39L91.82,65.34,87.9,65a166.46,166.46,0,0,1-7.52,22.68c-.15.37,3.45,1.09,3.91.39l12.8-19.54-3.91-.38q-4.37,11.25-8.71,22.51c-.15.37,3.45,1.09,3.91.38q5.16-7.9,9.9-16.06l-3.92-.39L86.38,92c-.14.31,3.41,1.08,3.91.38l5.6-7.65L92,84.35l-4.47,13c-.14.4,3.49,1.11,3.91.39q3.09-5.28,6.16-10.57l-3.91-.38a54.92,54.92,0,0,1-3,12.89c-.12.36,3.54,1.18,3.92.39l4.2-8.74-3.91-.39a93.75,93.75,0,0,1-2,12.48c-.12.49,3.58,1.11,3.91.39q2-4.5,4.09-9L97,94.4a31.47,31.47,0,0,1-.3,11.2c-.11.51,3.62,1.12,3.91.39l2.91-7.34-3.91-.38c.05,2.17-.86,7.19.72,8.82.54.56,3.16.93,3.77.37l.35-.32c.1-.07.11-.14,0-.23l-.22-.27c-.65-.78-3.94-.32-3.8-.14l-.1.35,3.77.38c-1.35-1.41-.56-6.76-.6-8.58,0-.67-3.65-1-3.91-.38l-2.91,7.33,3.91.39a31.47,31.47,0,0,0,.31-11.2c-.11-.72-3.62-1-3.92-.39l-4.08,9,3.91.39a92.41,92.41,0,0,0,2-12.48c.06-.62-3.6-1-3.91-.39q-2.1,4.38-4.21,8.74l3.92.39a54.38,54.38,0,0,0,2.94-12.9c.07-.64-3.56-1-3.91-.38Q90.57,92,87.5,97.31l3.91.39q2.25-6.48,4.48-13c.15-.45-3.46-1-3.92-.39L86.38,92l3.91.38q4-8.73,8-17.46c.12-.26-3.45-1.19-3.92-.39q-4.74,8.16-9.89,16.07l3.91.38q4.35-11.25,8.71-22.51c.14-.37-3.45-1.09-3.91-.38L80.38,87.63l3.91.39a166.5,166.5,0,0,0,7.53-22.68c.13-.57-3.5-1-3.92-.39L72.59,86.58l3.92.39c3.22-5.79,8.36-12.36,8.91-19.13.06-.68-3.42-.91-3.83-.5a155.72,155.72,0,0,0-15.34,18c0,.06,3.24,1.2,3.84.5a42.75,42.75,0,0,0,7.15-12c.17-.41-3.38-1-3.83-.5q-6.34,6.9-12.7,13.78l3.83.5Q70.76,78.22,77,68.82c.11-.17-3.26-1-3.83-.5A215,215,0,0,0,52.74,91.07l3.83.5L67,76.21c3-4.44,6.79-8.87,8-14.22.13-.64-3.41-.84-3.84-.5A130.2,130.2,0,0,0,49,83.81l3.83.5A135.47,135.47,0,0,1,69,64.7l-3.83-.5a274.71,274.71,0,0,1-23.76,42.25c-.06.09,3.28,1.2,3.83.49a75.7,75.7,0,0,0,9.68-16c.16-.36-3.37-1-3.83-.5a157.63,157.63,0,0,0-16.06,21.46l3.91.39q7.1-13,15.28-25.39c.11-.15-3.25-1.1-3.83-.5a146.64,146.64,0,0,0-14,17.12l3.91.39A137.7,137.7,0,0,0,52.52,79.05c.16-.44-3.39-1-3.83-.5-5,5.61-8.72,12.08-12.34,18.63l3.91.39q4.85-12.79,8.84-25.86c.13-.43-3.53-1.13-3.91-.39a53.56,53.56,0,0,0-5.33,17c-.08.56,3.66,1.09,3.91.39,2.47-7.05,5-14,9.15-20.27L49,68,43.49,91.69c-.12.51,3.55,1.08,3.91.39,4.76-9,8.79-18.3,10.38-28.42.09-.59-3.47-1-3.84-.5l-8.45,11,3.83.5a35.1,35.1,0,0,0,0-8.81c-.09-.74-3.38-.94-3.83-.5a43.83,43.83,0,0,0-6.77,8.4l3.91.38a6.36,6.36,0,0,0,.88-4.6c-.1-.72-3.4-1-3.83-.5l-4,4.38,3.83.5a15.05,15.05,0,0,0-.15-4.29c-.13-.79-3.32-.87-3.83-.5a24.22,24.22,0,0,0-5.94,6.26l3.91.39a8.77,8.77,0,0,0,1-6.21c-.14-.82-3.3-.83-3.83-.49L26,72l3.83.5a27.11,27.11,0,0,0,2.81-7.09c.15-.62-3.41-.83-3.83-.5l-5.67,4.46,3.83.5A21.34,21.34,0,0,0,29.41,64c.17-.63-3.4-.8-3.83-.5a32.58,32.58,0,0,0-7,6.59l3.83.5a34.34,34.34,0,0,0,3.45-6.18c.23-.53-3.39-.77-3.83-.5-3,1.81-5.8,3.74-8.57,5.83l3.83.5a26.68,26.68,0,0,0,3.21-7.36c.12-.48-3.54-1.08-3.92-.39s-1.86,3.69-2.74,3.59c-2.25-.27.16-2.87.54-3.26,2.09-2.08,5.29-3.67,7.76-5.28l-3.75-.6a25.27,25.27,0,0,1-5.83,5.66l3.75.61q6.6-4.92,13.52-9.36l-3.75-.6a98,98,0,0,1-9.18,10c-.22.21,3,1.25,3.75.6L36,50.13l-3.75-.61L21.05,64.15c-.28.37,3.17,1.27,3.75.61q11-12.4,21.06-25.65L42,38.61,26.4,60.19c0,.06,3.25,1.22,3.83.5A200.73,200.73,0,0,1,47.7,41.63l-3.84-.5c-2.8,10.06-11.49,17-14.68,26.85-.17.51,3.4.91,3.83.5Q40.24,61.55,47.79,55L44,54.48a153.57,153.57,0,0,0-8.47,14.93c-.16.32,3.35,1,3.83.5A98.36,98.36,0,0,1,54.86,55.62L51,55.12q-6.3,11.67-13.6,22.75l3.91.39c3.95-7.5,8.09-15,15.12-20l-3.83-.5c-.29,7.15-5.37,12.82-6,19.89-.06.65,3.45.94,3.83.5L70.08,55.86l-3.83-.5Q59.65,65.19,53.06,75c-.08.11,3.27,1.18,3.83.5L84.63,41.31l-3.83-.5A46.4,46.4,0,0,1,75.53,52.5c-.11.18,3.33,1.16,3.83.49,1.65-2.18,3.33-4.34,5.08-6.45.71-.85,4-5.71,5-5.55,1.39.21,3.83-.32,1.13-.75Z" style="fill:#fec821"/><path d="M78.09,81.16c-.68,1.89-1.76,4.28-1.69,6.33a5.43,5.43,0,0,0,2.29,3c1.45.59,1.76-2.7,1.91-3.68a3.47,3.47,0,0,0-.79-3.15c-.48-.7-1.16-1.93-2.09-2.09C75.89,81.26,74.47,85,74,86.32l2.4,3A12.72,12.72,0,0,0,76,84.51a14.59,14.59,0,0,0-2.4-3c-1.29,3.09-3,7.27-.62,10.19.61.76,1.12,1.41,2.11,1.28s1.85-1.76,2.39-2.4l3-3.57-2.4-3L77,92.65c-.09.66,2.37,3.09,2.4,3,1.38-2.56,2.77-5.11,4.16-7.67l-2.4-3c-.54,2.49-1.07,5-1.61,7.46-.14.64,2.34,3.11,2.4,3l3.66-6-2.39-3q.19,5.6.19,11.2a9.44,9.44,0,0,0,2.4,3,52.8,52.8,0,0,0,4-7.68c.38-.9-2.45-3-2.37-3.13a54.35,54.35,0,0,1-4,7.68l2.4,3c0-3.73-.07-7.46-.2-11.19a9.38,9.38,0,0,0-2.4-3q-1.83,3-3.67,5.94l2.4,3c.54-2.48,1.07-5,1.61-7.46.15-.69-2.39-3.05-2.4-3L77,92.55c.79,1,1.59,2,2.39,3l1.17-8.69c.07-.52-2.2-3.26-2.39-3-1,1.16-4.4,6.64-6.15,5.86l2.29,3C73.83,90.09,75,87,76,84.61l-2.4-3a12.78,12.78,0,0,1,.33,4.85c-.06.75,2.42,2.95,2.4,3,.48-1.25,2-5.21,3.88-4.65-.63-.74-1.27-1.47-1.9-2.2.36.55-.7,5.21-1.78,4.78l2.29,3c-.07-2,1-4.28,1.65-6.11.34-1-2.46-2.91-2.38-3.14Z" style="fill:#fec821"/><path d="M87.55,92.19c-.18,1.17-.37,2.34-.56,3.5-.31,1.91,2.73,3.15,3.66,1.32l2.15-4.22-3.7-.85q.42,3.56.82,7.12c.2,1.66,2.84,2.46,3.7.85,2.83-5.27,1.77-11.07,2.85-16.76l-3.55.44c2.4,3.74,1,8.82,2.55,12.94.69,1.79,3.85,1.66,3.81-.49-.13-5.71,0-11.4.35-17.1l-3.8.49c3,7.6,3.74,16.17,5.09,24.19.3,1.78,3.48,2.56,3.87.42.94-5.26.43-10.39-.3-15.65-.29-2.16-4-2.33-3.9,0A77.28,77.28,0,0,0,104,107.57l3.48-1.34L105,102c-.82-1.44-3.8-1-3.58.9a27.07,27.07,0,0,0,2.45,8.57c.74,1.55,4.28,1.74,3.8-.48-.08-.4-.16-.8-.25-1.2-.45-2.13-4.38-2.22-3.9,0,.08.4.17.8.25,1.2l3.8-.49a24.52,24.52,0,0,1-2.25-7.68l-3.58.89,2.43,4.22c1,1.72,4.11.71,3.48-1.34a73.92,73.92,0,0,1-3.18-18.25l-3.9,0c.68,4.93,1.26,9.78.37,14.72l3.86.43c-1.41-8.35-2.16-17.17-5.29-25.09a2,2,0,0,0-3.8.49c-.36,5.7-.48,11.39-.36,17.1l3.81-.48c-1.77-4.57-.24-9.47-3-13.77-.78-1.21-3.24-1.16-3.54.44-1,5.26.1,11-2.51,15.89l3.7.86c-.28-2.38-.55-4.75-.83-7.12-.18-1.64-2.86-2.49-3.69-.86-.72,1.41-1.43,2.82-2.15,4.22l3.66,1.32.57-3.5c.35-2.22-3.48-3.11-3.84-.89Z" style="fill:#fec821"/><path d="M56.17,8.68l.15-.59L53,6.71a140.54,140.54,0,0,1,3.08,16.4c.21,1.66,4.06,2.35,3.82.49A138.27,138.27,0,0,0,56.81,7.19a2.43,2.43,0,0,0-3.33-1.37c-1,.49-1.18,1.27-1.13,2.38.07,1.66,3.91,2.4,3.82.48Z" style="fill:#fec821"/><path d="M53.67,4.68A63,63,0,0,1,64.52,33c.13,1.08,3.13,1.74,3.2,2.28A63.56,63.56,0,0,0,56.84,6.77C56.2,5.85,54,5.14,53.67,4.68Z" style="fill:#fec821"/><path d="M64,25.7a34.78,34.78,0,0,0-8.14,13.73c-.49,1.55,2.59,1.81,3.41,1.46,5.73-2.42,9.56-7.32,13.15-12.2l-3.66-1.25c-1.17,4.73-5.22,8.2-5.69,13.16-.15,1.59,3.67,2.44,3.81,1,.47-4.93,4.52-8.42,5.69-13.16.35-1.45-2.91-2.27-3.67-1.24-3.47,4.71-7.09,9.43-12.64,11.77L59.7,40.4a33.12,33.12,0,0,1,7.86-13.18c1.12-1.17-2.49-2.6-3.53-1.52Z" style="fill:#fec821"/></svg>