<svg id="Layer_1" data-name="Layer 1" xmlns="http://www.w3.org/2000/svg" viewBox="0 0 191.76 193.99"><path d="M50.09,69.11c5.65-4.36,13.59-3.09,19.07.94,6,4.41,8.68,12,9.67,19.16.82,5.92,1.57,13.78-2.1,19-5.48,7.73-16-1.47-11.16-8.74A10,10,0,0,1,75,95.12c4,.56,7.22,3.55,9.53,6.7,4.62,6.28,7.21,14.37,8.45,22,1.06,6.53,2,15.48-1,21.64a7.06,7.06,0,0,1-4,3.84c-2.14.67-5,.06-5.47-2.47a4.87,4.87,0,0,1,2.37-4.76c2.63-1.52,5.84,0,7.64,2.08,5.42,6.27,3,18,.88,25.08-2.56,8.64-7,16.62-11.4,24.41-.65,1.15,1.51,2,2.11.89,5.65-9.91,11.29-20.27,13.13-31.67,1.24-7.71,1.53-21.13-8.48-23.15a7,7,0,0,0-8.31,4.59,5.41,5.41,0,0,0,3.77,6.9c9.73,2.91,11.75-9.74,11.9-16.34.24-10.93-2.38-22.54-8.19-31.89-4.28-6.91-12.39-12.91-20.51-8.12-6.89,4.07-7.1,13.77.37,17.4,8.17,4,13.16-4.76,13.82-11.67,1-10.22-1.18-22.88-8.91-30.25-6.45-6.15-17-8.18-24.34-2.51-1.09.84.85,2,1.8,1.3Z" transform="translate(-2.91 -6)" style="fill:#fec821"/><path d="M145.41,68.64l.9-5.14a.25.25,0,0,0-.13-.24c-7.87-2.47-11.64,11.36-13.08,16.44-2.36,8.28-4.17,19.35,2.89,25.94,4.85,4.52,13.19,3.94,16.63-2.12,1.59-2.81,1.35-6.79-1.83-8.36-2.67-1.33-5.88-.37-8.19,1.24-7.23,5-9.88,15.43-11.47,23.56-1.28,6.55-4.31,21.45,6.42,22,6.52.36,11.4-8.84,9.26-14.47-1.16-3.07-4.91-3.57-7.69-2.63-3.51,1.19-6,4.28-8.21,7.05A114.67,114.67,0,0,0,106,193.45c-.07.69,2-.11,2.08-.84a114.17,114.17,0,0,1,10.5-38.38,112.37,112.37,0,0,1,10.37-17.53c1.8-2.48,3.66-4.93,5.7-7.22,1.85-2.08,4.26-4.2,7.27-3.35,2.49.69,3.21,2.56,3.16,5-.06,3.21-1.65,9-5.61,9.43-3.71.36-6.51-3.4-7.33-6.55-.92-3.54-.23-7.25.36-10.79a98.09,98.09,0,0,1,2.26-10.61c1.47-5.16,6.61-19.87,14.23-16.17,3.93,1.92,2.83,7.24-.13,9.43-3.25,2.4-7.39,1.42-10.33-1-6.1-5-5.94-13.57-4.62-20.61A60.29,60.29,0,0,1,137.63,72a27.84,27.84,0,0,1,2.7-5.37c.73-1,3.22-3,3.62-.73.18,1-.46,2.61-.63,3.59-.11.63,2-.11,2.09-.84Z" transform="translate(-2.91 -6)" style="fill:#fec821"/><path d="M32.64,148.87c0-2.19,8.18-1.36,9.61-1.17,3.71.49,7.26,1.83,9.73,4.74,4.27,5,5.24,14.82,3.24,21a13.55,13.55,0,0,1-.78,1.9,7.34,7.34,0,0,1-.72,1.2l-3.06.17c-.9-.63-.34-4.23-.14-5.16.14-.7.43-2.07,1.19-2.42,1.18-.54,2.54,1,3,1.85a25,25,0,0,1,1.79,4.83,30.37,30.37,0,0,1-2,20.82c-.33.71,1.71,1.8,2,1.14,3.79-8.07,4.32-18.21.17-26.29-1-1.92-2.8-4.24-5.22-4.16-3.36.11-3.55,4.87-3.22,7.31.31,2.26,2,4.54,4.5,4.61,3.63.1,4.8-5,5.16-7.84,1-7.7-.68-17.3-7.52-21.91a21.94,21.94,0,0,0-10.55-3.4c-1.91-.15-9.26-1-9.31,1.95,0,.74,2.08,1.64,2.09.84Z" transform="translate(-2.91 -6)" style="fill:#fec821"/><path d="M35.64,26.61q1.32-10,2.65-20l-2.86,1a73.13,73.13,0,0,0,4.44,9.12c1.08,1.85,2.54,5.51,4.76,6.19s6-1.07,8.23-1.49A91.52,91.52,0,0,1,63.43,20l-.75-.93A124.53,124.53,0,0,1,52,30.54c-.27.25-.7.7-.32,1A67.84,67.84,0,0,1,65.17,48L67,46.48c-4.38.35-8.48-1-12.52-2.54-2.52-.93-6.1-3.06-8.86-2.57S41.6,45,40.12,46.92a85.32,85.32,0,0,1-8.77,9.56l2.41-.16q.12-9.43,1.1-18.83c.07-.67-1-.49-1.36-.4-5.06,1.49-10-1.66-14-4.32-.33.48-.66,1-1,1.45a74.62,74.62,0,0,1,15.31-5.31c1.41-.33,2.21-2.1.18-1.63a78.84,78.84,0,0,0-16.09,5.59c-.26.13-1.69,1-1,1.46,5,3.26,10.36,6.17,16.43,4.39L32,38.33q-1,9.41-1.09,18.84c0,1.07,2.06.18,2.41-.16a91.32,91.32,0,0,0,7.14-7.45q1.8-2.12,3.45-4.34c1.43-1.93,1.21-2.1,3.51-1.34,6.21,2.06,12,4.93,18.73,4.39.45,0,2.31-.78,1.88-1.52A69.14,69.14,0,0,0,54.21,30c-.1.35-.21.7-.31,1.05a129.85,129.85,0,0,0,11.2-11.9c.58-.71-.11-1-.76-.92-3,.22-6,.57-8.91,1.08-2.23.39-4.72,1.41-7,1.48-3.45.11-4.88-3.71-6.33-6.31a74,74,0,0,1-3.88-8.14c-.4-1-2.75.28-2.85,1q-1.33,10-2.65,20.05c-.14,1,2.75.16,2.88-.85Z" transform="translate(-2.91 -6)" style="fill:#fec821"/><path d="M41.57,23c-2.27.4-2.53,3.1-2.93,5a34.73,34.73,0,0,0-.56,10c.11,1.26,2.14,2.57,2.69.9a44.85,44.85,0,0,0,2.07-17.93c-.08-.94-1.94-2.64-2.57-1.2a46,46,0,0,0-3.8,16.19c-.06,1,2,2.55,2.56,1.2A39.11,39.11,0,0,0,42.14,21c0-1.16-1.74-2.39-2.57-1.2-2.52,3.61-3.35,7.81-4.06,12.08-.24,1.44,2.06,3,2.65,1.24a38.73,38.73,0,0,0,1.91-15.07c-.09-1.3-2.1-2.52-2.69-.89a28.05,28.05,0,0,0-1.65,10c0,1.26,2.25,2.56,2.68.89a73.66,73.66,0,0,0,2.15-13c.11-1.42-2.43-3.05-2.65-1.23-.18,1.42-.35,2.85-.53,4.28s2.08,3.05,2.66,1.24A25,25,0,0,0,41.15,14c.13-1.38-2.23-3.09-2.65-1.24a51.46,51.46,0,0,0-1.21,8.91c-.07,1.29,2.47,2.55,2.68.89.24-1.92,1.31-5.16.29-7a3,3,0,0,0-3.83-1.28c-2,1-2.32,3.92-2.7,5.8a45.25,45.25,0,0,0-.79,9.65c0,.86,1.55,2.43,2.36,1.45,1.23-1.49,1.46-3.09,1.82-5Q37.9,22,38.7,17.81L36,16.91c.23,2.57.47,5.13.7,7.69.11,1.15,2.43,2.67,2.68.89a63.91,63.91,0,0,0,.53-13.19l-2.49.17,7.23,17.19L47,28.77a23.14,23.14,0,0,1-3.76-10.53l-2.49.16A39.58,39.58,0,0,1,45.77,30l1.9-1.15a26.2,26.2,0,0,1-7.74-9.75c-.62-1.32-3-1.22-2.44.52A109.88,109.88,0,0,0,44.75,37c.55,1.06,2.51,1.45,2.49-.16a17.46,17.46,0,0,0-2.75-8.66c-.85-1.47-2.13-4.15-4.23-4S37.4,27.38,36.87,29a36.46,36.46,0,0,0-1.64,10.36c0,1.28,2.5,2.57,2.68.9.26-2.27.67-4.59.77-6.88a3.74,3.74,0,0,0-.59-2.67c-1.84-2.26-7-1-9.36-.74l1.14,2.75a16.15,16.15,0,0,1,10.57-2.12L40,27.83q-6.42,1-12.89,1.39L27.89,32A18.06,18.06,0,0,0,38,27.35c1.19-1.08-.73-3.24-2-2.34a31.3,31.3,0,0,1-7.71,3.92c.48.89,1,1.78,1.46,2.67a52.65,52.65,0,0,0,9.33-6.19c1.22-1-.77-3.33-2-2.34a33,33,0,0,1-14.31,6.61c-1.52.29-.93,2.15.14,2.67,1.73.84,3.05.17,4.71-.62,2.74-1.3,5.46-2.67,8.19-4L34,25.22A65.72,65.72,0,0,1,22.85,31.4l1.74,2.51,6-4.34c2.18-1.56,4.53-3.74,7.2-4.29l-1.14-2.75A133.91,133.91,0,0,0,19,31.21c-1.2.7-.43,2.53.8,2.72a42.12,42.12,0,0,1,15.41,5.6c0-.89-.09-1.78-.13-2.67A23.75,23.75,0,0,1,21.8,32.65c-.3.77-.59,1.55-.88,2.33a34.34,34.34,0,0,0,13.4,2.51c-.27-.94-.55-1.88-.82-2.81a11.26,11.26,0,0,1-7.21-1.91c-.07.83-.13,1.65-.2,2.47A43.66,43.66,0,0,1,36,36.47l-.49-2.79a8.21,8.21,0,0,1-6.81-3.57c-.28.73-.56,1.45-.83,2.17q5.15.94,10.19,2.35l-.49-2.79a7,7,0,0,1-5-1L32,33.24a21.69,21.69,0,0,0,11,0c1.6-.39,0-3-1.46-2.67a19.24,19.24,0,0,1-9.65-.13c-1.56-.41-1.51,1.81-.54,2.45a10,10,0,0,0,7.06,1.72c1.79-.22.66-2.46-.49-2.78q-5-1.41-10.19-2.36c-1.42-.26-1.44,1.33-.83,2.17a11.56,11.56,0,0,0,9.45,4.81c1.77,0,.64-2.51-.49-2.79a46.06,46.06,0,0,0-10.59-1.27c-1.39,0-1,2-.2,2.47a14.53,14.53,0,0,0,9.25,2.59c1.83-.11.65-2.83-.82-2.81a31,31,0,0,1-12-2.23c-1.66-.67-2.13,1.47-.89,2.33a27.34,27.34,0,0,0,15.29,4.89c1.73,0,.63-2.21-.14-2.67a44.18,44.18,0,0,0-16.1-5.83c.26.9.53,1.81.8,2.71a135.1,135.1,0,0,1,17.72-8.67c1.43-.58.14-3-1.14-2.74-2.57.52-4.43,1.92-6.53,3.43q-4,2.82-7.9,5.66c-1.2.85.53,3,1.73,2.51A67.52,67.52,0,0,0,36,27.56c1.18-.82-.54-3.09-1.74-2.51l-5.63,2.76c-1.14.55-4,2.63-5.26,2,0,.89.09,1.78.13,2.67a35.5,35.5,0,0,0,15.51-7.08l-2-2.34a50.59,50.59,0,0,1-8.77,5.86c-1.52.79,0,3.17,1.46,2.67A33.21,33.21,0,0,0,38,27.35L36,25a16,16,0,0,1-8.9,4.21c-1.82.24-.67,2.9.82,2.81q6.48-.37,12.89-1.39c1.66-.26.83-2.6-.48-2.78a18.14,18.14,0,0,0-11.89,2.2c-1.32.76-.23,2.91,1.14,2.75s4.87-1,5.91.06,0,4.74-.2,6.17l2.68.9a33.9,33.9,0,0,1,1.75-10.19c.32-.93.62-2.37,2-1.58.41.24.86,1.44,1.09,1.86a13.18,13.18,0,0,1,1.8,6.28L47,36.15a105.28,105.28,0,0,1-7-16.72L37.64,20a29.91,29.91,0,0,0,8.82,11c1,.75,2.22.1,1.9-1.15A41.94,41.94,0,0,0,43,17.52c-.56-.87-2.67-1.57-2.49.16a26.26,26.26,0,0,0,4.18,12c1,1.47,3.08,1,2.28-.89L39.72,11.58c-.46-1.11-2.59-1.4-2.49.17a61.58,61.58,0,0,1-.48,12.51l2.68.89q-.36-3.84-.7-7.68c-.11-1.16-2.35-2.67-2.69-.9q-.57,3.06-1.16,6.1c-.34,1.8-.39,4.62-1.59,6.08.78.49,1.57,1,2.36,1.45a40.93,40.93,0,0,1,.63-8.42A13.23,13.23,0,0,1,37,18.56c1.31-2.36.37,2.22.3,2.73l2.69.9A47.43,47.43,0,0,1,41.15,14L38.5,12.73a25.52,25.52,0,0,1-1.12,5.48L40,19.45c.17-1.43.35-2.86.52-4.29l-2.65-1.23a74.66,74.66,0,0,1-2.16,13l2.68.9A26.14,26.14,0,0,1,40,18.43l-2.68-.89a37.11,37.11,0,0,1-1.85,14.38l2.65,1.24c.68-4.06,1.43-8,3.84-11.47l-2.57-1.2a35.87,35.87,0,0,1-2.82,14.92l2.56,1.2A42.53,42.53,0,0,1,42.7,21.72l-2.57-1.2a42.71,42.71,0,0,1-2,17.24l2.68.9A33.14,33.14,0,0,1,40.86,32c.1-.86.64-6,1.53-6.13,1.79-.32.67-3.08-.82-2.81Z" transform="translate(-2.91 -6)" style="fill:#fec821"/><path d="M32.65,32l-.72.61a1.05,1.05,0,0,0,.29,1.86,39.55,39.55,0,0,1,4.69,1.88l.39-2.27a7.14,7.14,0,0,1-7.22-.91L28.24,35.3c4.13.91,7.36,3.38,10.59,6l2.15-2a98.61,98.61,0,0,0-11.6-7.24c-.5.74-1,1.48-1.49,2.21a24.16,24.16,0,0,1,11.2,2.54c-.08-.48-.15-1-.23-1.44q-3.6,5.81-6.78,11.83l2.76.59a52,52,0,0,0,2-9.87c.16-1.59-2.62-1.13-3,0-1.41,4.64-2.7,9.25-2.71,14.14,0,1.54,2.7,1.22,3,0q1.32-6.3,2.66-12.61l-3,0a69.69,69.69,0,0,1-2.08,15.06c-.46,1.85,2.32,1.53,2.91.28q2.63-5.52,5.57-10.89l-2.82-.27a10.9,10.9,0,0,1-1.68,5l2.75.58,4.83-10.08c.74-1.54-2.09-1.57-2.75-.58a109.24,109.24,0,0,0-5.88,9.87l2.75.59a112.58,112.58,0,0,0,4.24-14.25c.42-1.84-2.34-1.58-2.91-.28a72.06,72.06,0,0,0-4.06,11.88c-.41,1.68,2.06,1.62,2.76.58q4.58-6.75,9.13-13.51l-2.76-.58q-2.46,6.9-5.51,13.57c-.68,1.5,2.16,1.73,2.76.59a113.15,113.15,0,0,0,5.83-12.9c.62-1.63-2.1-1.58-2.75-.58l-3.4,5.15,2.76.59a43.43,43.43,0,0,1,3.7-10.73L44.48,28a60.54,60.54,0,0,0-4.65,13c-.34,1.44,1.73,1.76,2.52.86l1.59-1.8-2.37-1.17-7.15,11.2a1,1,0,0,0,.23,1.43c2.36,1.27,3.92-.8,5.19-2.62A35.3,35.3,0,0,0,44.64,39c.51-1.72,2.33-6.12,0-7.23s-3.82,1.63-3.54,3.48c.24,1.6,2.45,1.17,3,0q1.26-3,2.53-5.92l-3,0A24.28,24.28,0,0,0,46.8,41c.73,1.29,3.45-.08,2.63-1.55A21.85,21.85,0,0,1,46.62,29c0-1.68-2.5-1.05-3,0q-1.27,3-2.53,5.92l3,0a1.19,1.19,0,0,1,.07-1.26l-1.47.5c.35,0-1.9,7.28-2.18,7.94-.73,1.72-2.7,6.87-4.7,7.6l1.45.13-.47-.25L37,51l7.15-11.2c.94-1.49-1.48-2.18-2.37-1.16l-1.59,1.8,2.52.86a60.35,60.35,0,0,1,4.65-13c.72-1.45-2.16-1.77-2.76-.59a46.1,46.1,0,0,0-4,11.34c-.35,1.67,2,1.66,2.76.58l3.39-5.15L44,33.88a106.58,106.58,0,0,1-5.53,12.29l2.76.58q3-6.68,5.51-13.57c.59-1.66-2.09-1.57-2.76-.59L34.88,46.11l2.75.58a72.06,72.06,0,0,1,4.06-11.88l-2.91-.28a112.58,112.58,0,0,1-4.24,14.25c-.58,1.57,2.17,1.71,2.76.58a111.61,111.61,0,0,1,5.88-9.87l-2.76-.59L35.59,49c-.72,1.52,2.11,1.64,2.76.59a14.26,14.26,0,0,0,2.11-6.25c.14-1.47-2.32-1.17-2.82-.27q-3.11,5.67-5.87,11.5l2.91.28a72.36,72.36,0,0,0,2.19-15.7c.05-1.55-2.7-1.22-3,0q-1.32,6.3-2.65,12.61l3,0c0-4.67,1.25-9.07,2.6-13.5l-3,0a47.7,47.7,0,0,1-1.91,9.24c-.5,1.6,2.15,1.72,2.75.58q3.2-6,6.79-11.83c.26-.43.31-1.17-.23-1.44a26.86,26.86,0,0,0-12.52-3c-.86,0-3,1.39-1.49,2.21a97.72,97.72,0,0,1,11.6,7.23c1.2.87,3.56-.84,2.15-2C37.57,36.56,34.12,34,29.78,33c-1.08-.23-3.36,1.06-1.85,2.14a10.32,10.32,0,0,0,10.12,1.17c1.06-.43,1.62-1.67.39-2.27a37.72,37.72,0,0,0-4.68-1.87l.3,1.86.72-.61c1.54-1.29-.9-2.47-2.13-1.44Z" transform="translate(-2.91 -6)" style="fill:#fec821"/><path d="M48.69,32.23l-.12,0a2,2,0,0,0-2.3,1.24c-.27,1.07,1.22,1.91,1.86,2.5l5,4.58,1.8-1.75a32.38,32.38,0,0,1-10.47-.89c-.87-.21-3.36,1.29-1.92,1.87a30.28,30.28,0,0,0,7.66,2c.43-.67.86-1.33,1.28-2-1.61-.07-10.06-1.08-9.87,2.35.19,3.58,5.34-.84,6-1.86,1-1.58-1.77-1.41-2.5-.53l-2.27,1c.14.41.29.83.43,1.25a13.27,13.27,0,0,1,5.38-3.84c1-.41,1.8-1.8.17-1.9A2.44,2.44,0,0,1,46.55,35l-2.43,1.61a113.81,113.81,0,0,1,11.08,7.8l2.43-1.61c-4.15-3-8.17-6-11-10.39L46,33.81c.35-.18,5.41,4.35,5.81,4.69,1.82,1.56,3.57,3.2,5.27,4.89l2.65-1.45c-3.64-3.42-7.19-6.88-9-11.64l-2.78,1.24a80.91,80.91,0,0,1,9,11.23c.62.89,3.38-.28,2.79-1.23a82.65,82.65,0,0,1-7-13.13l-2.79,1.24a45.56,45.56,0,0,1,9.21,13.81l2.79-1.24a29.91,29.91,0,0,1-5.64-7l-2.79,1.24,8.34,11L64,45.76c-2.44-.33-4.93-2.36-7-3.57l-6.89-4L47.82,40a67,67,0,0,1,10.43,5.75l1.92-1.86a49.46,49.46,0,0,1-10.43-4.53l-1.92,1.87A20.1,20.1,0,0,1,54.92,44l1.92-1.87a20,20,0,0,1-7.18-2.31,2.08,2.08,0,0,0-2.52.88c-1.45,3.31,8.31,4.82,10.31,5.24.69.14,3.09-.69,2.14-1.71a8.46,8.46,0,0,1-2.65-4.76l-2.57,1.39c3.05,1.91,6,3.92,8.91,6.06l2.66-1.45a37.53,37.53,0,0,1-4.87-4.21c-.85-.86-3.61.47-2.65,1.45a37.44,37.44,0,0,0,4.86,4.21c1,.71,3.69-.68,2.66-1.45-3-2.25-6.15-4.38-9.36-6.38-.87-.55-2.7.3-2.56,1.39.28,2.19,1.46,3.62,2.92,5.2l2.14-1.71c-1-.21-9.56-2.23-9.11-3.26l-2.52.88a22,22,0,0,0,7.76,2.51c.78.1,3.37-1,1.92-1.87a22.18,22.18,0,0,0-7.68-2.94c-.79-.14-3.38,1.09-1.92,1.87a51.92,51.92,0,0,0,11,4.72c.89.24,3.25-1,1.92-1.86A66.24,66.24,0,0,0,50,38.23c-1-.43-3.65.94-2.21,1.77l7.88,4.52c2.08,1.19,4.22,2.88,6.64,3.21.74.1,3-.59,2.14-1.71L56.13,35c-.64-.85-3.36.24-2.78,1.23a32,32,0,0,0,5.9,7.46c.71.66,3.3-.05,2.79-1.23A47.69,47.69,0,0,0,52.57,28.2c-.7-.73-3.25.06-2.79,1.23a83.09,83.09,0,0,0,7,13.13l2.78-1.24a80.91,80.91,0,0,0-9-11.23c-.71-.71-3.24.05-2.79,1.23,1.89,4.91,5.52,8.53,9.29,12.07.87.81,3.63-.48,2.65-1.45a90.45,90.45,0,0,0-9.15-8c-2-1.51-3.54-2.83-5.94-1.55-.55.29-1,.85-.65,1.44,2.9,4.51,7.13,7.63,11.42,10.71.83.6,3.42-.82,2.43-1.61a115.31,115.31,0,0,0-11.52-8.11c-.8-.5-3.35.55-2.43,1.61a5.07,5.07,0,0,0,4,1.82c.06-.63.11-1.27.17-1.9a17.89,17.89,0,0,0-7.27,5.07.73.73,0,0,0,.44,1.25,6.66,6.66,0,0,0,6.4-2.4l-2.5-.53a3.92,3.92,0,0,1-1.92,1.8h1.41c1.2.85,4.47.23,5.93.28,1,0,3-1.78,1.29-2A27.53,27.53,0,0,1,44.72,38L42.8,39.85a34.93,34.93,0,0,0,11.16,1c.55,0,2.74-.87,1.79-1.74-.79-.73-6.73-5.26-6.51-6.15l-2.3,1.24.12,0c1.15.36,3.39-1.41,1.63-2Z" transform="translate(-2.91 -6)" style="fill:#fec821"/><path d="M47.83,29.24a3.27,3.27,0,0,0-3.16,2.59c-.24,1.29.39,3.75,1.75,4.32,4.57,1.91,4.46-6.08,4-8.37l-3,.31a21.08,21.08,0,0,1,1.38,5.28l2.61-.63c-1.52-.91-1.61-3.07-1.56-4.64,0-.94-.16-3.44,1.73-2.7.52.21.91,2.05.76,2.38-.84,1.87-3.34-1.43-3.87-2.23-.21-.32-1.25-1.9-.8-2.34.59-.59,3.59.49,4.21.68-.11-.4-.23-.8-.35-1.2a5.38,5.38,0,0,1-4.72.87L46,25a73.18,73.18,0,0,0,9.08-1.27l-1.55-1.23a38.07,38.07,0,0,0-6,4.79c-1,1,1.65,1.19,2.15,1a48.93,48.93,0,0,0,7.52-3.77l-2.65-.46a11.67,11.67,0,0,1-2.14,7.24l3-.11c-1.2-2,.57-6.2-2.19-6.87-2.45-.59-5.26,1.26-6.79,3-1,1.18,2,1.07,2.46.85a31.44,31.44,0,0,0,8.16-5.2c.38-.33.12-.77-.27-.93-3.73-1.47-7.31,2.73-10,4.73l2.84.5a26.59,26.59,0,0,1,3-4.65c.89-1.12-1.61-1.15-2.15-1a13.85,13.85,0,0,0-4.09,2c-1.11.77,1.66,1.17,2.15,1A25.07,25.07,0,0,0,53.32,22c.93-.64,0-1.16-.73-1.26a5.89,5.89,0,0,0-2.4.08c-.77.19-2.07,1.13-2.81,1l.36,1.2c1.55-.11,2.08.27,1.61,1.14l-.49,1.48-1,3c-.41,1.24,2.49,1,3,.3L54,24.41l-3-.31-2.77,4,3.05.1c.65-3.75,4.38-4.42,7.57-4.84L58,21.93l-5.69,1,1.55,1.24a23.79,23.79,0,0,1,6.64-2.35L59,20.59a16.23,16.23,0,0,1-7.37,1.66l1.14,1.27a13.47,13.47,0,0,1,6.87-2.21l-1.52-.92c-1.27,1.73-3.78,1.6-4.66,3.75-.46,1.1,2.13,1,2.6.65l4.48-3-2.66-.46a8.22,8.22,0,0,1-2.19,4.24L58.5,26c1.43-1.82,2.87-3.64,4.3-5.47.6-.76-2.34-1.13-3-.3q-2.16,2.73-4.3,5.47c-.64.8,2.28,1.1,2.84.49a9.86,9.86,0,0,0,2.58-5c.19-1-2.25-.73-2.66-.46L53.8,23.78l2.61.66c.75-1.81,3.47-2.12,4.66-3.75.52-.7-1.28-.93-1.52-.92a17.86,17.86,0,0,0-9,2.74c-1.19.75.45,1.27,1.13,1.28a21.18,21.18,0,0,0,9.54-2.19c1.46-.71-.92-1.35-1.55-1.23a29.06,29.06,0,0,0-8,2.78c-1.44.76.93,1.35,1.55,1.24l5.69-1c2.08-.36.54-1.63-.87-1.45-4.1.53-9,1.66-9.79,6.4-.2,1.12,2.64.68,3,.1l2.76-4c.59-.85-2.39-1.17-3-.31l-3.16,4.51,3,.3c.6-1.78,3.18-6.26,1.08-7.74-1.78-1.25-4.81-.13-6.42.83-.74.45-.35,1,.35,1.2a5.83,5.83,0,0,0,2.56.13c1-.19,2.33-1.19,3.39-1L51.1,21a22.08,22.08,0,0,1-4.25,2.3l2.15,1a8,8,0,0,1,3-1.44l-2.15-1a29.65,29.65,0,0,0-3.26,5c-.61,1.2,2.4.82,2.84.49,1.83-1.33,4.3-3.87,6.48-4.42L54,22.93l.59.24-.27-.93a29.49,29.49,0,0,1-7.69,4.88l2.46.84c.74-.82,2.1-2.23,3.32-2.13l-1.1-.5c.72,1,.16,2.5.25,3.59a5.74,5.74,0,0,0,.85,2.78c.51.87,2.48.63,3-.1A12.49,12.49,0,0,0,57.67,24c0-1-2.14-.78-2.66-.45A44.31,44.31,0,0,1,48.11,27l2.15,1a35,35,0,0,1,5.53-4.47c1.31-.89-.83-1.38-1.55-1.23A67.18,67.18,0,0,1,46,23.49c-.92.07-2.37,1.05-.73,1.46a10.55,10.55,0,0,0,8.45-1.25c.75-.47.33-1-.35-1.2-2.3-.69-5.2-1.3-7.58-.63-2.19.61-1.52,2.19-.57,3.8,1.44,2.42,6.88,7.41,9.66,3.78,2.54-3.33-2.21-7.29-5.48-6.2C45.24,24.64,46,32,49.23,33.9c.48.29,2.74.32,2.62-.64a22.36,22.36,0,0,0-1.5-5.68c-.34-.82-3.23-.65-3,.31.25,1.21,1,6.54-.78,7l2.12.2c-.78-.68-1.77-4.16,0-4.39,2.07-.26.56-1.63-.87-1.45Z" transform="translate(-2.91 -6)" style="fill:#fec821"/><path d="M17.68,35a38.42,38.42,0,0,1,9.82-5c1.23-.41-1.21-2.12-2.07-1.83a40.21,40.21,0,0,0-10.24,5.11c-.83.58,1.7,2.23,2.49,1.68Z" transform="translate(-2.91 -6)" style="fill:#fec821"/><path d="M18.37,34.91c0-.31.07-.62.11-.93H15.83c6.29,2,12,5,18.78,5,2.14,0,.34-.68-.77-.68-5.53,0-10.61-3-15.79-4.64-.31-.1-2.59-.51-2.65,0,0,.31-.07.62-.11.93s3,.75,3.08.25Z" transform="translate(-2.91 -6)" style="fill:#fec821"/><path d="M16,34.64c8.65,3.16,17.73,5.86,26,9.86a3.8,3.8,0,0,0,2.09.38c.16,0,1.25-.19.61-.5C36.3,40.3,27.09,37.53,18.27,34.3c-.54-.2-3.53-.14-2.24.34Z" transform="translate(-2.91 -6)" style="fill:#fec821"/><path d="M146.28,40.33c-.16.41-.31.82-.47,1.24-.6,1.58,2,2.27,2.83,1.16a46.15,46.15,0,0,0,6-10.29l-3-.12q2,5.81,3.52,11.78a1.66,1.66,0,0,0,1.51,1.06,56.84,56.84,0,0,1,10.88,2.33c-.14-.84-.28-1.67-.43-2.51L160,48.48c-1.29.63-3.21,1.18-3.82,2.65-.73,1.72-.11,4.28-.05,6.07q.12,4,.25,8.09l2.84-.58q-3.8-5.85-7.91-11.49a1.71,1.71,0,0,0-2.1-.59,34,34,0,0,1-11.48,3.76c.6.69,1.19,1.38,1.78,2.08l7.6-9.46c.59-.73-.16-1.91-1-2a24.85,24.85,0,0,1-11.1-4.71l-.63,2.25a44.39,44.39,0,0,1,13.17-.27c2,.25,1.76-2.5-.08-2.73a47,47,0,0,0-14,.33,1.29,1.29,0,0,0-.63,2.25,28.12,28.12,0,0,0,12.5,5.49c-.33-.69-.65-1.37-1-2L136.86,57c-.91,1.13.79,2.22,1.78,2.08a36,36,0,0,0,12.19-4l-2.11-.59q4.11,5.64,7.91,11.5c.69,1.07,2.89,1,2.84-.57l-.18-5.78c-.06-2-.52-4.41-.2-6.36s2.45-2.32,4.06-3.1l5.62-2.75c1.26-.62.7-2.16-.43-2.52a60,60,0,0,0-11.7-2.46l1.52,1.07q-1.49-6-3.52-11.78a1.61,1.61,0,0,0-3-.12A43,43,0,0,1,146,41.24l2.83,1.16c.15-.41.31-.83.47-1.24.62-1.65-2.35-2.49-3-.83Z" transform="translate(-2.91 -6)" style="fill:#fec821"/><path d="M149,46.79c.82.29,1.64.56,2.47.82-.41-.93-.82-1.85-1.22-2.78a18.71,18.71,0,0,1-9.37-.36L142,47.26a18.83,18.83,0,0,0,5.75-.28c.56-.11-.61-2.73-1.22-2.79-2.58-.25-5-.56-7.09-2.18l.91,2.7a26.72,26.72,0,0,0,6.92,0L145.89,42a13.38,13.38,0,0,1-8.46.05l1.08,2.79a83.34,83.34,0,0,0,12.24-.09c.42,0-.49-2.79-1.22-2.79l-2.43,0c-.4,0-.25.64-.17.88a5.3,5.3,0,0,1,.3,3c-.07.68,1.48,3.12,1.61,2.19l.26-1.89c-.13-1,.35-1.52,1.45-1.62.11-.47-3.9-1.09-4.28-1.16a24.05,24.05,0,0,0-8.11-.44c-.59.08.69,2.64,1.22,2.78,3.58,1,8.86,2.34,12.51,1.2a.3.3,0,0,0,.13-.29c.3-1.78-.89-3.65-1.87-5-.08-.1-.68-.81-.8-.4l-.65,1.18L150.15,45l2.17-4.41c.29-.58-1.14-3-1.45-2.67-1,1.16-2,2.33-3,3.5l1.44,2.67a12.32,12.32,0,0,1,3.38-4.91l-1.45-2.67a28,28,0,0,0-1.77,5.71c-.13.63,1.28,3.16,1.53,2.57a40.71,40.71,0,0,0,1.92-5.57l-1.57-2.38c0,2.86,0,5.73,0,8.59,0,.7,1.61,3,1.61,2.18v-10L151.51,36c.7,3.05,1.39,6.09,2.09,9.14l1.43,1a14.1,14.1,0,0,1-.36-5.56L153.16,39c.72,2.3,1.84,7.19,0,9.22-.84.9-4.79,2.85-6,1.82l1.15,2.14c-.32-1.79,1.86-3.76,3-4.72-.48-.89-1-1.78-1.45-2.67-.46,1-4.15,6-3.85,6.48l.57,1.66A11.71,11.71,0,0,1,148.31,48c.31-.58-1.14-3-1.45-2.67a20.57,20.57,0,0,0-4.72,8.79c-.15.58,1.14,3.22,1.54,2.57a105.79,105.79,0,0,1,6.1-9l-1.57-2.38c-.57,3.33-3.68,5.38-4.9,8.43-.2.51,1,3.09,1.45,2.67a54.05,54.05,0,0,1,8.51-6.86c-.48-.89-1-1.78-1.45-2.67a31.56,31.56,0,0,0-2.5,5.21c.51.86,1,1.72,1.54,2.57.86-3.54,1.89-7,3.08-10.47-.52-.79-1-1.58-1.57-2.37l.18,5c0,.63,1.57,3.1,1.61,2.19q.19-5.21.38-10.41l-1.39-1.26a7.53,7.53,0,0,1,.29,3.55c-.05.64,1.47,2.81,1.57,2.38a9,9,0,0,0,.08-3.75c-.05-.27-1.2-2.83-1.55-2.11a1.7,1.7,0,0,0-.29,1.45c.05.71,1.66,3,1.61,2.19l.21-1.08-1.55-2.11-.05,2.84c.53.79,1.05,1.58,1.57,2.38a11.37,11.37,0,0,0-.7-5.4c-.1-.24-1.36-2.28-1.4-1.26l-.39,10.4L154.16,49,154,44c0-.42-1.35-3-1.57-2.37q-1.8,5.16-3.09,10.46c-.18.72,1.35,3.08,1.54,2.57a31.18,31.18,0,0,1,2.5-5.21c.29-.49-.9-3-1.45-2.68a53.55,53.55,0,0,0-8.51,6.87c.48.89,1,1.78,1.45,2.67,1.28-3.23,4.36-5.27,5-8.81.08-.48-1.09-3-1.57-2.38a105.79,105.79,0,0,0-6.1,9l1.54,2.57a20,20,0,0,1,4.54-8.59l-1.45-2.67c-1,1.9-2.94,5.6-.78,7.56s4.86-4.35,5.45-5.68c.22-.49-.94-3.08-1.45-2.68-1.74,1.41-3.84,3.56-3.22,6,.31,1.2,1.08,2.44,2.4,2.53s3.13-.89,4.21-1.42a2.92,2.92,0,0,0,1.94-2.33c.79-3,.19-6.49-.74-9.41-.07-.24-1.38-2.71-1.51-1.61a17,17,0,0,0,.53,6.7c.21.75,1.87,3,1.43,1L152.93,37c-.07-.32-1.51-2.62-1.51-1.61v10c.54.73,1.07,1.46,1.61,2.18q0-4.29-.05-8.58c0-.51-1.43-2.93-1.57-2.38a43.6,43.6,0,0,1-1.92,5.57L151,44.8a28.43,28.43,0,0,1,1.78-5.71c.21-.5-1-3.09-1.45-2.67a12.86,12.86,0,0,0-3.55,5.11c-.22.54,1.11,3.07,1.44,2.67l3-3.5L150.78,38l-2.17,4.41c-.27.55,1.08,3.06,1.45,2.68.69-.71.56-.44.83-1.39l-.8-.4c.8,1.13-5.52.76-5.87.72a41.26,41.26,0,0,1-5.92-1.15l1.22,2.79a21.14,21.14,0,0,1,6.69.23c1.44.25,3.41,1.08,4.84.92s1.43-1.08.86-2.34c-.47-1-1.74-3-2.93-3.13-2-.29-1.54,3-1.75,4.46L148.84,48a9.53,9.53,0,0,0-.48-4.14l-.18.87,2.43,0L149.39,42a80.93,80.93,0,0,1-12,.08c-.72-.05.44,2.59,1.08,2.79a13.9,13.9,0,0,0,8.74-.06c.58-.2-.62-2.87-1.36-2.78a25.89,25.89,0,0,1-6.64-.06c-.83-.12.62,2.47.91,2.7,2.21,1.69,4.72,2.1,7.43,2.36l-1.22-2.78a17.93,17.93,0,0,1-5.47.27c-.68-.06.4,2.6,1.08,2.79a19.37,19.37,0,0,0,9.65.35c.66-.14-.74-2.64-1.22-2.79-.83-.26-1.65-.53-2.47-.82-.39-.13.26,2.51,1.08,2.79Z" transform="translate(-2.91 -6)" style="fill:#fec821"/><path d="M135.36,42.87a77.21,77.21,0,0,0,8-.7c1.47-.21,2.94-.46,4.4-.76.73-.15,1.45-.32,2.18-.49,1-.62,1.36-.42,1.06.6,0,.5,3.06.71,3.07.35.07-2.19-3.15-2.17-4.7-2-2.5.24-5,1.17-7.53,1.57a71.31,71.31,0,0,1-8.64.79c-1.27,0,1.63.68,2.13.66Z" transform="translate(-2.91 -6)" style="fill:#fec821"/><path d="M151.51,44.53c-.15,2-1.23,9.13,1.5,9.86.72.19,2.45-.83,2.5-1.62.09-1.6.13-3.19.13-4.79,0-.71-2.62.56-2.66,1.38l-.27,6.49,2.63-1.53-2.21-6.6c-.25-.77-2.51,1.06-2.62,1.53l.48,0c-.55.16-2.28,1-2,1.75a26.86,26.86,0,0,0,3.26,6.57c.45.65,2.63-.92,2.63-1.54,0-1.18,0-2.37,0-3.56,0-.72-2.61.58-2.66,1.38a20.29,20.29,0,0,0,.24,4.54c.15.89,2.56-.72,2.66-1.38l.63-4.09-2.65,1.38,1,7.07c.11.82,2.63-.64,2.66-1.38.14-3.4.29-6.79.44-10.19l-2.66,1.39.05,7.45c0,.7,2.65-.55,2.66-1.39a92.86,92.86,0,0,0-.85-13.12l-2.63,1.54c.62.68,4.05,4,3.41,5l2.1-1.23c-1.77.15-2-3.71-1.26-4.69L155.86,46c1.1-.16,1.61,2.32,1.41,3.07l1.74-1.5c-.68.26-.18-2.15-.08-2.28l-1.84,1.19.6,1.86,2.45-1-.3,1.36,1.84-1.18c0-.14,0-.27,0-.4-.62.39-1.23.79-1.84,1.19l1.08-.08,1.69-1.86-1,.19c-.39.07-2.59,1.74-1.89,1.84,1.85.25,4.29-.65,4.36-2.81l-2,1.6-.27,0c.3.6,3-.93,2.59-1.69l-.08-.16c-.08-.17-.47-.1-.58-.07l-.23.07c-.6.16-2,.83-2,1.6l-.15.79,1.34-1.16-.55-.07-1.89,1.84,1-.19c.47-.09,2.83-1.74,1.69-1.86s-3.79.58-3.9,2.14c-.12,1.79,2.12.66,2.8,0,1.21-1.1,1-2.93-.95-2.83a3.83,3.83,0,0,0-3.3,3c-.12.88,2.29-.78,2.45-1,1-1.18,1.44-3.35-.78-3.29A3.56,3.56,0,0,0,156,47.27c-.3,1.9,1,2.57,2.52,1.74s1.69-2.25.9-3.92C157.78,41.6,152.2,48,156,51c1,.81,2.52.21,3.29-.73,1.71-2.11-1.61-4.73-2.95-6.22-.51-.57-2.72.86-2.63,1.53a91.39,91.39,0,0,1,.85,13.12l2.66-1.39-.05-7.45c0-.71-2.62.57-2.66,1.39L154,61.39,156.69,60c-.32-2.36-.65-4.72-1-7.07-.12-.87-2.55.71-2.65,1.38-.21,1.36-.43,2.73-.64,4.09L155.09,57a19.72,19.72,0,0,1-.24-4.54l-2.66,1.38c0,1.19,0,2.38,0,3.57l2.63-1.53a26.51,26.51,0,0,1-3.26-6.57l-2,1.75c1.76-.52,3.13-1.36,3.59-3.23l-2.62,1.54,2.2,6.6c.22.66,2.6-.93,2.63-1.53l.27-6.49L153,49.36c0,1.6,0,3.2-.13,4.8l2.51-1.62c-2.22-.6-1.33-7.62-1.19-9.39.05-.63-2.59.52-2.66,1.38Z" transform="translate(-2.91 -6)" style="fill:#fec821"/><path d="M15.15,132.64l-1.26-10.28-2.58,1.49c1.68,1.38,3.34,2.78,5,4.14a4.57,4.57,0,0,0,2.77,1.42c1.72,0,3.82-1.27,5.4-1.88L31.12,125c-.59-.55-1.17-1.11-1.75-1.67a20.52,20.52,0,0,1-3.93,8.15,1.32,1.32,0,0,0,.47,1.92,16.29,16.29,0,0,1,7.72,6l1-2.14a23.69,23.69,0,0,1-7.79.2c-1.29-.17-2.54-.63-3.72.18a3.21,3.21,0,0,0-1.22,2.46,15.09,15.09,0,0,1-2.22,6.65l2.62-.13-4.07-5.24c-.69-.89-1.42-2.23-2.58-2.6s-2.54.16-3.66.3A27.48,27.48,0,0,1,4.83,139l.57,2.35A25,25,0,0,1,15,134.88c1.76-.66,1.25-3.43-.63-2.73a28.6,28.6,0,0,0-11,7.26c-.68.72-.64,2.18.57,2.35a53.36,53.36,0,0,0,8.48.1c3.47-.06,5.28,3.77,7.25,6.3a1.57,1.57,0,0,0,2.61-.12,16.9,16.9,0,0,0,2-4.15c.15-.52.39-3.65.63-3.83.44-.34,3.8.49,4.65.5a27.66,27.66,0,0,0,5.74-.57,1.53,1.53,0,0,0,1-2.14,18.74,18.74,0,0,0-8.79-7c.16.64.31,1.28.47,1.92a22.43,22.43,0,0,0,4.25-8.83,1.36,1.36,0,0,0-1.75-1.67l-9.35,3.59c-.92.35-1.27.61-2.12.32a6.93,6.93,0,0,1-1.72-1.35l-3.78-3.11a1.61,1.61,0,0,0-2.58,1.49L12.2,133.5c.22,1.83,3.16.89,3-.86Z" transform="translate(-2.91 -6)" style="fill:#fec821"/><path d="M16.08,130.93c-2.74.55-1.06,3.7-.57,5.46.29,1.07,2.77,1.2,3,0a6.24,6.24,0,0,0-2.16-6.57c-.71-.59-2.79-.54-2.84.68-.09,1.91-1,6.16,1.62,6.89,1.89.54,2.82-.7,3.09-2.32.32-1.88-.42-3.61-2.65-3.25-2.56.41-2.58,3.67-2.09,5.64l2.26-1a16.93,16.93,0,0,0-5.63-.42c-1.88.17-1.76,1.94.13,1.87a15.87,15.87,0,0,0,7.35-2.15L15,135.35c0,.21-6.31,1.12-6.77,1.2-1.45.24-1.21,1.64.13,1.8a13.07,13.07,0,0,0,6.54-.9l-2-1.34c-1.33.88-2.68,1.7-4.08,2.45-1.66.9.14,1.88,1.31,1.63a10.24,10.24,0,0,0,4-1.76L11.39,138l-1.06,1.4,1.37.37.59-1.57c1.08-.9-.34-1.53-1.2-1.51l-2,0,.54,1.8A10.84,10.84,0,0,0,18.37,131l-3,0v5.1c0,1.25,3.08,1.08,3.09-.22,0-3.64-.07-7.27-.29-10.9L15,125.2a44.14,44.14,0,0,0,1.23,5.56l3-.46a14.15,14.15,0,0,0-3.11-5.22c-.66-.72-3.53-.16-2.77.92A8.57,8.57,0,0,1,15,130.28l3-.46a9.25,9.25,0,0,1-2-5.09l-3,.46,4.62,10c.5,1.09,2.85.67,3-.46l.1-.7c.17-1.17-2.89-1.09-3.08.21l-.1.71,3-.46q-2.31-5-4.63-10c-.43-1-3.11-.75-3,.47a10.3,10.3,0,0,0,2.13,5.58c.55.73,3.15.89,3-.46a9.54,9.54,0,0,0-1.76-4.78l-2.77.92a12.93,12.93,0,0,1,2.77,4.8c.35,1,3.33.61,3-.46A42.6,42.6,0,0,1,18.12,125c-.2-1.26-3.16-1.07-3.09.22q.33,5.45.29,10.9l3.09-.22v-5.09c0-1.23-2.74-1-3.05,0a8.29,8.29,0,0,1-6.7,6c-1.79.3-.89,1.83.54,1.8l2,0L10,137c-1.41,1.18-2.64,3.4-.14,4.19s4.41-1.25,4.6-3.45c.1-1.14-2.16-.85-2.68-.48a4.87,4.87,0,0,1-2.63,1.18l1.31,1.63c1.6-.87,3.16-1.79,4.68-2.79s-1.15-1.66-2-1.34a6.65,6.65,0,0,1-4.18.55c.05.6.09,1.2.13,1.8,1.78-.3,9-.24,8.9-3.16,0-1.19-2.08-.81-2.68-.47a11.19,11.19,0,0,1-5.2,1.44l.13,1.87a12.08,12.08,0,0,1,4.06.27c.51.13,2.51,0,2.26-1-.35-1.4-.6-2.8.44-4.11l-1.71.55c.25,0-.75,3.43-.43,2.58l1-.73c1.2-.29.65-4.14.7-5.25l-2.84.67a4.93,4.93,0,0,1,1.75,5.16l3.05,0c-.3-1.08-1.3-3-.87-4.16l-1,.73.34-.07c2-.4.6-2-1-1.74Z" transform="translate(-2.91 -6)" style="fill:#fec821"/><path d="M20.36,131.49l-1.55-1.16-.71,1.17a11.15,11.15,0,0,1,5.07,1.87l-.45-2.45c-1.53.17-1.37.54-1.93-.74l.09,1.26c.72-1.5,3.34-1.69,4.81-1.8L24.16,127A4.69,4.69,0,0,1,21,128.17l1.26,2.63a26.75,26.75,0,0,1,4.46-3.62l-2-1.8a7.18,7.18,0,0,1-1,4.23c-.55,1,1.28,3.33,2.1,2.17l2.88-4-2.21-1.62-1.23,1.9,1.93,2.36,1.46-3.06-2.15-1.28c.52,1.39-3.62,5.15-4.38,6.17a16.9,16.9,0,0,0-3,6.63l2.3,1.36c0-1.95.95-8.14-2.61-8.19-.36,0-.7.1-.76.52a31.74,31.74,0,0,0-.15,6.39l1.64-.31a5.77,5.77,0,0,0-4.63-2.12c-.72,0-.48,1.2-.31,1.53l1.18,2.21c.2-.51.39-1,.58-1.53a6.45,6.45,0,0,1-2.7-1.39c-.13.73-.27,1.46-.41,2.18,1.5.92,4.23,3.5,6.19,3.29a1.69,1.69,0,0,0,1.24-.59,14.23,14.23,0,0,0,.42-2.06L19.73,139a6.3,6.3,0,0,1,.12,2.25l2.31,1.06a12.43,12.43,0,0,1,.48-3.61l-2.3-1.37a57.22,57.22,0,0,1,.79,6.78c.05.87,2.2,2.87,2.29,1.36.15-2.3.68-6.53-1.51-8.16-3.21-2.39-3,3.85-3.16,5.42L21,144.36q.59-8,1.57-15.9l-2.1-.66a22.36,22.36,0,0,0,5,6.88l-.16-2.21-2.45-.27c-1.5-.55-1.05,1.48-.4,2.1,2,1.92,4.13,3.74,7.05,3.81,1.62,0,.34-2.59-.76-2.73l-6.49-.82c.25.91.5,1.81.76,2.72l3.85.1-1-2.73a6.14,6.14,0,0,1-3.67.25c-.68-.16-.89.67-.71,1.17,1.46,4.13,6.25,2.44,9.5,1.7,1.33-.3-.09-2.34-.74-2.63l-5.44-2.37c.24.88.49,1.75.74,2.63a8.78,8.78,0,0,1,5.26,1.6l.12-2.36a5.81,5.81,0,0,1-3-2.76l-1.45,1q2.56,2.69,5,5.5l-.16-2.2-1.28.19c-1.58-.1-.39,2.65.76,2.72a3.08,3.08,0,0,0,1.82-.19c1-.33.28-1.69-.16-2.2-1.61-1.88-3.27-3.72-5-5.5-.94-1-2.16-.26-1.45,1a11.35,11.35,0,0,0,5.12,5c1.59.78.88-1.83.11-2.36a11.67,11.67,0,0,0-7-2.15c-1.36,0,.19,2.4.74,2.63l5.44,2.38c-.24-.88-.49-1.76-.74-2.63-.55.12-6.09,1.16-6,1.4-.24.39-.48.78-.71,1.17a6.75,6.75,0,0,0,4.19-.24c1.26-.45,0-2.7-1-2.72l-3.84-.1c-1.62,0-.34,2.58.76,2.72l6.49.83c-.26-.91-.51-1.82-.76-2.73-2.24,0-3.75-1.29-5.3-2.76-.14.7-.27,1.41-.4,2.11a7.35,7.35,0,0,0,3.56.47c1.08-.11.22-1.85-.16-2.2a17.75,17.75,0,0,1-4-5.54c-.26-.53-1.94-2-2.1-.66q-1,7.92-1.57,15.9c-.08,1.06,2.09,3.22,2.28,1.66,0-.45.27-4.52.55-4.62-.85.28-.39,3.25-.44,4l2.3,1.36a57.22,57.22,0,0,0-.79-6.78c-.13-.72-1.86-3-2.3-1.36a15.83,15.83,0,0,0-.5,4.22c0,1.16,2.27,2.9,2.31,1.06,0-1.43.06-4.71-2.06-4.88-.83-.06-.84.36-1.35.83-.93.86,1.64,1.72-2,1-1-.19-2.3-1.41-3.13-1.92-1.76-1.08-1.42,1.42-.41,2.18a12,12,0,0,0,3.88,1.94c.93.28.81-1.1.57-1.53l-1.18-2.21c-.1.51-.21,1-.31,1.53l2.35,1.07c.53.6,1.73.82,1.65-.31a28.63,28.63,0,0,1,.12-5.78l-.76.53-.44-.4c0,.6,0,1.2,0,1.81,0,1,0,2,0,3s2,2.9,2.3,1.36c.78-3.59,2.65-5.94,4.92-8.71,1.14-1.4,3-3.43,2.32-5.37-.18-.48-1.59-2.43-2.14-1.28s-1,2-1.46,3.07.82,3,1.93,2.35a3.21,3.21,0,0,0,1.78-3.38c0-.76-1.42-2.7-2.2-1.62l-2.88,4,2.1,2.17A9.08,9.08,0,0,0,27,126.44c0-.76-1.11-2.4-2-1.8a26.75,26.75,0,0,0-4.46,3.62c-.75.76.25,2.61,1.26,2.63a5.89,5.89,0,0,0,4.19-1.34c1-.8-.54-2.7-1.53-2.63-1.73.12-5.83.61-5.68,3.07.11,1.88,2.64,4.07,4.47,3.89,2-.21,2.3-2.13,1.46-3.66-1.3-2.38-4.16-2.33-6.21-1a.85.85,0,0,0-.28.74c.21,3,3.23,4,5.87,3.7,1.23-.14,0-2.13-.44-2.45a14,14,0,0,0-6.24-2.41c-.74-.09-.82.62-.72,1.17a5,5,0,0,0,5,4.27c1.25,0-.1-2.74-1.3-2.73Z" transform="translate(-2.91 -6)" style="fill:#fec821"/><path d="M13.35,137.91c-.16,3.88,9.11,1.83,5.73-2.82-.38-.51-3.08.12-3,.78.28,2.06.65,4.59,1.79,6.39.43.68.93.8,1.45,1.31a.89.89,0,0,0,.43.08,7.91,7.91,0,0,1,0,1.46l3-.78c-.89-2.48-1.94-6.32-4.8-7.15s-5.82,1.31-8.72.62c-.4-.1-3.14.58-2.65,1,1,.93,2.11.7,3.34.33,1.7-.51,1.54-1.33-.21-.81l-.3-.49-2.65,1c2.12.51,3.85-.11,5.92-.45,2.54-.42,3.79-.1,5.07,2.07a26.88,26.88,0,0,1,2,4.61c.22.59,3-.15,3-.78s0-1.11,0-1.66c0-.16-.47-.17-.51-.17-2.3.11-3-5.86-3.21-7.41l-3,.78a3.51,3.51,0,0,1,.77,1.85c.29,1.87-.55.42-.51-.59,0-.35-2.95,0-3,.78Z" transform="translate(-2.91 -6)" style="fill:#fec821"/><path d="M14.91,132.61a15,15,0,0,0,.33-3.46c0-.8-3-.26-3,.79l0,6.33c0,.78,2.92.23,3-.61a31,31,0,0,0-.2-7.07c-.38-2.48-1.34-4.84-1.3-7.37L11,122.29c2.33,1.15,4.61,2.38,6.82,3.73,1.65,1,4.85,2.34,5.65,4.11.42.94,3.34,0,3-.79-.9-2-4.06-3.33-5.85-4.43-2.34-1.43-4.74-2.74-7.2-4-.7-.34-2.68.12-2.7,1.07,0,2.2.71,4.18,1.12,6.32a29.6,29.6,0,0,1,.4,7.75l3-.61,0-6.32-3,.79a12.64,12.64,0,0,1-.33,3.08c-.21,1,2.77.51,3-.41Z" transform="translate(-2.91 -6)" style="fill:#fec821"/><path d="M138.1,199.13a26.28,26.28,0,0,1,5.21-16.19c1.3-1.74,3.81-5.14,6-5.76q1.71-1.52,3.14,1.39a6.87,6.87,0,0,1-.08,3.37q-2.13,4.08-4.93-1.83a23.28,23.28,0,0,1-.08-2.64,30.41,30.41,0,0,1,4.74-15.29,31.39,31.39,0,0,1,4.66-5.74c.94-.91,4.66-4.79,6.18-4.29l-1-1.53.07-.25,1.28.63-.08-.14c-.68-1.26-2.12-.48-1.44.78l.08.14a1.06,1.06,0,0,0,1.27.63l.24-.09a.76.76,0,0,0,.35-.58l0-.23a1.46,1.46,0,0,0-1-1.52c-2.51-.83-7.16,4.35-8.69,6a32.7,32.7,0,0,0-6.71,11.27,29.29,29.29,0,0,0-1.68,12.48c.3,2.78,2.21,6.84,5.71,6.05,3.73-.85,3.38-5.85,2.54-8.6-1.16-3.83-4.08-3.34-6.83-1.23a28,28,0,0,0-10.71,22.79c0,1.16,1.83,1.87,1.8.36Z" transform="translate(-2.91 -6)" style="fill:#fec821"/><path d="M173.81,124.47l-.18.06c-.41.14-.91.52-.91,1a1.74,1.74,0,0,0,.81,1.62,1.79,1.79,0,0,0,1.88,0c1.42-.81,1.73-3,2.25-4.43.93-2.56,1.86-5.13,2.8-7.69l-3-.39a59.36,59.36,0,0,0,1.68,7.21c.44,1.41.79,3.42,2,4.43s2.88,1,4.23,1.25l7.56,1.48c-.26-.77-.53-1.55-.79-2.33a61.79,61.79,0,0,1-7.89,4c-.49.21-1.08.73-.89,1.36a64,64,0,0,1,2.5,12.79l2.44-1.15a21,21,0,0,1-7.17-8.37,1.71,1.71,0,0,0-2.65-.35,62.66,62.66,0,0,1-9,7.54l2.49,1.25q1-5.36,2.51-10.59c.29-1-1.07-1.51-1.77-1.49a14.71,14.71,0,0,1-9.17-2.94c-.1.74-.2,1.48-.29,2.22a45.76,45.76,0,0,1,12.22-1.49c2,0,1.32-2.57-.49-2.58a49.14,49.14,0,0,0-13,1.65,1.21,1.21,0,0,0-.29,2.21,18.47,18.47,0,0,0,11.5,3.51l-1.78-1.5c-1,3.5-1.83,7-2.51,10.59-.24,1.25,1.63,1.86,2.5,1.26a67.87,67.87,0,0,0,9.51-8l-2.65-.35a24,24,0,0,0,8.15,9.43c1,.65,2.56.14,2.44-1.15a62.52,62.52,0,0,0-2.5-12.79l-.89,1.35a67.59,67.59,0,0,0,8.56-4.37c1.23-.75.27-2.12-.8-2.33l-4.32-.85c-1.56-.31-3.82-.37-5.14-1.26-2.31-1.56-2.81-7.25-3.28-10-.21-1.24-2.49-1.67-3-.39q-1.09,3-2.2,6c-.36,1-1,4.55-1.91,5l1.89.05-.2-.15c.21.4.41.8.61,1.2v-.26l-.91,1,.18-.06c1.9-.66.4-3-1.25-2.42Z" transform="translate(-2.91 -6)" style="fill:#fec821"/><path d="M166.28,128.2l-.09-.06a1.41,1.41,0,0,0-1.9.27l-.08.14c-.39.64.29,1.45.83,1.72,1.63.84,3.71-.43,5.26-.94l4.42-1.46c.65-.21,4-1.69,4.17-1.59l-.93-1.43,0,.23c-.19,1.43,2.7,2.48,2.92.87l0-.23a1.58,1.58,0,0,0-.93-1.44c-1.79-1-3.81.26-5.57.84L170,126.57l-2,.65c.09,0-2.63.68-1.89,1.05.27.58.55,1.16.83,1.73l.07-.13-1.89.27.09.06c1.65,1,2.7-1,1.07-2Z" transform="translate(-2.91 -6)" style="fill:#fec821"/><path d="M174.73,127.35a22.17,22.17,0,0,0-.28,4.67c0,1,2,2.34,2.72,1.12a9.49,9.49,0,0,0,.93-7.26c-.26-1-1.92-1.67-2.65-.78a6.85,6.85,0,0,0-1.66,4.82,1.79,1.79,0,0,0,2.21,1.5,4.89,4.89,0,0,0,3.18-5.16,1.81,1.81,0,0,0-2.21-1.49,20,20,0,0,0-6.61,3.45c-1.16.91.43,2.49,1.5,2.4a7.84,7.84,0,0,0,5.85-3.19c.85-1.12-1.06-2.43-2.06-2.11a11.15,11.15,0,0,0-5.94,4.42l1.57-.3a7.59,7.59,0,0,0-3.83-.42c-2,.3-.53,2.54.88,2.61l6.42.3c-.4-.84-.81-1.69-1.21-2.54a10,10,0,0,1-6.09.18c-1.82-.49-1.46,1.89-.22,2.45a26.69,26.69,0,0,0,9.87,2.27c1.87.08.64-2.31-.52-2.58l-6.1-1.39.52,2.59c2.43,0,5.51-.37,7.88.21l-1.44-1.2c.34.77-1,2.29-1.47,2.88l2.69,1.44A10,10,0,0,1,180,132c.79-1.35-1.64-3-2.56-1.73l-4.91,6.83,2.56,1.73a62.93,62.93,0,0,0,3.27-6.58c.53-1.23-2-2.64-2.69-1.44q-1.74,2.86-3.5,5.73l2.7,1.44a4,4,0,0,1,1.19-2.38l-2.56-1.73a22.47,22.47,0,0,0-3.16,6.65c-.38,1.31,1.84,2.57,2.7,1.44q4.43-5.8,8.56-11.82l-2.7-1.44-.63,2.77,2.84.83a69.34,69.34,0,0,1,.78-8.64c.22-1.48-2.57-2.78-2.82-1.15a20.45,20.45,0,0,1-2.54,7.29l2.69,1.44a45.73,45.73,0,0,1,1.51-8.12c.35-1.24-1.94-2.69-2.69-1.44a10,10,0,0,1-1.45,1.91l2.69,1.44a16.15,16.15,0,0,0,1.07-5.23c.05-1.27-2.48-2.34-2.85-.83l-.84,3.36,2.82,1.15L180,121l-2.85-.83c.2,3.8.26,7.64.65,11.43.24,2.3.38,5,2.7,6a1.36,1.36,0,0,0,1.35-.08c2-1.82.47-5.72-.2-7.91-.36-1.15-2.92-1.91-2.81-.18A9.1,9.1,0,0,0,181,135c.6.74,2.56.88,2.42-.46q-.33-3-.75-6l-2.81-.18a83,83,0,0,1,2.23,11.15c.19,1.41,2.75,2.37,2.88.5a22.65,22.65,0,0,0-.48-6.41c-.26-1.24-2.88-1.85-2.81-.17a20,20,0,0,0,2.45,8.8c.48.88,2.93,1.41,2.66-.16-.9-5.1-1-11.35-4.45-15.5l-1.27,1.88a19.76,19.76,0,0,1,4.38,2c.19-.75.39-1.5.58-2.26a20.68,20.68,0,0,1-5.2-1.8l.15,2.47c1,0,4.65.69,1.76.59-1.75-.07-.8,2.45.52,2.58a11.72,11.72,0,0,0,6.29-1c1.2-.54.52-2.05-.48-2.41a14.63,14.63,0,0,0-4.53-.88c.4.85.81,1.69,1.21,2.54a9.77,9.77,0,0,1,3.84-.31c1.85.14,1.52-1.83.22-2.45l-.17-.08c-.45-.21-1.31-.21-1.58.3l-.12.23a1.42,1.42,0,0,0,.62,1.84,7.09,7.09,0,0,0,1.61.41l-1-2-.11.24,1.57-.31-.17-.07c-1.86-.81-2.21,1.63-.59,2.34l.17.07c.44.19,1.32.23,1.58-.3l.11-.24c.44-.89-.21-1.62-1-2-.34-.18-1.93-.6-.88,0,.21.62.41,1.23.62,1.84l.12-.23-1.57.31.17.08c.07-.81.14-1.63.22-2.45a16.5,16.5,0,0,0-5.24.39c-1.79.42.17,2.5,1.22,2.54a7.86,7.86,0,0,1,3.06.62l-.48-2.41a9.16,9.16,0,0,1-4.89.89l.51,2.58c1.87.07,5.91-.31,4.63-3.19-1.16-2.59-5.87-2.66-8.15-2.6-1.73,0-.77,2,.15,2.47a23.41,23.41,0,0,0,5.94,2c1.55.32,1.67-1.57.58-2.25a23.17,23.17,0,0,0-5.11-2.41c-1.41-.47-2.22.74-1.27,1.88,2.78,3.34,2.79,9.43,3.52,13.58l2.65-.16a16.79,16.79,0,0,1-2-7.47l-2.81-.18a20.55,20.55,0,0,1,.34,5.75l2.88.5a89.75,89.75,0,0,0-2.36-11.81c-.33-1.19-3-1.85-2.81-.17.28,2,.52,4,.74,6l2.41-.46a5.06,5.06,0,0,1-1.27-3.55l-2.81-.17c.26.83,1.71,4.74.83,5.56l1.35-.07c-.71-.32-.64-6.84-.68-7.57l-.37-7c-.06-1.19-2.55-2.42-2.85-.83l-.45,2.44c-.27,1.45,2.41,2.79,2.82,1.15l.84-3.36-2.85-.83a14.15,14.15,0,0,1-1,4.59c-.54,1.39,1.8,2.36,2.69,1.44a9.62,9.62,0,0,0,1.45-1.91l-2.69-1.44a45.73,45.73,0,0,0-1.51,8.12c-.11,1.14,1.89,2.83,2.69,1.44a22.42,22.42,0,0,0,2.8-7.87l-2.82-1.15a73.89,73.89,0,0,0-.83,9.28c0,1.25,2.49,2.35,2.85.83.21-.92.42-1.85.64-2.77.29-1.27-1.86-2.66-2.7-1.44q-4.12,6-8.56,11.82l2.69,1.44a20.7,20.7,0,0,1,2.9-6.07c.9-1.3-1.59-2.95-2.56-1.73a6.9,6.9,0,0,0-1.45,3c-.31,1.25,1.92,2.71,2.69,1.44q1.74-2.86,3.5-5.73l-2.7-1.44a56,56,0,0,1-3,6c-.77,1.35,1.64,3,2.56,1.73,1.64-2.28,3.28-4.55,4.91-6.83l-2.56-1.73a11.45,11.45,0,0,0-1.63,4.86c-.13,1.27,1.72,2.65,2.69,1.44,1.1-1.37,2.88-4,1.09-5.53a4.35,4.35,0,0,0-2.86-.6l-6.64-.1c-1.88,0-.64,2.32.51,2.58l6.11,1.39c-.17-.86-.35-1.72-.52-2.58a22.65,22.65,0,0,1-8.4-2c-.07.82-.15,1.64-.22,2.45a12.44,12.44,0,0,0,7.49-.25c1.75-.59-.14-2.49-1.22-2.54l-6.42-.31c.29.87.58,1.74.88,2.61l2.36.15a1.34,1.34,0,0,0,1.58-.31,9.09,9.09,0,0,1,4.93-3.67l-2-2.1A5.49,5.49,0,0,1,171,128l1.5,2.4a18.25,18.25,0,0,1,6-3.16l-2.21-1.5a2.92,2.92,0,0,1-1.85,3.19l2.21,1.49a5.09,5.09,0,0,1,1.35-3.6l-2.65-.79a7,7,0,0,1-.76,5.37l2.72,1.12a19.54,19.54,0,0,1,.23-4c.23-1.47-2.56-2.77-2.82-1.14Z" transform="translate(-2.91 -6)" style="fill:#fec821"/></svg>