<svg id="Layer_1" data-name="Layer 1" xmlns="http://www.w3.org/2000/svg" viewBox="0 0 147.47 125.74"><path d="M147,50.27c-4.54-.83-9.14-1.26-13.72-1.82-2-.24-4-.49-6-.78a1.61,1.61,0,0,0-1.28-.2c-9.68-1.52-18.56-4.24-24.85-12.89C93.26,23.76,88.29,11.16,80.28.43,78.7-1.68,67.92,4.57,69,6.93c.91,1.94-2,6.2-2.85,7.78-1.44,2.67-3.05,5.23-4.55,7.86a152.08,152.08,0,0,1-8.18,13.51C52,38,50.5,39.81,49,41.65c-.94.06-1.9.1-2.87.15l-14.48.88L10,44C8.33,44.11-2.17,49.71.4,51.12c7.93,4.33,15.78,8.83,23.79,13,4,2.1,10.22,3.79,13.94,7.21,0,.27.19.43.52.49a9.4,9.4,0,0,1,2,3c1.54,3.87-.63,7.77-1.87,11.4-1.41,4.11-2.36,8.41-3.47,12.6q-1.74,6.54-3.47,13.06c-1.06,4-3.21,8.82-3.21,13,0,2.66,7.22-1.55,8-2.13L55,109.21c3.93-2.9,10.2-10.72,15.36-8.6,2.91,1.2,5.65,3.76,8.22,5.57,3.13,2.2,6.28,4.38,9.42,6.57C94,117,100,121.28,106.16,125.38c2.28,1.52,12-3.58,11.26-6.5q-3.33-13.27-6.64-26.54c-1.07-4.25-2.19-8.49-3.19-12.75-.5-2.14-1.27-4.57-1-6.78,0-.12.15-.56.28-1,3.12-1.06,6.2-2.49,9.18-3.85,3.81-1.74,7.53-3.69,11.25-5.61,1.6-.82,3.2-1.65,4.8-2.45,1.22-.61,3.89-2.53,5.22-2.53,2.48,0,5.51-2,7.39-3.44C145.16,53.62,148.79,50.6,147,50.27ZM108.15,67c-3.89,1.65-7.62,3.62-10.48,6.66-3.56,3.79-2.36,8.77-1.12,13.39a96.49,96.49,0,0,1-7.5,11.84,34.36,34.36,0,0,0-8-5.1.64.64,0,0,0-.09-.48c-1.09-1.49,5.89-8.54,7.22-10.18q4.27-5.33,8.57-10.64,7.5-9.32,15-18.62c1.3.26,2.62.49,3.93.69A141.93,141.93,0,0,1,108.15,67ZM51.92,68.36a9.48,9.48,0,0,0-1.94-3Q65.52,46.25,81.34,27.32c1.58,2.85,3.2,5.68,4.93,8.44a11.58,11.58,0,0,0-1,1q-12,13-23.45,26.41c-3,3.59-6.33,7.2-9.51,10.91A9.6,9.6,0,0,0,51.92,68.36Zm-5,24.11c.24-.9.48-1.8.71-2.7a8.87,8.87,0,0,0,3-2.88c5.22-9.64,13.49-18.07,20.56-26.4Q80,50.13,89.14,40.08c.54.76,1.1,1.53,1.67,2.28a28.16,28.16,0,0,0,2.44,2.74c-.27.24-.51.48-.73.71a630.3,630.3,0,0,0-48.81,58.67ZM21.68,50.11c4.56-.23,9.12-.5,13.67-.85l-.5.48c-1.59,1.65-3.14,3.33-4.68,5C27.32,53.26,24.5,51.69,21.68,50.11Zm13.25,7.11A14.8,14.8,0,0,0,36,56.08c2.2-2.56,4.49-5,6.81-7.5,5-.63,10.94-3,14-7,4.08-5.43,8.36-10.8,11.84-16.7,1.92-3.26,3.83-6.56,5.7-9.87,1.44,2.39,2.82,4.84,4.18,7.29a12.89,12.89,0,0,0-1.31,1.36q-16,19.1-31.78,38.44c-3.1-1.69-6.63-2.91-9.33-4.23ZM55.5,103.78c-2.71,2.23-5.49,4.37-8.28,6.48A615.11,615.11,0,0,1,97.15,48.31a33.87,33.87,0,0,0,9.2,4.23,14.55,14.55,0,0,0-3,2.75q-9.81,12.17-19.6,24.34L73.91,91.8c-.38.47-1,1.13-1.72,1.88C66,95.49,60.27,99.87,55.5,103.78Zm37.43-1.91-.16-.12A15.21,15.21,0,0,0,97,98.25c.62-.75,1.2-1.53,1.79-2.3q1.52,6.09,3,12.18C98.87,106,95.9,103.94,92.93,101.87Zm13.13-29.75.75-.26C105.79,72.61,103.61,72.9,106.06,72.12Zm.86-.35c.14-.45.27-.87.26-.88C107.38,71.22,107.22,71.52,106.92,71.77ZM119,62.52c1.53-2.27,3-4.57,4.39-6.92,2.52.3,5,.58,7.55.9C127,58.53,123.07,60.63,119,62.52Z" style="fill:#efc535"/></svg>