<svg id="Layer_1" data-name="Layer 1" xmlns="http://www.w3.org/2000/svg" viewBox="0 0 102.75 209.38"><path d="M61.06,31.07l37.63,1.24c-.72-1-1.43-2-2.14-3l-15.79,14c-2.63,2.33-5.27,4.64-7.89,7-1.41,1.25-2.63,2.07-3,4C69.17,58.61,72.49,65,74,68.91,76.45,75.09,79,81.21,78.52,88l2.63-.4L65.54,75.92c-3.42-2.55-8.41-8.19-13-8.23A7,7,0,0,0,48.88,69c-3,1.72-5.8,3.71-8.85,5.36a107.48,107.48,0,0,1-18.71,7.81l3,1.94c-.17-6.55,2.35-12.48,5.38-18.16,1.61-3,6.45-8.45,5-12-.76-1.92-3.46-3.28-5-4.38l-8.56-6.31L2.65,29.56c.11.91.23,1.82.34,2.73a64.88,64.88,0,0,1,19.74-1.61c2.9.13,5.78.36,8.67.56,2.09.15,5.2.91,7.17-.28,1.35-.81,1.71-2.31,2.12-3.72.86-3,1.54-5.94,2.6-8.85A72.8,72.8,0,0,1,52.53,1.16L49.05.07A148.63,148.63,0,0,1,57.1,28.5c.3,1.7,4.14,2.95,3.75.75A154.08,154.08,0,0,0,52.57,0C52.13-1.1,50-2.35,49.09-1.08a74.69,74.69,0,0,0-8.27,14.72,71.88,71.88,0,0,0-2.48,6.86c-.91,3-.73,7.31-4.37,7.77-2.45.31-5.41-.38-7.87-.55-3.14-.21-6.29-.4-9.45-.42A60.63,60.63,0,0,0,.78,29.18c-1.57.41-.4,2.18.34,2.73l15.7,11.56,8.56,6.31c2.66,2,6.52,3.68,4.48,7.37-4.57,8.27-9.57,16.42-9.31,26.19,0,1.24,1.87,2.29,3,1.94A113.33,113.33,0,0,0,38,79.64q3.3-1.56,6.48-3.34c2.15-1.2,4.37-3.16,6.62-4,5.18-2,11.06,4.61,15.06,7.6L79.62,89.91c.59.44,2.55.86,2.63-.4.72-10.93-5.51-19.88-8-30.17-.86-3.67.07-5.06,2.8-7.48l7.89-7L99.46,32.09c1.46-1.29-.91-3-2.14-3L59.7,27.83c-2.48-.09-.41,3.18,1.36,3.24Z" transform="translate(0 1.62)" style="fill:#fec821"/><path d="M78,85.89a2.64,2.64,0,0,0,.28-.36c.77-.43,1.62-1,1.59-1.46a2.49,2.49,0,0,0-.26-.92,3.83,3.83,0,0,0,.54-.89c1.17-2.78-1.76-6.22-3.52-8a1.19,1.19,0,0,0-.31-.22c-.26-.49-.53-1-.82-1.43,1.07-2,.35-3.87-.28-6.2-1.17-4.33-2.45-8.63-3.79-12.91,1.94-2,3.74-4.09,5.34-5.89a2.92,2.92,0,0,0,.31-2.26,56,56,0,0,0,8.75-6.45l0-.06c2.44-1.05,4.87-2.16,7.26-3.34,1-.48,1.7-3.57.07-3.57q-8.38,0-16.71-.75L75.82,31c-.08-.63-.39-1.15-1-1.19-2.69-.22-5.36-.56-8-1a1,1,0,0,0-.47-.47,2.85,2.85,0,0,0-2.85,0,1.32,1.32,0,0,0-.48.41,27.92,27.92,0,0,1-3.31.14,1.08,1.08,0,0,0-.77.32,22,22,0,0,1-1.44-2.82.41.41,0,0,0,.22-.28,10.64,10.64,0,0,0,.39-3.87c.52-.33.22-1.17-.34-1.87a11.81,11.81,0,0,0-2.94-4.92A2.64,2.64,0,0,0,54,15l.25-.53c.23-.48-.16-1.45-.71-2.14,0-1.5-.1-3-.14-4.5,0-1-2.2-3.29-2.64-1.59a1.16,1.16,0,0,0,0,.18c-.49-.8-1.78-2.16-2.28-1.12-.06.1-.1.21-.15.31l-.06.07A7.91,7.91,0,0,0,46.93,9.8c-.45-.29-.9-.33-1.18.13a23.63,23.63,0,0,0-2.19,4.61l-6.64,14c-.3.35-.6.7-.88,1.07a61.48,61.48,0,0,0-22.82-1.53,1.41,1.41,0,0,0-1,.56l-1-.33a1.48,1.48,0,0,0-2,1,1.78,1.78,0,0,0-1.8,2.37,2.05,2.05,0,0,0-.13,3.12,14.67,14.67,0,0,0,2.9,1.52,1.72,1.72,0,0,0,1,1.94l9.1,3.63a2,2,0,0,0,.84,2.51c1.12.57,2.23,1.17,3.32,1.78a1.84,1.84,0,0,0,.46,2.37l.37.22h0c3.29,2.06,6.64,4,10,5.93-.44.49-.88,1-1.31,1.5-.6-.79-2.4-.28-2.77,1-.51,1.82-1.12,3.6-1.8,5.34-.7,1.16-1.37,2.33-2,3.54l-3.35,4.72a1.61,1.61,0,0,0-.17.89l-1.08.91a2.26,2.26,0,0,0-.29,2.19c-2.24,3-4.45,6-4.61,10,0,.74.48,1.53,1.35,1.26,10.8-3.47,20.83-8.95,30.82-14.31a.49.49,0,0,0,.17,0l1.57-.18c2.73,2,5.5,4,8.34,6,5.47,3.68,12.14,6.52,17.13,10.78C78.2,89.12,78.38,87.12,78,85.89ZM54,24.7l.49-.39a28,28,0,0,0,1.1,2.8l-.4-.27A2.89,2.89,0,0,0,54,24.7ZM39.7,30.76q.51-.56,1-1.05a5.86,5.86,0,0,1-.22,1v0h0c0,.09-.05.19-.08.28a1.28,1.28,0,0,0,.09.75l-.3.14A1.59,1.59,0,0,0,39.7,30.76Zm8.88,1.11,0-.14a1.07,1.07,0,0,0,.34-.09l.41-.22.16.2-.77.38Zm15.08,1.36a.81.81,0,0,0,.49.18c.21,0,.41,0,.61,0l-2.43.34a3.69,3.69,0,0,0-.43-.72l-.14-.16C62.39,33,63,33.13,63.66,33.23ZM30.54,40.94a53.43,53.43,0,0,0-4.86-2.71,1.71,1.71,0,0,0,.25-.22,36.37,36.37,0,0,1,4.94,3.07Zm6.09-1.54,2.21.51a6.93,6.93,0,0,0-.75.43C37.61,40,37.12,39.71,36.63,39.4ZM44.7,55.24l-.45.33-.75-.38h0C43.89,55.22,44.3,55.23,44.7,55.24Zm-6.13,4.23-.75.63c.59-1,1.14-2,1.67-3.07l.92.49Zm23.24,3.06-.48.19,0,0-1.12-.43C60.7,62.36,61.25,62.44,61.81,62.53Zm-.37-8.62H61a2.18,2.18,0,0,0,.22-.51l1.54-.6ZM58.93,46.6a2.56,2.56,0,0,0-.13.68L58,47.06l.37-.45ZM22.45,79.47a2.18,2.18,0,0,0,.42.74,3.82,3.82,0,0,0,.2,1.57c-.6.22-1.19.45-1.79.65A12.09,12.09,0,0,1,22.45,79.47Z" transform="translate(0 1.62)" style="fill:#fec821"/><path d="M102.09,205c-9-7.53-18.71-15.52-23.73-26.44a41.05,41.05,0,0,1-1.67-4.09,10.29,10.29,0,0,0,6.5-2.45c4.52-3.85,2.45-12.7-4.25-11.65-5.58.88-6.63,5.43-6,10.27a18.82,18.82,0,0,1-8.55-4.22,34,34,0,0,1-10.3-16,33.21,33.21,0,0,1-1.65-9.69c3.16,1.77,6.46,2.48,9.22.66,4.89-3.21,7.3-14.36-.39-15.62-6.11-1-9.74,4.07-11.18,9.46a27.94,27.94,0,0,1-8.9-11.89c-4.78-12.23.54-26.07,11.38-33,1.62-1-.29-4.13-1.91-3.08a30.94,30.94,0,0,0-8.45,44,39.62,39.62,0,0,0,7.26,7.5,20.18,20.18,0,0,0-.08,2.3,39.61,39.61,0,0,0,11.92,26.65,26.1,26.1,0,0,0,12.37,6.56,39.23,39.23,0,0,0,2.64,6.85c5.42,10.7,14.82,18.67,23.88,26.21A1.5,1.5,0,1,0,102.09,205Zm-46.2-73.71c.91-.87,3.4-2.66,4.79-2.2a3.82,3.82,0,0,1,2.09,3.62,9.15,9.15,0,0,1-.67,2.12c-1,2.48-2.24,4-4.91,3.83a9.42,9.42,0,0,1-4.36-1.59A11,11,0,0,1,55.89,131.28Zm22,33.33a3.75,3.75,0,0,1,2-.78c.73-.3,1.3,0,1.7.78,1.16.49,1.36,1.25.61,2.3-.54,2.83-3.58,3.82-6.36,3.93a11,11,0,0,1-.06-1.9A5.77,5.77,0,0,1,77.94,164.61Z" transform="translate(0 1.62)" style="fill:#fec821"/></svg>