<svg id="Layer_1" data-name="Layer 1" xmlns="http://www.w3.org/2000/svg" viewBox="0 0 151.57 164.22"><defs><style>.cls-1{fill:#efc639;}</style></defs><path id="Path_1" data-name="Path 1" class="cls-1" d="M62.53,34.39V32.67l2.29-1.51-.11-.26-1.84.9.27-.82-.76-1,1-.49L63,29.16c.09-.62.36-1.22.19-1.63A4.15,4.15,0,0,1,63,24.67c0-.08.1-.18.08-.21-.54-.86.14-1.81-.2-2.68,0-.12.15-.31.21-.47s.07-.37.14-.54.24-.49.44-.88a6.23,6.23,0,0,1-.53-3.66,12.85,12.85,0,0,0,0-3.22,40.94,40.94,0,0,1,0-4.7c.17-1.61,0-3.21.11-4.8A19.37,19.37,0,0,1,63.72,1c.13-.63.27-1.28.42-2,.57.18.27,1.75,1.52,1,.16,1.3.27,2.49.46,3.66.57,3.46,1.15,6.91,1.77,10.36.53,2.92,1,5.86,1.68,8.76.71,3.13,1.58,6.24,2.36,9.36a5.39,5.39,0,0,1,.16,1.39,14.53,14.53,0,0,0,.76,4.62c.39,1.25.59,2.56.88,3.84s.57,2.71.9,4.06c.5,2,1,4,1.59,6a2.16,2.16,0,0,0,1,1.22,11.11,11.11,0,0,0,2.92,1,5.62,5.62,0,0,0,1.81-.39c.35-.07.81-.24.78.25.48-.12,1.1-.1,1.46-.4.92-.78,2.2-1.11,2.79-2.32A7.44,7.44,0,0,1,88.13,50c.35-.4.75-.75,1.08-1.16s.63-.88,1-1.29c.64-.76,1.34-1.48,2-2.27.4-.52.64-1.15,1-1.67.95-1.29,2-2.55,2.94-3.82a24.06,24.06,0,0,1,1.79-2.24c1.08-1.09,1.92-2.36,3-3.47.86-.89,1.51-2,2.35-2.9,1.21-1.33,2.55-2.55,3.78-3.86.85-.9,1.57-1.92,2.41-2.84s1.83-1.81,2.71-2.74c.58-.6,1.08-1.27,1.65-1.88a6,6,0,0,1,1.07-.88c.05,0,.44.24.42.32a11.36,11.36,0,0,1-.42,1.37c-.24.74-.45,1.49-.75,2.2q-1.21,2.94-2.5,5.85c-1.2,2.74-2.43,5.48-3.65,8.22-.4.91-.83,1.81-1.2,2.74-.67,1.69-1.35,3.37-1.92,5.09-.78,2.34-1.43,4.72-2.23,7A27.19,27.19,0,0,1,101.1,55c-.09.18-.37.26-.58.39a2.89,2.89,0,0,1-1,2.41.69.69,0,0,0-.2.48,2.23,2.23,0,0,1-.93,2c0,.27.21.63.11.81a6.39,6.39,0,0,1-1.15,1.44c-.21.19-.65.13-1,.34.74.19.69,1.33,1.63,1.18.07,0,.2.16.26.27.51,1.22,1.65,1.38,2.74,1.6a4.38,4.38,0,0,0,2.06.25,9.65,9.65,0,0,1,2.45-.28c1.22-.11,2.44-.17,3.66-.25a9.43,9.43,0,0,1,2.43-.13c.66.14,1.2-.33,1.82-.11a1.94,1.94,0,0,0,.89.14,4.39,4.39,0,0,0,1-.4,13.22,13.22,0,0,0,3.87-.09v-.21c.22.2.44.4.52.46a11.09,11.09,0,0,1,1.51-.49c.73-.11,1.47-.12,2.2-.18,1.36-.09,2.72-.15,4.06-.28,1.74-.17,3.48-.42,5.22-.59.66-.07,1.35,0,2,0s1.31-.24,2-.33l5.64-.7,5.85-.77,5.69-.8a4.21,4.21,0,0,1,.71,0,9.44,9.44,0,0,1-1.58,1.16c-1.76.76-3.57,1.44-5.36,2.16-1.36.55-2.7,1.17-4.08,1.65s-2.9.83-4.34,1.3c-.73.24-1.41.61-2.13.87-.88.31-1.78.56-2.67.87-2.59.91-5.18,1.81-7.76,2.76-1.9.7-3.75,1.5-5.65,2.23-1.37.53-2.75,1-4.12,1.53s-2.71,1.07-4.06,1.64c-1.6.69-3.21,1.38-4.77,2.15-.87.43-1.63,1.07-2.49,1.52s-1.5.57-2.25.88c-.92.39-1.82.8-2.73,1.21a9.93,9.93,0,0,0-.91.49c-1,.6-2,1.19-3,1.84a.69.69,0,0,0-.36.91.66.66,0,0,0,.17.23h-.9c-.13.33-.25.65-.33.84l1.2-.35-.63,1.8.92-.74a7.12,7.12,0,0,0,.77,1.44c.63.69,1.38,1.29,2.07,1.93a45.64,45.64,0,0,1,3.51,3.3,13,13,0,0,0,2,1.75,2.2,2.2,0,0,1,.82,2.42l.6-1c2,2,4,3.84,6,5.78.54.53.9,1.24,1.44,1.78,1.05,1.07,2.2,2.06,3.25,3.13.82.83,1.54,1.76,2.33,2.63.39.42.82.81,1.24,1.21,2,1.88,4,3.72,5.92,5.61s3.62,3.6,5.43,5.39a13.77,13.77,0,0,1,1.16,1.13,2.41,2.41,0,0,1,.76,2.45,2.82,2.82,0,0,0,.05,1l-.63-.67c-.92.89-1.54-.08-2.18-.43-2.61-1.43-5.15-3-7.75-4.42-1.8-1-3.65-1.94-5.5-2.88s-3.58-1.8-5.38-2.69c-1.29-.64-2.64-1.19-3.88-1.92-2-1.2-4.25-2-6.37-3.09-2.33-1.15-4.59-2.47-6.88-3.69-1.51-.81-3-1.56-4.55-2.35a4.07,4.07,0,0,0-3-.21c-.7.18-1.43.08-2,.76a10.14,10.14,0,0,0-1.29,1.95c-.56,1-.19,2-.13,3,0,.58.18,1.15.23,1.73.14,1.57.28,3.15.38,4.73s.13,3.13.23,4.7c.12,1.76.33,3.52.4,5.28.1,2.19.08,4.38.14,6.58,0,.75.19,1.5.21,2.25,0,1.33,0,2.66,0,4s0,2.72,0,4.08c0,1,0,2,0,3,0,1.6,0,3.2.05,4.8.08,1.34.36,2.66.46,4s.09,2.61.11,3.92c0,1,0,2.09,0,2.88l-1-1.52s.24-.2.24-.38-.21-.33-.35-.49a.8.8,0,0,1-.27-.4c-.3-.33-1.07-.16-.89-1-.67-.13-1.23-.32-1.27-1.19,0-.34-.38-.68-.63-1a3.7,3.7,0,0,1-1.16-3c0-.18-.17-.39-.3-.66l.58.22.19-.11-.49-.8-.21.07c.09-.17.17-.34.25-.52a1.4,1.4,0,0,1-.37-1.93l-1.26-1.15.92-.55c-.38-.17-.8-.24-1-.49s-.49-.77-.08-.94c-.17-.61-.3-1.23-.41-1.85-.11-1.08-.62-2.05-.79-3.11a3.94,3.94,0,0,1,0-1.37c.08.19.16.39.32.75l.65-.55c-.28-.21-.55-.58-.83-.59-.7,0-.75-.38-.69-.79l1-.2a.53.53,0,0,1,.28,0,1.13,1.13,0,0,0,0,.52c.4-.5-.32-.84-.21-1.48l-1.06.71c-.13-.54-.25-1.07-.39-1.64l.92.12.1-.22c-.75-.05-1.24-.16-1.38-1.1a3.28,3.28,0,0,1,.14-1.78,2,2,0,0,1-1.06-2.43c.26-1.11-.42-1.72-.72-2.52-.19-.53-.18-.64.73-.8-.8-.21-1.09-.64-.91-1.39H74.7l.3-1.34-.84-.66.13-.18.63.4-.16-1.21-.83-.11c0-.24.09-.47.11-.71a.89.89,0,0,0-.11-.35c-.39-.88-.81-1.75-1.15-2.64,0-.11.29-.37.45-.56.37.48.75,1,1.13,1.43l-.6.51c.25.65.25.65,1.16-.31l-.58-.18.1-1.21-1.23-.21c-.26-.14-.66-.22-.75-.43-.3-.77-.56-1.56-.78-2.35,0,0,.14-.12.09-.09-.36-.75-.69-1.46-1-2.17a3.64,3.64,0,0,1-.32-2.63c0-.14-.12-.38-.25-.5-.45-.42-.93-.8-1.36-1.17a7.37,7.37,0,0,1-.94,0,2.57,2.57,0,0,0-1.4.75c-.18.17-.56.13-.74.3a8.54,8.54,0,0,0-1.41,1.53A45.14,45.14,0,0,1,59,120.09c-1.34,1.38-2.61,2.81-3.9,4.23-.89,1-1.82,2-2.61,3-.49.66-1.12,1.17-1.59,1.83a26,26,0,0,1-1.58,2.16c-.68.77-1.47,1.45-2.19,2.19a3.25,3.25,0,0,0-.46.64,9.52,9.52,0,0,0-.87.7c-1,1-1.95,2.1-2.92,3.16-1.61,1.78-3.22,3.56-4.87,5.4l-.21-.27a12.48,12.48,0,0,1-1,1.39c-1.13,1.21-2.32,2.37-3.46,3.57-.83.88-1.6,1.82-2.45,2.69a4.27,4.27,0,0,1-1,.58l.58.39-1.4.15c-.29.85-.53,2-2,1.94l-.26-.75c.17-.27.52-.57.49-.83s-.39-.57-.61-.84l-.69.71a4.37,4.37,0,0,1,.43-1.58c.4-.48.26-.77,0-1.16-.07-.1,0-.3,0-.51a2.24,2.24,0,0,0,.63,0c.12-.05.18-.24.27-.37-.92-.41.16-.9-.11-1.28l1,.05.06-.18-.58-.37c.21-.6.41-1.24.67-1.85s.16-1.64,1.19-1.88c0,0,0-.33.05-.48.13-.33.29-.65.45-1,.08-.15.26-.28.27-.43a2.36,2.36,0,0,1,.78-1.89c.23-.18.19-.66.32-1,.24-.61.51-1.21.8-1.8.08-.15.29-.23.34-.27l.74-2,.65.5.16-.1c-.13-.27-.27-.53-.36-.7a8,8,0,0,1,.4-1.26,12.85,12.85,0,0,1,.85-1.36c0-.06.13-.12.12-.18-.06-.88.61-.75,1.3-.83-.82-.26-1-.52-.58-1.28a5.83,5.83,0,0,1,1-1.67.22.22,0,0,0,.08-.13,4.11,4.11,0,0,1,1.29-3c.29-.32.25-.93.37-1.44l.35,0a8.35,8.35,0,0,1,.34-1.48c.28-.64.7-1.21,1-1.84.18-.38.17-.85.38-1.21a13.06,13.06,0,0,1,1.11-1.46l-.4-.09,1-1.84a8,8,0,0,0,.85-1.85c.07-.29.42-.51.71-.84s.44-1,.7-1.62c.37-.84.77-1.64,1.13-2.46.52-1.18,1.06-2.34,1.52-3.54a12.7,12.7,0,0,0,.4-1.83c.11-.55.25-1.1.41-1.84.14.34.21.51.27.68h.13c0-.31,0-.63.07-.93a.63.63,0,0,1,.19-.41c1.24-.73,1-2.22,1.67-3.24.14-.2,0-.58,0-.87s0-.79-.06-1.15c-.12-.11-.36-.22-.43-.4a5.58,5.58,0,0,0-2.61-3.1c-.21-.1-.49,0-.73-.07a30.14,30.14,0,0,0-3.39-.62,20.15,20.15,0,0,0-3.2.2l-4.87.46c-1.46.14-2.92.31-4.38.43-1.2.1-2.41.12-3.61.2-1.6.11-3.19.21-4.78.41-1.37.16-2.71.46-4.08.65-1.09.16-2.17.31-3.27.37-.85,0-1.72-.08-2.57,0-1.57.06-3.13.2-4.71.27a22.28,22.28,0,0,1-2.71,0,9.1,9.1,0,0,1-1.63-.43l.52-.6-1.09.06a11.83,11.83,0,0,1,.54-1.07,1.25,1.25,0,0,1,.46-.48,9.71,9.71,0,0,1,1.39-.53c1.18-.37,2.37-.71,3.56-1.07H9l3.89-1.22L20,86.14c1.06-.32,2.13-.62,3.21-.91a3,3,0,0,1,.85,0c.42-.74,3.39-1.55,4-1,.23-1,1.1-.92,1.81-1.13a3.48,3.48,0,0,0,.89-.31c.9-.55,2-.49,2.91-1.13.27-.2.71-.16,1.07-.25l4.41-1.16a24.12,24.12,0,0,1,3.64-.88,6,6,0,0,0,2-.33,8.29,8.29,0,0,0,3.5-2.69A4.59,4.59,0,0,0,49,73.8a2.22,2.22,0,0,0-1.23-2.16A7.23,7.23,0,0,1,46,69.92c-.18-.2-.24-.5-.42-.63-.58-.39-1.2-.75-1.74-1.18a29.73,29.73,0,0,1-3-2.56,24.19,24.19,0,0,0-2.28-1.71c-1-.82-2.1-1.41-3.13-2.14-1.29-.94-2.42-2.09-3.64-3.13-1-.84-2-1.64-3-2.48-1.56-1.32-3.17-2.59-4.65-4-2.24-2.15-4.83-3.92-6.92-6.24-1.2-1.34-2.34-2.74-3.53-4.1-.4-.46-.84-.87-1.35-1.38l1.22-1.14c0-.25-.08-.59-.09-.93,0,0,.36-.15.41-.1a1.62,1.62,0,0,1,.21.51c.93-.36,1.59.14,1.54,1.2,0,0,.09.07.12.06,1.25-.35,2,.57,2.89,1.14.44.28.92.48,1.34.78a8,8,0,0,1,.86.89c.55-.18.86.39,1.3.73a8.19,8.19,0,0,0,1,.59l1.76,1c.5.27,1,.5,1.5.81.68.46,1.31,1,2,1.46.13.1.3.14.43.24s.48.39.71.6.19.32.31.33c1.31.19,2.06,1.26,3.06,1.94,1.46,1,2.86,2.11,4.35,3.07s3.35,2,5,3c2.31,1.34,4.62,2.69,6.95,4,1.59.91,3.17,1.88,4.84,2.64a7,7,0,0,0,3.43.55c.9-.08,1.21-.55,1.77-1A5.31,5.31,0,0,0,61,61.22l.35.28a7.63,7.63,0,0,0,1.33-6.82l.58-.07c-.27-.59-.75-1.17-.73-1.72s-.37-1.55.75-1.73l-1.15-1.29.77-.5c-.46-.11-.77-.28-.31-.74a.39.39,0,0,1,.1-.08c-1-.55-.11-1.55-.51-2.35s0-1.77,0-2.67c0-1.77,0-3.53,0-5.3a5.45,5.45,0,0,1,.1-2.24c.28-.57,0-1.13.29-1.63a1.38,1.38,0,0,0,.54.21,1.29,1.29,0,0,0,.66-.21s0-.43-.13-.45A.92.92,0,0,0,63,34,2.38,2.38,0,0,0,62.53,34.39Z" transform="translate(-2.92 0.98)"/></svg>