<svg id="Layer_1" data-name="Layer 1" xmlns="http://www.w3.org/2000/svg" viewBox="0 0 175.41 121.13"><path d="M163.87,71.5c.09-.39.18-.54,2.55-3.74,1.87-2.54,4.35-5.9,5.9-8.33-2.64-.06-6.37.16-8.72.3-3.09.18-3.09.18-3.53-.17a2,2,0,0,1-.64-1,52.92,52.92,0,0,0-5.79-12.32,34.3,34.3,0,0,0-3.43,4.89h0c-1.29,2.1-4.34,7.11-4.34,7.11a1.23,1.23,0,0,1-.94.6c-.09,0-8.43.89-12.15,2.48a2.34,2.34,0,0,0-.42.22,2.07,2.07,0,0,0,.14.31c1.35,2.69,7.09,6.94,9.18,8.35a1.25,1.25,0,0,1,.4,1.66,68.81,68.81,0,0,0-4.85,10.55l2-.56c4.21-1.21,9.44-2.7,12-4.12A3.53,3.53,0,0,1,153,77.2h.15a3.36,3.36,0,0,1,1.82.81l.44.34c3.21,2.46,6.51,5,10.13,5.41-.24-1.84-.59-4.16-.9-6.26C163.77,71.94,163.78,71.87,163.87,71.5Z" style="fill:#efc535"/><path d="M114.13,20.41c1.8-1.83,3.44-3.88,5.05-5.88,2.76-3.46,5.62-7,9.39-9.6a5.36,5.36,0,0,0-3.32-2.3,5.17,5.17,0,0,0-1-.11,5.39,5.39,0,0,0-3.44,1.23A10,10,0,0,0,119,5.94,30.83,30.83,0,0,0,114.13,20.41Z" style="fill:#efc535"/><path d="M69,38.63a21.38,21.38,0,0,0-.37-2.6,12.22,12.22,0,0,1-.17-5.55,12.1,12.1,0,0,1,1.51-3.15l3.75-6.17a.42.42,0,0,0,0-.45.45.45,0,0,0-.38-.22c-3.14.05-5.63.07-7.42.05-3.51,0-3.75-.16-4.07-.35s-.73-.42-6.67-10a.4.4,0,0,0-.36-.21h-.07a.4.4,0,0,0-.36.31h0c-1.2,4.2-2.59,9.16-3.13,11.08a2.94,2.94,0,0,1-1.77,1.95l-8.11,3.18a.47.47,0,0,0-.29.34.37.37,0,0,0,.1.35,17.11,17.11,0,0,0,6.3,4l.13.05a4.9,4.9,0,0,1,2,1.11,4.88,4.88,0,0,1,1.11,3.1l.56,6.23a24.74,24.74,0,0,0,7-6,2.9,2.9,0,0,1,2-1.1,2.93,2.93,0,0,1,2.19.72,22.63,22.63,0,0,0,5.87,3.72.44.44,0,0,0,.42,0A.46.46,0,0,0,69,38.63Z" style="fill:#efc535"/><path d="M14.25,36.2l.74.43a12.79,12.79,0,0,0,3.36,1.55,3.21,3.21,0,0,0,3.2-.78l.07-.09A31.35,31.35,0,0,0,14.46,31,15.93,15.93,0,0,0,4.24,28.5a33,33,0,0,1-1.19,3.77A34.78,34.78,0,0,1,14.25,36.2Z" style="fill:#efc535"/><path d="M138.39,37.53c.27,0,.62-.72.76-1.92l.8-7.29-19.19,2.09a55.61,55.61,0,0,1,16.62,6.67A2.4,2.4,0,0,0,138.39,37.53Z" style="fill:#efc535"/><path d="M113.36,77.2a28.17,28.17,0,0,0-20.44,3.36A42.27,42.27,0,0,0,78.37,95.25c-3.17,5.12-8,15.17-4.71,25a1.26,1.26,0,0,0,1.19.86,1.12,1.12,0,0,0,.4-.07,1.26,1.26,0,0,0,.8-1.59c-3-8.87,1.52-18.15,4.46-22.89A39.7,39.7,0,0,1,94.17,82.74a25.75,25.75,0,0,1,18.59-3.1,1.26,1.26,0,1,0,.6-2.44Z" style="fill:#efc535"/><path d="M55.85,81.31a45.14,45.14,0,0,0-7.39-10.46c-3.52-4-7.71-8.54-12.92-11.54a30.51,30.51,0,0,0-17-4,1.26,1.26,0,0,0,.17,2.51,27.87,27.87,0,0,1,15.62,3.62c4.88,2.81,8.9,7.16,12.28,11a42.65,42.65,0,0,1,7,9.86,38,38,0,0,1,2.85,11.9,105.37,105.37,0,0,1,.5,16.28,1.26,1.26,0,0,0,1.19,1.32h.06a1.26,1.26,0,0,0,1.26-1.2A109.17,109.17,0,0,0,58.93,94,40.41,40.41,0,0,0,55.85,81.31Z" style="fill:#efc535"/><path d="M74.42,62a1.25,1.25,0,0,0,1.07,1.42h.18a1.25,1.25,0,0,0,1.24-1.08,31.25,31.25,0,0,1,24.34-25.67,1.27,1.27,0,0,0,1-1.48,1.26,1.26,0,0,0-1.48-1A33.84,33.84,0,0,0,74.42,62Z" style="fill:#efc535"/><path d="M173.55,57a93.83,93.83,0,0,0-10.1.25l-1.77.1a55.75,55.75,0,0,0-6-12.56,2.33,2.33,0,0,0-2.16-1.31,2.39,2.39,0,0,0-1.5.84,33.45,33.45,0,0,0-4,5.52c-1,1.69-3.21,5.25-4,6.6-2.08.24-8.77,1.11-12.25,2.6a3,3,0,0,0-1.86,1.74,3,3,0,0,0,.32,2.23c1.56,3.11,6.84,7.07,9.08,8.65-1.4,2.6-4.77,9.16-5,12.51a1.27,1.27,0,0,0,.48,1.08,1.24,1.24,0,0,0,1.16.21c1.06-.34,2.43-.73,4-1.16,4.32-1.24,9.7-2.78,12.54-4.32a3,3,0,0,1,.49-.24,2.41,2.41,0,0,1,.46.3l.44.34c3.66,2.8,7.79,6,12.67,6H167a1.3,1.3,0,0,0,.9-.44,1.27,1.27,0,0,0,.3-1c-.23-2-.7-5.07-1.1-7.8-.3-2-.63-4.21-.72-5,.35-.51,1.22-1.7,2.07-2.85,2.16-2.93,5.13-6.94,6.63-9.48a1.91,1.91,0,0,0,.22-1.72A1.83,1.83,0,0,0,173.55,57ZM155.37,78.35l-.44-.34a3.36,3.36,0,0,0-1.82-.81H153a3.53,3.53,0,0,0-1.71.53c-2.6,1.42-7.83,2.91-12,4.12l-2,.56a68.81,68.81,0,0,1,4.85-10.55,1.25,1.25,0,0,0-.4-1.66c-2.09-1.41-7.83-5.66-9.18-8.35a2.07,2.07,0,0,1-.14-.31,2.34,2.34,0,0,1,.42-.22c3.72-1.59,12.06-2.47,12.15-2.48a1.23,1.23,0,0,0,.94-.6s3-5,4.34-7.11h0a34.3,34.3,0,0,1,3.43-4.89,52.92,52.92,0,0,1,5.79,12.32,2,2,0,0,0,.64,1c.44.35.44.35,3.53.17,2.35-.14,6.08-.36,8.72-.3-1.55,2.43-4,5.79-5.9,8.33-2.37,3.2-2.46,3.35-2.55,3.74s-.1.44.73,6c.31,2.1.66,4.42.9,6.26C161.88,83.34,158.58,80.81,155.37,78.35Z" style="fill:#efc535"/><path d="M111.54,21.68a1.26,1.26,0,0,0,.08.47l.46,1.24a1.3,1.3,0,0,0,.87.79l.31,0a1.27,1.27,0,0,0,.83-.31,59.72,59.72,0,0,0,7-7.81c2.91-3.63,5.66-7.07,9.36-9.43a1.79,1.79,0,0,0,.77-.9,1.77,1.77,0,0,0-.12-1.4,7.78,7.78,0,0,0-12-2.54,11.9,11.9,0,0,0-2.28,2.75A33.44,33.44,0,0,0,111.54,21.68Zm9.23-17.93a5.39,5.39,0,0,1,3.44-1.23,5.17,5.17,0,0,1,1,.11,5.36,5.36,0,0,1,3.32,2.3c-3.77,2.57-6.63,6.14-9.39,9.6-1.61,2-3.25,4-5.05,5.88A30.83,30.83,0,0,1,119,5.94,10,10,0,0,1,120.77,3.75Z" style="fill:#efc535"/><path d="M70.18,41.1a3,3,0,0,0,1.28-2.6,21.53,21.53,0,0,0-.41-2.93,10.27,10.27,0,0,1-.21-4.44,9.77,9.77,0,0,1,1.23-2.49l3.75-6.17A3,3,0,0,0,73.26,18c-3.11.05-5.58.07-7.35.05s-2.47-.05-2.82-.08c-.46-.61-1.81-2.61-5.81-9a3,3,0,0,0-5.35.75h0c-1.2,4.2-2.59,9.17-3.13,11.09a.44.44,0,0,1-.26.29l-8.12,3.17a3,3,0,0,0-1.83,2.17A2.88,2.88,0,0,0,39.36,29a19.74,19.74,0,0,0,7.23,4.63l.14.05a3.11,3.11,0,0,1,1,.5,2.88,2.88,0,0,1,.41,1.58l.57,6.29a2.58,2.58,0,0,0,1.15,2.16,2,2,0,0,0,1,.26A3.12,3.12,0,0,0,52.41,44a27.23,27.23,0,0,0,7.8-6.7.37.37,0,0,1,.28-.15.39.39,0,0,1,.31.1,24.88,24.88,0,0,0,6.53,4.13A2.91,2.91,0,0,0,70.18,41.1Zm-1.85-2a22.63,22.63,0,0,1-5.87-3.72,2.93,2.93,0,0,0-2.19-.72,2.9,2.9,0,0,0-2,1.1,24.74,24.74,0,0,1-7,6l-.56-6.23a4.88,4.88,0,0,0-1.11-3.1,4.9,4.9,0,0,0-2-1.11l-.13-.05a17.11,17.11,0,0,1-6.3-4,.37.37,0,0,1-.1-.35.47.47,0,0,1,.29-.34l8.11-3.18a2.94,2.94,0,0,0,1.77-1.95c.54-1.92,1.93-6.88,3.13-11.08h0a.4.4,0,0,1,.36-.31h.07a.4.4,0,0,1,.36.21c5.94,9.53,6.26,9.72,6.67,10s.56.32,4.07.35c1.79,0,4.28,0,7.42-.05a.45.45,0,0,1,.38.22.42.42,0,0,1,0,.45l-3.75,6.17a12.1,12.1,0,0,0-1.51,3.15A12.22,12.22,0,0,0,68.58,36a21.38,21.38,0,0,1,.37,2.6.46.46,0,0,1-.2.4A.44.44,0,0,1,68.33,39.08Z" style="fill:#efc535"/><path d="M19.33,40.81A5.44,5.44,0,0,0,23,39.51l1,.13a1.26,1.26,0,0,0,1.16-2,37.42,37.42,0,0,0-9.37-8.76A18.07,18.07,0,0,0,3,26.16a1.28,1.28,0,0,0-1,1A29.8,29.8,0,0,1,.11,32.78a1.27,1.27,0,0,0,.06,1.14,1.22,1.22,0,0,0,1,.62A31.87,31.87,0,0,1,13,38.4l.72.41a15,15,0,0,0,4,1.82A7.05,7.05,0,0,0,19.33,40.81ZM14.46,31a31.35,31.35,0,0,1,7.16,6.31l-.07.09a3.21,3.21,0,0,1-3.2.78A12.79,12.79,0,0,1,15,36.63l-.74-.43a34.78,34.78,0,0,0-11.2-3.93A33,33,0,0,0,4.24,28.5,15.93,15.93,0,0,1,14.46,31Z" style="fill:#efc535"/><path d="M90.93,65.74a1.26,1.26,0,0,0-.49-2.47c-5.36,1.07-9,5.3-12.65,9.92-3.85,4.93-8.21,10.51-9.42,17.28a1.26,1.26,0,0,0,.28,1.44,1.29,1.29,0,0,0,.86.35,1.27,1.27,0,0,0,.92-.4,1.52,1.52,0,0,0,.39-.79c1.06-6.23,5.25-11.59,9-16.33C83.08,70.51,86.42,66.64,90.93,65.74Z" style="fill:#efc535"/><path d="M63.25,54.66a17.24,17.24,0,0,0-3.4-4.12,1.26,1.26,0,0,0-1.65,1.91A14.62,14.62,0,0,1,61.1,56a20,20,0,0,1,2.28,5.27,1.26,1.26,0,0,0,1.21.93,1.33,1.33,0,0,0,.34-.05,1.25,1.25,0,0,0,.88-1.54A22.73,22.73,0,0,0,63.25,54.66Z" style="fill:#efc535"/><path d="M140,28.32l-.8,7.29c-.14,1.2-.49,1.89-.76,1.92a2.4,2.4,0,0,1-1-.45,55.61,55.61,0,0,0-16.62-6.67Z" style="fill:#efc535"/><path d="M138.35,40.05l.32,0c1-.11,2.61-.79,3-4.15l1-8.85a1.26,1.26,0,0,0-1.39-1.39L116,28.39a1.24,1.24,0,0,0-.91.55,1.28,1.28,0,0,0-.17,1.06l.37,1.25a1.26,1.26,0,0,0,1,.89,53.14,53.14,0,0,1,19.76,7.1A4.45,4.45,0,0,0,138.35,40.05ZM140,28.32l-.8,7.29c-.14,1.2-.49,1.89-.76,1.92a2.4,2.4,0,0,1-1-.45,55.61,55.61,0,0,0-16.62-6.67Z" style="fill:#efc535"/></svg>