<svg id="Layer_1" data-name="Layer 1" xmlns="http://www.w3.org/2000/svg" viewBox="0 0 112.25 95.43"><defs><style>.cls-1{fill:#efc639;}</style></defs><path class="cls-1" d="M49.66,95c5.37-2.32,8-11.3,10.32-16.22a230.58,230.58,0,0,0,9-22.47l-1.85.17c1.42,11.92,7.72,22.32,11.14,33.67l1.67-.6A215.73,215.73,0,0,0,43.46,72.24l-1,1.11c13.46,3.37,27-2,40.51-.27,0-.36,0-.73,0-1.09A211.36,211.36,0,0,0,60,83.85q-5.88,3.53-11.52,7.44c-1.39,1-3.1,1.8-2.76,3.69.14.79,2,.46,1.86-.33-.4-2.23,7.55-6.25,9.15-7.27q4-2.52,8.08-4.85A205.18,205.18,0,0,1,83.74,73c.55-.25.87-1,0-1.1-13.54-1.75-27.11,3.62-40.51.27-.61-.16-2,.74-1,1.1A213.23,213.23,0,0,1,78.49,90.38c.38.23,1.91.18,1.67-.6C76.75,78.43,70.44,68,69,56.11c-.1-.82-1.66-.39-1.85.17-2.23,6.48-4.71,12.85-7.52,19.1-1.39,3.12-2.86,6.19-4.4,9.24-1.41,2.79-3.17,8-6.29,9.31-1.14.5-.22,1.43.69,1Z"/><path class="cls-1" d="M86.4,56l8.37-18.85-1.65-.64a34.63,34.63,0,0,0,3.5,8.82c.86,1.5,2.27,2.87,3,4.39.87,1.75,1.72,1-.21.86-3.21-.14-7-2.83-9.9-4a29.81,29.81,0,0,0-8.14-2.13c.35.4.7.79,1,1.19,6.93-.73,13.81-1.2,20.73-.09l-.84-1.16a43.93,43.93,0,0,0-17.47,9.17c-.54.45,1,1.46,1.48,1.08a43.24,43.24,0,0,1,17.2-9.07c.82-.22-.52-1.11-.84-1.16-7.18-1.15-14.27-.7-21.47,0-.86.09.71,1.16,1,1.19,7.15.75,13.12,5.32,20.13,6.7.59.12.77-.25.37-.68a33.47,33.47,0,0,1-8-14.75c-.1-.38-1.4-1.19-1.65-.64q-4.19,9.43-8.36,18.85c-.27.6,1.4,1.46,1.65.9Z"/><path class="cls-1" d="M38.65,38c-.16.35-.31.71-.46,1.06s1.24,1.39,1.22,1.44Q44,30.69,48.49,20.9c-.4-.47-.81-.93-1.22-1.39a90.14,90.14,0,0,1,2,17.65c.05,1.43.21,2.91.16,4.35A3,3,0,0,1,49.17,44q-.26,1.5-.81,0c-1-.49-1.88-2.86-2.53-3.86l-3-4.63c-1.6-2.43-3.93-5-5.07-7.71-.62-1.45-1.67-1.76.21-1.53,1.13.14,2.61,1.45,3.7,2,5.51,2.81,11.28,5.09,17,7.36l-1.17-1.44c-6.75,1.54-13.66,2.76-20.16,5.16,0,0,.85,1.57,1.22,1.44C45,38.36,52,37.13,58.7,35.6a6.52,6.52,0,0,0-1.17-1.43c-7.86-3.11-15.65-6.28-22.91-10.64-.14-.09.07.28.06.26Q40.75,33,46.85,42.3c.6.92,2.11,4.45,3.72,4.58h0c1-3.21-.11-8.43-.27-11.78A77.66,77.66,0,0,0,48.5,20.85a6,6,0,0,0-1.22-1.39L38.19,39l1.22,1.44.45-1.06C40,39,38.62,38,38.65,38Z"/><path class="cls-1" d="M101,90.28l5.52-13.59-1.87-.19a51.66,51.66,0,0,1,1.48,13l1.84.15a63.32,63.32,0,0,0-9.39-8.3,5.46,5.46,0,0,0-1.82-.11c2.93,3.39,7.27,4.42,11.54,5,.48.06,1,.09,1.46.17,1.15.17.59-.06-.21.09-1.69.31-3.37.74-5.05,1.12-2.21.48-4.84.67-6.52,2.32.15-.15,1.51.55,1.88.19,1.63-1.61,4.1-1.74,6.24-2.21l6.07-1.34c.41-.09-.69-.28-.79-.29-4.71-.43-9.55-1.15-12.8-4.92l-1.82-.11a63.4,63.4,0,0,1,9.4,8.3c.15.16,1.84.33,1.84.15a51.26,51.26,0,0,0-1.48-13c-.06-.23-1.79-.41-1.87-.19L99.12,90.09s1.74.52,1.87.19Z"/><path class="cls-1" d="M2.53,82A119,119,0,0,0,26,55.8l-1.79-.26c3.34,10.84.73,21.82-2.33,32.4l1.85.13C21.66,76.33,13,66.23,5.43,57.47l-.92.66a76.14,76.14,0,0,1,24.5,9,30.13,30.13,0,0,1,5.12,3.28c1.15.23,1.53.76,1.13,1.59q-2.19.64-4.41,1.14c-3.63.82-7.31,1.37-11,2-5.77,1-13.66,1.71-18.61,5.13-1.92,1.33-1.68,3.66,1,3,1.2-.29-.06-1.21-.81-1C2.68,82,5.4,79.89,7,79.34a59.45,59.45,0,0,1,5.87-1.66c2.83-.67,5.71-1.15,8.58-1.63A124.34,124.34,0,0,0,38,72.47a.4.4,0,0,0,.1-.74A79.94,79.94,0,0,0,4.66,57.09c-.31-.06-1.38.13-.92.67,7.53,8.7,16.11,18.69,18.16,30.33.11.63,1.67.76,1.85.13,3.09-10.69,5.68-21.77,2.3-32.7a1.21,1.21,0,0,0-1.79-.26A118.35,118.35,0,0,1,1,81.23c-.71.58,1,1.18,1.53.75Z"/><path class="cls-1" d="M24.27,14.76A67.67,67.67,0,0,0,30.56.51L28.73.77A61,61,0,0,0,33,14.12l1.29-.74c-1.2-.12-2.43-2.15-3.29-2.91a24.71,24.71,0,0,0-2.95-2.25,26.9,26.9,0,0,0-7.56-3.38l-1.15,1A44.9,44.9,0,0,0,26.73,7c2.58.17,5.55-.37,7.94.64,0-.28,0-.56,0-.83A77,77,0,0,0,22.38,17c-.76.77,1,.9,1.46.42a75.18,75.18,0,0,1,12-10c.39-.26.51-.61,0-.82A11.68,11.68,0,0,0,30.88,6,43.58,43.58,0,0,1,20.51,4.84c-.6-.14-2.21.69-1.15,1a26.11,26.11,0,0,1,8.89,4.42c1.65,1.28,3.14,4,5.32,4.2.26,0,1.53-.2,1.29-.73A60.8,60.8,0,0,1,30.57.37c-.15-.73-1.67-.24-1.84.26a66,66,0,0,1-6.16,14c-.48.76,1.35.71,1.7.16Z"/></svg>