<svg id="Layer_1" data-name="Layer 1" xmlns="http://www.w3.org/2000/svg" viewBox="0 0 200 168.15"><path d="M197.85,1.12c-13.51,10.11-27.13,20.17-41.78,28.62C141.92,37.9,126,45.67,109.51,47.34a40.88,40.88,0,0,1-18.09-1.79c2.71-2.48,5.4-5.28,6.17-8.87C99.21,29.09,92,25.55,85.91,29.1c-2.8,1.64-6.72,4.59-7.21,8-.55,3.87,3,6.61,5.91,8.42.47.3,1,.58,1.43.84l-1.36,1.18a124.74,124.74,0,0,1-10,7.91A87.42,87.42,0,0,1,53.15,66.9C36.5,72.7,16.81,71.84,2.63,60.5,1.14,59.31-1,61.42.51,62.62,10.11,70.29,22,73.63,34,73.41q1.24,32.36,0,64.75c-2.18,2-2.61,9.51-2.89,11.15a38.7,38.7,0,0,0-9.44,4.1.75.75,0,0,0-.16,1.17A12.65,12.65,0,0,0,31.39,158a28.53,28.53,0,0,0-2.8,10.25.75.75,0,0,0,1.13.65l5.55-4c1.56-1.11,4.25-4,6.35-3,1.05.5,2.09,1.92,3.13,2.59a18,18,0,0,0,4.72,2.08.76.76,0,0,0,.92-.92c-.45-2.17-1-4.33-1.62-6.45A26.65,26.65,0,0,1,47.71,156c-.26-1.43-.23-1.1.84-2.16,2.16-2.12,3.72-3.76,4.71-6.7a.75.75,0,0,0-.72-.95c-2-.05-3.93,0-5.9.11-1.26.09-3.54.86-4.75.55-3-.76-3-6.75-5.26-8.54a3.11,3.11,0,0,0-1.08-.56q1.22-32.18,0-64.39a63.75,63.75,0,0,0,16.64-3,90.29,90.29,0,0,0,26-13.77c3.71-2.75,7.27-5.7,10.7-8.8a34.33,34.33,0,0,0,6.19,2,362.84,362.84,0,0,1,4.36,59.44c-2.9,1.32-6.77,5.87-7.87,6.94a39.73,39.73,0,0,0-10.09-2.34.75.75,0,0,0-.72.94,12.51,12.51,0,0,0,5.87,8.49,27.36,27.36,0,0,0-8.27,6.49.76.76,0,0,0,.52,1.28l6.15.09c1.6,0,4.72-.51,6.15.1,1.78.76,1.68,3.46,2.26,5A18.17,18.17,0,0,0,96,140.83c.3.4,1,.56,1.29,0a73.14,73.14,0,0,0,4-10.82,13.29,13.29,0,0,0,9.27-2.37c.35-.24.57-.86.16-1.18-1.43-1.11-2.88-2.19-4.4-3.18s-4.63-2-5.1-3.84c-.7-2.84,2.43-6.47,1.21-9.37a1.68,1.68,0,0,0-1.49-1.18,364.8,364.8,0,0,0-4.29-58.78c13.57,2.38,28.66-2.56,40.79-7.7a207.19,207.19,0,0,0,32.2-17.53q1.94,21.72,2.12,43.57.08,11.51-.34,23-.21,5.75-.55,11.5a81.35,81.35,0,0,1-.58,9c-.11-.12-.22-.25-.34-.37a.76.76,0,0,0-1.18.15c-.84,1.61-1.64,3.23-2.34,4.9s-1.13,4.87-2.94,5.63c-2.65,1.12-6.88-1.33-9.41.51a1.82,1.82,0,0,0-.51,2.77c.8,1.35,3.18,2.71,4.41,3.68s2.7,2.09,4.08,3.1a39,39,0,0,0-.53,10.24c0,.43.45.91.94.72a12.61,12.61,0,0,0,7.44-7.33,28,28,0,0,0,7.9,7,.75.75,0,0,0,1.1-.84c-.52-3.18-3.28-11.69-.48-13.79,1-.76,2.56-1,3.66-1.75a18.62,18.62,0,0,0,3.5-3,.76.76,0,0,0-.33-1.25c-2.15-.56-4.32-1.06-6.51-1.42-1.79-.29-4,0-4.84-1.57-.53-1-.5-2.48-1-3.58a12.23,12.23,0,0,0-1.41-2.39,57.51,57.51,0,0,0,.76-9q.36-5.92.59-11.87.45-11.68.39-23.39-.14-22.66-2.21-45.25c9.68-6.39,19-13.31,28.28-20.24C200.89,2.56,199.4,0,197.85,1.12Zm-157.7,147a.77.77,0,0,0,.84.34,59.26,59.26,0,0,1,10.46-.82,11.78,11.78,0,0,1-5.55,6,.75.75,0,0,0-.35.84,70.78,70.78,0,0,1,3.08,10.13,23.27,23.27,0,0,1-6-3.85c-.67-.53-1.07-1-2-1.07-1.74-.06-3.83,2.15-5.09,3l-5.36,3.84a26.05,26.05,0,0,1,3.09-9.22.76.76,0,0,0-.84-1.1,11.19,11.19,0,0,1-9.12-2.15,37.74,37.74,0,0,1,10.07-3.91c.94-.21.55-1.66-.39-1.44l-.37.09c.31-2.32,1.08-8.25,1.88-9.07a.79.79,0,0,0,.58-.11C37.19,140.11,39.54,147,40.15,148.17Zm68.75-21.23a11.59,11.59,0,0,1-7.92,1.55.77.77,0,0,0-.92.52,70.47,70.47,0,0,1-3.52,9.89A24.3,24.3,0,0,1,94,132.18c-.31-1.16-.39-1.74-1.56-2.27-1.39-.63-3.9-.22-5.35-.24l-6.5-.1a26.68,26.68,0,0,1,8-5.61.76.76,0,0,0,0-1.3,11.22,11.22,0,0,1-6.16-7.21,37.38,37.38,0,0,1,10.32,2.81c.87.38,1.63-.91.75-1.29l-.45-.19c1.58-1.64,3.87-4.43,5.64-5,3.4-1.12,1.08,7.11.79,8.72a.75.75,0,0,0,.34.84A59.26,59.26,0,0,1,108.9,126.94ZM87.59,43.83C86,43,83.8,41.93,82.83,40.41c-2.41-3.75,1-6.26,3.62-8.09,1.7-1.18,4.43-2.66,6.49-1.43,3.29,2,1.6,6.35,0,8.58a30.27,30.27,0,0,1-4.48,4.81C88.18,44.13,87.88,44,87.59,43.83Zm85.71,77.94a71.51,71.51,0,0,1,10.29,1.72,22.61,22.61,0,0,1-6.05,3.62c-1,.44-1.62.59-2,1.64-.51,1.47.27,3.61.51,5l1.14,7a26.24,26.24,0,0,1-6.87-6.83.76.76,0,0,0-1.37.18,11.07,11.07,0,0,1-6,7.28,38,38,0,0,1,.95-10.71c.22-.94-1.22-1.34-1.44-.4,0,.13-.06.26-.08.39-1.47-1.09-2.93-2.2-4.35-3.34-.51-.42-3-2-2.95-2.45.17-2.22,8.45-1.16,9.88-1.16a.78.78,0,0,0,.72-.55,59.67,59.67,0,0,1,3.91-9.79l.28.33c-.1.37-.21.74-.34,1.09-.32.88,1,1.26,1.41.46a11.93,11.93,0,0,1,1.57,5.7A.76.76,0,0,0,173.3,121.77Z" transform="translate(0 -0.83)" style="fill:#fec821"/></svg>