<svg id="Layer_1" data-name="Layer 1" xmlns="http://www.w3.org/2000/svg" viewBox="0 0 153.22 165.66"><path d="M54.21,53.75c12.66-14.45,18.33-34,24.13-51.91l-2.53.07a228.16,228.16,0,0,1,15.3,53.73,1.37,1.37,0,0,0,2.71-.41A231.17,231.17,0,0,0,78.32.79a1.39,1.39,0,0,0-2.54.07c-5.73,17.7-11.29,37-23.8,51.28-1.16,1.33,1.07,2.93,2.23,1.61Z" style="fill:#efc535"/><path d="M92.07,56.2q14.3-2,28.69-3.27c4.64-.42,9.3-.79,14-1.1,2.64-.18,14.47-2.3,15.88.23l.38-1.62a484,484,0,0,1-43.26,35.79c-1.42,1,.32,3.17,1.74,2.12a480.62,480.62,0,0,0,43.26-35.79A1.38,1.38,0,0,0,153.1,51c-1.44-2.59-3.82-2.64-6.56-2.54-6.12.2-12.24.67-18.34,1.14Q109.87,51,91.66,53.48a1.38,1.38,0,0,0,.41,2.72Z" style="fill:#efc535"/><path d="M53.62,53.65c2.66-5.4-15.36-4.67-17.69-4.85L1.56,46C.47,45.92-.55,47.35.34,48.25L39.43,87.18c1.24,1.23,3.38-.5,2.13-1.74L2.47,46.51,1.25,48.74l24.68,2,12.34,1c1.46.12,12.36,1.78,12.79.92-.78,1.59,1.78,2.56,2.56,1Z" style="fill:#efc535"/><path d="M39.41,84.85a485.85,485.85,0,0,1-23,57.05,1.38,1.38,0,0,0,.48,1.61c3.07,2.21,6.2.53,9.16-1.09,5.4-2.95,10.67-6.2,15.82-9.56A265.05,265.05,0,0,0,72.7,109.27c1.32-1.17-.41-3.3-1.74-2.12a265.73,265.73,0,0,1-24.37,19.24q-6.3,4.39-12.85,8.39c-2.9,1.77-11.85,8.94-15.23,6.5l.48,1.61A487.8,487.8,0,0,0,42,85.83c.55-1.67-2-2.67-2.57-1Z" style="fill:#efc535"/><path d="M107.65,86.73c3.08,20.74,6.12,41.49,7.69,62.41l2.16-1.32a573,573,0,0,1-43.83-41.09c-1.22-1.27-3.36.46-2.13,1.74a579.09,579.09,0,0,0,44.36,41.58c1,.82,2.24-.24,2.16-1.32-1.57-20.92-4.61-41.67-7.69-62.41a1.38,1.38,0,0,0-2.72.41Z" style="fill:#efc535"/><path d="M100.5,44.54c-.76-4.67,2.51-8.67,6-11.35,1.42-1.06,8.15-5.72,9.38-1.64.64,2.15-2.21,4.48-3.49,5.55-1.77,1.48-2.34,1.68-2.63-.78-.25-2,.79-5.15,1.32-7,.93-3.2,3.3-11.81,8.12-11.2.78.1,3-.76,1.3-1-8-1-10.93,7.38-12.54,13.85-.52,2.09-2.26,7.54.12,9,1.71,1,4.33-.85,5.52-1.7,2.13-1.52,6.64-5.08,4.58-8.22-1.19-1.8-3.57-1.53-5.41-1.18-6.91,1.33-16.34,8-15,15.9.12.73,2.84.4,2.73-.26Z" style="fill:#efc535"/><path d="M126.82,100.18c4.74-2.63,14.34-5.1,15,2.81a10.18,10.18,0,0,1-2,6.41,8.31,8.31,0,0,1-1.89,2.26l-2.48.39a5.31,5.31,0,0,1,.23-1.63c.12-1.8,2.07-4.52,3.73-5,3.47-1.12,4.58,2.68,4.74,5.26.29,5-1.36,10.21-2.66,15-.07.24,2.59.91,2.68.57,1.63-6,6.63-19.74-2.7-21.76a6.62,6.62,0,0,0-7.32,2.67c-1.76,2.63-2.11,5.62,1.1,6.6,6.55,2,11.48-8.73,8.09-13.64-4-5.79-14.3-3.16-19-.53.09-.06,1.95,1,2.56.65Z" style="fill:#efc535"/><path d="M67.84,130.35c-5.9-6.47-10.88,15.2-10.93,18.46-.12,8.69,13.14,5.08,14.81-1.07a1.25,1.25,0,0,0-.36-1.17c-11.27-9.89-18.25,9.17-19.48,17.37-.2,1.35,2.28,2.51,2.5,1a38.76,38.76,0,0,1,3.87-12.37,17.71,17.71,0,0,1,2.4-3.77q3.32-3.71,7.59-1.7c.38,1.35-.18,2.31-1.7,2.87-3,2.11-7.58,2.41-6.84-2.46a42.12,42.12,0,0,1,.91-4.33C61,141.9,65.5,131,66.05,131.63c1.08,1.18,3,0,1.79-1.28Z" style="fill:#efc535"/><path d="M29,83.53l-.77-.59c-.44-.33-2.7.86-2.44,1.26a5.16,5.16,0,0,1,1.06,4.19c-.66,2.32-4.57,3.34-6.39,1.6A8.08,8.08,0,0,1,19,81.76l-1.39,1c.68-.28.89,2.94.74,3.48a8.45,8.45,0,0,1-2.25,3.19C12.61,92,9.52,90.7,7.75,87.08c-2-4.09-1.38-9,.14-13.16.07-.18-2.18.35-2.43,1C3.4,80.55,3.31,94.71,12.85,92.33c3-.76,5.69-3.36,7.27-6,1-1.6,2-5-.86-5-6.09-.13-2.93,10.78,1.94,11.43,5.4.72,10.15-4.94,7-9.82L25.78,84.2l.77.59c.59.45,2.56-1.17,2.44-1.26Z" style="fill:#efc535"/><path d="M36.61,35.19l-.83.84c-.2.21-.24.38,0,.57,6.11,4.34,11.76-2.88,13.47-8.27,1.84-5.81-2.66-12.52-9-9.15-5.27,2.81-.9,9.24,4,7.83,3.9-1.13,5.37-6.47,6.61-9.8A63.45,63.45,0,0,0,54.43,2c.08-.7-2.64-.77-2.74.08a63.32,63.32,0,0,1-2.45,12c-1,3.14-2.37,9.3-5.63,10.72-1.1,1.35-2,1.23-2.64-.36A3.18,3.18,0,0,1,41.06,21q5-1.95,5.84,2.26A6,6,0,0,1,47.11,25a12.4,12.4,0,0,1-1.71,5.84c-.45.85-.93,1.68-1.45,2.49C43,35.19,41.37,36,39,35.69c.75-.77-1.87-1-2.39-.5Z" style="fill:#efc535"/></svg>