<svg id="Layer_1" data-name="Layer 1" xmlns="http://www.w3.org/2000/svg" viewBox="0 0 156.05 126.45"><path d="M155.61,44.18c-1-1.44-4.44-1.41-5.82-1.57-4.53-.56-9.08-.9-13.63-1.16-11-.62-22-.63-33.06-.82-.83-7.43-2-14.83-3.5-22.14-1.76-8.35-3.21-16.92-13-18.43-3.84-.6-10.25,3.56-11.92,6.88q-7.51,14.91-14,30.24c-6.54-1-13.08-2.19-19.62-3.41C33.65,32.38,26.22,30.94,18.74,30c-6.44-.86-12.64.37-17.4,5.32-6.62,6.91,13.19,18.48,17.85,21.52,9.41,6.13,18.49,12.06,26.92,19.07a464.67,464.67,0,0,0-12.81,47c-.3,1.4,1.66,1,3.33.43L36,124.34c-1.22,1.9.86,1.7,2.14,1.46,2.73-.5,5.5-2.38,7.64-4.06,8.68-6.83,15.18-15.37,22.23-23.61,8,9.18,15.79,18.61,23.72,27.84,1.93,2.25,12.3-4,12.4-6.57.61-16,1.18-32,.89-48l1.43-.64c13-5.86,26.64-10.46,39.46-16.72C148.44,52.8,158.22,48.09,155.61,44.18ZM60.27,64.69c2.26.63,4.53,1.21,6.83,1.72Q65.57,69.89,64,73.34c-1.65-1.57-3.34-3.09-5.06-4.59C59.36,67.4,59.81,66,60.27,64.69ZM134.2,49.93l.4,0c-1.14.66-2.29,1.3-3.45,1.91A10.48,10.48,0,0,0,133.27,50a1.34,1.34,0,0,0,.11-.14Zm6.83.85-.63.12.33-.2Zm-36.49,7.85c0-.57-.07-1.14-.11-1.71,1.73-.11,3.46-.22,5.19-.35ZM91.77,59c.13,1.83.22,3.66.32,5.49a8.59,8.59,0,0,0-1.07,1,50.39,50.39,0,0,0-.35-8l1,0Zm-.83-9.31H89.3l.12-1.25,1.39,0C90.85,48.82,90.9,49.23,90.94,49.64ZM70.44,79.78c2-3.89,3.84-7.8,5.67-11.74-.12,5,0,10.12.32,15.18l-1.61,1.22C73.38,82.87,71.92,81.31,70.44,79.78ZM91,68.35a7.07,7.07,0,0,0,1.16-.19l.1,0c.07,1.68.12,3.36.17,5L91,74Zm26-19.46q-6.51.45-13,.62c0-.3,0-.6-.07-.9C108.25,48.67,112.62,48.75,117,48.89ZM82.07,11.35c2.3,2.51,3.46,6,4.28,9.71-1.68,1-3.29,2.35-3.77,3.88Q80.35,32.23,77.8,39.4c-2.58-.25-5.16-.55-7.73-.88Q75.66,24.77,82.07,11.35ZM17.91,39.4l4.49.8a14.48,14.48,0,0,0-1.76,1.57c-.34-.29-.69-.55-1-.84S18.68,40.11,17.91,39.4Zm8.82,7q4.68,2,9.32,4.14a13,13,0,0,0-1.31,1.12L32.8,50.43C30.76,49.13,28.73,47.79,26.73,46.41ZM48.87,60.9c.71.27,1.42.55,2.14.81l-.21.56C50.16,61.81,49.52,61.35,48.87,60.9Zm5.47,22.42c.91.9,1.82,1.82,2.71,2.76l.49.53q-4,8-8.43,15.79Q51.53,92.79,54.34,83.32Zm5.91,15.54q1.64-2.88,3.22-5.79c.33.37.66.73,1,1.1C63,95.71,61.63,97.28,60.25,98.86Zm32.1,6c-1.63-2-3.27-4-4.92-5.91,2-1.24,3.61-2.61,3.61-3.68V78.49c.5-.3,1-.59,1.53-.87C92.73,86.69,92.6,95.78,92.35,104.86ZM104.87,67c0-.63-.05-1.26-.07-1.88l5.08-1.23c-.1.37-.07.63.11.8C108.28,65.44,106.57,66.22,104.87,67Z" style="fill:#efc535"/></svg>