<svg id="Layer_1" data-name="Layer 1" xmlns="http://www.w3.org/2000/svg" viewBox="0 0 151.61 146.18"><path d="M104.73,59q-8.85-.51-17.67-1.36c-.82-4.68-1.67-9.36-2.6-14-.59-2.9-12.49,5.23-13.3,7Q70.08,53.13,69,55.57c-2.85-.39-5.71-.8-8.56-1.24-2-.32-14.8,5.46-12.74,8q6.42,7.92,13.19,15.52c-1.19,3.86-2.3,7.76-3.29,11.69-.15.23-.31.45-.44.7-.45.82-.41,1.28-.11,1.53-.3,1.23-.61,2.47-.89,3.71-.55,2.42,5.31-.19,5.9-.47,2.15-1,6.82-3.26,7.43-6,.11-.46.23-.91.33-1.37q4.2,4.48,8.5,8.88C80.78,99,92,92.06,91.61,88.89c-.69-6-1.51-11.92-2.4-17.86l10.44-6C99.74,64.93,107.3,59.17,104.73,59Z" style="fill:#efc535"/><path d="M151.52,53.61c-.79-2-4.77-2.65-6.68-3.28l-13.51-4.51c-7.9-2.63-15.9-5-23.72-7.91-.24-.08-.42-.14-.56-.17l-.07-.1a33.76,33.76,0,0,1-1.84-3.34L97.76,21,86.52.68c-1.64-3-11.83,4.65-12.87,6.23-6.5,9.81-13.13,19.54-19.51,29.44-5.65.61-11.26,1.54-16.94,2-8.35.61-16.77.6-25.14.85-1.72.06-13.88,6-11.83,8,6.06,6.19,12,12.59,18.25,18.56,4.7,4.48,10.14,8.42,13.87,13.82,4.64,6.71,2.81,13.16,1,20.63-2.3,9.47-4.39,19-6.5,28.5-.5,2.23-1,4.46-1.49,6.69A4,4,0,0,0,25,137c0,2.88,12.62-3.24,13.33-6.43l.09-.41,27-20.34L98.06,145.7c2.11,2.31,13.29-4.26,13.29-7,0-18.23,2.15-36.48,2.39-54.72.05-3.71,0-8.78,3-11.45s9.65-4.37,13.46-6.07l13.92-6.24C145.38,59.62,152.46,56,151.52,53.61ZM114.46,69.05c-5.82,3.36-12,7.91-13.54,14.85-1.63,7.48-.6,16.13-1,23.74-.29,5.56-.7,11.15-1.06,16.75L76.47,99.85c-2.13-2.34-9.26,3-10.86,4.21l-21,15.82-4.73,3.57c.09-.39.17-.78.26-1.17,2.11-9.51,4.2-19,6.51-28.5,1.72-7.09,3.77-14-.25-20.6-3.53-5.84-9.27-10-14.17-14.58-3.95-3.7-7.74-7.6-11.5-11.52,2.74-.12,5.47-.28,8.19-.54,4.66-.45,9.29-1.23,13.94-1.75,3.67-.4,7.68,0,11.17-1.32,8.19-3,11.44-10.3,15.94-17.15,2.38-3.63,4.8-7.24,7.22-10.85L94,45.86a1.46,1.46,0,0,0,1.43.38c1.21,0,5.21,1.77,7,2.37l14.43,4.81,14.17,4.72c.82.27,2.52.59,4.08,1.09A188.25,188.25,0,0,0,114.46,69.05Z" style="fill:#efc535"/></svg>