<svg id="Layer_1" data-name="Layer 1" xmlns="http://www.w3.org/2000/svg" viewBox="0 0 174.79 162.12"><path d="M97.54,88.86c-3.77-.5-11.36.66-19.58,2.4,3.13,1.81,6.18,3.76,9.14,5.82,22.29,3.64,43.26,15,57.88,31.85a6.16,6.16,0,0,0,1.46,1.19,4.63,4.63,0,0,1,1.94,2,110.55,110.55,0,0,1,15.56-2.28l-11.16-20.53C128.46,94,112.16,90.82,97.54,88.86Z" style="fill:#efc535"/><path d="M67.09,85.62c2.37,1.1,4.71,2.26,7,3.5C83.8,87,93.29,85.39,97.92,86c14.77,2,31.24,5.22,55.6,20.38a134.94,134.94,0,0,1,17.26-8.74c-8.35-7.88-19.61-13.7-32.72-16.88-11.15-2.71-23.35-3.64-39.55-3C90,78.07,77.06,82.07,67.09,85.62Z" style="fill:#fff"/><path d="M146.07,134.19l0-.09a1.86,1.86,0,0,0-1.14-1.55,8.7,8.7,0,0,1-2.08-1.74c-14.17-16.31-34.49-27.34-56.09-30.88A103.61,103.61,0,0,1,73,106.37c2,1,4,2,5.9,3l2.75,1.43c3.24,1.67,6.58,3.29,9.82,4.86,8.16,4,16.59,8,24.23,13.28a183.81,183.81,0,0,1,17.43,14.21c5.8,5.13,11.77,10.42,18.28,14.75a99.25,99.25,0,0,0-5.35-23.62S146.08,134.22,146.07,134.19Z" style="fill:#fff"/><path d="M59.56,111.65a4.26,4.26,0,0,1,.49-3.37,4.22,4.22,0,0,1,2.44-1.4,100.79,100.79,0,0,0,21.29-8.6A129.91,129.91,0,0,0,60.23,85.77a4.22,4.22,0,0,1-2.06-1.45,4.09,4.09,0,0,1-.59-1.94,80.73,80.73,0,0,1,.12-13.29c.37-5.62.72-11-.4-16.12A149.71,149.71,0,0,0,35.85,75l-.8,1.17a1.43,1.43,0,0,1-1.77.52,3.52,3.52,0,0,0-.4-.18A79.09,79.09,0,0,0,4.07,70a130.17,130.17,0,0,1,13.17,29,8,8,0,0,1,.47,2.58A7.93,7.93,0,0,1,16.64,105c-.65,1.3-1.33,2.59-2,3.88a86.48,86.48,0,0,0-5.48,11.85,14.59,14.59,0,0,0-.95,4.74l27.5-13.67a1.43,1.43,0,0,1,1.71.32A156.78,156.78,0,0,0,57.29,130.4a21.47,21.47,0,0,0,6.13,3.68Z" style="fill:#efc535"/><path d="M40.41,28.32a1.42,1.42,0,0,1,.85,1.15c.46,3.79,1.74,13.21,3,18.11a31.4,31.4,0,0,0,1.9-4.34c1.13-3,2.2-5.81,4.17-7.11,3.49-2.31,7.56-1.67,11.49-1.06,2.6.4,5.09.79,7.28.34-3.32-3.9-8.79-10.7-9.06-11A1.48,1.48,0,0,1,59.77,23c.18-.51,3.72-10.9,6-17.2a126.84,126.84,0,0,0-16.23,6.44l-2.21,1.26a1.43,1.43,0,0,1-1.67-.18L35.86,4.57l-.18,6.75a14.44,14.44,0,0,1-1,6c-1.37,2.85-6.2,5-11,6.77,4.16,1.14,11.26,2.88,16.56,4.13Z" style="fill:#efc535"/><path d="M167.54,131.84a1.46,1.46,0,0,0,0-1.39l-11.94-22a128.42,128.42,0,0,1,18.27-9,1.41,1.41,0,0,0,.87-1,1.47,1.47,0,0,0-.37-1.31c-8.86-9-21.18-15.67-35.64-19.18-14.81-3.59-30.12-3.49-40.34-3.1h0c-9.8.37-24.76,5.23-35.14,9.06l-1.95-.83a2.62,2.62,0,0,1-.75-.39,2.07,2.07,0,0,1-.12-.62,77.25,77.25,0,0,1,.14-12.81c.41-6.38.84-13-1.08-19.27a1.43,1.43,0,0,0-2.28-.7,153,153,0,0,0-23.67,24l-.06.09-.15.22A81.78,81.78,0,0,0,1.44,67a1.43,1.43,0,0,0-1.26.75,1.4,1.4,0,0,0,.05,1.46A127.16,127.16,0,0,1,14.49,99.8a5.61,5.61,0,0,1,.35,1.66,5.59,5.59,0,0,1-.77,2.2c-.64,1.28-1.31,2.56-2,3.83a89.76,89.76,0,0,0-5.65,12.25c-.8,2.32-1.6,5.35-.72,8.26a1.44,1.44,0,0,0,.8.89h0a1.46,1.46,0,0,0,1.21,0L36,114.8a160.17,160.17,0,0,0,19.49,17.88c2.68,2.07,5.84,4.31,9.54,4.68a1.43,1.43,0,0,0,1.19-.46,1.4,1.4,0,0,0,.37-1.22L62.4,111.16c-.15-.81-.1-1.08,0-1.16a2.68,2.68,0,0,1,.9-.35q3-.84,6-1.86c2.84,1.27,5.62,2.71,8.34,4.13l2.76,1.44c3.27,1.68,6.63,3.31,9.89,4.89,8.06,3.9,16.4,7.94,23.85,13.06a181.91,181.91,0,0,1,17.15,14c6.61,5.85,13.43,11.9,21.13,16.61l.17.09a1.47,1.47,0,0,0,1.32-.09,1.42,1.42,0,0,0,.69-1.33,102.82,102.82,0,0,0-5.22-25.74,107.52,107.52,0,0,1,17-2.27A1.45,1.45,0,0,0,167.54,131.84Zm-34.39,11.31a183.81,183.81,0,0,0-17.43-14.21c-7.64-5.25-16.07-9.33-24.23-13.28-3.24-1.57-6.58-3.19-9.82-4.86l-2.75-1.43c-1.93-1-3.9-2-5.9-3a103.61,103.61,0,0,0,13.7-6.44c21.6,3.54,41.92,14.57,56.09,30.88a8.7,8.7,0,0,0,2.08,1.74A1.86,1.86,0,0,1,146,134.1l0,.09s0,.06,0,.09a99.25,99.25,0,0,1,5.35,23.62C144.92,153.57,139,148.28,133.15,143.15ZM57.29,130.4a156.78,156.78,0,0,1-19.87-18.33,1.43,1.43,0,0,0-1.71-.32L8.21,125.42a14.59,14.59,0,0,1,.95-4.74,86.48,86.48,0,0,1,5.48-11.85c.67-1.29,1.35-2.58,2-3.88a7.93,7.93,0,0,0,1.07-3.43,8,8,0,0,0-.47-2.58A130.17,130.17,0,0,0,4.07,70a79.09,79.09,0,0,1,28.81,6.59,3.52,3.52,0,0,1,.4.18,1.43,1.43,0,0,0,1.77-.52l.8-1.17A149.71,149.71,0,0,1,57.3,53c1.12,5.15.77,10.5.4,16.12a80.73,80.73,0,0,0-.12,13.29,4.09,4.09,0,0,0,.59,1.94,4.22,4.22,0,0,0,2.06,1.45A129.91,129.91,0,0,1,83.78,98.28a100.79,100.79,0,0,1-21.29,8.6,4.22,4.22,0,0,0-2.44,1.4,4.26,4.26,0,0,0-.49,3.37l3.86,22.43A21.47,21.47,0,0,1,57.29,130.4ZM170.78,97.65a134.94,134.94,0,0,0-17.26,8.74C129.16,91.23,112.69,88,97.92,86c-4.63-.62-14.12,1-23.81,3.11-2.31-1.24-4.65-2.4-7-3.5,10-3.55,22.91-7.55,31.42-7.88,16.2-.61,28.4.32,39.55,3C151.17,84,162.43,89.77,170.78,97.65Zm-22.4,34.47a4.63,4.63,0,0,0-1.94-2,6.16,6.16,0,0,1-1.46-1.19c-14.62-16.83-35.59-28.21-57.88-31.85-3-2.06-6-4-9.14-5.82,8.22-1.74,15.81-2.9,19.58-2.4,14.62,2,30.92,5.17,55.24,20.45l11.16,20.53A110.55,110.55,0,0,0,148.38,132.12Z" style="fill:#efc535"/><path d="M38.53,30.81c.46,3.69,2.13,16.27,3.73,20.11a1.43,1.43,0,0,0,.75.76l.11,0a1.47,1.47,0,0,0,1.18-.11c2.18-1.23,3.32-4.21,4.51-7.36.89-2.32,1.88-4.94,3.08-5.73,2.56-1.69,5.91-1.17,9.46-.62s7.43,1.15,10.84-.56a1.43,1.43,0,0,0,.43-2.24c-2.35-2.63-8.14-9.78-9.87-11.92,1-3.05,5-14.55,6.8-19.09a1.45,1.45,0,0,0-.28-1.5,1.42,1.42,0,0,0-1.47-.41A129.66,129.66,0,0,0,48.3,9.68l-.09.05-1.36.77L35.46.36A1.45,1.45,0,0,0,33.93.12a1.42,1.42,0,0,0-.86,1.28l-.26,9.84A12.12,12.12,0,0,1,32,16.1C30.9,18.46,23.71,21,21,22c-2.2.78-2.6.92-2.9,1.6a1.41,1.41,0,0,0,0,1.14C18.4,25.57,18.63,26.13,38.53,30.81Zm-3.9-13.47a14.44,14.44,0,0,0,1-6l.18-6.75,9.85,8.76a1.43,1.43,0,0,0,1.67.18l2.21-1.26A126.84,126.84,0,0,1,65.82,5.81c-2.33,6.3-5.87,16.69-6,17.2A1.48,1.48,0,0,0,60,24.37c.27.34,5.74,7.14,9.06,11-2.19.45-4.68.06-7.28-.34-3.93-.61-8-1.25-11.49,1.06-2,1.3-3,4.12-4.17,7.11a31.4,31.4,0,0,1-1.9,4.34c-1.23-4.9-2.51-14.32-3-18.11a1.42,1.42,0,0,0-.85-1.15l-.25-.08c-5.3-1.25-12.4-3-16.56-4.13C28.43,22.32,33.26,20.19,34.63,17.34Z" style="fill:#efc535"/></svg>