<svg id="Layer_1" data-name="Layer 1" xmlns="http://www.w3.org/2000/svg" viewBox="0 0 130.13 131.09"><defs><style>.cls-1{fill:#efc639;}</style></defs><path class="cls-1" d="M9.27,39.35A294.73,294.73,0,0,1,75.4,43.2c.59.1.85-.81.25-.91A295.79,295.79,0,0,0,9.27,38.41c-.6,0-.6,1,0,.94Z"/><path class="cls-1" d="M26.86,54.9l-1.25.25.21.79,33.6-35c.42-.43-.24-1.1-.66-.66l-33.61,35a.48.48,0,0,0,.21.79,2,2,0,0,0,2.17-.5c.47-.38-.2-1-.67-.66Z"/><path class="cls-1" d="M33.19,23.77c-.13,3,1.74,5.37,3.37,7.75l6.54,9.6Q49.79,50.9,56.47,60.7c.34.5,1.15,0,.81-.48q-6.16-9-12.31-18l-6-8.83c-1.89-2.78-5-6-4.8-9.58,0-.61-.92-.61-1,0Z"/><path class="cls-1" d="M38.88,74A566.26,566.26,0,0,0,47.81.45c0-.6-.91-.6-.94,0A564.36,564.36,0,0,1,38,73.75c-.11.59.8.85.91.25Z"/><path class="cls-1" d="M25,29.5q19.41,11.84,39.22,23a.47.47,0,0,0,.47-.82q-19.8-11.14-39.22-23a.47.47,0,0,0-.47.81Z"/><path class="cls-1" d="M21.41,45.7l-1.71.5.23.87c8.05-3.51,16.72-4.86,25.25-6.65a86.48,86.48,0,0,0,23.53-8.27c.53-.29.06-1.1-.48-.81-7.88,4.25-16.2,6.73-24.94,8.51-8.09,1.65-16.22,3.09-23.83,6.41-.43.19-.21.9.24.88a4.52,4.52,0,0,0,2.18-.63c.54-.29.06-1.1-.47-.81Z"/><path class="cls-1" d="M42,52.68l-.72.67.79.46c2.38-12.21,4.82-24.49,9.7-36,.23-.55-.58-1-.81-.47-4.92,11.58-7.4,23.91-9.8,36.21a.48.48,0,0,0,.79.46l.72-.67c.44-.42-.23-1.08-.67-.67Z"/><path class="cls-1" d="M45.46,58.78q-3-20.37-4.43-40.93c0-.6-1-.6-.94,0Q41.47,38.52,44.55,59c.09.59,1,.34.91-.25Z"/><path class="cls-1" d="M29.15,60.8c2-7.26,8-12.09,13.24-17a66.85,66.85,0,0,0,13.8-18.36c.28-.54-.54-1-.81-.47A69.92,69.92,0,0,1,40.15,44.55c-4.93,4.58-10.08,9.29-11.91,16a.47.47,0,0,0,.91.25Z"/><path class="cls-1" d="M129.88,90.54a234.54,234.54,0,0,0-53.53,13.93c-.56.22-.32,1.13.25.91h0a234.54,234.54,0,0,1,53.53-13.93"/><path class="cls-1" d="M112.35,130.51q-9.87-37.72-21.58-74.93c-.18-.58-1.09-.33-.91.25Q101.58,93,111.45,130.76a.47.47,0,0,0,.9-.25Z"/><path class="cls-1" d="M88.73,88.72l-.83-1-.57.74C94,91.38,99.94,95.6,105.92,99.73c5.43,3.75,11.58,8.74,18.44,9,.61,0,.61-.91,0-.94-7.08-.29-13.69-5.93-19.29-9.82S94,90.34,87.81,87.64a.47.47,0,0,0-.57.74l.83,1c.38.47,1-.2.66-.67Z"/><path class="cls-1" d="M95.24,117c-2.29-2,2.08-7.6,3.13-9.49q2.43-4.31,4.94-8.57,5-8.5,10.48-16.77c.34-.51-.48-1-.81-.48q-6.66,10.16-12.75,20.66c-1.94,3.36-4,6.72-5.71,10.2-.81,1.65-1.54,3.72,0,5.11.45.4,1.12-.26.67-.66Z"/><path class="cls-1" d="M115.48,111.71c-9.66-12-19.42-24.2-25.2-38.63-.23-.55-1.14-.31-.91.25,5.85,14.59,15.67,26.92,25.45,39.05.38.47,1-.2.66-.67Z"/><path class="cls-1" d="M129.57,84.62a97,97,0,0,0-38.73,22.53c-.44.42.22,1.08.66.66h0a96.07,96.07,0,0,1,38.32-22.28"/><path class="cls-1" d="M123,98.85c.18,1.61-7.82.33-8.74.22-3.27-.37-6.52-.86-9.76-1.41-6-1-11.9-2.26-17.83-3.51-.59-.12-.84.79-.25.91,7.7,1.62,15.42,3.24,23.22,4.35,3.62.52,7.28,1,10.94,1.18,1.25.06,3.57.08,3.36-1.74-.07-.6-1-.6-.94,0Z"/><path class="cls-1" d="M1.9,98.94.72,98.43l-.37.86Q19.12,104,37.53,110c.57.19.82-.72.25-.91q-18.4-6-37.18-10.71c-.49-.13-.87.64-.36.86l1.19.5c.55.23,1-.58.47-.81Z"/><path class="cls-1" d="M23.75,123A419.2,419.2,0,0,1,8.91,75.84a.47.47,0,0,0-.91.25,421.26,421.26,0,0,0,14.84,47.2c.21.56,1.12.32.91-.25Z"/><path class="cls-1" d="M5.72,109.39A290.51,290.51,0,0,1,36,96.73c.57-.2.32-1.11-.25-.91A295.81,295.81,0,0,0,5.24,108.57c-.54.27-.06,1.08.48.82Z"/><path class="cls-1" d="M26.1,113.49C20.52,106.16,14.47,99,9.41,91.28c-.33-.51-1.15,0-.81.47,5.05,7.71,11.11,14.88,16.69,22.22.36.47,1.18,0,.81-.48Z"/><path class="cls-1" d="M11.11,113.87c-.44-.6,0-2.33.31-3a11.74,11.74,0,0,1,.84-1.28c.7-1,1.43-2,2.2-3a47.47,47.47,0,0,1,4.42-4.77,48.33,48.33,0,0,1,10.79-7.63c.53-.28.06-1.09-.48-.81a49.14,49.14,0,0,0-13.14,9.95,47.07,47.07,0,0,0-4.81,6.08c-1,1.46-2.15,3.24-1,4.88.36.49,1.18,0,.82-.47Z"/><path class="cls-1" d="M30.86,111.55c-.22-2.21-2.49-3.06-4.22-4-2.67-1.51-5.38-3-8-4.5A79.54,79.54,0,0,1,2.78,91.84c-.43-.41-1.1.25-.66.67A71.86,71.86,0,0,0,15,102c2.3,1.37,4.63,2.67,7,4,1.28.71,2.57,1.42,3.85,2.15s3.92,1.69,4.1,3.42c.06.6,1,.6.94,0Z"/></svg>